%TF.GenerationSoftware,KiCad,Pcbnew,9.0.2*%
%TF.CreationDate,2025-06-23T22:31:53+02:00*%
%TF.ProjectId,Board,426f6172-642e-46b6-9963-61645f706362,rev?*%
%TF.SameCoordinates,Original*%
%TF.FileFunction,Soldermask,Top*%
%TF.FilePolarity,Negative*%
%FSLAX46Y46*%
G04 Gerber Fmt 4.6, Leading zero omitted, Abs format (unit mm)*
G04 Created by KiCad (PCBNEW 9.0.2) date 2025-06-23 22:31:53*
%MOMM*%
%LPD*%
G01*
G04 APERTURE LIST*
G04 APERTURE END LIST*
G36*
X94253323Y-93032637D02*
G01*
X94257336Y-93034408D01*
X94261302Y-93034931D01*
X94310889Y-93058054D01*
X94349977Y-93075313D01*
X94351792Y-93077128D01*
X94352182Y-93077310D01*
X94422689Y-93147817D01*
X94422870Y-93148206D01*
X94424687Y-93150023D01*
X94441955Y-93189132D01*
X94465068Y-93238697D01*
X94465589Y-93242661D01*
X94467363Y-93246677D01*
X94475000Y-93312500D01*
X94475000Y-93787500D01*
X94467363Y-93853323D01*
X94465589Y-93857339D01*
X94465068Y-93861302D01*
X94441963Y-93910848D01*
X94424687Y-93949977D01*
X94422869Y-93951794D01*
X94422689Y-93952182D01*
X94352182Y-94022689D01*
X94351794Y-94022869D01*
X94349977Y-94024687D01*
X94310848Y-94041963D01*
X94261302Y-94065068D01*
X94257339Y-94065589D01*
X94253323Y-94067363D01*
X94187500Y-94075000D01*
X93587500Y-94075000D01*
X93521677Y-94067363D01*
X93517661Y-94065589D01*
X93513697Y-94065068D01*
X93464132Y-94041955D01*
X93425023Y-94024687D01*
X93423206Y-94022870D01*
X93422817Y-94022689D01*
X93352310Y-93952182D01*
X93352128Y-93951792D01*
X93350313Y-93949977D01*
X93333054Y-93910889D01*
X93309931Y-93861302D01*
X93309408Y-93857336D01*
X93307637Y-93853323D01*
X93300000Y-93787500D01*
X93300000Y-93312500D01*
X93307637Y-93246677D01*
X93309408Y-93242664D01*
X93309931Y-93238697D01*
X93333062Y-93189091D01*
X93350313Y-93150023D01*
X93352127Y-93148208D01*
X93352310Y-93147817D01*
X93422817Y-93077310D01*
X93423208Y-93077127D01*
X93425023Y-93075313D01*
X93464091Y-93058062D01*
X93513697Y-93034931D01*
X93517664Y-93034408D01*
X93521677Y-93032637D01*
X93587500Y-93025000D01*
X94187500Y-93025000D01*
X94253323Y-93032637D01*
G37*
G36*
X95978323Y-93032637D02*
G01*
X95982336Y-93034408D01*
X95986302Y-93034931D01*
X96035889Y-93058054D01*
X96074977Y-93075313D01*
X96076792Y-93077128D01*
X96077182Y-93077310D01*
X96147689Y-93147817D01*
X96147870Y-93148206D01*
X96149687Y-93150023D01*
X96166955Y-93189132D01*
X96190068Y-93238697D01*
X96190589Y-93242661D01*
X96192363Y-93246677D01*
X96200000Y-93312500D01*
X96200000Y-93787500D01*
X96192363Y-93853323D01*
X96190589Y-93857339D01*
X96190068Y-93861302D01*
X96166963Y-93910848D01*
X96149687Y-93949977D01*
X96147869Y-93951794D01*
X96147689Y-93952182D01*
X96077182Y-94022689D01*
X96076794Y-94022869D01*
X96074977Y-94024687D01*
X96035848Y-94041963D01*
X95986302Y-94065068D01*
X95982339Y-94065589D01*
X95978323Y-94067363D01*
X95912500Y-94075000D01*
X95312500Y-94075000D01*
X95246677Y-94067363D01*
X95242661Y-94065589D01*
X95238697Y-94065068D01*
X95189132Y-94041955D01*
X95150023Y-94024687D01*
X95148206Y-94022870D01*
X95147817Y-94022689D01*
X95077310Y-93952182D01*
X95077128Y-93951792D01*
X95075313Y-93949977D01*
X95058054Y-93910889D01*
X95034931Y-93861302D01*
X95034408Y-93857336D01*
X95032637Y-93853323D01*
X95025000Y-93787500D01*
X95025000Y-93312500D01*
X95032637Y-93246677D01*
X95034408Y-93242664D01*
X95034931Y-93238697D01*
X95058062Y-93189091D01*
X95075313Y-93150023D01*
X95077127Y-93148208D01*
X95077310Y-93147817D01*
X95147817Y-93077310D01*
X95148208Y-93077127D01*
X95150023Y-93075313D01*
X95189091Y-93058062D01*
X95238697Y-93034931D01*
X95242664Y-93034408D01*
X95246677Y-93032637D01*
X95312500Y-93025000D01*
X95912500Y-93025000D01*
X95978323Y-93032637D01*
G37*
G36*
X77753323Y-90882637D02*
G01*
X77757336Y-90884408D01*
X77761302Y-90884931D01*
X77810889Y-90908054D01*
X77849977Y-90925313D01*
X77851792Y-90927128D01*
X77852182Y-90927310D01*
X77922689Y-90997817D01*
X77922870Y-90998206D01*
X77924687Y-91000023D01*
X77941955Y-91039132D01*
X77965068Y-91088697D01*
X77965589Y-91092661D01*
X77967363Y-91096677D01*
X77975000Y-91162500D01*
X77975000Y-91637500D01*
X77967363Y-91703323D01*
X77965589Y-91707339D01*
X77965068Y-91711302D01*
X77941963Y-91760848D01*
X77924687Y-91799977D01*
X77922869Y-91801794D01*
X77922689Y-91802182D01*
X77852182Y-91872689D01*
X77851794Y-91872869D01*
X77849977Y-91874687D01*
X77810848Y-91891963D01*
X77761302Y-91915068D01*
X77757339Y-91915589D01*
X77753323Y-91917363D01*
X77687500Y-91925000D01*
X77087500Y-91925000D01*
X77021677Y-91917363D01*
X77017661Y-91915589D01*
X77013697Y-91915068D01*
X76964132Y-91891955D01*
X76925023Y-91874687D01*
X76923206Y-91872870D01*
X76922817Y-91872689D01*
X76852310Y-91802182D01*
X76852128Y-91801792D01*
X76850313Y-91799977D01*
X76833054Y-91760889D01*
X76809931Y-91711302D01*
X76809408Y-91707336D01*
X76807637Y-91703323D01*
X76800000Y-91637500D01*
X76800000Y-91162500D01*
X76807637Y-91096677D01*
X76809408Y-91092664D01*
X76809931Y-91088697D01*
X76833062Y-91039091D01*
X76850313Y-91000023D01*
X76852127Y-90998208D01*
X76852310Y-90997817D01*
X76922817Y-90927310D01*
X76923208Y-90927127D01*
X76925023Y-90925313D01*
X76964091Y-90908062D01*
X77013697Y-90884931D01*
X77017664Y-90884408D01*
X77021677Y-90882637D01*
X77087500Y-90875000D01*
X77687500Y-90875000D01*
X77753323Y-90882637D01*
G37*
G36*
X79478323Y-90882637D02*
G01*
X79482336Y-90884408D01*
X79486302Y-90884931D01*
X79535889Y-90908054D01*
X79574977Y-90925313D01*
X79576792Y-90927128D01*
X79577182Y-90927310D01*
X79647689Y-90997817D01*
X79647870Y-90998206D01*
X79649687Y-91000023D01*
X79666955Y-91039132D01*
X79690068Y-91088697D01*
X79690589Y-91092661D01*
X79692363Y-91096677D01*
X79700000Y-91162500D01*
X79700000Y-91637500D01*
X79692363Y-91703323D01*
X79690589Y-91707339D01*
X79690068Y-91711302D01*
X79666963Y-91760848D01*
X79649687Y-91799977D01*
X79647869Y-91801794D01*
X79647689Y-91802182D01*
X79577182Y-91872689D01*
X79576794Y-91872869D01*
X79574977Y-91874687D01*
X79535848Y-91891963D01*
X79486302Y-91915068D01*
X79482339Y-91915589D01*
X79478323Y-91917363D01*
X79412500Y-91925000D01*
X78812500Y-91925000D01*
X78746677Y-91917363D01*
X78742661Y-91915589D01*
X78738697Y-91915068D01*
X78689132Y-91891955D01*
X78650023Y-91874687D01*
X78648206Y-91872870D01*
X78647817Y-91872689D01*
X78577310Y-91802182D01*
X78577128Y-91801792D01*
X78575313Y-91799977D01*
X78558054Y-91760889D01*
X78534931Y-91711302D01*
X78534408Y-91707336D01*
X78532637Y-91703323D01*
X78525000Y-91637500D01*
X78525000Y-91162500D01*
X78532637Y-91096677D01*
X78534408Y-91092664D01*
X78534931Y-91088697D01*
X78558062Y-91039091D01*
X78575313Y-91000023D01*
X78577127Y-90998208D01*
X78577310Y-90997817D01*
X78647817Y-90927310D01*
X78648208Y-90927127D01*
X78650023Y-90925313D01*
X78689091Y-90908062D01*
X78738697Y-90884931D01*
X78742664Y-90884408D01*
X78746677Y-90882637D01*
X78812500Y-90875000D01*
X79412500Y-90875000D01*
X79478323Y-90882637D01*
G37*
G36*
X103603323Y-90582662D02*
G01*
X103607336Y-90584433D01*
X103611302Y-90584956D01*
X103660889Y-90608079D01*
X103699977Y-90625338D01*
X103701792Y-90627153D01*
X103702182Y-90627335D01*
X103772689Y-90697842D01*
X103772870Y-90698231D01*
X103774687Y-90700048D01*
X103791955Y-90739157D01*
X103815068Y-90788722D01*
X103815589Y-90792686D01*
X103817363Y-90796702D01*
X103825000Y-90862525D01*
X103825000Y-91462525D01*
X103817363Y-91528348D01*
X103815589Y-91532364D01*
X103815068Y-91536327D01*
X103791963Y-91585873D01*
X103774687Y-91625002D01*
X103772869Y-91626819D01*
X103772689Y-91627207D01*
X103702182Y-91697714D01*
X103701794Y-91697894D01*
X103699977Y-91699712D01*
X103660848Y-91716988D01*
X103611302Y-91740093D01*
X103607339Y-91740614D01*
X103603323Y-91742388D01*
X103537500Y-91750025D01*
X103062500Y-91750025D01*
X102996677Y-91742388D01*
X102992661Y-91740614D01*
X102988697Y-91740093D01*
X102939132Y-91716980D01*
X102900023Y-91699712D01*
X102898206Y-91697895D01*
X102897817Y-91697714D01*
X102827310Y-91627207D01*
X102827128Y-91626817D01*
X102825313Y-91625002D01*
X102808054Y-91585914D01*
X102784931Y-91536327D01*
X102784408Y-91532361D01*
X102782637Y-91528348D01*
X102775000Y-91462525D01*
X102775000Y-90862525D01*
X102782637Y-90796702D01*
X102784408Y-90792689D01*
X102784931Y-90788722D01*
X102808062Y-90739116D01*
X102825313Y-90700048D01*
X102827127Y-90698233D01*
X102827310Y-90697842D01*
X102897817Y-90627335D01*
X102898208Y-90627152D01*
X102900023Y-90625338D01*
X102939091Y-90608087D01*
X102988697Y-90584956D01*
X102992664Y-90584433D01*
X102996677Y-90582662D01*
X103062500Y-90575025D01*
X103537500Y-90575025D01*
X103603323Y-90582662D01*
G37*
G36*
X105503323Y-90582662D02*
G01*
X105507336Y-90584433D01*
X105511302Y-90584956D01*
X105560889Y-90608079D01*
X105599977Y-90625338D01*
X105601792Y-90627153D01*
X105602182Y-90627335D01*
X105672689Y-90697842D01*
X105672870Y-90698231D01*
X105674687Y-90700048D01*
X105691955Y-90739157D01*
X105715068Y-90788722D01*
X105715589Y-90792686D01*
X105717363Y-90796702D01*
X105725000Y-90862525D01*
X105725000Y-91462525D01*
X105717363Y-91528348D01*
X105715589Y-91532364D01*
X105715068Y-91536327D01*
X105691963Y-91585873D01*
X105674687Y-91625002D01*
X105672869Y-91626819D01*
X105672689Y-91627207D01*
X105602182Y-91697714D01*
X105601794Y-91697894D01*
X105599977Y-91699712D01*
X105560848Y-91716988D01*
X105511302Y-91740093D01*
X105507339Y-91740614D01*
X105503323Y-91742388D01*
X105437500Y-91750025D01*
X104962500Y-91750025D01*
X104896677Y-91742388D01*
X104892661Y-91740614D01*
X104888697Y-91740093D01*
X104839132Y-91716980D01*
X104800023Y-91699712D01*
X104798206Y-91697895D01*
X104797817Y-91697714D01*
X104727310Y-91627207D01*
X104727128Y-91626817D01*
X104725313Y-91625002D01*
X104708054Y-91585914D01*
X104684931Y-91536327D01*
X104684408Y-91532361D01*
X104682637Y-91528348D01*
X104675000Y-91462525D01*
X104675000Y-90862525D01*
X104682637Y-90796702D01*
X104684408Y-90792689D01*
X104684931Y-90788722D01*
X104708062Y-90739116D01*
X104725313Y-90700048D01*
X104727127Y-90698233D01*
X104727310Y-90697842D01*
X104797817Y-90627335D01*
X104798208Y-90627152D01*
X104800023Y-90625338D01*
X104839091Y-90608087D01*
X104888697Y-90584956D01*
X104892664Y-90584433D01*
X104896677Y-90582662D01*
X104962500Y-90575025D01*
X105437500Y-90575025D01*
X105503323Y-90582662D01*
G37*
G36*
X103603323Y-88857662D02*
G01*
X103607336Y-88859433D01*
X103611302Y-88859956D01*
X103660889Y-88883079D01*
X103699977Y-88900338D01*
X103701792Y-88902153D01*
X103702182Y-88902335D01*
X103772689Y-88972842D01*
X103772870Y-88973231D01*
X103774687Y-88975048D01*
X103791955Y-89014157D01*
X103815068Y-89063722D01*
X103815589Y-89067686D01*
X103817363Y-89071702D01*
X103825000Y-89137525D01*
X103825000Y-89737525D01*
X103817363Y-89803348D01*
X103815589Y-89807364D01*
X103815068Y-89811327D01*
X103791963Y-89860873D01*
X103774687Y-89900002D01*
X103772869Y-89901819D01*
X103772689Y-89902207D01*
X103702182Y-89972714D01*
X103701794Y-89972894D01*
X103699977Y-89974712D01*
X103660848Y-89991988D01*
X103611302Y-90015093D01*
X103607339Y-90015614D01*
X103603323Y-90017388D01*
X103537500Y-90025025D01*
X103062500Y-90025025D01*
X102996677Y-90017388D01*
X102992661Y-90015614D01*
X102988697Y-90015093D01*
X102939132Y-89991980D01*
X102900023Y-89974712D01*
X102898206Y-89972895D01*
X102897817Y-89972714D01*
X102827310Y-89902207D01*
X102827128Y-89901817D01*
X102825313Y-89900002D01*
X102808054Y-89860914D01*
X102784931Y-89811327D01*
X102784408Y-89807361D01*
X102782637Y-89803348D01*
X102775000Y-89737525D01*
X102775000Y-89137525D01*
X102782637Y-89071702D01*
X102784408Y-89067689D01*
X102784931Y-89063722D01*
X102808062Y-89014116D01*
X102825313Y-88975048D01*
X102827127Y-88973233D01*
X102827310Y-88972842D01*
X102897817Y-88902335D01*
X102898208Y-88902152D01*
X102900023Y-88900338D01*
X102939091Y-88883087D01*
X102988697Y-88859956D01*
X102992664Y-88859433D01*
X102996677Y-88857662D01*
X103062500Y-88850025D01*
X103537500Y-88850025D01*
X103603323Y-88857662D01*
G37*
G36*
X105503323Y-88857662D02*
G01*
X105507336Y-88859433D01*
X105511302Y-88859956D01*
X105560889Y-88883079D01*
X105599977Y-88900338D01*
X105601792Y-88902153D01*
X105602182Y-88902335D01*
X105672689Y-88972842D01*
X105672870Y-88973231D01*
X105674687Y-88975048D01*
X105691955Y-89014157D01*
X105715068Y-89063722D01*
X105715589Y-89067686D01*
X105717363Y-89071702D01*
X105725000Y-89137525D01*
X105725000Y-89737525D01*
X105717363Y-89803348D01*
X105715589Y-89807364D01*
X105715068Y-89811327D01*
X105691963Y-89860873D01*
X105674687Y-89900002D01*
X105672869Y-89901819D01*
X105672689Y-89902207D01*
X105602182Y-89972714D01*
X105601794Y-89972894D01*
X105599977Y-89974712D01*
X105560848Y-89991988D01*
X105511302Y-90015093D01*
X105507339Y-90015614D01*
X105503323Y-90017388D01*
X105437500Y-90025025D01*
X104962500Y-90025025D01*
X104896677Y-90017388D01*
X104892661Y-90015614D01*
X104888697Y-90015093D01*
X104839132Y-89991980D01*
X104800023Y-89974712D01*
X104798206Y-89972895D01*
X104797817Y-89972714D01*
X104727310Y-89902207D01*
X104727128Y-89901817D01*
X104725313Y-89900002D01*
X104708054Y-89860914D01*
X104684931Y-89811327D01*
X104684408Y-89807361D01*
X104682637Y-89803348D01*
X104675000Y-89737525D01*
X104675000Y-89137525D01*
X104682637Y-89071702D01*
X104684408Y-89067689D01*
X104684931Y-89063722D01*
X104708062Y-89014116D01*
X104725313Y-88975048D01*
X104727127Y-88973233D01*
X104727310Y-88972842D01*
X104797817Y-88902335D01*
X104798208Y-88902152D01*
X104800023Y-88900338D01*
X104839091Y-88883087D01*
X104888697Y-88859956D01*
X104892664Y-88859433D01*
X104896677Y-88857662D01*
X104962500Y-88850025D01*
X105437500Y-88850025D01*
X105503323Y-88857662D01*
G37*
G36*
X82693376Y-87205056D02*
G01*
X82702918Y-87205056D01*
X82740198Y-87212471D01*
X82845102Y-87229086D01*
X82878849Y-87240051D01*
X82904799Y-87245213D01*
X82941416Y-87260380D01*
X83001787Y-87279996D01*
X83058341Y-87308812D01*
X83094967Y-87323983D01*
X83116972Y-87338686D01*
X83148579Y-87354791D01*
X83234496Y-87417213D01*
X83266113Y-87438339D01*
X83272860Y-87445086D01*
X83281871Y-87451633D01*
X83398366Y-87568128D01*
X83404912Y-87577138D01*
X83411661Y-87583887D01*
X83432789Y-87615507D01*
X83495208Y-87701420D01*
X83511311Y-87733024D01*
X83526017Y-87755033D01*
X83541189Y-87791663D01*
X83570003Y-87848212D01*
X83589616Y-87908575D01*
X83604787Y-87945201D01*
X83609949Y-87971155D01*
X83620913Y-88004897D01*
X83637526Y-88109793D01*
X83644944Y-88147082D01*
X83644944Y-88156624D01*
X83646686Y-88167623D01*
X83646686Y-88332376D01*
X83644944Y-88343374D01*
X83644944Y-88352918D01*
X83637526Y-88390210D01*
X83620913Y-88495102D01*
X83609950Y-88528842D01*
X83604787Y-88554799D01*
X83589614Y-88591427D01*
X83570003Y-88651787D01*
X83541192Y-88708331D01*
X83526017Y-88744967D01*
X83511309Y-88766978D01*
X83495208Y-88798579D01*
X83432797Y-88884479D01*
X83411661Y-88916113D01*
X83404909Y-88922864D01*
X83398366Y-88931871D01*
X83281871Y-89048366D01*
X83272864Y-89054909D01*
X83266113Y-89061661D01*
X83234479Y-89082797D01*
X83148579Y-89145208D01*
X83116978Y-89161309D01*
X83094967Y-89176017D01*
X83058331Y-89191192D01*
X83001787Y-89220003D01*
X82941427Y-89239614D01*
X82904799Y-89254787D01*
X82878842Y-89259950D01*
X82845102Y-89270913D01*
X82740207Y-89287526D01*
X82702918Y-89294944D01*
X82693376Y-89294944D01*
X82682377Y-89296686D01*
X82517623Y-89296686D01*
X82506624Y-89294944D01*
X82497082Y-89294944D01*
X82459793Y-89287526D01*
X82354897Y-89270913D01*
X82321155Y-89259949D01*
X82295201Y-89254787D01*
X82258575Y-89239616D01*
X82198212Y-89220003D01*
X82141663Y-89191189D01*
X82105033Y-89176017D01*
X82083024Y-89161311D01*
X82051420Y-89145208D01*
X81965507Y-89082789D01*
X81933887Y-89061661D01*
X81927138Y-89054912D01*
X81918128Y-89048366D01*
X81801633Y-88931871D01*
X81795086Y-88922860D01*
X81788339Y-88916113D01*
X81767213Y-88884496D01*
X81704791Y-88798579D01*
X81688686Y-88766972D01*
X81673983Y-88744967D01*
X81658812Y-88708341D01*
X81629996Y-88651787D01*
X81610380Y-88591416D01*
X81595213Y-88554799D01*
X81590051Y-88528849D01*
X81579086Y-88495102D01*
X81562472Y-88390201D01*
X81555056Y-88352918D01*
X81555056Y-88343375D01*
X81553314Y-88332376D01*
X81553314Y-88167623D01*
X81555056Y-88156623D01*
X81555056Y-88147082D01*
X81562471Y-88109802D01*
X81579086Y-88004897D01*
X81590051Y-87971147D01*
X81595213Y-87945201D01*
X81610379Y-87908586D01*
X81629996Y-87848212D01*
X81658814Y-87791653D01*
X81673983Y-87755033D01*
X81688684Y-87733031D01*
X81704791Y-87701420D01*
X81767222Y-87615490D01*
X81788339Y-87583887D01*
X81795083Y-87577142D01*
X81801633Y-87568128D01*
X81918128Y-87451633D01*
X81927142Y-87445083D01*
X81933887Y-87438339D01*
X81965490Y-87417222D01*
X82051420Y-87354791D01*
X82083031Y-87338684D01*
X82105033Y-87323983D01*
X82141653Y-87308814D01*
X82198212Y-87279996D01*
X82258586Y-87260379D01*
X82295201Y-87245213D01*
X82321147Y-87240051D01*
X82354897Y-87229086D01*
X82459802Y-87212471D01*
X82497082Y-87205056D01*
X82506624Y-87205056D01*
X82517623Y-87203314D01*
X82682377Y-87203314D01*
X82693376Y-87205056D01*
G37*
G36*
X90303323Y-87722662D02*
G01*
X90307336Y-87724433D01*
X90311302Y-87724956D01*
X90360889Y-87748079D01*
X90399977Y-87765338D01*
X90401792Y-87767153D01*
X90402182Y-87767335D01*
X90472689Y-87837842D01*
X90472870Y-87838231D01*
X90474687Y-87840048D01*
X90491955Y-87879157D01*
X90515068Y-87928722D01*
X90515589Y-87932686D01*
X90517363Y-87936702D01*
X90525000Y-88002525D01*
X90525000Y-88602525D01*
X90517363Y-88668348D01*
X90515589Y-88672364D01*
X90515068Y-88676327D01*
X90491963Y-88725873D01*
X90474687Y-88765002D01*
X90472869Y-88766819D01*
X90472689Y-88767207D01*
X90402182Y-88837714D01*
X90401794Y-88837894D01*
X90399977Y-88839712D01*
X90360848Y-88856988D01*
X90311302Y-88880093D01*
X90307339Y-88880614D01*
X90303323Y-88882388D01*
X90237500Y-88890025D01*
X89762500Y-88890025D01*
X89696677Y-88882388D01*
X89692661Y-88880614D01*
X89688697Y-88880093D01*
X89639132Y-88856980D01*
X89600023Y-88839712D01*
X89598206Y-88837895D01*
X89597817Y-88837714D01*
X89527310Y-88767207D01*
X89527128Y-88766817D01*
X89525313Y-88765002D01*
X89508054Y-88725914D01*
X89484931Y-88676327D01*
X89484408Y-88672361D01*
X89482637Y-88668348D01*
X89475000Y-88602525D01*
X89475000Y-88002525D01*
X89482637Y-87936702D01*
X89484408Y-87932689D01*
X89484931Y-87928722D01*
X89508062Y-87879116D01*
X89525313Y-87840048D01*
X89527127Y-87838233D01*
X89527310Y-87837842D01*
X89597817Y-87767335D01*
X89598208Y-87767152D01*
X89600023Y-87765338D01*
X89639091Y-87748087D01*
X89688697Y-87724956D01*
X89692664Y-87724433D01*
X89696677Y-87722662D01*
X89762500Y-87715025D01*
X90237500Y-87715025D01*
X90303323Y-87722662D01*
G37*
G36*
X92003323Y-87722662D02*
G01*
X92007336Y-87724433D01*
X92011302Y-87724956D01*
X92060889Y-87748079D01*
X92099977Y-87765338D01*
X92101792Y-87767153D01*
X92102182Y-87767335D01*
X92172689Y-87837842D01*
X92172870Y-87838231D01*
X92174687Y-87840048D01*
X92191955Y-87879157D01*
X92215068Y-87928722D01*
X92215589Y-87932686D01*
X92217363Y-87936702D01*
X92225000Y-88002525D01*
X92225000Y-88602525D01*
X92217363Y-88668348D01*
X92215589Y-88672364D01*
X92215068Y-88676327D01*
X92191963Y-88725873D01*
X92174687Y-88765002D01*
X92172869Y-88766819D01*
X92172689Y-88767207D01*
X92102182Y-88837714D01*
X92101794Y-88837894D01*
X92099977Y-88839712D01*
X92060848Y-88856988D01*
X92011302Y-88880093D01*
X92007339Y-88880614D01*
X92003323Y-88882388D01*
X91937500Y-88890025D01*
X91462500Y-88890025D01*
X91396677Y-88882388D01*
X91392661Y-88880614D01*
X91388697Y-88880093D01*
X91339132Y-88856980D01*
X91300023Y-88839712D01*
X91298206Y-88837895D01*
X91297817Y-88837714D01*
X91227310Y-88767207D01*
X91227128Y-88766817D01*
X91225313Y-88765002D01*
X91208054Y-88725914D01*
X91184931Y-88676327D01*
X91184408Y-88672361D01*
X91182637Y-88668348D01*
X91175000Y-88602525D01*
X91175000Y-88002525D01*
X91182637Y-87936702D01*
X91184408Y-87932689D01*
X91184931Y-87928722D01*
X91208062Y-87879116D01*
X91225313Y-87840048D01*
X91227127Y-87838233D01*
X91227310Y-87837842D01*
X91297817Y-87767335D01*
X91298208Y-87767152D01*
X91300023Y-87765338D01*
X91339091Y-87748087D01*
X91388697Y-87724956D01*
X91392664Y-87724433D01*
X91396677Y-87722662D01*
X91462500Y-87715025D01*
X91937500Y-87715025D01*
X92003323Y-87722662D01*
G37*
G36*
X90303323Y-85997662D02*
G01*
X90307336Y-85999433D01*
X90311302Y-85999956D01*
X90360889Y-86023079D01*
X90399977Y-86040338D01*
X90401792Y-86042153D01*
X90402182Y-86042335D01*
X90472689Y-86112842D01*
X90472870Y-86113231D01*
X90474687Y-86115048D01*
X90491955Y-86154157D01*
X90515068Y-86203722D01*
X90515589Y-86207686D01*
X90517363Y-86211702D01*
X90525000Y-86277525D01*
X90525000Y-86877525D01*
X90517363Y-86943348D01*
X90515589Y-86947364D01*
X90515068Y-86951327D01*
X90491963Y-87000873D01*
X90474687Y-87040002D01*
X90472869Y-87041819D01*
X90472689Y-87042207D01*
X90402182Y-87112714D01*
X90401794Y-87112894D01*
X90399977Y-87114712D01*
X90360848Y-87131988D01*
X90311302Y-87155093D01*
X90307339Y-87155614D01*
X90303323Y-87157388D01*
X90237500Y-87165025D01*
X89762500Y-87165025D01*
X89696677Y-87157388D01*
X89692661Y-87155614D01*
X89688697Y-87155093D01*
X89639132Y-87131980D01*
X89600023Y-87114712D01*
X89598206Y-87112895D01*
X89597817Y-87112714D01*
X89527310Y-87042207D01*
X89527128Y-87041817D01*
X89525313Y-87040002D01*
X89508054Y-87000914D01*
X89484931Y-86951327D01*
X89484408Y-86947361D01*
X89482637Y-86943348D01*
X89475000Y-86877525D01*
X89475000Y-86277525D01*
X89482637Y-86211702D01*
X89484408Y-86207689D01*
X89484931Y-86203722D01*
X89508062Y-86154116D01*
X89525313Y-86115048D01*
X89527127Y-86113233D01*
X89527310Y-86112842D01*
X89597817Y-86042335D01*
X89598208Y-86042152D01*
X89600023Y-86040338D01*
X89639091Y-86023087D01*
X89688697Y-85999956D01*
X89692664Y-85999433D01*
X89696677Y-85997662D01*
X89762500Y-85990025D01*
X90237500Y-85990025D01*
X90303323Y-85997662D01*
G37*
G36*
X92003323Y-85997662D02*
G01*
X92007336Y-85999433D01*
X92011302Y-85999956D01*
X92060889Y-86023079D01*
X92099977Y-86040338D01*
X92101792Y-86042153D01*
X92102182Y-86042335D01*
X92172689Y-86112842D01*
X92172870Y-86113231D01*
X92174687Y-86115048D01*
X92191955Y-86154157D01*
X92215068Y-86203722D01*
X92215589Y-86207686D01*
X92217363Y-86211702D01*
X92225000Y-86277525D01*
X92225000Y-86877525D01*
X92217363Y-86943348D01*
X92215589Y-86947364D01*
X92215068Y-86951327D01*
X92191963Y-87000873D01*
X92174687Y-87040002D01*
X92172869Y-87041819D01*
X92172689Y-87042207D01*
X92102182Y-87112714D01*
X92101794Y-87112894D01*
X92099977Y-87114712D01*
X92060848Y-87131988D01*
X92011302Y-87155093D01*
X92007339Y-87155614D01*
X92003323Y-87157388D01*
X91937500Y-87165025D01*
X91462500Y-87165025D01*
X91396677Y-87157388D01*
X91392661Y-87155614D01*
X91388697Y-87155093D01*
X91339132Y-87131980D01*
X91300023Y-87114712D01*
X91298206Y-87112895D01*
X91297817Y-87112714D01*
X91227310Y-87042207D01*
X91227128Y-87041817D01*
X91225313Y-87040002D01*
X91208054Y-87000914D01*
X91184931Y-86951327D01*
X91184408Y-86947361D01*
X91182637Y-86943348D01*
X91175000Y-86877525D01*
X91175000Y-86277525D01*
X91182637Y-86211702D01*
X91184408Y-86207689D01*
X91184931Y-86203722D01*
X91208062Y-86154116D01*
X91225313Y-86115048D01*
X91227127Y-86113233D01*
X91227310Y-86112842D01*
X91297817Y-86042335D01*
X91298208Y-86042152D01*
X91300023Y-86040338D01*
X91339091Y-86023087D01*
X91388697Y-85999956D01*
X91392664Y-85999433D01*
X91396677Y-85997662D01*
X91462500Y-85990025D01*
X91937500Y-85990025D01*
X92003323Y-85997662D01*
G37*
G36*
X94803323Y-81032637D02*
G01*
X94807336Y-81034408D01*
X94811302Y-81034931D01*
X94860889Y-81058054D01*
X94899977Y-81075313D01*
X94901792Y-81077128D01*
X94902182Y-81077310D01*
X94972689Y-81147817D01*
X94972870Y-81148206D01*
X94974687Y-81150023D01*
X94991955Y-81189132D01*
X95015068Y-81238697D01*
X95015589Y-81242661D01*
X95017363Y-81246677D01*
X95025000Y-81312500D01*
X95025000Y-81787500D01*
X95017363Y-81853323D01*
X95015589Y-81857339D01*
X95015068Y-81861302D01*
X94991963Y-81910848D01*
X94974687Y-81949977D01*
X94972869Y-81951794D01*
X94972689Y-81952182D01*
X94902182Y-82022689D01*
X94901794Y-82022869D01*
X94899977Y-82024687D01*
X94860848Y-82041963D01*
X94811302Y-82065068D01*
X94807339Y-82065589D01*
X94803323Y-82067363D01*
X94737500Y-82075000D01*
X94137500Y-82075000D01*
X94071677Y-82067363D01*
X94067661Y-82065589D01*
X94063697Y-82065068D01*
X94014132Y-82041955D01*
X93975023Y-82024687D01*
X93973206Y-82022870D01*
X93972817Y-82022689D01*
X93902310Y-81952182D01*
X93902128Y-81951792D01*
X93900313Y-81949977D01*
X93883054Y-81910889D01*
X93859931Y-81861302D01*
X93859408Y-81857336D01*
X93857637Y-81853323D01*
X93850000Y-81787500D01*
X93850000Y-81312500D01*
X93857637Y-81246677D01*
X93859408Y-81242664D01*
X93859931Y-81238697D01*
X93883062Y-81189091D01*
X93900313Y-81150023D01*
X93902127Y-81148208D01*
X93902310Y-81147817D01*
X93972817Y-81077310D01*
X93973208Y-81077127D01*
X93975023Y-81075313D01*
X94014091Y-81058062D01*
X94063697Y-81034931D01*
X94067664Y-81034408D01*
X94071677Y-81032637D01*
X94137500Y-81025000D01*
X94737500Y-81025000D01*
X94803323Y-81032637D01*
G37*
G36*
X96528323Y-81032637D02*
G01*
X96532336Y-81034408D01*
X96536302Y-81034931D01*
X96585889Y-81058054D01*
X96624977Y-81075313D01*
X96626792Y-81077128D01*
X96627182Y-81077310D01*
X96697689Y-81147817D01*
X96697870Y-81148206D01*
X96699687Y-81150023D01*
X96716955Y-81189132D01*
X96740068Y-81238697D01*
X96740589Y-81242661D01*
X96742363Y-81246677D01*
X96750000Y-81312500D01*
X96750000Y-81787500D01*
X96742363Y-81853323D01*
X96740589Y-81857339D01*
X96740068Y-81861302D01*
X96716963Y-81910848D01*
X96699687Y-81949977D01*
X96697869Y-81951794D01*
X96697689Y-81952182D01*
X96627182Y-82022689D01*
X96626794Y-82022869D01*
X96624977Y-82024687D01*
X96585848Y-82041963D01*
X96536302Y-82065068D01*
X96532339Y-82065589D01*
X96528323Y-82067363D01*
X96462500Y-82075000D01*
X95862500Y-82075000D01*
X95796677Y-82067363D01*
X95792661Y-82065589D01*
X95788697Y-82065068D01*
X95739132Y-82041955D01*
X95700023Y-82024687D01*
X95698206Y-82022870D01*
X95697817Y-82022689D01*
X95627310Y-81952182D01*
X95627128Y-81951792D01*
X95625313Y-81949977D01*
X95608054Y-81910889D01*
X95584931Y-81861302D01*
X95584408Y-81857336D01*
X95582637Y-81853323D01*
X95575000Y-81787500D01*
X95575000Y-81312500D01*
X95582637Y-81246677D01*
X95584408Y-81242664D01*
X95584931Y-81238697D01*
X95608062Y-81189091D01*
X95625313Y-81150023D01*
X95627127Y-81148208D01*
X95627310Y-81147817D01*
X95697817Y-81077310D01*
X95698208Y-81077127D01*
X95700023Y-81075313D01*
X95739091Y-81058062D01*
X95788697Y-81034931D01*
X95792664Y-81034408D01*
X95796677Y-81032637D01*
X95862500Y-81025000D01*
X96462500Y-81025000D01*
X96528323Y-81032637D01*
G37*
G36*
X70168462Y-79281775D02*
G01*
X70340086Y-79337539D01*
X70500873Y-79419464D01*
X70646865Y-79525533D01*
X70774467Y-79653135D01*
X70880536Y-79799127D01*
X70962461Y-79959914D01*
X71018225Y-80131538D01*
X71046455Y-80309772D01*
X71046455Y-80490228D01*
X71018225Y-80668462D01*
X70962461Y-80840086D01*
X70880536Y-81000873D01*
X70774467Y-81146865D01*
X70646865Y-81274467D01*
X70500873Y-81380536D01*
X70340086Y-81462461D01*
X70168462Y-81518225D01*
X69990228Y-81546455D01*
X69809772Y-81546455D01*
X69631538Y-81518225D01*
X69459914Y-81462461D01*
X69299127Y-81380536D01*
X69153135Y-81274467D01*
X69025533Y-81146865D01*
X68919464Y-81000873D01*
X68837539Y-80840086D01*
X68781775Y-80668462D01*
X68753545Y-80490228D01*
X68753545Y-80309772D01*
X68781775Y-80131538D01*
X68837539Y-79959914D01*
X68919464Y-79799127D01*
X69025533Y-79653135D01*
X69153135Y-79525533D01*
X69299127Y-79419464D01*
X69459914Y-79337539D01*
X69631538Y-79281775D01*
X69809772Y-79253545D01*
X69990228Y-79253545D01*
X70168462Y-79281775D01*
G37*
G36*
X75943376Y-78105056D02*
G01*
X75952918Y-78105056D01*
X75990198Y-78112471D01*
X76095102Y-78129086D01*
X76128849Y-78140051D01*
X76154799Y-78145213D01*
X76191416Y-78160380D01*
X76251787Y-78179996D01*
X76308341Y-78208812D01*
X76344967Y-78223983D01*
X76366972Y-78238686D01*
X76398579Y-78254791D01*
X76484496Y-78317213D01*
X76516113Y-78338339D01*
X76522860Y-78345086D01*
X76531871Y-78351633D01*
X76648366Y-78468128D01*
X76654912Y-78477138D01*
X76661661Y-78483887D01*
X76682789Y-78515507D01*
X76745208Y-78601420D01*
X76761311Y-78633024D01*
X76776017Y-78655033D01*
X76791189Y-78691663D01*
X76820003Y-78748212D01*
X76839616Y-78808575D01*
X76854787Y-78845201D01*
X76859949Y-78871155D01*
X76870913Y-78904897D01*
X76887526Y-79009793D01*
X76894944Y-79047082D01*
X76894944Y-79056624D01*
X76896686Y-79067623D01*
X76896686Y-79232376D01*
X76894944Y-79243374D01*
X76894944Y-79252918D01*
X76887526Y-79290210D01*
X76870913Y-79395102D01*
X76859950Y-79428842D01*
X76854787Y-79454799D01*
X76839614Y-79491427D01*
X76820003Y-79551787D01*
X76791192Y-79608331D01*
X76776017Y-79644967D01*
X76761309Y-79666978D01*
X76745208Y-79698579D01*
X76682797Y-79784479D01*
X76661661Y-79816113D01*
X76654909Y-79822864D01*
X76648366Y-79831871D01*
X76531871Y-79948366D01*
X76522864Y-79954909D01*
X76516113Y-79961661D01*
X76484479Y-79982797D01*
X76398579Y-80045208D01*
X76366978Y-80061309D01*
X76344967Y-80076017D01*
X76308331Y-80091192D01*
X76251787Y-80120003D01*
X76191427Y-80139614D01*
X76154799Y-80154787D01*
X76128842Y-80159950D01*
X76095102Y-80170913D01*
X75990207Y-80187526D01*
X75952918Y-80194944D01*
X75943376Y-80194944D01*
X75932377Y-80196686D01*
X75767623Y-80196686D01*
X75756624Y-80194944D01*
X75747082Y-80194944D01*
X75709793Y-80187526D01*
X75604897Y-80170913D01*
X75571155Y-80159949D01*
X75545201Y-80154787D01*
X75508575Y-80139616D01*
X75448212Y-80120003D01*
X75391663Y-80091189D01*
X75355033Y-80076017D01*
X75333024Y-80061311D01*
X75301420Y-80045208D01*
X75215507Y-79982789D01*
X75183887Y-79961661D01*
X75177138Y-79954912D01*
X75168128Y-79948366D01*
X75051633Y-79831871D01*
X75045086Y-79822860D01*
X75038339Y-79816113D01*
X75017213Y-79784496D01*
X74954791Y-79698579D01*
X74938686Y-79666972D01*
X74923983Y-79644967D01*
X74908812Y-79608341D01*
X74879996Y-79551787D01*
X74860380Y-79491416D01*
X74845213Y-79454799D01*
X74840051Y-79428849D01*
X74829086Y-79395102D01*
X74812472Y-79290201D01*
X74805056Y-79252918D01*
X74805056Y-79243375D01*
X74803314Y-79232376D01*
X74803314Y-79067623D01*
X74805056Y-79056623D01*
X74805056Y-79047082D01*
X74812471Y-79009802D01*
X74829086Y-78904897D01*
X74840051Y-78871147D01*
X74845213Y-78845201D01*
X74860379Y-78808586D01*
X74879996Y-78748212D01*
X74908814Y-78691653D01*
X74923983Y-78655033D01*
X74938684Y-78633031D01*
X74954791Y-78601420D01*
X75017222Y-78515490D01*
X75038339Y-78483887D01*
X75045083Y-78477142D01*
X75051633Y-78468128D01*
X75168128Y-78351633D01*
X75177142Y-78345083D01*
X75183887Y-78338339D01*
X75215490Y-78317222D01*
X75301420Y-78254791D01*
X75333031Y-78238684D01*
X75355033Y-78223983D01*
X75391653Y-78208814D01*
X75448212Y-78179996D01*
X75508586Y-78160379D01*
X75545201Y-78145213D01*
X75571147Y-78140051D01*
X75604897Y-78129086D01*
X75709802Y-78112471D01*
X75747082Y-78105056D01*
X75756624Y-78105056D01*
X75767623Y-78103314D01*
X75932377Y-78103314D01*
X75943376Y-78105056D01*
G37*
G36*
X86703323Y-72682637D02*
G01*
X86707336Y-72684408D01*
X86711302Y-72684931D01*
X86760889Y-72708054D01*
X86799977Y-72725313D01*
X86801792Y-72727128D01*
X86802182Y-72727310D01*
X86872689Y-72797817D01*
X86872870Y-72798206D01*
X86874687Y-72800023D01*
X86891955Y-72839132D01*
X86915068Y-72888697D01*
X86915589Y-72892661D01*
X86917363Y-72896677D01*
X86925000Y-72962500D01*
X86925000Y-73437500D01*
X86917363Y-73503323D01*
X86915589Y-73507339D01*
X86915068Y-73511302D01*
X86891963Y-73560848D01*
X86874687Y-73599977D01*
X86872869Y-73601794D01*
X86872689Y-73602182D01*
X86802182Y-73672689D01*
X86801794Y-73672869D01*
X86799977Y-73674687D01*
X86760848Y-73691963D01*
X86711302Y-73715068D01*
X86707339Y-73715589D01*
X86703323Y-73717363D01*
X86637500Y-73725000D01*
X86037500Y-73725000D01*
X85971677Y-73717363D01*
X85967661Y-73715589D01*
X85963697Y-73715068D01*
X85914132Y-73691955D01*
X85875023Y-73674687D01*
X85873206Y-73672870D01*
X85872817Y-73672689D01*
X85802310Y-73602182D01*
X85802128Y-73601792D01*
X85800313Y-73599977D01*
X85783054Y-73560889D01*
X85759931Y-73511302D01*
X85759408Y-73507336D01*
X85757637Y-73503323D01*
X85750000Y-73437500D01*
X85750000Y-72962500D01*
X85757637Y-72896677D01*
X85759408Y-72892664D01*
X85759931Y-72888697D01*
X85783062Y-72839091D01*
X85800313Y-72800023D01*
X85802127Y-72798208D01*
X85802310Y-72797817D01*
X85872817Y-72727310D01*
X85873208Y-72727127D01*
X85875023Y-72725313D01*
X85914091Y-72708062D01*
X85963697Y-72684931D01*
X85967664Y-72684408D01*
X85971677Y-72682637D01*
X86037500Y-72675000D01*
X86637500Y-72675000D01*
X86703323Y-72682637D01*
G37*
G36*
X88428323Y-72682637D02*
G01*
X88432336Y-72684408D01*
X88436302Y-72684931D01*
X88485889Y-72708054D01*
X88524977Y-72725313D01*
X88526792Y-72727128D01*
X88527182Y-72727310D01*
X88597689Y-72797817D01*
X88597870Y-72798206D01*
X88599687Y-72800023D01*
X88616955Y-72839132D01*
X88640068Y-72888697D01*
X88640589Y-72892661D01*
X88642363Y-72896677D01*
X88650000Y-72962500D01*
X88650000Y-73437500D01*
X88642363Y-73503323D01*
X88640589Y-73507339D01*
X88640068Y-73511302D01*
X88616963Y-73560848D01*
X88599687Y-73599977D01*
X88597869Y-73601794D01*
X88597689Y-73602182D01*
X88527182Y-73672689D01*
X88526794Y-73672869D01*
X88524977Y-73674687D01*
X88485848Y-73691963D01*
X88436302Y-73715068D01*
X88432339Y-73715589D01*
X88428323Y-73717363D01*
X88362500Y-73725000D01*
X87762500Y-73725000D01*
X87696677Y-73717363D01*
X87692661Y-73715589D01*
X87688697Y-73715068D01*
X87639132Y-73691955D01*
X87600023Y-73674687D01*
X87598206Y-73672870D01*
X87597817Y-73672689D01*
X87527310Y-73602182D01*
X87527128Y-73601792D01*
X87525313Y-73599977D01*
X87508054Y-73560889D01*
X87484931Y-73511302D01*
X87484408Y-73507336D01*
X87482637Y-73503323D01*
X87475000Y-73437500D01*
X87475000Y-72962500D01*
X87482637Y-72896677D01*
X87484408Y-72892664D01*
X87484931Y-72888697D01*
X87508062Y-72839091D01*
X87525313Y-72800023D01*
X87527127Y-72798208D01*
X87527310Y-72797817D01*
X87597817Y-72727310D01*
X87598208Y-72727127D01*
X87600023Y-72725313D01*
X87639091Y-72708062D01*
X87688697Y-72684931D01*
X87692664Y-72684408D01*
X87696677Y-72682637D01*
X87762500Y-72675000D01*
X88362500Y-72675000D01*
X88428323Y-72682637D01*
G37*
G36*
X73549957Y-70982637D02*
G01*
X73553970Y-70984408D01*
X73557936Y-70984931D01*
X73607523Y-71008054D01*
X73646611Y-71025313D01*
X73648426Y-71027128D01*
X73648816Y-71027310D01*
X73719323Y-71097817D01*
X73719504Y-71098206D01*
X73721321Y-71100023D01*
X73738589Y-71139132D01*
X73761702Y-71188697D01*
X73762223Y-71192661D01*
X73763997Y-71196677D01*
X73771634Y-71262500D01*
X73771634Y-71737500D01*
X73763997Y-71803323D01*
X73762223Y-71807339D01*
X73761702Y-71811302D01*
X73738597Y-71860848D01*
X73721321Y-71899977D01*
X73719503Y-71901794D01*
X73719323Y-71902182D01*
X73648816Y-71972689D01*
X73648428Y-71972869D01*
X73646611Y-71974687D01*
X73607482Y-71991963D01*
X73557936Y-72015068D01*
X73553973Y-72015589D01*
X73549957Y-72017363D01*
X73484134Y-72025000D01*
X72984134Y-72025000D01*
X72918311Y-72017363D01*
X72914295Y-72015589D01*
X72910331Y-72015068D01*
X72860766Y-71991955D01*
X72821657Y-71974687D01*
X72819840Y-71972870D01*
X72819451Y-71972689D01*
X72748944Y-71902182D01*
X72748762Y-71901792D01*
X72746947Y-71899977D01*
X72729688Y-71860889D01*
X72706565Y-71811302D01*
X72706042Y-71807336D01*
X72704271Y-71803323D01*
X72696634Y-71737500D01*
X72696634Y-71262500D01*
X72704271Y-71196677D01*
X72706042Y-71192664D01*
X72706565Y-71188697D01*
X72729696Y-71139091D01*
X72746947Y-71100023D01*
X72748761Y-71098208D01*
X72748944Y-71097817D01*
X72819451Y-71027310D01*
X72819842Y-71027127D01*
X72821657Y-71025313D01*
X72860725Y-71008062D01*
X72910331Y-70984931D01*
X72914298Y-70984408D01*
X72918311Y-70982637D01*
X72984134Y-70975000D01*
X73484134Y-70975000D01*
X73549957Y-70982637D01*
G37*
G36*
X75374957Y-70982637D02*
G01*
X75378970Y-70984408D01*
X75382936Y-70984931D01*
X75432523Y-71008054D01*
X75471611Y-71025313D01*
X75473426Y-71027128D01*
X75473816Y-71027310D01*
X75544323Y-71097817D01*
X75544504Y-71098206D01*
X75546321Y-71100023D01*
X75563589Y-71139132D01*
X75586702Y-71188697D01*
X75587223Y-71192661D01*
X75588997Y-71196677D01*
X75596634Y-71262500D01*
X75596634Y-71737500D01*
X75588997Y-71803323D01*
X75587223Y-71807339D01*
X75586702Y-71811302D01*
X75563597Y-71860848D01*
X75546321Y-71899977D01*
X75544503Y-71901794D01*
X75544323Y-71902182D01*
X75473816Y-71972689D01*
X75473428Y-71972869D01*
X75471611Y-71974687D01*
X75432482Y-71991963D01*
X75382936Y-72015068D01*
X75378973Y-72015589D01*
X75374957Y-72017363D01*
X75309134Y-72025000D01*
X74809134Y-72025000D01*
X74743311Y-72017363D01*
X74739295Y-72015589D01*
X74735331Y-72015068D01*
X74685766Y-71991955D01*
X74646657Y-71974687D01*
X74644840Y-71972870D01*
X74644451Y-71972689D01*
X74573944Y-71902182D01*
X74573762Y-71901792D01*
X74571947Y-71899977D01*
X74554688Y-71860889D01*
X74531565Y-71811302D01*
X74531042Y-71807336D01*
X74529271Y-71803323D01*
X74521634Y-71737500D01*
X74521634Y-71262500D01*
X74529271Y-71196677D01*
X74531042Y-71192664D01*
X74531565Y-71188697D01*
X74554696Y-71139091D01*
X74571947Y-71100023D01*
X74573761Y-71098208D01*
X74573944Y-71097817D01*
X74644451Y-71027310D01*
X74644842Y-71027127D01*
X74646657Y-71025313D01*
X74685725Y-71008062D01*
X74735331Y-70984931D01*
X74739298Y-70984408D01*
X74743311Y-70982637D01*
X74809134Y-70975000D01*
X75309134Y-70975000D01*
X75374957Y-70982637D01*
G37*
G36*
X77078323Y-70982637D02*
G01*
X77082336Y-70984408D01*
X77086302Y-70984931D01*
X77135889Y-71008054D01*
X77174977Y-71025313D01*
X77176792Y-71027128D01*
X77177182Y-71027310D01*
X77247689Y-71097817D01*
X77247870Y-71098206D01*
X77249687Y-71100023D01*
X77266955Y-71139132D01*
X77290068Y-71188697D01*
X77290589Y-71192661D01*
X77292363Y-71196677D01*
X77300000Y-71262500D01*
X77300000Y-71737500D01*
X77292363Y-71803323D01*
X77290589Y-71807339D01*
X77290068Y-71811302D01*
X77266963Y-71860848D01*
X77249687Y-71899977D01*
X77247869Y-71901794D01*
X77247689Y-71902182D01*
X77177182Y-71972689D01*
X77176794Y-71972869D01*
X77174977Y-71974687D01*
X77135848Y-71991963D01*
X77086302Y-72015068D01*
X77082339Y-72015589D01*
X77078323Y-72017363D01*
X77012500Y-72025000D01*
X76437500Y-72025000D01*
X76371677Y-72017363D01*
X76367661Y-72015589D01*
X76363697Y-72015068D01*
X76314132Y-71991955D01*
X76275023Y-71974687D01*
X76273206Y-71972870D01*
X76272817Y-71972689D01*
X76202310Y-71902182D01*
X76202128Y-71901792D01*
X76200313Y-71899977D01*
X76183054Y-71860889D01*
X76159931Y-71811302D01*
X76159408Y-71807336D01*
X76157637Y-71803323D01*
X76150000Y-71737500D01*
X76150000Y-71262500D01*
X76157637Y-71196677D01*
X76159408Y-71192664D01*
X76159931Y-71188697D01*
X76183062Y-71139091D01*
X76200313Y-71100023D01*
X76202127Y-71098208D01*
X76202310Y-71097817D01*
X76272817Y-71027310D01*
X76273208Y-71027127D01*
X76275023Y-71025313D01*
X76314091Y-71008062D01*
X76363697Y-70984931D01*
X76367664Y-70984408D01*
X76371677Y-70982637D01*
X76437500Y-70975000D01*
X77012500Y-70975000D01*
X77078323Y-70982637D01*
G37*
G36*
X78828323Y-70982637D02*
G01*
X78832336Y-70984408D01*
X78836302Y-70984931D01*
X78885889Y-71008054D01*
X78924977Y-71025313D01*
X78926792Y-71027128D01*
X78927182Y-71027310D01*
X78997689Y-71097817D01*
X78997870Y-71098206D01*
X78999687Y-71100023D01*
X79016955Y-71139132D01*
X79040068Y-71188697D01*
X79040589Y-71192661D01*
X79042363Y-71196677D01*
X79050000Y-71262500D01*
X79050000Y-71737500D01*
X79042363Y-71803323D01*
X79040589Y-71807339D01*
X79040068Y-71811302D01*
X79016963Y-71860848D01*
X78999687Y-71899977D01*
X78997869Y-71901794D01*
X78997689Y-71902182D01*
X78927182Y-71972689D01*
X78926794Y-71972869D01*
X78924977Y-71974687D01*
X78885848Y-71991963D01*
X78836302Y-72015068D01*
X78832339Y-72015589D01*
X78828323Y-72017363D01*
X78762500Y-72025000D01*
X78187500Y-72025000D01*
X78121677Y-72017363D01*
X78117661Y-72015589D01*
X78113697Y-72015068D01*
X78064132Y-71991955D01*
X78025023Y-71974687D01*
X78023206Y-71972870D01*
X78022817Y-71972689D01*
X77952310Y-71902182D01*
X77952128Y-71901792D01*
X77950313Y-71899977D01*
X77933054Y-71860889D01*
X77909931Y-71811302D01*
X77909408Y-71807336D01*
X77907637Y-71803323D01*
X77900000Y-71737500D01*
X77900000Y-71262500D01*
X77907637Y-71196677D01*
X77909408Y-71192664D01*
X77909931Y-71188697D01*
X77933062Y-71139091D01*
X77950313Y-71100023D01*
X77952127Y-71098208D01*
X77952310Y-71097817D01*
X78022817Y-71027310D01*
X78023208Y-71027127D01*
X78025023Y-71025313D01*
X78064091Y-71008062D01*
X78113697Y-70984931D01*
X78117664Y-70984408D01*
X78121677Y-70982637D01*
X78187500Y-70975000D01*
X78762500Y-70975000D01*
X78828323Y-70982637D01*
G37*
G36*
X105543462Y-69606775D02*
G01*
X105715086Y-69662539D01*
X105875873Y-69744464D01*
X106021865Y-69850533D01*
X106149467Y-69978135D01*
X106255536Y-70124127D01*
X106337461Y-70284914D01*
X106393225Y-70456538D01*
X106421455Y-70634772D01*
X106421455Y-70815228D01*
X106393225Y-70993462D01*
X106337461Y-71165086D01*
X106255536Y-71325873D01*
X106149467Y-71471865D01*
X106021865Y-71599467D01*
X105875873Y-71705536D01*
X105715086Y-71787461D01*
X105543462Y-71843225D01*
X105365228Y-71871455D01*
X105184772Y-71871455D01*
X105006538Y-71843225D01*
X104834914Y-71787461D01*
X104674127Y-71705536D01*
X104528135Y-71599467D01*
X104400533Y-71471865D01*
X104294464Y-71325873D01*
X104212539Y-71165086D01*
X104156775Y-70993462D01*
X104128545Y-70815228D01*
X104128545Y-70634772D01*
X104156775Y-70456538D01*
X104212539Y-70284914D01*
X104294464Y-70124127D01*
X104400533Y-69978135D01*
X104528135Y-69850533D01*
X104674127Y-69744464D01*
X104834914Y-69662539D01*
X105006538Y-69606775D01*
X105184772Y-69578545D01*
X105365228Y-69578545D01*
X105543462Y-69606775D01*
G37*
G36*
X86003323Y-70682637D02*
G01*
X86007336Y-70684408D01*
X86011302Y-70684931D01*
X86060889Y-70708054D01*
X86099977Y-70725313D01*
X86101792Y-70727128D01*
X86102182Y-70727310D01*
X86172689Y-70797817D01*
X86172870Y-70798206D01*
X86174687Y-70800023D01*
X86191955Y-70839132D01*
X86215068Y-70888697D01*
X86215589Y-70892661D01*
X86217363Y-70896677D01*
X86225000Y-70962500D01*
X86225000Y-71562500D01*
X86217363Y-71628323D01*
X86215589Y-71632339D01*
X86215068Y-71636302D01*
X86191963Y-71685848D01*
X86174687Y-71724977D01*
X86172869Y-71726794D01*
X86172689Y-71727182D01*
X86102182Y-71797689D01*
X86101794Y-71797869D01*
X86099977Y-71799687D01*
X86060848Y-71816963D01*
X86011302Y-71840068D01*
X86007339Y-71840589D01*
X86003323Y-71842363D01*
X85937500Y-71850000D01*
X85462500Y-71850000D01*
X85396677Y-71842363D01*
X85392661Y-71840589D01*
X85388697Y-71840068D01*
X85339132Y-71816955D01*
X85300023Y-71799687D01*
X85298206Y-71797870D01*
X85297817Y-71797689D01*
X85227310Y-71727182D01*
X85227128Y-71726792D01*
X85225313Y-71724977D01*
X85208054Y-71685889D01*
X85184931Y-71636302D01*
X85184408Y-71632336D01*
X85182637Y-71628323D01*
X85175000Y-71562500D01*
X85175000Y-70962500D01*
X85182637Y-70896677D01*
X85184408Y-70892664D01*
X85184931Y-70888697D01*
X85208062Y-70839091D01*
X85225313Y-70800023D01*
X85227127Y-70798208D01*
X85227310Y-70797817D01*
X85297817Y-70727310D01*
X85298208Y-70727127D01*
X85300023Y-70725313D01*
X85339091Y-70708062D01*
X85388697Y-70684931D01*
X85392664Y-70684408D01*
X85396677Y-70682637D01*
X85462500Y-70675000D01*
X85937500Y-70675000D01*
X86003323Y-70682637D01*
G37*
G36*
X82036935Y-68843223D02*
G01*
X82039336Y-68844097D01*
X82039427Y-68844255D01*
X82043907Y-68846111D01*
X82052557Y-68866996D01*
X82059379Y-68878810D01*
X82059895Y-68884709D01*
X82060016Y-68885002D01*
X82060016Y-70155004D01*
X82046787Y-70186941D01*
X82045920Y-70189324D01*
X82045762Y-70189414D01*
X82043907Y-70193895D01*
X82023018Y-70202547D01*
X82011207Y-70209367D01*
X82005308Y-70209882D01*
X82005016Y-70210004D01*
X82003924Y-70210004D01*
X78579401Y-70210004D01*
X78574994Y-70210004D01*
X78543063Y-70196777D01*
X78540673Y-70195908D01*
X78540581Y-70195750D01*
X78536103Y-70193895D01*
X78527453Y-70173012D01*
X78520630Y-70161195D01*
X78520114Y-70155295D01*
X78519994Y-70155004D01*
X78519994Y-68885002D01*
X78533212Y-68853090D01*
X78534089Y-68850681D01*
X78534248Y-68850589D01*
X78536103Y-68846111D01*
X78556982Y-68837462D01*
X78568802Y-68830638D01*
X78574702Y-68830122D01*
X78574994Y-68830002D01*
X82005016Y-68830002D01*
X82036935Y-68843223D01*
G37*
G36*
X86003323Y-68957637D02*
G01*
X86007336Y-68959408D01*
X86011302Y-68959931D01*
X86060889Y-68983054D01*
X86099977Y-69000313D01*
X86101792Y-69002128D01*
X86102182Y-69002310D01*
X86172689Y-69072817D01*
X86172870Y-69073206D01*
X86174687Y-69075023D01*
X86191955Y-69114132D01*
X86215068Y-69163697D01*
X86215589Y-69167661D01*
X86217363Y-69171677D01*
X86225000Y-69237500D01*
X86225000Y-69837500D01*
X86217363Y-69903323D01*
X86215589Y-69907339D01*
X86215068Y-69911302D01*
X86191963Y-69960848D01*
X86174687Y-69999977D01*
X86172869Y-70001794D01*
X86172689Y-70002182D01*
X86102182Y-70072689D01*
X86101794Y-70072869D01*
X86099977Y-70074687D01*
X86060848Y-70091963D01*
X86011302Y-70115068D01*
X86007339Y-70115589D01*
X86003323Y-70117363D01*
X85937500Y-70125000D01*
X85462500Y-70125000D01*
X85396677Y-70117363D01*
X85392661Y-70115589D01*
X85388697Y-70115068D01*
X85339132Y-70091955D01*
X85300023Y-70074687D01*
X85298206Y-70072870D01*
X85297817Y-70072689D01*
X85227310Y-70002182D01*
X85227128Y-70001792D01*
X85225313Y-69999977D01*
X85208054Y-69960889D01*
X85184931Y-69911302D01*
X85184408Y-69907336D01*
X85182637Y-69903323D01*
X85175000Y-69837500D01*
X85175000Y-69237500D01*
X85182637Y-69171677D01*
X85184408Y-69167664D01*
X85184931Y-69163697D01*
X85208062Y-69114091D01*
X85225313Y-69075023D01*
X85227127Y-69073208D01*
X85227310Y-69072817D01*
X85297817Y-69002310D01*
X85298208Y-69002127D01*
X85300023Y-69000313D01*
X85339091Y-68983062D01*
X85388697Y-68959931D01*
X85392664Y-68959408D01*
X85396677Y-68957637D01*
X85462500Y-68950000D01*
X85937500Y-68950000D01*
X86003323Y-68957637D01*
G37*
G36*
X84956925Y-66303217D02*
G01*
X84959326Y-66304091D01*
X84959417Y-66304249D01*
X84963897Y-66306105D01*
X84972547Y-66326990D01*
X84979369Y-66338804D01*
X84979885Y-66344703D01*
X84980006Y-66344996D01*
X84980006Y-67614998D01*
X84966777Y-67646935D01*
X84965910Y-67649318D01*
X84965752Y-67649408D01*
X84963897Y-67653889D01*
X84943008Y-67662541D01*
X84931197Y-67669361D01*
X84925298Y-67669876D01*
X84925006Y-67669998D01*
X84923914Y-67669998D01*
X81499391Y-67669998D01*
X81494984Y-67669998D01*
X81463053Y-67656771D01*
X81460663Y-67655902D01*
X81460571Y-67655744D01*
X81456093Y-67653889D01*
X81447443Y-67633006D01*
X81440620Y-67621189D01*
X81440104Y-67615289D01*
X81439984Y-67614998D01*
X81439984Y-66344996D01*
X81453202Y-66313084D01*
X81454079Y-66310675D01*
X81454238Y-66310583D01*
X81456093Y-66306105D01*
X81476972Y-66297456D01*
X81488792Y-66290632D01*
X81494692Y-66290116D01*
X81494984Y-66289996D01*
X84925006Y-66289996D01*
X84956925Y-66303217D01*
G37*
G36*
X88303323Y-66582637D02*
G01*
X88307336Y-66584408D01*
X88311302Y-66584931D01*
X88360889Y-66608054D01*
X88399977Y-66625313D01*
X88401792Y-66627128D01*
X88402182Y-66627310D01*
X88472689Y-66697817D01*
X88472870Y-66698206D01*
X88474687Y-66700023D01*
X88491955Y-66739132D01*
X88515068Y-66788697D01*
X88515589Y-66792661D01*
X88517363Y-66796677D01*
X88525000Y-66862500D01*
X88525000Y-67337500D01*
X88517363Y-67403323D01*
X88515589Y-67407339D01*
X88515068Y-67411302D01*
X88491963Y-67460848D01*
X88474687Y-67499977D01*
X88472869Y-67501794D01*
X88472689Y-67502182D01*
X88402182Y-67572689D01*
X88401794Y-67572869D01*
X88399977Y-67574687D01*
X88360848Y-67591963D01*
X88311302Y-67615068D01*
X88307339Y-67615589D01*
X88303323Y-67617363D01*
X88237500Y-67625000D01*
X87637500Y-67625000D01*
X87571677Y-67617363D01*
X87567661Y-67615589D01*
X87563697Y-67615068D01*
X87514132Y-67591955D01*
X87475023Y-67574687D01*
X87473206Y-67572870D01*
X87472817Y-67572689D01*
X87402310Y-67502182D01*
X87402128Y-67501792D01*
X87400313Y-67499977D01*
X87383054Y-67460889D01*
X87359931Y-67411302D01*
X87359408Y-67407336D01*
X87357637Y-67403323D01*
X87350000Y-67337500D01*
X87350000Y-66862500D01*
X87357637Y-66796677D01*
X87359408Y-66792664D01*
X87359931Y-66788697D01*
X87383062Y-66739091D01*
X87400313Y-66700023D01*
X87402127Y-66698208D01*
X87402310Y-66697817D01*
X87472817Y-66627310D01*
X87473208Y-66627127D01*
X87475023Y-66625313D01*
X87514091Y-66608062D01*
X87563697Y-66584931D01*
X87567664Y-66584408D01*
X87571677Y-66582637D01*
X87637500Y-66575000D01*
X88237500Y-66575000D01*
X88303323Y-66582637D01*
G37*
G36*
X90028323Y-66582637D02*
G01*
X90032336Y-66584408D01*
X90036302Y-66584931D01*
X90085889Y-66608054D01*
X90124977Y-66625313D01*
X90126792Y-66627128D01*
X90127182Y-66627310D01*
X90197689Y-66697817D01*
X90197870Y-66698206D01*
X90199687Y-66700023D01*
X90216955Y-66739132D01*
X90240068Y-66788697D01*
X90240589Y-66792661D01*
X90242363Y-66796677D01*
X90250000Y-66862500D01*
X90250000Y-67337500D01*
X90242363Y-67403323D01*
X90240589Y-67407339D01*
X90240068Y-67411302D01*
X90216963Y-67460848D01*
X90199687Y-67499977D01*
X90197869Y-67501794D01*
X90197689Y-67502182D01*
X90127182Y-67572689D01*
X90126794Y-67572869D01*
X90124977Y-67574687D01*
X90085848Y-67591963D01*
X90036302Y-67615068D01*
X90032339Y-67615589D01*
X90028323Y-67617363D01*
X89962500Y-67625000D01*
X89362500Y-67625000D01*
X89296677Y-67617363D01*
X89292661Y-67615589D01*
X89288697Y-67615068D01*
X89239132Y-67591955D01*
X89200023Y-67574687D01*
X89198206Y-67572870D01*
X89197817Y-67572689D01*
X89127310Y-67502182D01*
X89127128Y-67501792D01*
X89125313Y-67499977D01*
X89108054Y-67460889D01*
X89084931Y-67411302D01*
X89084408Y-67407336D01*
X89082637Y-67403323D01*
X89075000Y-67337500D01*
X89075000Y-66862500D01*
X89082637Y-66796677D01*
X89084408Y-66792664D01*
X89084931Y-66788697D01*
X89108062Y-66739091D01*
X89125313Y-66700023D01*
X89127127Y-66698208D01*
X89127310Y-66697817D01*
X89197817Y-66627310D01*
X89198208Y-66627127D01*
X89200023Y-66625313D01*
X89239091Y-66608062D01*
X89288697Y-66584931D01*
X89292664Y-66584408D01*
X89296677Y-66582637D01*
X89362500Y-66575000D01*
X89962500Y-66575000D01*
X90028323Y-66582637D01*
G37*
G36*
X83695671Y-46379444D02*
G01*
X83776777Y-46433637D01*
X83830970Y-46514743D01*
X83850000Y-46610414D01*
X83850000Y-49810414D01*
X83830970Y-49906085D01*
X83776777Y-49987191D01*
X83695671Y-50041384D01*
X83600000Y-50060414D01*
X83200000Y-50060414D01*
X83104329Y-50041384D01*
X83023223Y-49987191D01*
X82969030Y-49906085D01*
X82950000Y-49810414D01*
X82950000Y-46610414D01*
X82969030Y-46514743D01*
X83023223Y-46433637D01*
X83104329Y-46379444D01*
X83200000Y-46360414D01*
X83600000Y-46360414D01*
X83695671Y-46379444D01*
G37*
G36*
X84795671Y-46379444D02*
G01*
X84876777Y-46433637D01*
X84930970Y-46514743D01*
X84950000Y-46610414D01*
X84950000Y-49810414D01*
X84930970Y-49906085D01*
X84876777Y-49987191D01*
X84795671Y-50041384D01*
X84700000Y-50060414D01*
X84300000Y-50060414D01*
X84204329Y-50041384D01*
X84123223Y-49987191D01*
X84069030Y-49906085D01*
X84050000Y-49810414D01*
X84050000Y-46610414D01*
X84069030Y-46514743D01*
X84123223Y-46433637D01*
X84204329Y-46379444D01*
X84300000Y-46360414D01*
X84700000Y-46360414D01*
X84795671Y-46379444D01*
G37*
G36*
X85895671Y-46379444D02*
G01*
X85976777Y-46433637D01*
X86030970Y-46514743D01*
X86050000Y-46610414D01*
X86050000Y-49810414D01*
X86030970Y-49906085D01*
X85976777Y-49987191D01*
X85895671Y-50041384D01*
X85800000Y-50060414D01*
X85400000Y-50060414D01*
X85304329Y-50041384D01*
X85223223Y-49987191D01*
X85169030Y-49906085D01*
X85150000Y-49810414D01*
X85150000Y-46610414D01*
X85169030Y-46514743D01*
X85223223Y-46433637D01*
X85304329Y-46379444D01*
X85400000Y-46360414D01*
X85800000Y-46360414D01*
X85895671Y-46379444D01*
G37*
G36*
X86995671Y-46079444D02*
G01*
X87076777Y-46133637D01*
X87130970Y-46214743D01*
X87150000Y-46310414D01*
X87150000Y-49810414D01*
X87130970Y-49906085D01*
X87076777Y-49987191D01*
X86995671Y-50041384D01*
X86900000Y-50060414D01*
X86500000Y-50060414D01*
X86404329Y-50041384D01*
X86323223Y-49987191D01*
X86269030Y-49906085D01*
X86250000Y-49810414D01*
X86250000Y-46310414D01*
X86269030Y-46214743D01*
X86323223Y-46133637D01*
X86404329Y-46079444D01*
X86500000Y-46060414D01*
X86900000Y-46060414D01*
X86995671Y-46079444D01*
G37*
G36*
X88095671Y-46379444D02*
G01*
X88176777Y-46433637D01*
X88230970Y-46514743D01*
X88250000Y-46610414D01*
X88250000Y-49810414D01*
X88230970Y-49906085D01*
X88176777Y-49987191D01*
X88095671Y-50041384D01*
X88000000Y-50060414D01*
X87600000Y-50060414D01*
X87504329Y-50041384D01*
X87423223Y-49987191D01*
X87369030Y-49906085D01*
X87350000Y-49810414D01*
X87350000Y-46610414D01*
X87369030Y-46514743D01*
X87423223Y-46433637D01*
X87504329Y-46379444D01*
X87600000Y-46360414D01*
X88000000Y-46360414D01*
X88095671Y-46379444D01*
G37*
G36*
X89195671Y-46079444D02*
G01*
X89276777Y-46133637D01*
X89330970Y-46214743D01*
X89350000Y-46310414D01*
X89350000Y-49810414D01*
X89330970Y-49906085D01*
X89276777Y-49987191D01*
X89195671Y-50041384D01*
X89100000Y-50060414D01*
X88700000Y-50060414D01*
X88604329Y-50041384D01*
X88523223Y-49987191D01*
X88469030Y-49906085D01*
X88450000Y-49810414D01*
X88450000Y-46310414D01*
X88469030Y-46214743D01*
X88523223Y-46133637D01*
X88604329Y-46079444D01*
X88700000Y-46060414D01*
X89100000Y-46060414D01*
X89195671Y-46079444D01*
G37*
G36*
X90295671Y-46379444D02*
G01*
X90376777Y-46433637D01*
X90430970Y-46514743D01*
X90450000Y-46610414D01*
X90450000Y-49810414D01*
X90430970Y-49906085D01*
X90376777Y-49987191D01*
X90295671Y-50041384D01*
X90200000Y-50060414D01*
X89800000Y-50060414D01*
X89704329Y-50041384D01*
X89623223Y-49987191D01*
X89569030Y-49906085D01*
X89550000Y-49810414D01*
X89550000Y-46610414D01*
X89569030Y-46514743D01*
X89623223Y-46433637D01*
X89704329Y-46379444D01*
X89800000Y-46360414D01*
X90200000Y-46360414D01*
X90295671Y-46379444D01*
G37*
G36*
X91395671Y-46379444D02*
G01*
X91476777Y-46433637D01*
X91530970Y-46514743D01*
X91550000Y-46610414D01*
X91550000Y-49810414D01*
X91530970Y-49906085D01*
X91476777Y-49987191D01*
X91395671Y-50041384D01*
X91300000Y-50060414D01*
X90900000Y-50060414D01*
X90804329Y-50041384D01*
X90723223Y-49987191D01*
X90669030Y-49906085D01*
X90650000Y-49810414D01*
X90650000Y-46610414D01*
X90669030Y-46514743D01*
X90723223Y-46433637D01*
X90804329Y-46379444D01*
X90900000Y-46360414D01*
X91300000Y-46360414D01*
X91395671Y-46379444D01*
G37*
M02*
