M48
; DRILL file {KiCad 9.0.2} date 2025-06-23T22:31:58+0200
; FORMAT={-:-/ absolute / metric / decimal}
; #@! TF.CreationDate,2025-06-23T22:31:58+02:00
; #@! TF.GenerationSoftware,Kicad,Pcbnew,9.0.2
; #@! TF.FileFunction,MixedPlating,1,4
FMAT,2
METRIC
; #@! TA.AperFunction,Plated,PTH,ViaDrill
T1C0.300
; #@! TA.AperFunction,Plated,PTH,ViaDrill
T2C0.400
; #@! TA.AperFunction,NonPlated,NPTH,ComponentDrill
T3C2.200
%
G90
G05
T1
X83.0Y-69.5
X83.0Y-73.95
X83.5Y-72.0
X86.293Y-68.33
X87.957Y-68.35
X89.5Y-73.195
X90.294Y-72.094
X90.45Y-70.85
X92.826Y-86.724
X93.85Y-85.7
X93.85Y-86.7
X93.85Y-87.7
X93.85Y-88.71
X93.85Y-89.7
X93.86Y-84.71
X94.0Y-92.25
X94.5Y-95.0
X94.606Y-69.5
X94.625Y-70.4
X94.775Y-74.25
X94.86Y-85.71
X94.86Y-86.71
X94.86Y-87.71
X94.86Y-88.71
X94.86Y-89.7
X95.5Y-92.25
X95.79Y-74.23
X95.8Y-72.0
X95.85Y-85.725
X95.85Y-89.7
X95.86Y-84.7
X96.38Y-91.992
X96.85Y-86.71
X96.9Y-92.7
X96.95Y-72.05
X97.83Y-87.72
X97.86Y-84.71
X98.85Y-88.7
X98.86Y-85.71
X98.86Y-89.71
X98.86Y-90.71
X99.0Y-83.3
X99.85Y-87.72
X99.86Y-88.71
X99.896Y-85.704
X101.85Y-85.725
X101.85Y-86.71
X101.86Y-89.71
X101.87Y-84.7
X101.895Y-90.705
X102.6Y-83.3
X102.99Y-84.74
T2
X68.6Y-70.5
X69.0Y-73.0
X69.0Y-75.5
X69.0Y-78.0
X69.0Y-82.5
X69.0Y-85.0
X69.0Y-87.5
X69.0Y-90.0
X69.0Y-93.0
X70.2Y-95.55
X71.6Y-69.7
X71.6Y-70.9
X72.6Y-75.1
X73.4Y-98.0
X73.75Y-81.6
X75.9Y-98.0
X76.05Y-81.55
X77.25Y-93.0
X77.4Y-68.1
X78.4Y-98.0
X79.4Y-67.0
X79.5Y-93.0
X80.45Y-79.65
X80.9Y-98.0
X81.65Y-78.55
X82.375Y-56.775
X82.55Y-85.9
X82.65Y-81.6
X83.475Y-56.775
X84.5Y-55.2
X85.0Y-97.5
X85.6Y-55.2
X85.65Y-52.35
X85.659Y-51.3
X85.8Y-84.1
X86.234Y-74.751
X87.2Y-84.1
X87.5Y-98.0
X88.475Y-50.95
X88.85Y-53.1
X88.85Y-66.05
X88.95Y-51.8
X89.35Y-50.9
X89.6Y-89.3
X90.0Y-98.0
X90.025Y-55.95
X90.098Y-52.998
X91.1Y-55.975
X91.2Y-89.3
X91.5Y-75.5
X92.2Y-97.7
X93.0Y-67.0
X93.0Y-75.35
X93.3Y-97.7
X94.0Y-83.0
X94.35Y-78.75
X96.0Y-83.0
X98.65Y-75.4
X98.75Y-69.675
X98.75Y-71.0
X99.9Y-75.4
X102.0Y-70.0
X102.6Y-78.25
X103.4Y-96.0
X103.5Y-97.7
X105.2Y-93.3
X105.6Y-81.6
X105.6Y-85.8
X105.6Y-88.0
X106.0Y-73.5
X106.0Y-76.0
X106.0Y-78.5
T3
X69.9Y-80.4
X105.275Y-70.725
M30
