%TF.GenerationSoftware,KiCad,Pcbnew,9.0.2*%
%TF.CreationDate,2025-06-23T22:31:52+02:00*%
%TF.ProjectId,Board,426f6172-642e-46b6-9963-61645f706362,rev?*%
%TF.SameCoordinates,Original*%
%TF.FileFunction,Copper,L4,Bot*%
%TF.FilePolarity,Positive*%
%FSLAX46Y46*%
G04 Gerber Fmt 4.6, Leading zero omitted, Abs format (unit mm)*
G04 Created by KiCad (PCBNEW 9.0.2) date 2025-06-23 22:31:52*
%MOMM*%
%LPD*%
G01*
G04 APERTURE LIST*
G04 Aperture macros list*
%AMRoundRect*
0 Rectangle with rounded corners*
0 $1 Rounding radius*
0 $2 $3 $4 $5 $6 $7 $8 $9 X,Y pos of 4 corners*
0 Add a 4 corners polygon primitive as box body*
4,1,4,$2,$3,$4,$5,$6,$7,$8,$9,$2,$3,0*
0 Add four circle primitives for the rounded corners*
1,1,$1+$1,$2,$3*
1,1,$1+$1,$4,$5*
1,1,$1+$1,$6,$7*
1,1,$1+$1,$8,$9*
0 Add four rect primitives between the rounded corners*
20,1,$1+$1,$2,$3,$4,$5,0*
20,1,$1+$1,$4,$5,$6,$7,0*
20,1,$1+$1,$6,$7,$8,$9,0*
20,1,$1+$1,$8,$9,$2,$3,0*%
%AMFreePoly0*
4,1,5,0.635001,-1.715011,-0.635001,-1.715011,-0.635001,1.715011,0.635001,1.715011,0.635001,-1.715011,0.635001,-1.715011,$1*%
G04 Aperture macros list end*
%TA.AperFunction,SMDPad,CuDef*%
%ADD10RoundRect,0.237500X0.237500X-0.287500X0.237500X0.287500X-0.237500X0.287500X-0.237500X-0.287500X0*%
%TD*%
%TA.AperFunction,SMDPad,CuDef*%
%ADD11RoundRect,0.237500X0.237500X-0.250000X0.237500X0.250000X-0.237500X0.250000X-0.237500X-0.250000X0*%
%TD*%
%TA.AperFunction,SMDPad,CuDef*%
%ADD12RoundRect,0.237500X-0.237500X0.250000X-0.237500X-0.250000X0.237500X-0.250000X0.237500X0.250000X0*%
%TD*%
%TA.AperFunction,SMDPad,CuDef*%
%ADD13R,0.800000X1.500000*%
%TD*%
%TA.AperFunction,SMDPad,CuDef*%
%ADD14R,1.400000X1.700000*%
%TD*%
%TA.AperFunction,SMDPad,CuDef*%
%ADD15R,1.500000X1.150013*%
%TD*%
%TA.AperFunction,SMDPad,CuDef*%
%ADD16R,1.300000X1.500000*%
%TD*%
%TA.AperFunction,SMDPad,CuDef*%
%ADD17RoundRect,0.237500X0.250000X0.237500X-0.250000X0.237500X-0.250000X-0.237500X0.250000X-0.237500X0*%
%TD*%
%TA.AperFunction,SMDPad,CuDef*%
%ADD18RoundRect,0.237500X-0.250000X-0.237500X0.250000X-0.237500X0.250000X0.237500X-0.250000X0.237500X0*%
%TD*%
%TA.AperFunction,SMDPad,CuDef*%
%ADD19C,0.500381*%
%TD*%
%TA.AperFunction,SMDPad,CuDef*%
%ADD20R,0.250013X0.849987*%
%TD*%
%TA.AperFunction,SMDPad,CuDef*%
%ADD21R,0.849987X0.250013*%
%TD*%
%TA.AperFunction,SMDPad,CuDef*%
%ADD22R,2.500000X2.500000*%
%TD*%
%TA.AperFunction,SMDPad,CuDef*%
%ADD23FreePoly0,0.000000*%
%TD*%
%TA.AperFunction,ViaPad*%
%ADD24C,0.800000*%
%TD*%
%TA.AperFunction,ViaPad*%
%ADD25C,0.600000*%
%TD*%
%TA.AperFunction,ViaPad*%
%ADD26C,0.450000*%
%TD*%
%TA.AperFunction,ViaPad*%
%ADD27C,0.550000*%
%TD*%
%TA.AperFunction,Conductor*%
%ADD28C,0.150000*%
%TD*%
%TA.AperFunction,Conductor*%
%ADD29C,1.000000*%
%TD*%
%TA.AperFunction,Conductor*%
%ADD30C,0.500000*%
%TD*%
%TA.AperFunction,Conductor*%
%ADD31C,0.600000*%
%TD*%
%TA.AperFunction,Conductor*%
%ADD32C,0.400000*%
%TD*%
%TA.AperFunction,Conductor*%
%ADD33C,0.200000*%
%TD*%
G04 APERTURE END LIST*
D10*
%TO.P,U4,1,K*%
%TO.N,Net-(U4-K)*%
X102550000Y-73250000D03*
%TO.P,U4,2,A*%
%TO.N,P3V3*%
X102550000Y-71500000D03*
%TD*%
D11*
%TO.P,R26,1,1*%
%TO.N,/SDCARD_D0*%
X85650509Y-87421710D03*
%TO.P,R26,2,2*%
%TO.N,P3V3*%
X85650509Y-85596710D03*
%TD*%
%TO.P,R3,1,1*%
%TO.N,/MUX_SEL*%
X82250000Y-67912500D03*
%TO.P,R3,2,2*%
%TO.N,P3V3*%
X82250000Y-66087500D03*
%TD*%
D12*
%TO.P,R4,1,1*%
%TO.N,/eMMC_RST_N*%
X94500000Y-96087500D03*
%TO.P,R4,2,2*%
%TO.N,P3V3*%
X94500000Y-97912500D03*
%TD*%
D13*
%TO.P,U1,1,DAT2*%
%TO.N,/SDCARD_D2*%
X73943548Y-94587567D03*
%TO.P,U1,2,CD/DAT3*%
%TO.N,/SDCARD_D3*%
X75043625Y-94587567D03*
%TO.P,U1,3,CMD*%
%TO.N,/SDCARD_CMD*%
X76143701Y-94587567D03*
%TO.P,U1,4,VDD*%
%TO.N,P3V3*%
X77243777Y-94587567D03*
%TO.P,U1,5,CLK*%
%TO.N,/SDCARD_CLK*%
X78343599Y-94587567D03*
%TO.P,U1,6,VSS*%
%TO.N,GND*%
X79443675Y-94587567D03*
%TO.P,U1,7,DAT0*%
%TO.N,/SDCARD_D0*%
X80543752Y-94587567D03*
%TO.P,U1,8,DAT1*%
%TO.N,/SDCARD_D1*%
X81643574Y-94587567D03*
D14*
%TO.P,U1,9,Shell_Mount*%
%TO.N,GND*%
X70193739Y-97487490D03*
D15*
X73743650Y-83012510D03*
X82643574Y-83012510D03*
D14*
X83093663Y-97487490D03*
D15*
%TO.P,U1,10,DETECT-SW*%
%TO.N,Net-(U1-DETECT-SW)*%
X76043625Y-83012510D03*
D16*
%TO.P,U1,11,DETECT_LEVER*%
%TO.N,Net-(U1-DETECT_LEVER)*%
X83306261Y-87737681D03*
%TD*%
D17*
%TO.P,R18,1,1*%
%TO.N,/SDCARD_D3_R*%
X81662500Y-72500000D03*
%TO.P,R18,2,2*%
%TO.N,/SDCARD_D3*%
X79837500Y-72500000D03*
%TD*%
D11*
%TO.P,R10,1,1*%
%TO.N,GND*%
X102000000Y-97912500D03*
%TO.P,R10,2,2*%
%TO.N,/eMMC_D6*%
X102000000Y-96087500D03*
%TD*%
%TO.P,R9,1,1*%
%TO.N,GND*%
X99000000Y-97912500D03*
%TO.P,R9,2,2*%
%TO.N,/eMMC_D7*%
X99000000Y-96087500D03*
%TD*%
D18*
%TO.P,R2,1,1*%
%TO.N,/eMMC_CLK_R*%
X91636268Y-73993112D03*
%TO.P,R2,2,2*%
%TO.N,/eMMC_CLK*%
X93461268Y-73993112D03*
%TD*%
%TO.P,R19,1,1*%
%TO.N,/eMMC_D3_R*%
X91636268Y-70993112D03*
%TO.P,R19,2,2*%
%TO.N,/eMMC_D3*%
X93461268Y-70993112D03*
%TD*%
D17*
%TO.P,R22,1,1*%
%TO.N,/SDCARD_D2_R*%
X81662500Y-71000000D03*
%TO.P,R22,2,2*%
%TO.N,/SDCARD_D2*%
X79837500Y-71000000D03*
%TD*%
D19*
%TO.P,U3,A1,NC*%
%TO.N,unconnected-(U3A-NC-PadA1)*%
X89356591Y-83211849D03*
%TO.P,U3,A2,NC*%
%TO.N,unconnected-(U3A-NC-PadA2)*%
X89356591Y-84211849D03*
%TO.P,U3,A9,NC*%
%TO.N,unconnected-(U3A-NC-PadA9)*%
X89356591Y-91211849D03*
%TO.P,U3,A10,NC*%
%TO.N,unconnected-(U3A-NC-PadA10)*%
X89356591Y-92211849D03*
%TO.P,U3,B1,NC*%
%TO.N,unconnected-(U3A-NC-PadB1)*%
X90356591Y-83211849D03*
%TO.P,U3,B10,NC*%
%TO.N,unconnected-(U3A-NC-PadB10)*%
X90356591Y-92211849D03*
%TO.P,U3,D2,VSF1*%
%TO.N,unconnected-(U3A-VSF1-PadD2)*%
X92356591Y-84211849D03*
%TO.P,U3,D3,VSF2*%
%TO.N,unconnected-(U3A-VSF2-PadD3)*%
X92356591Y-85211849D03*
%TO.P,U3,D4,VSF3*%
%TO.N,unconnected-(U3A-VSF3-PadD4)*%
X92356591Y-86211849D03*
%TO.P,U3,D5,VSF4*%
%TO.N,unconnected-(U3A-VSF4-PadD5)*%
X92356591Y-87211849D03*
%TO.P,U3,D6,VSF5*%
%TO.N,unconnected-(U3A-VSF5-PadD6)*%
X92356591Y-88211849D03*
%TO.P,U3,D7,VSF6*%
%TO.N,unconnected-(U3A-VSF6-PadD7)*%
X92356591Y-89211849D03*
%TO.P,U3,D8,VSF7*%
%TO.N,unconnected-(U3A-VSF7-PadD8)*%
X92356591Y-90211849D03*
%TO.P,U3,D9,VSF8*%
%TO.N,unconnected-(U3A-VSF8-PadD9)*%
X92356591Y-91211849D03*
%TO.P,U3,E2,RFU*%
%TO.N,unconnected-(U3A-RFU-PadE2)*%
X93356591Y-84211849D03*
%TO.P,U3,E3,RFU*%
%TO.N,unconnected-(U3A-RFU-PadE3)*%
X93356591Y-85211849D03*
%TO.P,U3,E4,VDDIM*%
%TO.N,Net-(U3B-VDDIM)*%
X93356591Y-86211849D03*
%TO.P,U3,E5,RFU*%
%TO.N,unconnected-(U3A-RFU-PadE5)*%
X93356591Y-87211849D03*
%TO.P,U3,E6,RFU*%
%TO.N,unconnected-(U3A-RFU-PadE6)*%
X93356591Y-88211849D03*
%TO.P,U3,E7,RFU*%
%TO.N,unconnected-(U3A-RFU-PadE7)*%
X93356591Y-89211849D03*
%TO.P,U3,E8,RFU*%
%TO.N,unconnected-(U3A-RFU-PadE8)*%
X93356591Y-90211849D03*
%TO.P,U3,E9,RFU*%
%TO.N,unconnected-(U3A-RFU-PadE9)*%
X93356591Y-91211849D03*
%TO.P,U3,F2,VCC*%
%TO.N,P3V3*%
X94356591Y-84211849D03*
%TO.P,U3,F3,VCC*%
X94356591Y-85211849D03*
%TO.P,U3,F4,VCC*%
X94356591Y-86211849D03*
%TO.P,U3,F5,VCC*%
X94356591Y-87211849D03*
%TO.P,U3,F6,VCC*%
X94356591Y-88211849D03*
%TO.P,U3,F7,VCC*%
X94356591Y-89211849D03*
%TO.P,U3,F8,VCC*%
X94356591Y-90211849D03*
%TO.P,U3,F9,VCC*%
X94356591Y-91211849D03*
%TO.P,U3,G2,VSS*%
%TO.N,GND*%
X95356591Y-84211849D03*
%TO.P,U3,G3,VSS*%
X95356591Y-85211849D03*
%TO.P,U3,G4,VSS*%
X95356591Y-86211849D03*
%TO.P,U3,G5,VSS*%
X95356591Y-87211849D03*
%TO.P,U3,G6,VSS*%
X95356591Y-88211849D03*
%TO.P,U3,G7,VSS*%
X95356591Y-89211849D03*
%TO.P,U3,G8,VSS*%
X95356591Y-90211849D03*
%TO.P,U3,G9,VSS*%
X95356591Y-91211849D03*
%TO.P,U3,H2,VSSQ*%
X96356591Y-84211849D03*
%TO.P,U3,H3,VCCQ*%
%TO.N,P3V3*%
X96356591Y-85211849D03*
%TO.P,U3,H4,RFU*%
%TO.N,unconnected-(U3A-RFU-PadH4)*%
X96356591Y-86211849D03*
%TO.P,U3,H5,RFU*%
%TO.N,unconnected-(U3A-RFU-PadH5)*%
X96356591Y-87211849D03*
%TO.P,U3,H6,RFU*%
%TO.N,unconnected-(U3A-RFU-PadH6)*%
X96356591Y-88211849D03*
%TO.P,U3,H7,RFU*%
%TO.N,unconnected-(U3A-RFU-PadH7)*%
X96356591Y-89211849D03*
%TO.P,U3,H8,VCCQ*%
%TO.N,P3V3*%
X96356591Y-90211849D03*
%TO.P,U3,H9,VSSQ*%
%TO.N,GND*%
X96356591Y-91211849D03*
%TO.P,U3,J2,RFU*%
%TO.N,unconnected-(U3A-RFU-PadJ2)*%
X97356591Y-84211849D03*
%TO.P,U3,J3,RFU*%
%TO.N,unconnected-(U3A-RFU-PadJ3)*%
X97356591Y-85211849D03*
%TO.P,U3,J4,RFU*%
%TO.N,unconnected-(U3A-RFU-PadJ4)*%
X97356591Y-86211849D03*
%TO.P,U3,J5,VSS*%
%TO.N,GND*%
X97356591Y-87211849D03*
%TO.P,U3,J6,RFU*%
%TO.N,unconnected-(U3A-RFU-PadJ6)*%
X97356591Y-88211849D03*
%TO.P,U3,J7,RFU*%
%TO.N,unconnected-(U3A-RFU-PadJ7)*%
X97356591Y-89211849D03*
%TO.P,U3,J8,RFU*%
%TO.N,unconnected-(U3A-RFU-PadJ8)*%
X97356591Y-90211849D03*
%TO.P,U3,J9,RFU*%
%TO.N,unconnected-(U3A-RFU-PadJ9)*%
X97356591Y-91211849D03*
%TO.P,U3,K2,DAT0*%
%TO.N,/eMMC_D0*%
X98356591Y-84211849D03*
%TO.P,U3,K3,DAT2*%
%TO.N,/eMMC_D2*%
X98356591Y-85211849D03*
%TO.P,U3,K4,RFU*%
%TO.N,unconnected-(U3A-RFU-PadK4)*%
X98356591Y-86211849D03*
%TO.P,U3,K5,DS*%
%TO.N,Net-(U3A-DS)*%
X98356591Y-87211849D03*
%TO.P,U3,K6,RFU*%
%TO.N,unconnected-(U3A-RFU-PadK6)*%
X98356591Y-88211849D03*
%TO.P,U3,K7,RFU*%
%TO.N,unconnected-(U3A-RFU-PadK7)*%
X98356591Y-89211849D03*
%TO.P,U3,K8,DAT5*%
%TO.N,/eMMC_D5*%
X98356591Y-90211849D03*
%TO.P,U3,K9,DAT7*%
%TO.N,/eMMC_D7*%
X98356591Y-91211849D03*
%TO.P,U3,L2,VCCQ*%
%TO.N,P3V3*%
X99356591Y-84211849D03*
%TO.P,U3,L3,VSSQ*%
%TO.N,GND*%
X99356591Y-85211849D03*
%TO.P,U3,L4,VCCQ*%
%TO.N,P3V3*%
X99356591Y-86211849D03*
%TO.P,U3,L5,RFU*%
%TO.N,unconnected-(U3A-RFU-PadL5)*%
X99356591Y-87211849D03*
%TO.P,U3,L6,RFU*%
%TO.N,unconnected-(U3A-RFU-PadL6)*%
X99356591Y-88211849D03*
%TO.P,U3,L7,VCCQ*%
%TO.N,P3V3*%
X99356591Y-89211849D03*
%TO.P,U3,L8,VSSQ*%
%TO.N,GND*%
X99356591Y-90211849D03*
%TO.P,U3,L9,VCCQ*%
%TO.N,P3V3*%
X99356591Y-91211849D03*
%TO.P,U3,M2,RFU*%
%TO.N,unconnected-(U3A-RFU-PadM2)*%
X100356591Y-84211849D03*
%TO.P,U3,M3,RFU*%
%TO.N,unconnected-(U3A-RFU-PadM3)*%
X100357607Y-85211849D03*
%TO.P,U3,M4,VSSQ*%
%TO.N,GND*%
X100356591Y-86211849D03*
%TO.P,U3,M5,RST_n*%
%TO.N,/eMMC_RST_N*%
X100356591Y-87211849D03*
%TO.P,U3,M6,RFU*%
%TO.N,unconnected-(U3A-RFU-PadM6)*%
X100356591Y-88211849D03*
%TO.P,U3,M7,VSSQ*%
%TO.N,GND*%
X100356591Y-89211849D03*
%TO.P,U3,M8,RFU*%
%TO.N,unconnected-(U3A-RFU-PadM8)*%
X100356591Y-90211849D03*
%TO.P,U3,M9,RFU*%
%TO.N,unconnected-(U3A-RFU-PadM9)*%
X100356591Y-91211849D03*
%TO.P,U3,N2,DAT1*%
%TO.N,/eMMC_D1*%
X101356591Y-84211849D03*
%TO.P,U3,N3,DAT3*%
%TO.N,/eMMC_D3*%
X101356591Y-85211849D03*
%TO.P,U3,N4,RFU*%
%TO.N,unconnected-(U3A-RFU-PadN4)*%
X101356591Y-86211849D03*
%TO.P,U3,N5,RFU*%
%TO.N,unconnected-(U3A-RFU-PadN5)*%
X101356591Y-87211849D03*
%TO.P,U3,N6,RFU*%
%TO.N,unconnected-(U3A-RFU-PadN6)*%
X101356591Y-88211849D03*
%TO.P,U3,N7,RFU*%
%TO.N,unconnected-(U3A-RFU-PadN7)*%
X101356591Y-89211849D03*
%TO.P,U3,N8,DAT4*%
%TO.N,/eMMC_D4*%
X101356591Y-90211849D03*
%TO.P,U3,N9,DAT6*%
%TO.N,/eMMC_D6*%
X101356591Y-91211849D03*
%TO.P,U3,P2,VSSQ*%
%TO.N,GND*%
X102356591Y-84211849D03*
%TO.P,U3,P3,VCCQ*%
%TO.N,P3V3*%
X102356591Y-85211849D03*
%TO.P,U3,P4,RFU*%
%TO.N,unconnected-(U3A-RFU-PadP4)*%
X102356591Y-86211849D03*
%TO.P,U3,P5,CMD*%
%TO.N,/eMMC_CMD*%
X102356591Y-87211849D03*
%TO.P,U3,P6,CLK*%
%TO.N,/eMMC_CLK*%
X102356591Y-88211849D03*
%TO.P,U3,P7,RFU*%
%TO.N,unconnected-(U3A-RFU-PadP7)*%
X102356591Y-89211849D03*
%TO.P,U3,P8,VCCQ*%
%TO.N,P3V3*%
X102356591Y-90211849D03*
%TO.P,U3,P9,VSSQ*%
%TO.N,GND*%
X102356591Y-91211849D03*
%TO.P,U3,T1,NC*%
%TO.N,unconnected-(U3A-NC-PadT1)*%
X104356591Y-83211849D03*
%TO.P,U3,T10,NC*%
%TO.N,unconnected-(U3A-NC-PadT10)*%
X104356591Y-92211849D03*
%TO.P,U3,U1,NC*%
%TO.N,unconnected-(U3A-NC-PadU1)*%
X105356591Y-83211849D03*
%TO.P,U3,U2,NC*%
%TO.N,unconnected-(U3A-NC-PadU2)*%
X105356591Y-84211849D03*
%TO.P,U3,U9,NC*%
%TO.N,unconnected-(U3A-NC-PadU9)*%
X105356591Y-91211849D03*
%TO.P,U3,U10,NC*%
%TO.N,unconnected-(U3A-NC-PadU10)*%
X105356591Y-92211849D03*
%TD*%
D18*
%TO.P,R23,1,1*%
%TO.N,/eMMC_D2_R*%
X91636268Y-69493112D03*
%TO.P,R23,2,2*%
%TO.N,/eMMC_D2*%
X93461268Y-69493112D03*
%TD*%
%TO.P,R7,1,1*%
%TO.N,/eMMC_D2*%
X95636268Y-69500000D03*
%TO.P,R7,2,2*%
%TO.N,P3V3*%
X97461268Y-69500000D03*
%TD*%
D11*
%TO.P,R5,1,1*%
%TO.N,/eMMC_D0*%
X91500000Y-78762017D03*
%TO.P,R5,2,2*%
%TO.N,P3V3*%
X91500000Y-76937017D03*
%TD*%
D12*
%TO.P,R17,1,1*%
%TO.N,/eMMC_D0_R*%
X90000000Y-76937017D03*
%TO.P,R17,2,2*%
%TO.N,/eMMC_D0*%
X90000000Y-78762017D03*
%TD*%
D20*
%TO.P,U2,1,DAT2A*%
%TO.N,/PAD_uSD_DAT2*%
X85905093Y-69324523D03*
%TO.P,U2,2,GND*%
%TO.N,GND*%
X86405778Y-69324523D03*
%TO.P,U2,3,DAT3A*%
%TO.N,/PAD_uSD_DAT3*%
X86906159Y-69324523D03*
%TO.P,U2,4,CMDA*%
%TO.N,/PAD_uSD_CMD*%
X87406540Y-69324523D03*
%TO.P,U2,5,VCCA*%
%TO.N,P3V3_SD*%
X87904381Y-69324523D03*
%TO.P,U2,6,DAT0A*%
%TO.N,/PAD_uSD_DAT0*%
X88404762Y-69324523D03*
D21*
%TO.P,U2,7,DAT1A*%
%TO.N,/PAD_uSD_DAT1*%
X89174943Y-70095643D03*
%TO.P,U2,8,DAT2B1*%
%TO.N,/eMMC_D2_R*%
X89174943Y-70593078D03*
%TO.P,U2,9,CLKA*%
%TO.N,/PAD_uSD_SCLK*%
X89174943Y-71093459D03*
%TO.P,U2,10,DAT3B1*%
%TO.N,/eMMC_D3_R*%
X89174943Y-71593840D03*
%TO.P,U2,11,GND*%
%TO.N,GND*%
X89174943Y-72094221D03*
%TO.P,U2,12,CMDB1*%
%TO.N,/eMMC_CMD_R*%
X89174943Y-72594602D03*
D20*
%TO.P,U2,13,CLKB1*%
%TO.N,/eMMC_CLK_R*%
X88405067Y-73374511D03*
%TO.P,U2,14,DAT0B1*%
%TO.N,/eMMC_D0_R*%
X87904381Y-73374511D03*
%TO.P,U2,15,DAT1B1*%
%TO.N,/eMMC_D1_R*%
X87406540Y-73374511D03*
%TO.P,U2,16,DAT1B0*%
%TO.N,/SDCARD_D1_R*%
X86906159Y-73374511D03*
%TO.P,U2,17,VCCB1*%
%TO.N,P3V3*%
X86405778Y-73374511D03*
%TO.P,U2,18,DAT0B0*%
%TO.N,/SDCARD_D0_R*%
X85905397Y-73374511D03*
D21*
%TO.P,U2,19,CLKB0*%
%TO.N,/SDCARD_CLK_R*%
X85124955Y-72594602D03*
%TO.P,U2,20,CMDB0*%
%TO.N,/SDCARD_CMD_R*%
X85124955Y-72094221D03*
%TO.P,U2,21,VCCB0*%
%TO.N,P3V3*%
X85124955Y-71593840D03*
%TO.P,U2,22,DAT3B0*%
%TO.N,/SDCARD_D3_R*%
X85124955Y-71093459D03*
%TO.P,U2,23,DAT2B0*%
%TO.N,/SDCARD_D2_R*%
X85124955Y-70593078D03*
%TO.P,U2,24,SEL*%
%TO.N,/MUX_SEL*%
X85124955Y-70095643D03*
D22*
%TO.P,U2,25,EP*%
%TO.N,GND*%
X87150000Y-71350000D03*
%TD*%
D12*
%TO.P,R30,1*%
%TO.N,Net-(U4-K)*%
X102575000Y-75162500D03*
%TO.P,R30,2*%
%TO.N,GND*%
X102575000Y-76987500D03*
%TD*%
%TO.P,R1,1,1*%
%TO.N,/SDCARD_CLK_R*%
X83950051Y-76987500D03*
%TO.P,R1,2,2*%
%TO.N,/SDCARD_CLK*%
X83950051Y-78812500D03*
%TD*%
D17*
%TO.P,R21,1,1*%
%TO.N,/SDCARD_CMD_R*%
X81662500Y-75500000D03*
%TO.P,R21,2,2*%
%TO.N,/SDCARD_CMD*%
X79837500Y-75500000D03*
%TD*%
D12*
%TO.P,R24,1,1*%
%TO.N,/SDCARD_D1_R*%
X87000000Y-76937017D03*
%TO.P,R24,2,2*%
%TO.N,/SDCARD_D1*%
X87000000Y-78762017D03*
%TD*%
%TO.P,R6,1,1*%
%TO.N,/eMMC_D1*%
X93050000Y-76937017D03*
%TO.P,R6,2,2*%
%TO.N,P3V3*%
X93050000Y-78762017D03*
%TD*%
%TO.P,R16,1,1*%
%TO.N,/SDCARD_D0_R*%
X85500000Y-76937017D03*
%TO.P,R16,2,2*%
%TO.N,/SDCARD_D0*%
X85500000Y-78762017D03*
%TD*%
D11*
%TO.P,R15,1,1*%
%TO.N,GND*%
X96000000Y-97912500D03*
%TO.P,R15,2,2*%
%TO.N,Net-(U3A-DS)*%
X96000000Y-96087500D03*
%TD*%
D18*
%TO.P,R31,1,1*%
%TO.N,/SDCARD_CMD*%
X79837500Y-77000000D03*
%TO.P,R31,2,2*%
%TO.N,P3V3*%
X81662500Y-77000000D03*
%TD*%
%TO.P,R29,1,1*%
%TO.N,/SDCARD_D3*%
X79837500Y-74000000D03*
%TO.P,R29,2,2*%
%TO.N,P3V3*%
X81662500Y-74000000D03*
%TD*%
%TO.P,R14,1,1*%
%TO.N,/eMMC_CMD*%
X95636268Y-73193112D03*
%TO.P,R14,2,2*%
%TO.N,P3V3*%
X97461268Y-73193112D03*
%TD*%
D11*
%TO.P,R27,1,1*%
%TO.N,/SDCARD_D1*%
X87150433Y-87421710D03*
%TO.P,R27,2,2*%
%TO.N,P3V3*%
X87150433Y-85596710D03*
%TD*%
%TO.P,R12,1,1*%
%TO.N,GND*%
X100500000Y-97912500D03*
%TO.P,R12,2,2*%
%TO.N,/eMMC_D4*%
X100500000Y-96087500D03*
%TD*%
D23*
%TO.P,J3,1,1*%
%TO.N,GND*%
X70779997Y-74259995D03*
%TO.P,J3,2,2*%
%TO.N,/MUX_SEL*%
X73320003Y-71340005D03*
%TD*%
D18*
%TO.P,R20,1,1*%
%TO.N,/eMMC_CMD_R*%
X91636268Y-72493112D03*
%TO.P,R20,2,2*%
%TO.N,/eMMC_CMD*%
X93461268Y-72493112D03*
%TD*%
%TO.P,R13,1,1*%
%TO.N,/eMMC_CLK*%
X95636268Y-75393112D03*
%TO.P,R13,2,2*%
%TO.N,P3V3*%
X97461268Y-75393112D03*
%TD*%
%TO.P,R8,1,1*%
%TO.N,/eMMC_D3*%
X95636268Y-71000000D03*
%TO.P,R8,2,2*%
%TO.N,P3V3*%
X97461268Y-71000000D03*
%TD*%
%TO.P,R28,1,1*%
%TO.N,/SDCARD_D2*%
X79897500Y-69510000D03*
%TO.P,R28,2,2*%
%TO.N,P3V3*%
X81722500Y-69510000D03*
%TD*%
D12*
%TO.P,R25,1,1*%
%TO.N,/eMMC_D1_R*%
X88500000Y-76937017D03*
%TO.P,R25,2,2*%
%TO.N,/eMMC_D1*%
X88500000Y-78762017D03*
%TD*%
D11*
%TO.P,R11,1,1*%
%TO.N,GND*%
X97500000Y-97912500D03*
%TO.P,R11,2,2*%
%TO.N,/eMMC_D5*%
X97500000Y-96087500D03*
%TD*%
D24*
%TO.N,/PAD_uSD_CMD*%
X85659107Y-51300000D03*
D25*
%TO.N,GND*%
X102600000Y-83300000D03*
D26*
X90294221Y-72094221D03*
X95850000Y-85725000D03*
X99895834Y-85704444D03*
X98860000Y-89710000D03*
D24*
X82375000Y-56775000D03*
D27*
X86292765Y-68330170D03*
D24*
X69000000Y-90000000D03*
X72600000Y-75100000D03*
X69000000Y-85000000D03*
X105600000Y-81600000D03*
D26*
X94860000Y-89700000D03*
D24*
X92200000Y-97700000D03*
X99900000Y-75400000D03*
X105200000Y-93300000D03*
X80450000Y-79650000D03*
X73400000Y-98000000D03*
D26*
X96379693Y-91991723D03*
D24*
X80900000Y-98000000D03*
D27*
X94625000Y-70400000D03*
D25*
X95500000Y-92250012D03*
D24*
X103400000Y-96000000D03*
X106000000Y-73500000D03*
X71600000Y-70900000D03*
X88850000Y-53100000D03*
X93000000Y-67000000D03*
D26*
X94860000Y-88710000D03*
D27*
X94775000Y-74250000D03*
D24*
X90000000Y-98000000D03*
X105600000Y-85800000D03*
X102000000Y-70000000D03*
X69000000Y-82500000D03*
X90025000Y-55950000D03*
X91200000Y-89300000D03*
D26*
X102990000Y-84740000D03*
X94860000Y-85710000D03*
D24*
X78400000Y-98000000D03*
X85800000Y-84100000D03*
X69000000Y-75500000D03*
X98750000Y-69675000D03*
X106000000Y-78500000D03*
X96000000Y-83000000D03*
X68600000Y-70500000D03*
X85650000Y-52350000D03*
X70200000Y-95550000D03*
X85600000Y-55200000D03*
X88475000Y-50950000D03*
X79500000Y-93000000D03*
D26*
X99860000Y-88710000D03*
D24*
X88950000Y-51800000D03*
X69000000Y-93000000D03*
X71600000Y-69700000D03*
X85000000Y-97500000D03*
D27*
X89500000Y-73194610D03*
D26*
X96850000Y-86710000D03*
D24*
X69000000Y-87500000D03*
D27*
X96950000Y-72050000D03*
D24*
X89600000Y-89300000D03*
X105600000Y-88000000D03*
X69000000Y-73000000D03*
X77400000Y-68100000D03*
X103500000Y-97700000D03*
X89350000Y-50900000D03*
X69000000Y-78000000D03*
D26*
X94860000Y-87710000D03*
D24*
X82650000Y-81600000D03*
D26*
X94860000Y-86710000D03*
D24*
X93000000Y-75350000D03*
D26*
X101895364Y-90704956D03*
D24*
X88850000Y-66050000D03*
X102600000Y-78250000D03*
X73750000Y-81600000D03*
X87500000Y-98000000D03*
X75900000Y-98000000D03*
X106000000Y-76000000D03*
%TO.N,/PAD_uSD_DAT0*%
X90097861Y-52997861D03*
%TO.N,/PAD_uSD_DAT1*%
X91100000Y-55975000D03*
D26*
%TO.N,/PAD_uSD_SCLK*%
X90450000Y-70850000D03*
D24*
%TO.N,/PAD_uSD_DAT3*%
X84500000Y-55200000D03*
%TO.N,/PAD_uSD_DAT2*%
X83475000Y-56775000D03*
%TO.N,P3V3*%
X98750000Y-71000000D03*
X87200000Y-84100000D03*
X93300000Y-97700000D03*
X94350000Y-78750000D03*
D25*
X94000000Y-92250012D03*
D24*
X91500000Y-75500000D03*
D26*
X98850000Y-88700000D03*
D27*
X83000000Y-69500000D03*
D26*
X101860000Y-89710000D03*
X95850000Y-89700000D03*
D24*
X86233617Y-74751402D03*
X77250000Y-93000000D03*
X98650000Y-75400000D03*
D26*
X93850000Y-88710000D03*
X95860000Y-84700000D03*
X93860000Y-84710000D03*
D27*
X83500000Y-72000000D03*
D24*
X81650000Y-78550000D03*
X94000000Y-83000000D03*
D26*
X93850000Y-89700000D03*
D24*
X79400000Y-67000000D03*
D25*
X99000000Y-83300000D03*
D26*
X93850000Y-87700000D03*
X98860000Y-85710000D03*
X98860000Y-90710000D03*
X93850000Y-85700000D03*
D27*
X83000000Y-73950000D03*
D26*
X101850000Y-85725000D03*
X93850000Y-86700000D03*
%TO.N,Net-(U3B-VDDIM)*%
X92826388Y-86723612D03*
D27*
%TO.N,P3V3_SD*%
X87956540Y-68350000D03*
%TO.N,/eMMC_RST_N*%
X94500000Y-95000000D03*
D26*
X99850000Y-87720000D03*
%TO.N,/eMMC_D2*%
X97860000Y-84710000D03*
D27*
X94605940Y-69500000D03*
D26*
%TO.N,/eMMC_D3*%
X101870000Y-84700000D03*
D27*
X95800000Y-72000000D03*
%TO.N,Net-(U3A-DS)*%
X96900000Y-92700000D03*
D26*
X97830000Y-87720000D03*
D24*
%TO.N,Net-(U1-DETECT-SW)*%
X76050000Y-81550000D03*
%TO.N,Net-(U1-DETECT_LEVER)*%
X82550000Y-85900000D03*
D26*
%TO.N,/eMMC_CMD*%
X101850000Y-86710000D03*
D27*
X95790000Y-74230000D03*
%TD*%
D28*
%TO.N,/PAD_uSD_CMD*%
X87866540Y-57685600D02*
X87866540Y-58025600D01*
X87866540Y-54485600D02*
X87866540Y-54825600D01*
X87406540Y-55055600D02*
X87176540Y-55055600D01*
X87406540Y-55855600D02*
X87636540Y-55855600D01*
X87636540Y-55055600D02*
X87406540Y-55055600D01*
X87406540Y-58485600D02*
X87406540Y-58825600D01*
X87406540Y-56655600D02*
X87176540Y-56655600D01*
X86946540Y-56885600D02*
X86946540Y-57225600D01*
X87406540Y-57455600D02*
X87636540Y-57455600D01*
X87636540Y-56655600D02*
X87406540Y-56655600D01*
X87406540Y-58825600D02*
X87406540Y-59200465D01*
X86946540Y-55285600D02*
X86946540Y-55625600D01*
X87176540Y-57455600D02*
X87406540Y-57455600D01*
X87176540Y-55855600D02*
X87406540Y-55855600D01*
X85659107Y-51300000D02*
X87406540Y-53047433D01*
X87406540Y-53047433D02*
X87406540Y-54025600D01*
X87866540Y-56085600D02*
X87866540Y-56425600D01*
X87406540Y-59200465D02*
X87406540Y-69324523D01*
X87636540Y-58255600D02*
G75*
G03*
X87406500Y-58485600I-40J-230000D01*
G01*
X87636540Y-55855600D02*
G75*
G02*
X87866500Y-56085600I-40J-230000D01*
G01*
X86946540Y-57225600D02*
G75*
G03*
X87176540Y-57455560I229960J0D01*
G01*
X87636540Y-57455600D02*
G75*
G02*
X87866500Y-57685600I-40J-230000D01*
G01*
X87866540Y-56425600D02*
G75*
G02*
X87636540Y-56655640I-230040J0D01*
G01*
X87406540Y-54025600D02*
G75*
G03*
X87636540Y-54255560I229960J0D01*
G01*
X86946540Y-55625600D02*
G75*
G03*
X87176540Y-55855560I229960J0D01*
G01*
X87636540Y-54255600D02*
G75*
G02*
X87866500Y-54485600I-40J-230000D01*
G01*
X87866540Y-54825600D02*
G75*
G02*
X87636540Y-55055640I-230040J0D01*
G01*
X87866540Y-58025600D02*
G75*
G02*
X87636540Y-58255640I-230040J0D01*
G01*
X87176540Y-55055600D02*
G75*
G03*
X86946500Y-55285600I-40J-230000D01*
G01*
X87176540Y-56655600D02*
G75*
G03*
X86946500Y-56885600I-40J-230000D01*
G01*
D29*
%TO.N,GND*%
X70193739Y-95556261D02*
X70200000Y-95550000D01*
D30*
X95356591Y-84211849D02*
X95356591Y-83643409D01*
D29*
X84987490Y-97487490D02*
X85000000Y-97500000D01*
D28*
X99403239Y-85211849D02*
X99895834Y-85704444D01*
D31*
X96356591Y-91968621D02*
X96379693Y-91991723D01*
D28*
X94860000Y-87715258D02*
X95356591Y-88211849D01*
X95356591Y-85231591D02*
X95850000Y-85725000D01*
D29*
X70193739Y-97487490D02*
X70193739Y-95556261D01*
X82643574Y-83012510D02*
X82643574Y-81606426D01*
D28*
X96850000Y-86715258D02*
X97346591Y-87211849D01*
D32*
X95356591Y-91556591D02*
X95356591Y-91211849D01*
D28*
X94860000Y-85715258D02*
X95356591Y-86211849D01*
D32*
X79443675Y-93056325D02*
X79500000Y-93000000D01*
D33*
X89174943Y-72094221D02*
X90294221Y-72094221D01*
D28*
X94860000Y-88715258D02*
X95356591Y-89211849D01*
D29*
X73743650Y-83012510D02*
X73743650Y-81606350D01*
D30*
X95356591Y-83643409D02*
X96000000Y-83000000D01*
D28*
X102356591Y-84211849D02*
X102356591Y-83543409D01*
D30*
X102600000Y-78250000D02*
X102600000Y-77012500D01*
D28*
X94860000Y-86715258D02*
X95356591Y-87211849D01*
X98860000Y-89715258D02*
X99356591Y-90211849D01*
X87894221Y-72094221D02*
X87150000Y-71350000D01*
X99356591Y-85211849D02*
X99403239Y-85211849D01*
D32*
X79443675Y-94587567D02*
X79443675Y-93056325D01*
D33*
X86405778Y-69324523D02*
X86405778Y-68405778D01*
D32*
X95500000Y-92250012D02*
X95500000Y-91700000D01*
D28*
X94860000Y-89705258D02*
X95356591Y-90201849D01*
X102356591Y-83543409D02*
X102600000Y-83300000D01*
D30*
X71759995Y-74259995D02*
X70779997Y-74259995D01*
X96356591Y-83356591D02*
X96000000Y-83000000D01*
D31*
X103446634Y-97753366D02*
X103500000Y-97700000D01*
D32*
X96356591Y-91211849D02*
X96356591Y-91968621D01*
X102356591Y-91211849D02*
X102356591Y-91166183D01*
X95500000Y-91700000D02*
X95356591Y-91556591D01*
D33*
X86405778Y-69324523D02*
X86405778Y-70605778D01*
D31*
X96000000Y-97753366D02*
X103446634Y-97753366D01*
D28*
X90300000Y-72100000D02*
X90294221Y-72094221D01*
D29*
X73743650Y-81606350D02*
X73750000Y-81600000D01*
D28*
X99356591Y-85211849D02*
X99356591Y-85166183D01*
D29*
X83093663Y-97487490D02*
X84987490Y-97487490D01*
D28*
X86400000Y-68400000D02*
X86362595Y-68400000D01*
D33*
X89174943Y-72094221D02*
X87894221Y-72094221D01*
D30*
X96356591Y-84211849D02*
X96356591Y-83356591D01*
D28*
X100356591Y-86165201D02*
X99895834Y-85704444D01*
D32*
X102356591Y-91166183D02*
X101895364Y-90704956D01*
D28*
X100356591Y-86211849D02*
X100356591Y-86165201D01*
D30*
X102600000Y-77012500D02*
X102575000Y-76987500D01*
D28*
X86362595Y-68400000D02*
X86292765Y-68330170D01*
X99860000Y-88715258D02*
X100356591Y-89211849D01*
D32*
X95356591Y-85211849D02*
X95356591Y-85213409D01*
D30*
X72600000Y-75100000D02*
X71759995Y-74259995D01*
D28*
X95356591Y-85211849D02*
X95356591Y-85231591D01*
D29*
X82643574Y-81606426D02*
X82650000Y-81600000D01*
D28*
X86405778Y-70605778D02*
X87150000Y-71350000D01*
X86405778Y-68405778D02*
X86400000Y-68400000D01*
%TO.N,/PAD_uSD_DAT0*%
X88985000Y-62535000D02*
X88800000Y-62535000D01*
X89271599Y-64771599D02*
X89650000Y-65150000D01*
X88615000Y-61735000D02*
X88800000Y-61735000D01*
X89650000Y-65150000D02*
X89650000Y-67525000D01*
X88800000Y-62535000D02*
X88615000Y-62535000D01*
X88430000Y-59520000D02*
X88430000Y-59950000D01*
X90100000Y-53975000D02*
X88800000Y-55275000D01*
X88800000Y-55275000D02*
X88800000Y-59150000D01*
X88800000Y-63950000D02*
X88800000Y-64300000D01*
X88800000Y-63520000D02*
X88800000Y-63950000D01*
X89650000Y-67525000D02*
X88404762Y-68770238D01*
X89170000Y-60320000D02*
X89170000Y-60750000D01*
X88615000Y-60135000D02*
X88800000Y-60135000D01*
X88985000Y-60935000D02*
X88800000Y-60935000D01*
X90100000Y-53000000D02*
X90100000Y-53975000D01*
X88430000Y-62720000D02*
X88430000Y-63150000D01*
X90097861Y-52997861D02*
X90100000Y-53000000D01*
X88800000Y-60135000D02*
X88985000Y-60135000D01*
X88404762Y-68770238D02*
X88404762Y-69324523D01*
X88800000Y-64300000D02*
X89271599Y-64771599D01*
X88800000Y-61735000D02*
X88985000Y-61735000D01*
X88800000Y-60935000D02*
X88615000Y-60935000D01*
X88430000Y-61120000D02*
X88430000Y-61550000D01*
X89170000Y-61920000D02*
X89170000Y-62350000D01*
X88985000Y-61735000D02*
G75*
G02*
X89170000Y-61920000I0J-185000D01*
G01*
X88985000Y-60135000D02*
G75*
G02*
X89170000Y-60320000I0J-185000D01*
G01*
X88430000Y-61550000D02*
G75*
G03*
X88615000Y-61735000I185000J0D01*
G01*
X88430000Y-59950000D02*
G75*
G03*
X88615000Y-60135000I185000J0D01*
G01*
X88800000Y-59150000D02*
G75*
G02*
X88615000Y-59335000I-185000J0D01*
G01*
X88615000Y-60935000D02*
G75*
G03*
X88430000Y-61120000I0J-185000D01*
G01*
X89170000Y-60750000D02*
G75*
G02*
X88985000Y-60935000I-185000J0D01*
G01*
X88615000Y-62535000D02*
G75*
G03*
X88430000Y-62720000I0J-185000D01*
G01*
X89170000Y-62350000D02*
G75*
G02*
X88985000Y-62535000I-185000J0D01*
G01*
X88615000Y-59335000D02*
G75*
G03*
X88430000Y-59520000I0J-185000D01*
G01*
X88615000Y-63335000D02*
G75*
G02*
X88800000Y-63520000I0J-185000D01*
G01*
X88430000Y-63150000D02*
G75*
G03*
X88615000Y-63335000I185000J0D01*
G01*
%TO.N,/PAD_uSD_DAT1*%
X91050000Y-67675000D02*
X89625000Y-69100000D01*
X89454357Y-70095643D02*
X89174943Y-70095643D01*
X90700000Y-59935000D02*
X90885000Y-59935000D01*
X90330000Y-59320000D02*
X90330000Y-59750000D01*
X90700000Y-63780612D02*
X91050000Y-64130612D01*
X90700000Y-59135000D02*
X90515000Y-59135000D01*
X90700000Y-62150000D02*
X90700000Y-62750000D01*
X91070000Y-60120000D02*
X91070000Y-60550000D01*
X89625000Y-69925000D02*
X89454357Y-70095643D01*
X91100000Y-55975000D02*
X91100000Y-56850000D01*
X91070000Y-58520000D02*
X91070000Y-58950000D01*
X91050000Y-64130612D02*
X91050000Y-67675000D01*
X90700000Y-57250000D02*
X90700000Y-58150000D01*
X90885000Y-59135000D02*
X90700000Y-59135000D01*
X90700000Y-61720000D02*
X90700000Y-62150000D01*
X90330000Y-60920000D02*
X90330000Y-61350000D01*
X90515000Y-59935000D02*
X90700000Y-59935000D01*
X89625000Y-69100000D02*
X89625000Y-69925000D01*
X91100000Y-56850000D02*
X90700000Y-57250000D01*
X90885000Y-60735000D02*
X90700000Y-60735000D01*
X90700000Y-62750000D02*
X90700000Y-63780612D01*
X90700000Y-60735000D02*
X90515000Y-60735000D01*
X90330000Y-59750000D02*
G75*
G03*
X90515000Y-59935000I185000J0D01*
G01*
X90515000Y-59135000D02*
G75*
G03*
X90330000Y-59320000I0J-185000D01*
G01*
X91070000Y-60550000D02*
G75*
G02*
X90885000Y-60735000I-185000J0D01*
G01*
X90515000Y-61535000D02*
G75*
G02*
X90700000Y-61720000I0J-185000D01*
G01*
X90330000Y-61350000D02*
G75*
G03*
X90515000Y-61535000I185000J0D01*
G01*
X90885000Y-59935000D02*
G75*
G02*
X91070000Y-60120000I0J-185000D01*
G01*
X90885000Y-58335000D02*
G75*
G02*
X91070000Y-58520000I0J-185000D01*
G01*
X90515000Y-60735000D02*
G75*
G03*
X90330000Y-60920000I0J-185000D01*
G01*
X90700000Y-58150000D02*
G75*
G03*
X90885000Y-58335000I185000J0D01*
G01*
X91070000Y-58950000D02*
G75*
G02*
X90885000Y-59135000I-185000J0D01*
G01*
%TO.N,/PAD_uSD_SCLK*%
X90450000Y-70850000D02*
X90206541Y-71093459D01*
X90206541Y-71093459D02*
X89174943Y-71093459D01*
%TO.N,/PAD_uSD_DAT3*%
X85485000Y-61312073D02*
X85700000Y-61312073D01*
X86130000Y-61527073D02*
X86130000Y-61897073D01*
X84500000Y-56750000D02*
X85700000Y-57950000D01*
X85700000Y-63497073D02*
X85700000Y-63932344D01*
X86130000Y-59927073D02*
X86130000Y-60297073D01*
X85270000Y-59127073D02*
X85270000Y-59497073D01*
X85700000Y-63127073D02*
X85700000Y-63497073D01*
X85700000Y-63932344D02*
X85700000Y-66762682D01*
X85700000Y-60512073D02*
X85485000Y-60512073D01*
X85270000Y-60727073D02*
X85270000Y-61097073D01*
X85700000Y-61312073D02*
X85915000Y-61312073D01*
X85700000Y-59712073D02*
X85915000Y-59712073D01*
X85485000Y-59712073D02*
X85700000Y-59712073D01*
X85915000Y-62112073D02*
X85700000Y-62112073D01*
X85700000Y-66762682D02*
X86906159Y-67968841D01*
X86906159Y-67968841D02*
X86906159Y-69324523D01*
X85915000Y-60512073D02*
X85700000Y-60512073D01*
X85270000Y-62327073D02*
X85270000Y-62697073D01*
X85700000Y-62112073D02*
X85485000Y-62112073D01*
X85700000Y-57950000D02*
X85700000Y-58697073D01*
X84500000Y-55200000D02*
X84500000Y-56750000D01*
X85700000Y-58697073D02*
G75*
G02*
X85485000Y-58912100I-215000J-27D01*
G01*
X85485000Y-62912073D02*
G75*
G02*
X85700027Y-63127073I0J-215027D01*
G01*
X86130000Y-61897073D02*
G75*
G02*
X85915000Y-62112100I-215000J-27D01*
G01*
X85915000Y-61312073D02*
G75*
G02*
X86130027Y-61527073I0J-215027D01*
G01*
X85915000Y-59712073D02*
G75*
G02*
X86130027Y-59927073I0J-215027D01*
G01*
X85270000Y-62697073D02*
G75*
G03*
X85485000Y-62912100I215000J-27D01*
G01*
X85270000Y-59497073D02*
G75*
G03*
X85485000Y-59712100I215000J-27D01*
G01*
X85485000Y-58912073D02*
G75*
G03*
X85269973Y-59127073I0J-215027D01*
G01*
X85270000Y-61097073D02*
G75*
G03*
X85485000Y-61312100I215000J-27D01*
G01*
X85485000Y-60512073D02*
G75*
G03*
X85269973Y-60727073I0J-215027D01*
G01*
X86130000Y-60297073D02*
G75*
G02*
X85915000Y-60512100I-215000J-27D01*
G01*
X85485000Y-62112073D02*
G75*
G03*
X85269973Y-62327073I0J-215027D01*
G01*
%TO.N,/PAD_uSD_DAT2*%
X82900000Y-58450000D02*
X82900000Y-59321279D01*
X83475000Y-56775000D02*
X83475000Y-57875000D01*
X82670000Y-61171279D02*
X82900000Y-61171279D01*
X82900000Y-61981279D02*
X82670000Y-61981279D01*
X82440000Y-60591279D02*
X82440000Y-60941279D01*
X82440000Y-62211279D02*
X82440000Y-62561279D01*
X83360000Y-61401279D02*
X83360000Y-61751279D01*
X83360000Y-59781279D02*
X83360000Y-60131279D01*
X83130000Y-60361279D02*
X82900000Y-60361279D01*
X82900000Y-63371279D02*
X82900000Y-63912209D01*
X84250000Y-67250000D02*
X85905093Y-68905093D01*
X82900000Y-63912209D02*
X82900000Y-64800000D01*
X82900000Y-64800000D02*
X84250000Y-66150000D01*
X82900000Y-60361279D02*
X82670000Y-60361279D01*
X84250000Y-66150000D02*
X84250000Y-67250000D01*
X83130000Y-61981279D02*
X82900000Y-61981279D01*
X83475000Y-57875000D02*
X82900000Y-58450000D01*
X82900000Y-61171279D02*
X83130000Y-61171279D01*
X82900000Y-63021279D02*
X82900000Y-63371279D01*
X85905093Y-68905093D02*
X85905093Y-69324523D01*
X82670000Y-60361279D02*
G75*
G03*
X82439979Y-60591279I0J-230021D01*
G01*
X83130000Y-59551279D02*
G75*
G02*
X83360021Y-59781279I0J-230021D01*
G01*
X83360000Y-61751279D02*
G75*
G02*
X83130000Y-61981300I-230000J-21D01*
G01*
X82900000Y-59321279D02*
G75*
G03*
X83130000Y-59551300I230000J-21D01*
G01*
X82440000Y-62561279D02*
G75*
G03*
X82670000Y-62791300I230000J-21D01*
G01*
X82670000Y-62791279D02*
G75*
G02*
X82900021Y-63021279I0J-230021D01*
G01*
X83130000Y-61171279D02*
G75*
G02*
X83360021Y-61401279I0J-230021D01*
G01*
X83360000Y-60131279D02*
G75*
G02*
X83130000Y-60361300I-230000J-21D01*
G01*
X82670000Y-61981279D02*
G75*
G03*
X82439979Y-62211279I0J-230021D01*
G01*
X82440000Y-60941279D02*
G75*
G03*
X82670000Y-61171300I230000J-21D01*
G01*
D30*
%TO.N,P3V3*%
X102550000Y-71500000D02*
X101275000Y-71500000D01*
D31*
X87199924Y-85346634D02*
X87199924Y-84100076D01*
X81812500Y-66087500D02*
X82250000Y-66087500D01*
D28*
X93850000Y-87705258D02*
X94346591Y-88201849D01*
X94356591Y-85156591D02*
X94356591Y-85211849D01*
X99356591Y-84211849D02*
X99356591Y-83656591D01*
X93850000Y-89705258D02*
X94346591Y-90201849D01*
D31*
X93353366Y-97753366D02*
X93300000Y-97700000D01*
D33*
X83500000Y-72000000D02*
X83906160Y-71593840D01*
D28*
X102356591Y-85211849D02*
X102356591Y-85218409D01*
D29*
X93050000Y-78762017D02*
X94337983Y-78762017D01*
X81650000Y-78550000D02*
X81650000Y-77146634D01*
D30*
X100775000Y-71000000D02*
X98750000Y-71000000D01*
D29*
X82990000Y-69510000D02*
X83000000Y-69500000D01*
D32*
X94000000Y-83000000D02*
X94000000Y-83500000D01*
D33*
X86233617Y-74751402D02*
X86405778Y-74579241D01*
D32*
X102356591Y-90211849D02*
X102356591Y-90166183D01*
X94000000Y-92250012D02*
X94356591Y-91893421D01*
D31*
X80875000Y-67025000D02*
X81812500Y-66087500D01*
D32*
X102368440Y-90200000D02*
X102356591Y-90211849D01*
D31*
X81650000Y-77146634D02*
X81503366Y-77000000D01*
D30*
X82900000Y-73950000D02*
X82950000Y-74000000D01*
D31*
X81712500Y-73950000D02*
X82900000Y-73950000D01*
D32*
X97302134Y-69500000D02*
X97302134Y-71000000D01*
D28*
X93850000Y-86705258D02*
X94346591Y-87201849D01*
X93850000Y-85705258D02*
X94346591Y-86201849D01*
D31*
X79400000Y-67000000D02*
X79425000Y-67025000D01*
D32*
X77243777Y-94587567D02*
X77243777Y-93006223D01*
D28*
X98860000Y-85715258D02*
X99356591Y-86211849D01*
X99356591Y-83656591D02*
X99000000Y-83300000D01*
D29*
X91500000Y-75500000D02*
X91500000Y-76937017D01*
D33*
X86405778Y-74579241D02*
X86405778Y-73374511D01*
D28*
X93860000Y-84710000D02*
X93860000Y-84715258D01*
X98850000Y-88705258D02*
X99346591Y-89201849D01*
D32*
X94356591Y-91893421D02*
X94356591Y-91211849D01*
D31*
X85499924Y-85346634D02*
X87199924Y-85346634D01*
D28*
X93860000Y-84715258D02*
X94356591Y-85211849D01*
X98860000Y-90715258D02*
X99356591Y-91211849D01*
X95860000Y-84705258D02*
X96356591Y-85201849D01*
X95850000Y-89705258D02*
X96346591Y-90201849D01*
D31*
X79425000Y-67025000D02*
X80875000Y-67025000D01*
D32*
X94000000Y-83500000D02*
X94356591Y-83856591D01*
D30*
X101275000Y-71500000D02*
X100775000Y-71000000D01*
D32*
X97302134Y-71000000D02*
X98750000Y-71000000D01*
D31*
X94500000Y-97753366D02*
X93353366Y-97753366D01*
D32*
X77243777Y-93006223D02*
X77250000Y-93000000D01*
D28*
X93850000Y-88715258D02*
X94346591Y-89211849D01*
D29*
X94337983Y-78762017D02*
X94350000Y-78750000D01*
D31*
X87199924Y-84100076D02*
X87200000Y-84100000D01*
D28*
X101860000Y-89715258D02*
X102356591Y-90211849D01*
D33*
X83906160Y-71593840D02*
X85124955Y-71593840D01*
D29*
X81722500Y-69510000D02*
X82990000Y-69510000D01*
D28*
X102356591Y-85218409D02*
X101850000Y-85725000D01*
D32*
X97302134Y-75393112D02*
X98643112Y-75393112D01*
D30*
X81662500Y-74000000D02*
X81712500Y-73950000D01*
D28*
X82950000Y-74000000D02*
X83000000Y-73950000D01*
D32*
X97302134Y-75393112D02*
X97302134Y-73193112D01*
X98643112Y-75393112D02*
X98650000Y-75400000D01*
X94356591Y-83856591D02*
X94356591Y-84211849D01*
D28*
%TO.N,Net-(U3B-VDDIM)*%
X93120000Y-86448440D02*
X93356591Y-86211849D01*
X92826388Y-86723612D02*
X92826388Y-86720193D01*
X92920000Y-86650000D02*
X93120000Y-86450000D01*
X92826388Y-86723612D02*
X92850369Y-86699631D01*
X92896581Y-86650000D02*
X92920000Y-86650000D01*
X92826388Y-86720193D02*
X92896581Y-86650000D01*
X93120000Y-86450000D02*
X93120000Y-86448440D01*
%TO.N,P3V3_SD*%
X87950000Y-68350000D02*
X87904381Y-68395619D01*
X87956540Y-68350000D02*
X87950000Y-68350000D01*
D33*
X87904381Y-68395619D02*
X87904381Y-69324523D01*
%TO.N,/MUX_SEL*%
X84500000Y-68850000D02*
X83562500Y-67912500D01*
X85124955Y-70095643D02*
X84845643Y-70095643D01*
D32*
X73320003Y-71340005D02*
X76059995Y-71340005D01*
D33*
X84500000Y-69750000D02*
X84500000Y-68850000D01*
X83562500Y-67912500D02*
X82250000Y-67912500D01*
D32*
X76059995Y-71340005D02*
X79487500Y-67912500D01*
X79487500Y-67912500D02*
X82250000Y-67912500D01*
D33*
X84845643Y-70095643D02*
X84500000Y-69750000D01*
D28*
%TO.N,/SDCARD_CLK*%
X82764390Y-80084140D02*
X82622968Y-80225563D01*
X83187500Y-78812500D02*
X82764390Y-79235610D01*
X81025000Y-85332805D02*
X80750000Y-85332805D01*
X78457381Y-90746098D02*
X78754365Y-91043082D01*
X81300000Y-86507805D02*
X81300000Y-86857805D01*
X80750000Y-89375000D02*
X80750000Y-89500000D01*
X80069588Y-91226933D02*
X79772604Y-90929949D01*
X80750000Y-88307805D02*
X80750000Y-88657805D01*
X80475000Y-86232805D02*
X80750000Y-86232805D01*
X79546329Y-90703674D02*
X79320052Y-90477398D01*
X80750000Y-85332805D02*
X80475000Y-85332805D01*
X80750000Y-84432805D02*
X81025000Y-84432805D01*
X80200000Y-83807805D02*
X80200000Y-84157805D01*
X80750000Y-87132805D02*
X80475000Y-87132805D01*
X80750000Y-81250000D02*
X80750000Y-83257805D01*
X78754365Y-91495631D02*
X78641230Y-91608769D01*
X78551382Y-91698618D02*
X78343599Y-91906401D01*
X78641230Y-91608769D02*
X78551382Y-91698618D01*
X81107309Y-80892691D02*
X80750000Y-81250000D01*
X81633019Y-80366982D02*
X81107309Y-80892691D01*
X80338288Y-90364261D02*
X80635273Y-90661246D01*
X83950051Y-78812500D02*
X83187500Y-78812500D01*
X79320052Y-90477398D02*
X79023067Y-90180413D01*
X81025000Y-87132805D02*
X80750000Y-87132805D01*
X80475000Y-84432805D02*
X80750000Y-84432805D01*
X78570519Y-90180413D02*
X78457381Y-90293550D01*
X79772604Y-90929949D02*
X79546329Y-90703674D01*
X80750000Y-89500000D02*
X80338289Y-89911711D01*
X80635274Y-91113794D02*
X80522136Y-91226933D01*
X81774440Y-80225563D02*
X81633019Y-80366982D01*
X80200000Y-85607805D02*
X80200000Y-85957805D01*
X80200000Y-87407805D02*
X80200000Y-87757805D01*
X80750000Y-86232805D02*
X81025000Y-86232805D01*
X80750000Y-88657805D02*
X80750000Y-89375000D01*
X78343599Y-91906401D02*
X78343599Y-94587567D01*
X81300000Y-84707805D02*
X81300000Y-85057805D01*
X80200000Y-87757805D02*
G75*
G03*
X80475000Y-88032800I275000J5D01*
G01*
X81300000Y-85057805D02*
G75*
G02*
X81025000Y-85332800I-275000J5D01*
G01*
X80475000Y-83532805D02*
G75*
G03*
X80200005Y-83807805I0J-274995D01*
G01*
X80750000Y-83257805D02*
G75*
G02*
X80475000Y-83532800I-275000J5D01*
G01*
X82764390Y-79235610D02*
G75*
G03*
X82764432Y-79659832I212110J-212090D01*
G01*
X81025000Y-86232805D02*
G75*
G02*
X81299995Y-86507805I0J-274995D01*
G01*
X78754365Y-91043082D02*
G75*
G02*
X78754409Y-91495674I-226265J-226318D01*
G01*
X80338289Y-89911711D02*
G75*
G03*
X80338274Y-90364274I226311J-226289D01*
G01*
X81025000Y-84432805D02*
G75*
G02*
X81299995Y-84707805I0J-274995D01*
G01*
X80635273Y-90661246D02*
G75*
G02*
X80635254Y-91113773I-226273J-226254D01*
G01*
X78457381Y-90293550D02*
G75*
G03*
X78457405Y-90746074I226319J-226250D01*
G01*
X82622968Y-80225563D02*
G75*
G02*
X82198704Y-80225563I-212132J212132D01*
G01*
X82198704Y-80225563D02*
G75*
G03*
X81774440Y-80225563I-212132J-212132D01*
G01*
X80475000Y-88032805D02*
G75*
G02*
X80749995Y-88307805I0J-274995D01*
G01*
X80200000Y-85957805D02*
G75*
G03*
X80475000Y-86232800I275000J5D01*
G01*
X80200000Y-84157805D02*
G75*
G03*
X80475000Y-84432800I275000J5D01*
G01*
X82764389Y-79659876D02*
G75*
G02*
X82764382Y-80084131I-212089J-212124D01*
G01*
X80475000Y-87132805D02*
G75*
G03*
X80200005Y-87407805I0J-274995D01*
G01*
X81300000Y-86857805D02*
G75*
G02*
X81025000Y-87132800I-275000J5D01*
G01*
X79023067Y-90180413D02*
G75*
G03*
X78570519Y-90180413I-226274J-226273D01*
G01*
X80522136Y-91226933D02*
G75*
G02*
X80069588Y-91226933I-226274J226273D01*
G01*
X80475000Y-85332805D02*
G75*
G03*
X80200005Y-85607805I0J-274995D01*
G01*
%TO.N,/eMMC_CLK*%
X94702134Y-75393112D02*
X95543112Y-75393112D01*
X103053612Y-88300000D02*
X102444742Y-88300000D01*
X102444742Y-88300000D02*
X102356591Y-88211849D01*
X103650000Y-83500000D02*
X103650000Y-87703612D01*
X93302134Y-73993112D02*
X94702134Y-75393112D01*
X95543112Y-75393112D02*
X103650000Y-83500000D01*
X103650000Y-87703612D02*
X103053612Y-88300000D01*
%TO.N,/eMMC_RST_N*%
X100356591Y-87213409D02*
X99850000Y-87720000D01*
X100356591Y-87211849D02*
X100356591Y-87213409D01*
X94500000Y-95000000D02*
X94500000Y-96246634D01*
%TO.N,/eMMC_D0*%
X94858000Y-81342000D02*
X94858000Y-81000000D01*
X94858000Y-81000000D02*
X94858000Y-80658000D01*
X93218000Y-81342000D02*
X93218000Y-81000000D01*
X98356591Y-81706591D02*
X98356591Y-84211849D01*
X90000000Y-80350000D02*
X90650000Y-81000000D01*
X94038000Y-81000000D02*
X94038000Y-81342000D01*
X92398000Y-80672000D02*
X92398000Y-81000000D01*
X95678000Y-81000000D02*
X95678000Y-81328000D01*
X96826000Y-81000000D02*
X96990000Y-81000000D01*
X96990000Y-81000000D02*
X97350000Y-81000000D01*
X95186000Y-80330000D02*
X95350000Y-80330000D01*
X94366000Y-81670000D02*
X94530000Y-81670000D01*
X95678000Y-81328000D02*
X95678000Y-81342000D01*
X96498000Y-81342000D02*
X96498000Y-81328000D01*
X92398000Y-80658000D02*
X92398000Y-80672000D01*
X92726000Y-81670000D02*
X92890000Y-81670000D01*
X97350000Y-81000000D02*
X97650000Y-81000000D01*
X92398000Y-81000000D02*
X92398000Y-81342000D01*
X90000000Y-78762017D02*
X91500000Y-78762017D01*
X95678000Y-80658000D02*
X95678000Y-81000000D01*
X97650000Y-81000000D02*
X98356591Y-81706591D01*
X91578000Y-80672000D02*
X91578000Y-80658000D01*
X90000000Y-78762017D02*
X90000000Y-80350000D01*
X93546000Y-80330000D02*
X93710000Y-80330000D01*
X93218000Y-81000000D02*
X93218000Y-80658000D01*
X94038000Y-80658000D02*
X94038000Y-81000000D01*
X90650000Y-81000000D02*
X91250000Y-81000000D01*
X96006000Y-81670000D02*
X96170000Y-81670000D01*
X91906000Y-80330000D02*
X92070000Y-80330000D01*
X93218000Y-80658000D02*
G75*
G02*
X93546000Y-80330000I328000J0D01*
G01*
X92398000Y-81342000D02*
G75*
G03*
X92726000Y-81670000I328000J0D01*
G01*
X94530000Y-81670000D02*
G75*
G03*
X94858000Y-81342000I0J328000D01*
G01*
X93710000Y-80330000D02*
G75*
G02*
X94038000Y-80658000I0J-328000D01*
G01*
X91250000Y-81000000D02*
G75*
G03*
X91578000Y-80672000I0J328000D01*
G01*
X96170000Y-81670000D02*
G75*
G03*
X96498000Y-81342000I0J328000D01*
G01*
X95350000Y-80330000D02*
G75*
G02*
X95678000Y-80658000I0J-328000D01*
G01*
X91578000Y-80658000D02*
G75*
G02*
X91906000Y-80330000I328000J0D01*
G01*
X94858000Y-80658000D02*
G75*
G02*
X95186000Y-80330000I328000J0D01*
G01*
X92070000Y-80330000D02*
G75*
G02*
X92398000Y-80658000I0J-328000D01*
G01*
X92890000Y-81670000D02*
G75*
G03*
X93218000Y-81342000I0J328000D01*
G01*
X95678000Y-81342000D02*
G75*
G03*
X96006000Y-81670000I328000J0D01*
G01*
X94038000Y-81342000D02*
G75*
G03*
X94366000Y-81670000I328000J0D01*
G01*
X96498000Y-81328000D02*
G75*
G02*
X96826000Y-81000000I328000J0D01*
G01*
%TO.N,/eMMC_D1*%
X95187017Y-76937017D02*
X96414899Y-78164899D01*
X93050000Y-77200000D02*
X93050000Y-76937017D01*
X93050000Y-76937017D02*
X95187017Y-76937017D01*
X101356591Y-83106591D02*
X101356591Y-84211849D01*
X97203322Y-78953322D02*
X97426059Y-78730582D01*
X97871537Y-78730583D02*
X97991745Y-78850791D01*
X97991745Y-79741745D02*
X98111954Y-79861954D01*
X89402017Y-77860000D02*
X92390000Y-77860000D01*
X98111954Y-79861954D02*
X98275000Y-80025000D01*
X98275000Y-80025000D02*
X101356591Y-83106591D01*
X96980584Y-79176061D02*
X97203322Y-78953322D01*
X96414899Y-79055853D02*
X96535107Y-79176061D01*
X88711966Y-78550051D02*
X89402017Y-77860000D01*
X88100000Y-78550051D02*
X88711966Y-78550051D01*
X92390000Y-77860000D02*
X93050000Y-77200000D01*
X96414899Y-78164899D02*
G75*
G02*
X96414862Y-78610338I-222699J-222701D01*
G01*
X96414899Y-78610376D02*
G75*
G03*
X96414913Y-79055838I222701J-222724D01*
G01*
X96535107Y-79176061D02*
G75*
G03*
X96980584Y-79176062I222739J222740D01*
G01*
X97991746Y-79296269D02*
G75*
G03*
X97991752Y-79741738I222754J-222731D01*
G01*
X97426059Y-78730582D02*
G75*
G02*
X97871540Y-78730581I222741J-222718D01*
G01*
X97991745Y-78850791D02*
G75*
G02*
X97991716Y-79296238I-222745J-222709D01*
G01*
%TO.N,/eMMC_D2*%
X93848768Y-69493112D02*
X93302134Y-69493112D01*
X94605940Y-69500000D02*
X93855656Y-69500000D01*
X95636268Y-69500000D02*
X94605940Y-69500000D01*
X93855656Y-69500000D02*
X93848768Y-69493112D01*
X97860000Y-84710000D02*
X97860000Y-84715258D01*
X97860000Y-84715258D02*
X98356591Y-85211849D01*
%TO.N,/eMMC_D3*%
X95800000Y-71420000D02*
X95795402Y-71415402D01*
X95800000Y-72000000D02*
X95800000Y-71420000D01*
X101870000Y-84700000D02*
X101868440Y-84700000D01*
X101868440Y-84700000D02*
X101356591Y-85211849D01*
X95795402Y-71415402D02*
X95795402Y-70993112D01*
X95795402Y-70993112D02*
X93302134Y-70993112D01*
%TO.N,/eMMC_D7*%
X98356591Y-94733409D02*
X98356591Y-91211849D01*
X99000000Y-96246634D02*
X99000000Y-95376818D01*
X99000000Y-95376818D02*
X98356591Y-94733409D01*
%TO.N,/eMMC_D6*%
X101356591Y-91316591D02*
X101356591Y-91211849D01*
X102000000Y-91960000D02*
X101356591Y-91316591D01*
X102000000Y-96246634D02*
X102000000Y-91960000D01*
%TO.N,/eMMC_D5*%
X97860000Y-90708440D02*
X97860000Y-95886634D01*
X98338151Y-90211849D02*
X98356591Y-90211849D01*
X98356591Y-90211849D02*
X97860000Y-90708440D01*
X97860000Y-95886634D02*
X97500000Y-96246634D01*
%TO.N,/eMMC_D4*%
X100850000Y-91790000D02*
X100500000Y-92140000D01*
X100850000Y-90718440D02*
X100850000Y-91790000D01*
X100500000Y-92140000D02*
X100500000Y-96246634D01*
X101356591Y-90211849D02*
X100850000Y-90718440D01*
%TO.N,Net-(U3A-DS)*%
X96900000Y-92700000D02*
X96900000Y-94600000D01*
X98356591Y-87211849D02*
X98356591Y-87233409D01*
X98356591Y-87233409D02*
X97910000Y-87680000D01*
X97870000Y-87720000D02*
X97830000Y-87720000D01*
X96900000Y-94600000D02*
X96000000Y-95500000D01*
X97910000Y-87680000D02*
X97870000Y-87720000D01*
X96000000Y-95500000D02*
X96000000Y-96246634D01*
%TO.N,/SDCARD_D0*%
X84078636Y-82025628D02*
X84078636Y-82165628D01*
X82022443Y-92530105D02*
X82114366Y-92622028D01*
X84958636Y-81745628D02*
X84678636Y-81745628D01*
X83698288Y-91490656D02*
X83811425Y-91377518D01*
X80543752Y-94587567D02*
X80543752Y-93556248D01*
X84078636Y-83425628D02*
X84078636Y-83565628D01*
X84398636Y-83145628D02*
X84358636Y-83145628D01*
X83493226Y-90606771D02*
X83493228Y-90606772D01*
X84998636Y-83145628D02*
X84678636Y-83145628D01*
X85608942Y-88491058D02*
X85650509Y-88449491D01*
X83811425Y-90924970D02*
X83493226Y-90606771D01*
X85278636Y-81325628D02*
X85278636Y-81465628D01*
X84358636Y-83845628D02*
X84398636Y-83845628D01*
X84678636Y-84265628D02*
X84678636Y-84595970D01*
X84058915Y-90041085D02*
X84285189Y-90267359D01*
X84850874Y-89249124D02*
X84964011Y-89135988D01*
X85500000Y-79674553D02*
X84678636Y-80495917D01*
X84964011Y-89135988D02*
X85608942Y-88491058D01*
X83493228Y-90606772D02*
X83175030Y-90288574D01*
X84058916Y-90041087D02*
X84058915Y-90041085D01*
X82609344Y-90854261D02*
X82927543Y-91172460D01*
X84678636Y-83145628D02*
X84398636Y-83145628D01*
X83740717Y-89722888D02*
X84058916Y-90041087D01*
X82680052Y-92056342D02*
X82588128Y-91964418D01*
X84942798Y-89793597D02*
X84850874Y-89701673D01*
X85278636Y-82725628D02*
X85278636Y-82865628D01*
X84678636Y-84125628D02*
X84678636Y-84265628D01*
X84678636Y-80495917D02*
X84678636Y-80765628D01*
X84829661Y-90359283D02*
X84942798Y-90246145D01*
X84678636Y-81745628D02*
X84358636Y-81745628D01*
X82043657Y-90967399D02*
X82156796Y-90854261D01*
X84285189Y-90267359D02*
X84377113Y-90359283D01*
X85500000Y-79002883D02*
X85500000Y-79674553D01*
X80543752Y-93556248D02*
X81569895Y-92530105D01*
X84358636Y-82445628D02*
X84678636Y-82445628D01*
X82361853Y-91738143D02*
X82361855Y-91738145D01*
X84678636Y-84595970D02*
X84678636Y-86478636D01*
X83175030Y-89836026D02*
X83288169Y-89722888D01*
X82927542Y-91172458D02*
X83245740Y-91490656D01*
X85650509Y-88449491D02*
X85650509Y-87421710D01*
X82361855Y-91738145D02*
X82043657Y-91419947D01*
X84998636Y-81745628D02*
X84958636Y-81745628D01*
X84958636Y-81045628D02*
X84998636Y-81045628D01*
X84678636Y-82445628D02*
X84998636Y-82445628D01*
X82588128Y-91964418D02*
X82361853Y-91738143D01*
X82566915Y-92622028D02*
X82680052Y-92508890D01*
X82927543Y-91172460D02*
X82927542Y-91172458D01*
X84678636Y-86478636D02*
X85499924Y-87299924D01*
X84850874Y-89701673D02*
G75*
G02*
X84850875Y-89249126I226226J226273D01*
G01*
X83175030Y-90288574D02*
G75*
G02*
X83175030Y-89836026I226270J226274D01*
G01*
X82043657Y-91419947D02*
G75*
G02*
X82043684Y-90967426I226243J226247D01*
G01*
X84678636Y-80765628D02*
G75*
G03*
X84958636Y-81045564I279964J28D01*
G01*
X84358636Y-83145628D02*
G75*
G03*
X84078628Y-83425628I-36J-279972D01*
G01*
X84358636Y-81745628D02*
G75*
G03*
X84078628Y-82025628I-36J-279972D01*
G01*
X82156796Y-90854261D02*
G75*
G02*
X82609344Y-90854261I226274J-226273D01*
G01*
X84942798Y-90246145D02*
G75*
G03*
X84942769Y-89793626I-226298J226245D01*
G01*
X81569895Y-92530105D02*
G75*
G02*
X82022443Y-92530105I226274J-226273D01*
G01*
X83811425Y-91377518D02*
G75*
G03*
X83811469Y-90924926I-226225J226318D01*
G01*
X82680052Y-92508890D02*
G75*
G03*
X82680068Y-92056326I-226252J226290D01*
G01*
X84998636Y-81045628D02*
G75*
G02*
X85278572Y-81325628I-36J-279972D01*
G01*
X84998636Y-82445628D02*
G75*
G02*
X85278572Y-82725628I-36J-279972D01*
G01*
X84398636Y-83845628D02*
G75*
G02*
X84678572Y-84125628I-36J-279972D01*
G01*
X83288169Y-89722888D02*
G75*
G02*
X83740717Y-89722888I226274J-226273D01*
G01*
X84078636Y-83565628D02*
G75*
G03*
X84358636Y-83845564I279964J28D01*
G01*
X85278636Y-82865628D02*
G75*
G02*
X84998636Y-83145636I-280036J28D01*
G01*
X84078636Y-82165628D02*
G75*
G03*
X84358636Y-82445564I279964J28D01*
G01*
X82114366Y-92622028D02*
G75*
G03*
X82566915Y-92622029I226275J226278D01*
G01*
X83245740Y-91490656D02*
G75*
G03*
X83698288Y-91490656I226274J226273D01*
G01*
X85278636Y-81465628D02*
G75*
G02*
X84998636Y-81745636I-280036J28D01*
G01*
X84377113Y-90359283D02*
G75*
G03*
X84829661Y-90359283I226274J226273D01*
G01*
%TO.N,/SDCARD_D0_R*%
X85500000Y-74063464D02*
X85500000Y-76937017D01*
X85905397Y-73658067D02*
X85500000Y-74063464D01*
X85905397Y-73374511D02*
X85905397Y-73658067D01*
%TO.N,/eMMC_D0_R*%
X90000000Y-76060593D02*
X90000000Y-76937017D01*
X87904381Y-73964974D02*
X90000000Y-76060593D01*
X87904381Y-73374511D02*
X87904381Y-73964974D01*
%TO.N,/SDCARD_D3*%
X73575000Y-90975000D02*
X75043625Y-92443625D01*
X78500000Y-78261673D02*
X78500000Y-78461673D01*
X79837500Y-74000000D02*
X79837500Y-72659134D01*
X77900000Y-79261673D02*
X77900000Y-79744582D01*
X75043625Y-92443625D02*
X75043625Y-94587567D01*
X77900000Y-84300000D02*
X73575000Y-88625000D01*
X77300000Y-77461673D02*
X77300000Y-77661673D01*
X77900000Y-77961673D02*
X78200000Y-77961673D01*
X79837500Y-74000000D02*
X78570000Y-74000000D01*
X77900000Y-79061673D02*
X77900000Y-79261673D01*
X77900000Y-79744582D02*
X77900000Y-84300000D01*
X79837500Y-72659134D02*
X79996634Y-72500000D01*
X78570000Y-74000000D02*
X77900000Y-74670000D01*
X77600000Y-77961673D02*
X77900000Y-77961673D01*
X77900000Y-74670000D02*
X77900000Y-76861673D01*
X73575000Y-88625000D02*
X73575000Y-90975000D01*
X78500000Y-78461673D02*
G75*
G02*
X78200000Y-78761700I-300000J-27D01*
G01*
X78200000Y-77961673D02*
G75*
G02*
X78500027Y-78261673I0J-300027D01*
G01*
X77600000Y-77161673D02*
G75*
G03*
X77299973Y-77461673I0J-300027D01*
G01*
X77900000Y-76861673D02*
G75*
G02*
X77600000Y-77161700I-300000J-27D01*
G01*
X78200000Y-78761673D02*
G75*
G03*
X77899973Y-79061673I0J-300027D01*
G01*
X77300000Y-77661673D02*
G75*
G03*
X77600000Y-77961700I300000J-27D01*
G01*
%TO.N,/SDCARD_D3_R*%
X82053921Y-72500000D02*
X83460462Y-71093459D01*
X81662500Y-72500000D02*
X82053921Y-72500000D01*
X83460462Y-71093459D02*
X85124955Y-71093459D01*
%TO.N,/eMMC_D3_R*%
X91194674Y-71593840D02*
X91795402Y-70993112D01*
X89174943Y-71593840D02*
X91194674Y-71593840D01*
%TO.N,/eMMC_CMD_R*%
X89174943Y-72594602D02*
X91693912Y-72594602D01*
X91693912Y-72594602D02*
X91795402Y-72493112D01*
%TO.N,/SDCARD_CMD_R*%
X83050000Y-75500000D02*
X83650000Y-74900000D01*
X83650000Y-74900000D02*
X83650000Y-72850000D01*
X83650000Y-72850000D02*
X84405779Y-72094221D01*
X81503366Y-75500000D02*
X83050000Y-75500000D01*
X84405779Y-72094221D02*
X85124955Y-72094221D01*
%TO.N,/SDCARD_CMD*%
X79837500Y-76840866D02*
X79837500Y-75659134D01*
X77132342Y-87773421D02*
X77365688Y-88006767D01*
X76800000Y-88572452D02*
X76566655Y-88339107D01*
X78617265Y-88126972D02*
X78157645Y-87667352D01*
X79837500Y-75659134D02*
X79996634Y-75500000D01*
X78504128Y-88692658D02*
X78617265Y-88579520D01*
X77365688Y-88006767D02*
X77591962Y-88233041D01*
X77698028Y-86755186D02*
X77811167Y-86642048D01*
X78157647Y-87667353D02*
X77931373Y-87441079D01*
X78263715Y-86642048D02*
X78497061Y-86875394D01*
X79300000Y-86525000D02*
X79300000Y-86175000D01*
X77591962Y-88233041D02*
X77591961Y-88233039D01*
X76566655Y-87886559D02*
X76679794Y-87773421D01*
X76143701Y-89681299D02*
X76800000Y-89025000D01*
X79837500Y-78762500D02*
X79837500Y-77000000D01*
X78157645Y-87667352D02*
X78157647Y-87667353D01*
X78949609Y-86875394D02*
X79062745Y-86762256D01*
X77591961Y-88233039D02*
X78051580Y-88692658D01*
X79300000Y-86175000D02*
X79300000Y-79300000D01*
X79062745Y-86762256D02*
X79300000Y-86525000D01*
X76143701Y-94587567D02*
X76143701Y-89681299D01*
X79300000Y-79300000D02*
X79837500Y-78762500D01*
X77931373Y-87441079D02*
X77698028Y-87207734D01*
X76679794Y-87773421D02*
G75*
G02*
X77132342Y-87773421I226274J-226273D01*
G01*
X77811167Y-86642048D02*
G75*
G02*
X78263715Y-86642048I226274J-226273D01*
G01*
X78051580Y-88692658D02*
G75*
G03*
X78504128Y-88692658I226274J226273D01*
G01*
X78497061Y-86875394D02*
G75*
G03*
X78949609Y-86875394I226274J226273D01*
G01*
X77698028Y-87207734D02*
G75*
G02*
X77698068Y-86755226I226272J226234D01*
G01*
X76566655Y-88339107D02*
G75*
G02*
X76566622Y-87886526I226245J226307D01*
G01*
X76800000Y-89025000D02*
G75*
G03*
X76800026Y-88572426I-226300J226300D01*
G01*
X78617265Y-88579520D02*
G75*
G03*
X78617311Y-88126926I-226265J226320D01*
G01*
%TO.N,/SDCARD_D2_R*%
X81662500Y-71000000D02*
X82750000Y-71000000D01*
X83156922Y-70593078D02*
X85124955Y-70593078D01*
X82750000Y-71000000D02*
X83156922Y-70593078D01*
%TO.N,/SDCARD_D2*%
X73943548Y-93443548D02*
X73943548Y-94587567D01*
X79837500Y-71000000D02*
X79100000Y-71000000D01*
X75325000Y-78200000D02*
X71750000Y-81775000D01*
X71750000Y-91250000D02*
X73943548Y-93443548D01*
X75325000Y-74775000D02*
X75325000Y-78200000D01*
X79897500Y-70940000D02*
X79837500Y-71000000D01*
X79897500Y-69510000D02*
X79897500Y-70940000D01*
X71750000Y-81775000D02*
X71750000Y-91250000D01*
X79100000Y-71000000D02*
X75325000Y-74775000D01*
%TO.N,/eMMC_D2_R*%
X89174943Y-70593078D02*
X89656922Y-70593078D01*
X91788514Y-69500000D02*
X91795402Y-69493112D01*
X89656922Y-70593078D02*
X90750000Y-69500000D01*
X90750000Y-69500000D02*
X91788514Y-69500000D01*
%TO.N,/SDCARD_D1_R*%
X86906159Y-73374511D02*
X86906159Y-74693841D01*
X87000000Y-74787682D02*
X87000000Y-76937017D01*
X86906159Y-74693841D02*
X87000000Y-74787682D01*
%TO.N,/SDCARD_D1*%
X88270000Y-86380000D02*
X87228290Y-87421710D01*
X87670000Y-82556450D02*
X87670000Y-82756450D01*
X88270000Y-83556450D02*
X88270000Y-83910632D01*
X87150433Y-91274515D02*
X87150433Y-87421710D01*
X86066294Y-92508706D02*
X85862648Y-92305060D01*
X85048057Y-93526940D02*
X85048059Y-93526941D01*
X86135592Y-91559769D02*
X86371766Y-91795943D01*
X88870000Y-81756450D02*
X88870000Y-81956450D01*
X86066292Y-92508705D02*
X86066294Y-92508706D01*
X88270000Y-82256450D02*
X87970000Y-82256450D01*
X85557177Y-93017823D02*
X85996997Y-93457643D01*
X85117357Y-92578004D02*
X85557178Y-93017825D01*
X85251704Y-93730587D02*
X85048057Y-93526940D01*
X88270000Y-80720000D02*
X88270000Y-81156450D01*
X85557178Y-93017825D02*
X85557177Y-93017823D01*
X84742588Y-94239705D02*
X84978761Y-94475878D01*
X87228290Y-87421710D02*
X87199924Y-87421710D01*
X83987433Y-94587567D02*
X84335295Y-94239705D01*
X84608240Y-92679827D02*
X84710063Y-92578005D01*
X87150433Y-91424567D02*
X87150433Y-91274515D01*
X88570000Y-82256450D02*
X88270000Y-82256450D01*
X86404290Y-93457643D02*
X86506113Y-93355819D01*
X87000000Y-78762017D02*
X87000000Y-79450000D01*
X85626475Y-91661592D02*
X85728298Y-91559770D01*
X86779060Y-91795943D02*
X86880883Y-91694118D01*
X85862648Y-92305060D02*
X85626474Y-92068886D01*
X85386055Y-94475878D02*
X85487878Y-94374054D01*
X86880883Y-91694118D02*
X87150433Y-91424567D01*
X85487878Y-93966761D02*
X85251704Y-93730587D01*
X81643574Y-94587567D02*
X83987433Y-94587567D01*
X86506113Y-92948526D02*
X86066292Y-92508705D01*
X87000000Y-79450000D02*
X88270000Y-80720000D01*
X88270000Y-83356450D02*
X88270000Y-83556450D01*
X85048059Y-93526941D02*
X84608239Y-93087121D01*
X88270000Y-83910632D02*
X88270000Y-86380000D01*
X86506113Y-93355819D02*
G75*
G03*
X86506086Y-92948554I-203613J203619D01*
G01*
X87670000Y-82756450D02*
G75*
G03*
X87970000Y-83056400I300000J50D01*
G01*
X88870000Y-81956450D02*
G75*
G02*
X88570000Y-82256400I-300000J50D01*
G01*
X84710063Y-92578005D02*
G75*
G02*
X85117347Y-92578014I203637J-203695D01*
G01*
X84978761Y-94475878D02*
G75*
G03*
X85386055Y-94475878I203647J203648D01*
G01*
X85728298Y-91559770D02*
G75*
G02*
X86135546Y-91559814I203602J-203630D01*
G01*
X87970000Y-83056450D02*
G75*
G02*
X88270050Y-83356450I0J-300050D01*
G01*
X84608239Y-93087121D02*
G75*
G02*
X84608265Y-92679852I203661J203621D01*
G01*
X88570000Y-81456450D02*
G75*
G02*
X88870050Y-81756450I0J-300050D01*
G01*
X85626474Y-92068886D02*
G75*
G02*
X85626435Y-91661552I203626J203686D01*
G01*
X87970000Y-82256450D02*
G75*
G03*
X87669950Y-82556450I0J-300050D01*
G01*
X84335295Y-94239705D02*
G75*
G02*
X84742588Y-94239704I203647J-203647D01*
G01*
X85996997Y-93457643D02*
G75*
G03*
X86404290Y-93457644I203647J203647D01*
G01*
X86371766Y-91795943D02*
G75*
G03*
X86779060Y-91795943I203647J203648D01*
G01*
X85487878Y-94374054D02*
G75*
G03*
X85487886Y-93966754I-203678J203654D01*
G01*
X88270000Y-81156450D02*
G75*
G03*
X88570000Y-81456400I300000J50D01*
G01*
%TO.N,/eMMC_D1_R*%
X87406540Y-73374511D02*
X87406540Y-74406540D01*
X88500000Y-75500000D02*
X88500000Y-76937017D01*
X87406540Y-74406540D02*
X88500000Y-75500000D01*
D29*
%TO.N,Net-(U1-DETECT-SW)*%
X76043625Y-83012510D02*
X76043625Y-81556375D01*
X76043625Y-81556375D02*
X76050000Y-81550000D01*
%TO.N,Net-(U1-DETECT_LEVER)*%
X83306261Y-87737681D02*
X83306261Y-86656261D01*
X83306261Y-86656261D02*
X82550000Y-85900000D01*
D28*
%TO.N,/eMMC_CMD*%
X95790000Y-73346844D02*
X95790000Y-74230000D01*
X94418112Y-73193112D02*
X95636268Y-73193112D01*
X101854742Y-86710000D02*
X102356591Y-87211849D01*
X93302134Y-72493112D02*
X93718112Y-72493112D01*
X95636268Y-73193112D02*
X95790000Y-73346844D01*
X101850000Y-86710000D02*
X101854742Y-86710000D01*
X93718112Y-72493112D02*
X94418112Y-73193112D01*
%TO.N,/SDCARD_CLK_R*%
X84575000Y-72925000D02*
X84575000Y-75700000D01*
X83950051Y-76324949D02*
X83950051Y-76987500D01*
X84905398Y-72594602D02*
X84575000Y-72925000D01*
X85124955Y-72594602D02*
X84905398Y-72594602D01*
X84575000Y-75700000D02*
X83950051Y-76324949D01*
%TO.N,/eMMC_CLK_R*%
X91788514Y-74000000D02*
X91795402Y-73993112D01*
X88405067Y-73704635D02*
X88700432Y-74000000D01*
X88700432Y-74000000D02*
X91788514Y-74000000D01*
X88405067Y-73374511D02*
X88405067Y-73704635D01*
D30*
%TO.N,Net-(U4-K)*%
X102550000Y-73250000D02*
X102550000Y-75137500D01*
X102550000Y-75137500D02*
X102575000Y-75162500D01*
%TD*%
M02*
