%TF.GenerationSoftware,KiCad,Pcbnew,9.0.2*%
%TF.CreationDate,2025-06-22T16:31:42+02:00*%
%TF.ProjectId,Board,426f6172-642e-46b6-9963-61645f706362,rev?*%
%TF.SameCoordinates,Original*%
%TF.FileFunction,Soldermask,Bot*%
%TF.FilePolarity,Negative*%
%FSLAX46Y46*%
G04 Gerber Fmt 4.6, Leading zero omitted, Abs format (unit mm)*
G04 Created by KiCad (PCBNEW 9.0.2) date 2025-06-22 16:31:42*
%MOMM*%
%LPD*%
G01*
G04 APERTURE LIST*
G04 APERTURE END LIST*
G36*
X94803323Y-97382637D02*
G01*
X94807336Y-97384408D01*
X94811302Y-97384931D01*
X94860889Y-97408054D01*
X94899977Y-97425313D01*
X94901792Y-97427128D01*
X94902182Y-97427310D01*
X94972689Y-97497817D01*
X94972870Y-97498206D01*
X94974687Y-97500023D01*
X94991955Y-97539132D01*
X95015068Y-97588697D01*
X95015589Y-97592661D01*
X95017363Y-97596677D01*
X95025000Y-97662500D01*
X95025000Y-98162500D01*
X95017363Y-98228323D01*
X95015589Y-98232339D01*
X95015068Y-98236302D01*
X94991963Y-98285848D01*
X94974687Y-98324977D01*
X94972869Y-98326794D01*
X94972689Y-98327182D01*
X94902182Y-98397689D01*
X94901794Y-98397869D01*
X94899977Y-98399687D01*
X94860848Y-98416963D01*
X94811302Y-98440068D01*
X94807339Y-98440589D01*
X94803323Y-98442363D01*
X94737500Y-98450000D01*
X94262500Y-98450000D01*
X94196677Y-98442363D01*
X94192661Y-98440589D01*
X94188697Y-98440068D01*
X94139132Y-98416955D01*
X94100023Y-98399687D01*
X94098206Y-98397870D01*
X94097817Y-98397689D01*
X94027310Y-98327182D01*
X94027128Y-98326792D01*
X94025313Y-98324977D01*
X94008054Y-98285889D01*
X93984931Y-98236302D01*
X93984408Y-98232336D01*
X93982637Y-98228323D01*
X93975000Y-98162500D01*
X93975000Y-97662500D01*
X93982637Y-97596677D01*
X93984408Y-97592664D01*
X93984931Y-97588697D01*
X94008062Y-97539091D01*
X94025313Y-97500023D01*
X94027127Y-97498208D01*
X94027310Y-97497817D01*
X94097817Y-97427310D01*
X94098208Y-97427127D01*
X94100023Y-97425313D01*
X94139091Y-97408062D01*
X94188697Y-97384931D01*
X94192664Y-97384408D01*
X94196677Y-97382637D01*
X94262500Y-97375000D01*
X94737500Y-97375000D01*
X94803323Y-97382637D01*
G37*
G36*
X96303323Y-97382637D02*
G01*
X96307336Y-97384408D01*
X96311302Y-97384931D01*
X96360889Y-97408054D01*
X96399977Y-97425313D01*
X96401792Y-97427128D01*
X96402182Y-97427310D01*
X96472689Y-97497817D01*
X96472870Y-97498206D01*
X96474687Y-97500023D01*
X96491955Y-97539132D01*
X96515068Y-97588697D01*
X96515589Y-97592661D01*
X96517363Y-97596677D01*
X96525000Y-97662500D01*
X96525000Y-98162500D01*
X96517363Y-98228323D01*
X96515589Y-98232339D01*
X96515068Y-98236302D01*
X96491963Y-98285848D01*
X96474687Y-98324977D01*
X96472869Y-98326794D01*
X96472689Y-98327182D01*
X96402182Y-98397689D01*
X96401794Y-98397869D01*
X96399977Y-98399687D01*
X96360848Y-98416963D01*
X96311302Y-98440068D01*
X96307339Y-98440589D01*
X96303323Y-98442363D01*
X96237500Y-98450000D01*
X95762500Y-98450000D01*
X95696677Y-98442363D01*
X95692661Y-98440589D01*
X95688697Y-98440068D01*
X95639132Y-98416955D01*
X95600023Y-98399687D01*
X95598206Y-98397870D01*
X95597817Y-98397689D01*
X95527310Y-98327182D01*
X95527128Y-98326792D01*
X95525313Y-98324977D01*
X95508054Y-98285889D01*
X95484931Y-98236302D01*
X95484408Y-98232336D01*
X95482637Y-98228323D01*
X95475000Y-98162500D01*
X95475000Y-97662500D01*
X95482637Y-97596677D01*
X95484408Y-97592664D01*
X95484931Y-97588697D01*
X95508062Y-97539091D01*
X95525313Y-97500023D01*
X95527127Y-97498208D01*
X95527310Y-97497817D01*
X95597817Y-97427310D01*
X95598208Y-97427127D01*
X95600023Y-97425313D01*
X95639091Y-97408062D01*
X95688697Y-97384931D01*
X95692664Y-97384408D01*
X95696677Y-97382637D01*
X95762500Y-97375000D01*
X96237500Y-97375000D01*
X96303323Y-97382637D01*
G37*
G36*
X97803323Y-97382637D02*
G01*
X97807336Y-97384408D01*
X97811302Y-97384931D01*
X97860889Y-97408054D01*
X97899977Y-97425313D01*
X97901792Y-97427128D01*
X97902182Y-97427310D01*
X97972689Y-97497817D01*
X97972870Y-97498206D01*
X97974687Y-97500023D01*
X97991955Y-97539132D01*
X98015068Y-97588697D01*
X98015589Y-97592661D01*
X98017363Y-97596677D01*
X98025000Y-97662500D01*
X98025000Y-98162500D01*
X98017363Y-98228323D01*
X98015589Y-98232339D01*
X98015068Y-98236302D01*
X97991963Y-98285848D01*
X97974687Y-98324977D01*
X97972869Y-98326794D01*
X97972689Y-98327182D01*
X97902182Y-98397689D01*
X97901794Y-98397869D01*
X97899977Y-98399687D01*
X97860848Y-98416963D01*
X97811302Y-98440068D01*
X97807339Y-98440589D01*
X97803323Y-98442363D01*
X97737500Y-98450000D01*
X97262500Y-98450000D01*
X97196677Y-98442363D01*
X97192661Y-98440589D01*
X97188697Y-98440068D01*
X97139132Y-98416955D01*
X97100023Y-98399687D01*
X97098206Y-98397870D01*
X97097817Y-98397689D01*
X97027310Y-98327182D01*
X97027128Y-98326792D01*
X97025313Y-98324977D01*
X97008054Y-98285889D01*
X96984931Y-98236302D01*
X96984408Y-98232336D01*
X96982637Y-98228323D01*
X96975000Y-98162500D01*
X96975000Y-97662500D01*
X96982637Y-97596677D01*
X96984408Y-97592664D01*
X96984931Y-97588697D01*
X97008062Y-97539091D01*
X97025313Y-97500023D01*
X97027127Y-97498208D01*
X97027310Y-97497817D01*
X97097817Y-97427310D01*
X97098208Y-97427127D01*
X97100023Y-97425313D01*
X97139091Y-97408062D01*
X97188697Y-97384931D01*
X97192664Y-97384408D01*
X97196677Y-97382637D01*
X97262500Y-97375000D01*
X97737500Y-97375000D01*
X97803323Y-97382637D01*
G37*
G36*
X99303323Y-97382637D02*
G01*
X99307336Y-97384408D01*
X99311302Y-97384931D01*
X99360889Y-97408054D01*
X99399977Y-97425313D01*
X99401792Y-97427128D01*
X99402182Y-97427310D01*
X99472689Y-97497817D01*
X99472870Y-97498206D01*
X99474687Y-97500023D01*
X99491955Y-97539132D01*
X99515068Y-97588697D01*
X99515589Y-97592661D01*
X99517363Y-97596677D01*
X99525000Y-97662500D01*
X99525000Y-98162500D01*
X99517363Y-98228323D01*
X99515589Y-98232339D01*
X99515068Y-98236302D01*
X99491963Y-98285848D01*
X99474687Y-98324977D01*
X99472869Y-98326794D01*
X99472689Y-98327182D01*
X99402182Y-98397689D01*
X99401794Y-98397869D01*
X99399977Y-98399687D01*
X99360848Y-98416963D01*
X99311302Y-98440068D01*
X99307339Y-98440589D01*
X99303323Y-98442363D01*
X99237500Y-98450000D01*
X98762500Y-98450000D01*
X98696677Y-98442363D01*
X98692661Y-98440589D01*
X98688697Y-98440068D01*
X98639132Y-98416955D01*
X98600023Y-98399687D01*
X98598206Y-98397870D01*
X98597817Y-98397689D01*
X98527310Y-98327182D01*
X98527128Y-98326792D01*
X98525313Y-98324977D01*
X98508054Y-98285889D01*
X98484931Y-98236302D01*
X98484408Y-98232336D01*
X98482637Y-98228323D01*
X98475000Y-98162500D01*
X98475000Y-97662500D01*
X98482637Y-97596677D01*
X98484408Y-97592664D01*
X98484931Y-97588697D01*
X98508062Y-97539091D01*
X98525313Y-97500023D01*
X98527127Y-97498208D01*
X98527310Y-97497817D01*
X98597817Y-97427310D01*
X98598208Y-97427127D01*
X98600023Y-97425313D01*
X98639091Y-97408062D01*
X98688697Y-97384931D01*
X98692664Y-97384408D01*
X98696677Y-97382637D01*
X98762500Y-97375000D01*
X99237500Y-97375000D01*
X99303323Y-97382637D01*
G37*
G36*
X100803323Y-97382637D02*
G01*
X100807336Y-97384408D01*
X100811302Y-97384931D01*
X100860889Y-97408054D01*
X100899977Y-97425313D01*
X100901792Y-97427128D01*
X100902182Y-97427310D01*
X100972689Y-97497817D01*
X100972870Y-97498206D01*
X100974687Y-97500023D01*
X100991955Y-97539132D01*
X101015068Y-97588697D01*
X101015589Y-97592661D01*
X101017363Y-97596677D01*
X101025000Y-97662500D01*
X101025000Y-98162500D01*
X101017363Y-98228323D01*
X101015589Y-98232339D01*
X101015068Y-98236302D01*
X100991963Y-98285848D01*
X100974687Y-98324977D01*
X100972869Y-98326794D01*
X100972689Y-98327182D01*
X100902182Y-98397689D01*
X100901794Y-98397869D01*
X100899977Y-98399687D01*
X100860848Y-98416963D01*
X100811302Y-98440068D01*
X100807339Y-98440589D01*
X100803323Y-98442363D01*
X100737500Y-98450000D01*
X100262500Y-98450000D01*
X100196677Y-98442363D01*
X100192661Y-98440589D01*
X100188697Y-98440068D01*
X100139132Y-98416955D01*
X100100023Y-98399687D01*
X100098206Y-98397870D01*
X100097817Y-98397689D01*
X100027310Y-98327182D01*
X100027128Y-98326792D01*
X100025313Y-98324977D01*
X100008054Y-98285889D01*
X99984931Y-98236302D01*
X99984408Y-98232336D01*
X99982637Y-98228323D01*
X99975000Y-98162500D01*
X99975000Y-97662500D01*
X99982637Y-97596677D01*
X99984408Y-97592664D01*
X99984931Y-97588697D01*
X100008062Y-97539091D01*
X100025313Y-97500023D01*
X100027127Y-97498208D01*
X100027310Y-97497817D01*
X100097817Y-97427310D01*
X100098208Y-97427127D01*
X100100023Y-97425313D01*
X100139091Y-97408062D01*
X100188697Y-97384931D01*
X100192664Y-97384408D01*
X100196677Y-97382637D01*
X100262500Y-97375000D01*
X100737500Y-97375000D01*
X100803323Y-97382637D01*
G37*
G36*
X102303323Y-97382637D02*
G01*
X102307336Y-97384408D01*
X102311302Y-97384931D01*
X102360889Y-97408054D01*
X102399977Y-97425313D01*
X102401792Y-97427128D01*
X102402182Y-97427310D01*
X102472689Y-97497817D01*
X102472870Y-97498206D01*
X102474687Y-97500023D01*
X102491955Y-97539132D01*
X102515068Y-97588697D01*
X102515589Y-97592661D01*
X102517363Y-97596677D01*
X102525000Y-97662500D01*
X102525000Y-98162500D01*
X102517363Y-98228323D01*
X102515589Y-98232339D01*
X102515068Y-98236302D01*
X102491963Y-98285848D01*
X102474687Y-98324977D01*
X102472869Y-98326794D01*
X102472689Y-98327182D01*
X102402182Y-98397689D01*
X102401794Y-98397869D01*
X102399977Y-98399687D01*
X102360848Y-98416963D01*
X102311302Y-98440068D01*
X102307339Y-98440589D01*
X102303323Y-98442363D01*
X102237500Y-98450000D01*
X101762500Y-98450000D01*
X101696677Y-98442363D01*
X101692661Y-98440589D01*
X101688697Y-98440068D01*
X101639132Y-98416955D01*
X101600023Y-98399687D01*
X101598206Y-98397870D01*
X101597817Y-98397689D01*
X101527310Y-98327182D01*
X101527128Y-98326792D01*
X101525313Y-98324977D01*
X101508054Y-98285889D01*
X101484931Y-98236302D01*
X101484408Y-98232336D01*
X101482637Y-98228323D01*
X101475000Y-98162500D01*
X101475000Y-97662500D01*
X101482637Y-97596677D01*
X101484408Y-97592664D01*
X101484931Y-97588697D01*
X101508062Y-97539091D01*
X101525313Y-97500023D01*
X101527127Y-97498208D01*
X101527310Y-97497817D01*
X101597817Y-97427310D01*
X101598208Y-97427127D01*
X101600023Y-97425313D01*
X101639091Y-97408062D01*
X101688697Y-97384931D01*
X101692664Y-97384408D01*
X101696677Y-97382637D01*
X101762500Y-97375000D01*
X102237500Y-97375000D01*
X102303323Y-97382637D01*
G37*
G36*
X70912873Y-96591296D02*
G01*
X70929094Y-96602135D01*
X70939933Y-96618356D01*
X70943739Y-96637490D01*
X70943739Y-98337490D01*
X70939933Y-98356624D01*
X70929094Y-98372845D01*
X70912873Y-98383684D01*
X70893739Y-98387490D01*
X69493739Y-98387490D01*
X69474605Y-98383684D01*
X69458384Y-98372845D01*
X69447545Y-98356624D01*
X69443739Y-98337490D01*
X69443739Y-96637490D01*
X69447545Y-96618356D01*
X69458384Y-96602135D01*
X69474605Y-96591296D01*
X69493739Y-96587490D01*
X70893739Y-96587490D01*
X70912873Y-96591296D01*
G37*
G36*
X83812797Y-96591296D02*
G01*
X83829018Y-96602135D01*
X83839857Y-96618356D01*
X83843663Y-96637490D01*
X83843663Y-98337490D01*
X83839857Y-98356624D01*
X83829018Y-98372845D01*
X83812797Y-98383684D01*
X83793663Y-98387490D01*
X82393663Y-98387490D01*
X82374529Y-98383684D01*
X82358308Y-98372845D01*
X82347469Y-98356624D01*
X82343663Y-98337490D01*
X82343663Y-96637490D01*
X82347469Y-96618356D01*
X82358308Y-96602135D01*
X82374529Y-96591296D01*
X82393663Y-96587490D01*
X83793663Y-96587490D01*
X83812797Y-96591296D01*
G37*
G36*
X94803323Y-95557637D02*
G01*
X94807336Y-95559408D01*
X94811302Y-95559931D01*
X94860889Y-95583054D01*
X94899977Y-95600313D01*
X94901792Y-95602128D01*
X94902182Y-95602310D01*
X94972689Y-95672817D01*
X94972870Y-95673206D01*
X94974687Y-95675023D01*
X94991955Y-95714132D01*
X95015068Y-95763697D01*
X95015589Y-95767661D01*
X95017363Y-95771677D01*
X95025000Y-95837500D01*
X95025000Y-96337500D01*
X95017363Y-96403323D01*
X95015589Y-96407339D01*
X95015068Y-96411302D01*
X94991963Y-96460848D01*
X94974687Y-96499977D01*
X94972869Y-96501794D01*
X94972689Y-96502182D01*
X94902182Y-96572689D01*
X94901794Y-96572869D01*
X94899977Y-96574687D01*
X94860848Y-96591963D01*
X94811302Y-96615068D01*
X94807339Y-96615589D01*
X94803323Y-96617363D01*
X94737500Y-96625000D01*
X94262500Y-96625000D01*
X94196677Y-96617363D01*
X94192661Y-96615589D01*
X94188697Y-96615068D01*
X94139132Y-96591955D01*
X94100023Y-96574687D01*
X94098206Y-96572870D01*
X94097817Y-96572689D01*
X94027310Y-96502182D01*
X94027128Y-96501792D01*
X94025313Y-96499977D01*
X94008054Y-96460889D01*
X93984931Y-96411302D01*
X93984408Y-96407336D01*
X93982637Y-96403323D01*
X93975000Y-96337500D01*
X93975000Y-95837500D01*
X93982637Y-95771677D01*
X93984408Y-95767664D01*
X93984931Y-95763697D01*
X94008062Y-95714091D01*
X94025313Y-95675023D01*
X94027127Y-95673208D01*
X94027310Y-95672817D01*
X94097817Y-95602310D01*
X94098208Y-95602127D01*
X94100023Y-95600313D01*
X94139091Y-95583062D01*
X94188697Y-95559931D01*
X94192664Y-95559408D01*
X94196677Y-95557637D01*
X94262500Y-95550000D01*
X94737500Y-95550000D01*
X94803323Y-95557637D01*
G37*
G36*
X96303323Y-95557637D02*
G01*
X96307336Y-95559408D01*
X96311302Y-95559931D01*
X96360889Y-95583054D01*
X96399977Y-95600313D01*
X96401792Y-95602128D01*
X96402182Y-95602310D01*
X96472689Y-95672817D01*
X96472870Y-95673206D01*
X96474687Y-95675023D01*
X96491955Y-95714132D01*
X96515068Y-95763697D01*
X96515589Y-95767661D01*
X96517363Y-95771677D01*
X96525000Y-95837500D01*
X96525000Y-96337500D01*
X96517363Y-96403323D01*
X96515589Y-96407339D01*
X96515068Y-96411302D01*
X96491963Y-96460848D01*
X96474687Y-96499977D01*
X96472869Y-96501794D01*
X96472689Y-96502182D01*
X96402182Y-96572689D01*
X96401794Y-96572869D01*
X96399977Y-96574687D01*
X96360848Y-96591963D01*
X96311302Y-96615068D01*
X96307339Y-96615589D01*
X96303323Y-96617363D01*
X96237500Y-96625000D01*
X95762500Y-96625000D01*
X95696677Y-96617363D01*
X95692661Y-96615589D01*
X95688697Y-96615068D01*
X95639132Y-96591955D01*
X95600023Y-96574687D01*
X95598206Y-96572870D01*
X95597817Y-96572689D01*
X95527310Y-96502182D01*
X95527128Y-96501792D01*
X95525313Y-96499977D01*
X95508054Y-96460889D01*
X95484931Y-96411302D01*
X95484408Y-96407336D01*
X95482637Y-96403323D01*
X95475000Y-96337500D01*
X95475000Y-95837500D01*
X95482637Y-95771677D01*
X95484408Y-95767664D01*
X95484931Y-95763697D01*
X95508062Y-95714091D01*
X95525313Y-95675023D01*
X95527127Y-95673208D01*
X95527310Y-95672817D01*
X95597817Y-95602310D01*
X95598208Y-95602127D01*
X95600023Y-95600313D01*
X95639091Y-95583062D01*
X95688697Y-95559931D01*
X95692664Y-95559408D01*
X95696677Y-95557637D01*
X95762500Y-95550000D01*
X96237500Y-95550000D01*
X96303323Y-95557637D01*
G37*
G36*
X97803323Y-95557637D02*
G01*
X97807336Y-95559408D01*
X97811302Y-95559931D01*
X97860889Y-95583054D01*
X97899977Y-95600313D01*
X97901792Y-95602128D01*
X97902182Y-95602310D01*
X97972689Y-95672817D01*
X97972870Y-95673206D01*
X97974687Y-95675023D01*
X97991955Y-95714132D01*
X98015068Y-95763697D01*
X98015589Y-95767661D01*
X98017363Y-95771677D01*
X98025000Y-95837500D01*
X98025000Y-96337500D01*
X98017363Y-96403323D01*
X98015589Y-96407339D01*
X98015068Y-96411302D01*
X97991963Y-96460848D01*
X97974687Y-96499977D01*
X97972869Y-96501794D01*
X97972689Y-96502182D01*
X97902182Y-96572689D01*
X97901794Y-96572869D01*
X97899977Y-96574687D01*
X97860848Y-96591963D01*
X97811302Y-96615068D01*
X97807339Y-96615589D01*
X97803323Y-96617363D01*
X97737500Y-96625000D01*
X97262500Y-96625000D01*
X97196677Y-96617363D01*
X97192661Y-96615589D01*
X97188697Y-96615068D01*
X97139132Y-96591955D01*
X97100023Y-96574687D01*
X97098206Y-96572870D01*
X97097817Y-96572689D01*
X97027310Y-96502182D01*
X97027128Y-96501792D01*
X97025313Y-96499977D01*
X97008054Y-96460889D01*
X96984931Y-96411302D01*
X96984408Y-96407336D01*
X96982637Y-96403323D01*
X96975000Y-96337500D01*
X96975000Y-95837500D01*
X96982637Y-95771677D01*
X96984408Y-95767664D01*
X96984931Y-95763697D01*
X97008062Y-95714091D01*
X97025313Y-95675023D01*
X97027127Y-95673208D01*
X97027310Y-95672817D01*
X97097817Y-95602310D01*
X97098208Y-95602127D01*
X97100023Y-95600313D01*
X97139091Y-95583062D01*
X97188697Y-95559931D01*
X97192664Y-95559408D01*
X97196677Y-95557637D01*
X97262500Y-95550000D01*
X97737500Y-95550000D01*
X97803323Y-95557637D01*
G37*
G36*
X99303323Y-95557637D02*
G01*
X99307336Y-95559408D01*
X99311302Y-95559931D01*
X99360889Y-95583054D01*
X99399977Y-95600313D01*
X99401792Y-95602128D01*
X99402182Y-95602310D01*
X99472689Y-95672817D01*
X99472870Y-95673206D01*
X99474687Y-95675023D01*
X99491955Y-95714132D01*
X99515068Y-95763697D01*
X99515589Y-95767661D01*
X99517363Y-95771677D01*
X99525000Y-95837500D01*
X99525000Y-96337500D01*
X99517363Y-96403323D01*
X99515589Y-96407339D01*
X99515068Y-96411302D01*
X99491963Y-96460848D01*
X99474687Y-96499977D01*
X99472869Y-96501794D01*
X99472689Y-96502182D01*
X99402182Y-96572689D01*
X99401794Y-96572869D01*
X99399977Y-96574687D01*
X99360848Y-96591963D01*
X99311302Y-96615068D01*
X99307339Y-96615589D01*
X99303323Y-96617363D01*
X99237500Y-96625000D01*
X98762500Y-96625000D01*
X98696677Y-96617363D01*
X98692661Y-96615589D01*
X98688697Y-96615068D01*
X98639132Y-96591955D01*
X98600023Y-96574687D01*
X98598206Y-96572870D01*
X98597817Y-96572689D01*
X98527310Y-96502182D01*
X98527128Y-96501792D01*
X98525313Y-96499977D01*
X98508054Y-96460889D01*
X98484931Y-96411302D01*
X98484408Y-96407336D01*
X98482637Y-96403323D01*
X98475000Y-96337500D01*
X98475000Y-95837500D01*
X98482637Y-95771677D01*
X98484408Y-95767664D01*
X98484931Y-95763697D01*
X98508062Y-95714091D01*
X98525313Y-95675023D01*
X98527127Y-95673208D01*
X98527310Y-95672817D01*
X98597817Y-95602310D01*
X98598208Y-95602127D01*
X98600023Y-95600313D01*
X98639091Y-95583062D01*
X98688697Y-95559931D01*
X98692664Y-95559408D01*
X98696677Y-95557637D01*
X98762500Y-95550000D01*
X99237500Y-95550000D01*
X99303323Y-95557637D01*
G37*
G36*
X100803323Y-95557637D02*
G01*
X100807336Y-95559408D01*
X100811302Y-95559931D01*
X100860889Y-95583054D01*
X100899977Y-95600313D01*
X100901792Y-95602128D01*
X100902182Y-95602310D01*
X100972689Y-95672817D01*
X100972870Y-95673206D01*
X100974687Y-95675023D01*
X100991955Y-95714132D01*
X101015068Y-95763697D01*
X101015589Y-95767661D01*
X101017363Y-95771677D01*
X101025000Y-95837500D01*
X101025000Y-96337500D01*
X101017363Y-96403323D01*
X101015589Y-96407339D01*
X101015068Y-96411302D01*
X100991963Y-96460848D01*
X100974687Y-96499977D01*
X100972869Y-96501794D01*
X100972689Y-96502182D01*
X100902182Y-96572689D01*
X100901794Y-96572869D01*
X100899977Y-96574687D01*
X100860848Y-96591963D01*
X100811302Y-96615068D01*
X100807339Y-96615589D01*
X100803323Y-96617363D01*
X100737500Y-96625000D01*
X100262500Y-96625000D01*
X100196677Y-96617363D01*
X100192661Y-96615589D01*
X100188697Y-96615068D01*
X100139132Y-96591955D01*
X100100023Y-96574687D01*
X100098206Y-96572870D01*
X100097817Y-96572689D01*
X100027310Y-96502182D01*
X100027128Y-96501792D01*
X100025313Y-96499977D01*
X100008054Y-96460889D01*
X99984931Y-96411302D01*
X99984408Y-96407336D01*
X99982637Y-96403323D01*
X99975000Y-96337500D01*
X99975000Y-95837500D01*
X99982637Y-95771677D01*
X99984408Y-95767664D01*
X99984931Y-95763697D01*
X100008062Y-95714091D01*
X100025313Y-95675023D01*
X100027127Y-95673208D01*
X100027310Y-95672817D01*
X100097817Y-95602310D01*
X100098208Y-95602127D01*
X100100023Y-95600313D01*
X100139091Y-95583062D01*
X100188697Y-95559931D01*
X100192664Y-95559408D01*
X100196677Y-95557637D01*
X100262500Y-95550000D01*
X100737500Y-95550000D01*
X100803323Y-95557637D01*
G37*
G36*
X102303323Y-95557637D02*
G01*
X102307336Y-95559408D01*
X102311302Y-95559931D01*
X102360889Y-95583054D01*
X102399977Y-95600313D01*
X102401792Y-95602128D01*
X102402182Y-95602310D01*
X102472689Y-95672817D01*
X102472870Y-95673206D01*
X102474687Y-95675023D01*
X102491955Y-95714132D01*
X102515068Y-95763697D01*
X102515589Y-95767661D01*
X102517363Y-95771677D01*
X102525000Y-95837500D01*
X102525000Y-96337500D01*
X102517363Y-96403323D01*
X102515589Y-96407339D01*
X102515068Y-96411302D01*
X102491963Y-96460848D01*
X102474687Y-96499977D01*
X102472869Y-96501794D01*
X102472689Y-96502182D01*
X102402182Y-96572689D01*
X102401794Y-96572869D01*
X102399977Y-96574687D01*
X102360848Y-96591963D01*
X102311302Y-96615068D01*
X102307339Y-96615589D01*
X102303323Y-96617363D01*
X102237500Y-96625000D01*
X101762500Y-96625000D01*
X101696677Y-96617363D01*
X101692661Y-96615589D01*
X101688697Y-96615068D01*
X101639132Y-96591955D01*
X101600023Y-96574687D01*
X101598206Y-96572870D01*
X101597817Y-96572689D01*
X101527310Y-96502182D01*
X101527128Y-96501792D01*
X101525313Y-96499977D01*
X101508054Y-96460889D01*
X101484931Y-96411302D01*
X101484408Y-96407336D01*
X101482637Y-96403323D01*
X101475000Y-96337500D01*
X101475000Y-95837500D01*
X101482637Y-95771677D01*
X101484408Y-95767664D01*
X101484931Y-95763697D01*
X101508062Y-95714091D01*
X101525313Y-95675023D01*
X101527127Y-95673208D01*
X101527310Y-95672817D01*
X101597817Y-95602310D01*
X101598208Y-95602127D01*
X101600023Y-95600313D01*
X101639091Y-95583062D01*
X101688697Y-95559931D01*
X101692664Y-95559408D01*
X101696677Y-95557637D01*
X101762500Y-95550000D01*
X102237500Y-95550000D01*
X102303323Y-95557637D01*
G37*
G36*
X74362682Y-93791373D02*
G01*
X74378903Y-93802212D01*
X74389742Y-93818433D01*
X74393548Y-93837567D01*
X74393548Y-95337567D01*
X74389742Y-95356701D01*
X74378903Y-95372922D01*
X74362682Y-95383761D01*
X74343548Y-95387567D01*
X73543548Y-95387567D01*
X73524414Y-95383761D01*
X73508193Y-95372922D01*
X73497354Y-95356701D01*
X73493548Y-95337567D01*
X73493548Y-93837567D01*
X73497354Y-93818433D01*
X73508193Y-93802212D01*
X73524414Y-93791373D01*
X73543548Y-93787567D01*
X74343548Y-93787567D01*
X74362682Y-93791373D01*
G37*
G36*
X75462759Y-93791373D02*
G01*
X75478980Y-93802212D01*
X75489819Y-93818433D01*
X75493625Y-93837567D01*
X75493625Y-95337567D01*
X75489819Y-95356701D01*
X75478980Y-95372922D01*
X75462759Y-95383761D01*
X75443625Y-95387567D01*
X74643625Y-95387567D01*
X74624491Y-95383761D01*
X74608270Y-95372922D01*
X74597431Y-95356701D01*
X74593625Y-95337567D01*
X74593625Y-93837567D01*
X74597431Y-93818433D01*
X74608270Y-93802212D01*
X74624491Y-93791373D01*
X74643625Y-93787567D01*
X75443625Y-93787567D01*
X75462759Y-93791373D01*
G37*
G36*
X76562835Y-93791373D02*
G01*
X76579056Y-93802212D01*
X76589895Y-93818433D01*
X76593701Y-93837567D01*
X76593701Y-95337567D01*
X76589895Y-95356701D01*
X76579056Y-95372922D01*
X76562835Y-95383761D01*
X76543701Y-95387567D01*
X75743701Y-95387567D01*
X75724567Y-95383761D01*
X75708346Y-95372922D01*
X75697507Y-95356701D01*
X75693701Y-95337567D01*
X75693701Y-93837567D01*
X75697507Y-93818433D01*
X75708346Y-93802212D01*
X75724567Y-93791373D01*
X75743701Y-93787567D01*
X76543701Y-93787567D01*
X76562835Y-93791373D01*
G37*
G36*
X77662911Y-93791373D02*
G01*
X77679132Y-93802212D01*
X77689971Y-93818433D01*
X77693777Y-93837567D01*
X77693777Y-95337567D01*
X77689971Y-95356701D01*
X77679132Y-95372922D01*
X77662911Y-95383761D01*
X77643777Y-95387567D01*
X76843777Y-95387567D01*
X76824643Y-95383761D01*
X76808422Y-95372922D01*
X76797583Y-95356701D01*
X76793777Y-95337567D01*
X76793777Y-93837567D01*
X76797583Y-93818433D01*
X76808422Y-93802212D01*
X76824643Y-93791373D01*
X76843777Y-93787567D01*
X77643777Y-93787567D01*
X77662911Y-93791373D01*
G37*
G36*
X78762733Y-93791373D02*
G01*
X78778954Y-93802212D01*
X78789793Y-93818433D01*
X78793599Y-93837567D01*
X78793599Y-95337567D01*
X78789793Y-95356701D01*
X78778954Y-95372922D01*
X78762733Y-95383761D01*
X78743599Y-95387567D01*
X77943599Y-95387567D01*
X77924465Y-95383761D01*
X77908244Y-95372922D01*
X77897405Y-95356701D01*
X77893599Y-95337567D01*
X77893599Y-93837567D01*
X77897405Y-93818433D01*
X77908244Y-93802212D01*
X77924465Y-93791373D01*
X77943599Y-93787567D01*
X78743599Y-93787567D01*
X78762733Y-93791373D01*
G37*
G36*
X79862809Y-93791373D02*
G01*
X79879030Y-93802212D01*
X79889869Y-93818433D01*
X79893675Y-93837567D01*
X79893675Y-95337567D01*
X79889869Y-95356701D01*
X79879030Y-95372922D01*
X79862809Y-95383761D01*
X79843675Y-95387567D01*
X79043675Y-95387567D01*
X79024541Y-95383761D01*
X79008320Y-95372922D01*
X78997481Y-95356701D01*
X78993675Y-95337567D01*
X78993675Y-93837567D01*
X78997481Y-93818433D01*
X79008320Y-93802212D01*
X79024541Y-93791373D01*
X79043675Y-93787567D01*
X79843675Y-93787567D01*
X79862809Y-93791373D01*
G37*
G36*
X80962886Y-93791373D02*
G01*
X80979107Y-93802212D01*
X80989946Y-93818433D01*
X80993752Y-93837567D01*
X80993752Y-95337567D01*
X80989946Y-95356701D01*
X80979107Y-95372922D01*
X80962886Y-95383761D01*
X80943752Y-95387567D01*
X80143752Y-95387567D01*
X80124618Y-95383761D01*
X80108397Y-95372922D01*
X80097558Y-95356701D01*
X80093752Y-95337567D01*
X80093752Y-93837567D01*
X80097558Y-93818433D01*
X80108397Y-93802212D01*
X80124618Y-93791373D01*
X80143752Y-93787567D01*
X80943752Y-93787567D01*
X80962886Y-93791373D01*
G37*
G36*
X82062708Y-93791373D02*
G01*
X82078929Y-93802212D01*
X82089768Y-93818433D01*
X82093574Y-93837567D01*
X82093574Y-95337567D01*
X82089768Y-95356701D01*
X82078929Y-95372922D01*
X82062708Y-95383761D01*
X82043574Y-95387567D01*
X81243574Y-95387567D01*
X81224440Y-95383761D01*
X81208219Y-95372922D01*
X81197380Y-95356701D01*
X81193574Y-95337567D01*
X81193574Y-93837567D01*
X81197380Y-93818433D01*
X81208219Y-93802212D01*
X81224440Y-93791373D01*
X81243574Y-93787567D01*
X82043574Y-93787567D01*
X82062708Y-93791373D01*
G37*
G36*
X89471469Y-91934510D02*
G01*
X89539335Y-91973692D01*
X89594748Y-92029105D01*
X89633930Y-92096971D01*
X89654213Y-92172666D01*
X89654213Y-92251032D01*
X89633930Y-92326727D01*
X89594748Y-92394593D01*
X89539335Y-92450006D01*
X89471469Y-92489188D01*
X89395774Y-92509471D01*
X89317408Y-92509471D01*
X89241713Y-92489188D01*
X89173847Y-92450006D01*
X89118434Y-92394593D01*
X89079252Y-92326727D01*
X89058969Y-92251032D01*
X89058969Y-92172666D01*
X89079252Y-92096971D01*
X89118434Y-92029105D01*
X89173847Y-91973692D01*
X89241713Y-91934510D01*
X89317408Y-91914227D01*
X89395774Y-91914227D01*
X89471469Y-91934510D01*
G37*
G36*
X90471469Y-91934510D02*
G01*
X90539335Y-91973692D01*
X90594748Y-92029105D01*
X90633930Y-92096971D01*
X90654213Y-92172666D01*
X90654213Y-92251032D01*
X90633930Y-92326727D01*
X90594748Y-92394593D01*
X90539335Y-92450006D01*
X90471469Y-92489188D01*
X90395774Y-92509471D01*
X90317408Y-92509471D01*
X90241713Y-92489188D01*
X90173847Y-92450006D01*
X90118434Y-92394593D01*
X90079252Y-92326727D01*
X90058969Y-92251032D01*
X90058969Y-92172666D01*
X90079252Y-92096971D01*
X90118434Y-92029105D01*
X90173847Y-91973692D01*
X90241713Y-91934510D01*
X90317408Y-91914227D01*
X90395774Y-91914227D01*
X90471469Y-91934510D01*
G37*
G36*
X104471469Y-91934510D02*
G01*
X104539335Y-91973692D01*
X104594748Y-92029105D01*
X104633930Y-92096971D01*
X104654213Y-92172666D01*
X104654213Y-92251032D01*
X104633930Y-92326727D01*
X104594748Y-92394593D01*
X104539335Y-92450006D01*
X104471469Y-92489188D01*
X104395774Y-92509471D01*
X104317408Y-92509471D01*
X104241713Y-92489188D01*
X104173847Y-92450006D01*
X104118434Y-92394593D01*
X104079252Y-92326727D01*
X104058969Y-92251032D01*
X104058969Y-92172666D01*
X104079252Y-92096971D01*
X104118434Y-92029105D01*
X104173847Y-91973692D01*
X104241713Y-91934510D01*
X104317408Y-91914227D01*
X104395774Y-91914227D01*
X104471469Y-91934510D01*
G37*
G36*
X105471469Y-91934510D02*
G01*
X105539335Y-91973692D01*
X105594748Y-92029105D01*
X105633930Y-92096971D01*
X105654213Y-92172666D01*
X105654213Y-92251032D01*
X105633930Y-92326727D01*
X105594748Y-92394593D01*
X105539335Y-92450006D01*
X105471469Y-92489188D01*
X105395774Y-92509471D01*
X105317408Y-92509471D01*
X105241713Y-92489188D01*
X105173847Y-92450006D01*
X105118434Y-92394593D01*
X105079252Y-92326727D01*
X105058969Y-92251032D01*
X105058969Y-92172666D01*
X105079252Y-92096971D01*
X105118434Y-92029105D01*
X105173847Y-91973692D01*
X105241713Y-91934510D01*
X105317408Y-91914227D01*
X105395774Y-91914227D01*
X105471469Y-91934510D01*
G37*
G36*
X89471469Y-90934510D02*
G01*
X89539335Y-90973692D01*
X89594748Y-91029105D01*
X89633930Y-91096971D01*
X89654213Y-91172666D01*
X89654213Y-91251032D01*
X89633930Y-91326727D01*
X89594748Y-91394593D01*
X89539335Y-91450006D01*
X89471469Y-91489188D01*
X89395774Y-91509471D01*
X89317408Y-91509471D01*
X89241713Y-91489188D01*
X89173847Y-91450006D01*
X89118434Y-91394593D01*
X89079252Y-91326727D01*
X89058969Y-91251032D01*
X89058969Y-91172666D01*
X89079252Y-91096971D01*
X89118434Y-91029105D01*
X89173847Y-90973692D01*
X89241713Y-90934510D01*
X89317408Y-90914227D01*
X89395774Y-90914227D01*
X89471469Y-90934510D01*
G37*
G36*
X92471469Y-90934510D02*
G01*
X92539335Y-90973692D01*
X92594748Y-91029105D01*
X92633930Y-91096971D01*
X92654213Y-91172666D01*
X92654213Y-91251032D01*
X92633930Y-91326727D01*
X92594748Y-91394593D01*
X92539335Y-91450006D01*
X92471469Y-91489188D01*
X92395774Y-91509471D01*
X92317408Y-91509471D01*
X92241713Y-91489188D01*
X92173847Y-91450006D01*
X92118434Y-91394593D01*
X92079252Y-91326727D01*
X92058969Y-91251032D01*
X92058969Y-91172666D01*
X92079252Y-91096971D01*
X92118434Y-91029105D01*
X92173847Y-90973692D01*
X92241713Y-90934510D01*
X92317408Y-90914227D01*
X92395774Y-90914227D01*
X92471469Y-90934510D01*
G37*
G36*
X93471469Y-90934510D02*
G01*
X93539335Y-90973692D01*
X93594748Y-91029105D01*
X93633930Y-91096971D01*
X93654213Y-91172666D01*
X93654213Y-91251032D01*
X93633930Y-91326727D01*
X93594748Y-91394593D01*
X93539335Y-91450006D01*
X93471469Y-91489188D01*
X93395774Y-91509471D01*
X93317408Y-91509471D01*
X93241713Y-91489188D01*
X93173847Y-91450006D01*
X93118434Y-91394593D01*
X93079252Y-91326727D01*
X93058969Y-91251032D01*
X93058969Y-91172666D01*
X93079252Y-91096971D01*
X93118434Y-91029105D01*
X93173847Y-90973692D01*
X93241713Y-90934510D01*
X93317408Y-90914227D01*
X93395774Y-90914227D01*
X93471469Y-90934510D01*
G37*
G36*
X94471469Y-90934510D02*
G01*
X94539335Y-90973692D01*
X94594748Y-91029105D01*
X94633930Y-91096971D01*
X94654213Y-91172666D01*
X94654213Y-91251032D01*
X94633930Y-91326727D01*
X94594748Y-91394593D01*
X94539335Y-91450006D01*
X94471469Y-91489188D01*
X94395774Y-91509471D01*
X94317408Y-91509471D01*
X94241713Y-91489188D01*
X94173847Y-91450006D01*
X94118434Y-91394593D01*
X94079252Y-91326727D01*
X94058969Y-91251032D01*
X94058969Y-91172666D01*
X94079252Y-91096971D01*
X94118434Y-91029105D01*
X94173847Y-90973692D01*
X94241713Y-90934510D01*
X94317408Y-90914227D01*
X94395774Y-90914227D01*
X94471469Y-90934510D01*
G37*
G36*
X95471469Y-90934510D02*
G01*
X95539335Y-90973692D01*
X95594748Y-91029105D01*
X95633930Y-91096971D01*
X95654213Y-91172666D01*
X95654213Y-91251032D01*
X95633930Y-91326727D01*
X95594748Y-91394593D01*
X95539335Y-91450006D01*
X95471469Y-91489188D01*
X95395774Y-91509471D01*
X95317408Y-91509471D01*
X95241713Y-91489188D01*
X95173847Y-91450006D01*
X95118434Y-91394593D01*
X95079252Y-91326727D01*
X95058969Y-91251032D01*
X95058969Y-91172666D01*
X95079252Y-91096971D01*
X95118434Y-91029105D01*
X95173847Y-90973692D01*
X95241713Y-90934510D01*
X95317408Y-90914227D01*
X95395774Y-90914227D01*
X95471469Y-90934510D01*
G37*
G36*
X96471469Y-90934510D02*
G01*
X96539335Y-90973692D01*
X96594748Y-91029105D01*
X96633930Y-91096971D01*
X96654213Y-91172666D01*
X96654213Y-91251032D01*
X96633930Y-91326727D01*
X96594748Y-91394593D01*
X96539335Y-91450006D01*
X96471469Y-91489188D01*
X96395774Y-91509471D01*
X96317408Y-91509471D01*
X96241713Y-91489188D01*
X96173847Y-91450006D01*
X96118434Y-91394593D01*
X96079252Y-91326727D01*
X96058969Y-91251032D01*
X96058969Y-91172666D01*
X96079252Y-91096971D01*
X96118434Y-91029105D01*
X96173847Y-90973692D01*
X96241713Y-90934510D01*
X96317408Y-90914227D01*
X96395774Y-90914227D01*
X96471469Y-90934510D01*
G37*
G36*
X97471469Y-90934510D02*
G01*
X97539335Y-90973692D01*
X97594748Y-91029105D01*
X97633930Y-91096971D01*
X97654213Y-91172666D01*
X97654213Y-91251032D01*
X97633930Y-91326727D01*
X97594748Y-91394593D01*
X97539335Y-91450006D01*
X97471469Y-91489188D01*
X97395774Y-91509471D01*
X97317408Y-91509471D01*
X97241713Y-91489188D01*
X97173847Y-91450006D01*
X97118434Y-91394593D01*
X97079252Y-91326727D01*
X97058969Y-91251032D01*
X97058969Y-91172666D01*
X97079252Y-91096971D01*
X97118434Y-91029105D01*
X97173847Y-90973692D01*
X97241713Y-90934510D01*
X97317408Y-90914227D01*
X97395774Y-90914227D01*
X97471469Y-90934510D01*
G37*
G36*
X98471469Y-90934510D02*
G01*
X98539335Y-90973692D01*
X98594748Y-91029105D01*
X98633930Y-91096971D01*
X98654213Y-91172666D01*
X98654213Y-91251032D01*
X98633930Y-91326727D01*
X98594748Y-91394593D01*
X98539335Y-91450006D01*
X98471469Y-91489188D01*
X98395774Y-91509471D01*
X98317408Y-91509471D01*
X98241713Y-91489188D01*
X98173847Y-91450006D01*
X98118434Y-91394593D01*
X98079252Y-91326727D01*
X98058969Y-91251032D01*
X98058969Y-91172666D01*
X98079252Y-91096971D01*
X98118434Y-91029105D01*
X98173847Y-90973692D01*
X98241713Y-90934510D01*
X98317408Y-90914227D01*
X98395774Y-90914227D01*
X98471469Y-90934510D01*
G37*
G36*
X99471469Y-90934510D02*
G01*
X99539335Y-90973692D01*
X99594748Y-91029105D01*
X99633930Y-91096971D01*
X99654213Y-91172666D01*
X99654213Y-91251032D01*
X99633930Y-91326727D01*
X99594748Y-91394593D01*
X99539335Y-91450006D01*
X99471469Y-91489188D01*
X99395774Y-91509471D01*
X99317408Y-91509471D01*
X99241713Y-91489188D01*
X99173847Y-91450006D01*
X99118434Y-91394593D01*
X99079252Y-91326727D01*
X99058969Y-91251032D01*
X99058969Y-91172666D01*
X99079252Y-91096971D01*
X99118434Y-91029105D01*
X99173847Y-90973692D01*
X99241713Y-90934510D01*
X99317408Y-90914227D01*
X99395774Y-90914227D01*
X99471469Y-90934510D01*
G37*
G36*
X100471469Y-90934510D02*
G01*
X100539335Y-90973692D01*
X100594748Y-91029105D01*
X100633930Y-91096971D01*
X100654213Y-91172666D01*
X100654213Y-91251032D01*
X100633930Y-91326727D01*
X100594748Y-91394593D01*
X100539335Y-91450006D01*
X100471469Y-91489188D01*
X100395774Y-91509471D01*
X100317408Y-91509471D01*
X100241713Y-91489188D01*
X100173847Y-91450006D01*
X100118434Y-91394593D01*
X100079252Y-91326727D01*
X100058969Y-91251032D01*
X100058969Y-91172666D01*
X100079252Y-91096971D01*
X100118434Y-91029105D01*
X100173847Y-90973692D01*
X100241713Y-90934510D01*
X100317408Y-90914227D01*
X100395774Y-90914227D01*
X100471469Y-90934510D01*
G37*
G36*
X101471469Y-90934510D02*
G01*
X101539335Y-90973692D01*
X101594748Y-91029105D01*
X101633930Y-91096971D01*
X101654213Y-91172666D01*
X101654213Y-91251032D01*
X101633930Y-91326727D01*
X101594748Y-91394593D01*
X101539335Y-91450006D01*
X101471469Y-91489188D01*
X101395774Y-91509471D01*
X101317408Y-91509471D01*
X101241713Y-91489188D01*
X101173847Y-91450006D01*
X101118434Y-91394593D01*
X101079252Y-91326727D01*
X101058969Y-91251032D01*
X101058969Y-91172666D01*
X101079252Y-91096971D01*
X101118434Y-91029105D01*
X101173847Y-90973692D01*
X101241713Y-90934510D01*
X101317408Y-90914227D01*
X101395774Y-90914227D01*
X101471469Y-90934510D01*
G37*
G36*
X102471469Y-90934510D02*
G01*
X102539335Y-90973692D01*
X102594748Y-91029105D01*
X102633930Y-91096971D01*
X102654213Y-91172666D01*
X102654213Y-91251032D01*
X102633930Y-91326727D01*
X102594748Y-91394593D01*
X102539335Y-91450006D01*
X102471469Y-91489188D01*
X102395774Y-91509471D01*
X102317408Y-91509471D01*
X102241713Y-91489188D01*
X102173847Y-91450006D01*
X102118434Y-91394593D01*
X102079252Y-91326727D01*
X102058969Y-91251032D01*
X102058969Y-91172666D01*
X102079252Y-91096971D01*
X102118434Y-91029105D01*
X102173847Y-90973692D01*
X102241713Y-90934510D01*
X102317408Y-90914227D01*
X102395774Y-90914227D01*
X102471469Y-90934510D01*
G37*
G36*
X105471469Y-90934510D02*
G01*
X105539335Y-90973692D01*
X105594748Y-91029105D01*
X105633930Y-91096971D01*
X105654213Y-91172666D01*
X105654213Y-91251032D01*
X105633930Y-91326727D01*
X105594748Y-91394593D01*
X105539335Y-91450006D01*
X105471469Y-91489188D01*
X105395774Y-91509471D01*
X105317408Y-91509471D01*
X105241713Y-91489188D01*
X105173847Y-91450006D01*
X105118434Y-91394593D01*
X105079252Y-91326727D01*
X105058969Y-91251032D01*
X105058969Y-91172666D01*
X105079252Y-91096971D01*
X105118434Y-91029105D01*
X105173847Y-90973692D01*
X105241713Y-90934510D01*
X105317408Y-90914227D01*
X105395774Y-90914227D01*
X105471469Y-90934510D01*
G37*
G36*
X92471469Y-89934510D02*
G01*
X92539335Y-89973692D01*
X92594748Y-90029105D01*
X92633930Y-90096971D01*
X92654213Y-90172666D01*
X92654213Y-90251032D01*
X92633930Y-90326727D01*
X92594748Y-90394593D01*
X92539335Y-90450006D01*
X92471469Y-90489188D01*
X92395774Y-90509471D01*
X92317408Y-90509471D01*
X92241713Y-90489188D01*
X92173847Y-90450006D01*
X92118434Y-90394593D01*
X92079252Y-90326727D01*
X92058969Y-90251032D01*
X92058969Y-90172666D01*
X92079252Y-90096971D01*
X92118434Y-90029105D01*
X92173847Y-89973692D01*
X92241713Y-89934510D01*
X92317408Y-89914227D01*
X92395774Y-89914227D01*
X92471469Y-89934510D01*
G37*
G36*
X93471469Y-89934510D02*
G01*
X93539335Y-89973692D01*
X93594748Y-90029105D01*
X93633930Y-90096971D01*
X93654213Y-90172666D01*
X93654213Y-90251032D01*
X93633930Y-90326727D01*
X93594748Y-90394593D01*
X93539335Y-90450006D01*
X93471469Y-90489188D01*
X93395774Y-90509471D01*
X93317408Y-90509471D01*
X93241713Y-90489188D01*
X93173847Y-90450006D01*
X93118434Y-90394593D01*
X93079252Y-90326727D01*
X93058969Y-90251032D01*
X93058969Y-90172666D01*
X93079252Y-90096971D01*
X93118434Y-90029105D01*
X93173847Y-89973692D01*
X93241713Y-89934510D01*
X93317408Y-89914227D01*
X93395774Y-89914227D01*
X93471469Y-89934510D01*
G37*
G36*
X94471469Y-89934510D02*
G01*
X94539335Y-89973692D01*
X94594748Y-90029105D01*
X94633930Y-90096971D01*
X94654213Y-90172666D01*
X94654213Y-90251032D01*
X94633930Y-90326727D01*
X94594748Y-90394593D01*
X94539335Y-90450006D01*
X94471469Y-90489188D01*
X94395774Y-90509471D01*
X94317408Y-90509471D01*
X94241713Y-90489188D01*
X94173847Y-90450006D01*
X94118434Y-90394593D01*
X94079252Y-90326727D01*
X94058969Y-90251032D01*
X94058969Y-90172666D01*
X94079252Y-90096971D01*
X94118434Y-90029105D01*
X94173847Y-89973692D01*
X94241713Y-89934510D01*
X94317408Y-89914227D01*
X94395774Y-89914227D01*
X94471469Y-89934510D01*
G37*
G36*
X95471469Y-89934510D02*
G01*
X95539335Y-89973692D01*
X95594748Y-90029105D01*
X95633930Y-90096971D01*
X95654213Y-90172666D01*
X95654213Y-90251032D01*
X95633930Y-90326727D01*
X95594748Y-90394593D01*
X95539335Y-90450006D01*
X95471469Y-90489188D01*
X95395774Y-90509471D01*
X95317408Y-90509471D01*
X95241713Y-90489188D01*
X95173847Y-90450006D01*
X95118434Y-90394593D01*
X95079252Y-90326727D01*
X95058969Y-90251032D01*
X95058969Y-90172666D01*
X95079252Y-90096971D01*
X95118434Y-90029105D01*
X95173847Y-89973692D01*
X95241713Y-89934510D01*
X95317408Y-89914227D01*
X95395774Y-89914227D01*
X95471469Y-89934510D01*
G37*
G36*
X96471469Y-89934510D02*
G01*
X96539335Y-89973692D01*
X96594748Y-90029105D01*
X96633930Y-90096971D01*
X96654213Y-90172666D01*
X96654213Y-90251032D01*
X96633930Y-90326727D01*
X96594748Y-90394593D01*
X96539335Y-90450006D01*
X96471469Y-90489188D01*
X96395774Y-90509471D01*
X96317408Y-90509471D01*
X96241713Y-90489188D01*
X96173847Y-90450006D01*
X96118434Y-90394593D01*
X96079252Y-90326727D01*
X96058969Y-90251032D01*
X96058969Y-90172666D01*
X96079252Y-90096971D01*
X96118434Y-90029105D01*
X96173847Y-89973692D01*
X96241713Y-89934510D01*
X96317408Y-89914227D01*
X96395774Y-89914227D01*
X96471469Y-89934510D01*
G37*
G36*
X97471469Y-89934510D02*
G01*
X97539335Y-89973692D01*
X97594748Y-90029105D01*
X97633930Y-90096971D01*
X97654213Y-90172666D01*
X97654213Y-90251032D01*
X97633930Y-90326727D01*
X97594748Y-90394593D01*
X97539335Y-90450006D01*
X97471469Y-90489188D01*
X97395774Y-90509471D01*
X97317408Y-90509471D01*
X97241713Y-90489188D01*
X97173847Y-90450006D01*
X97118434Y-90394593D01*
X97079252Y-90326727D01*
X97058969Y-90251032D01*
X97058969Y-90172666D01*
X97079252Y-90096971D01*
X97118434Y-90029105D01*
X97173847Y-89973692D01*
X97241713Y-89934510D01*
X97317408Y-89914227D01*
X97395774Y-89914227D01*
X97471469Y-89934510D01*
G37*
G36*
X98471469Y-89934510D02*
G01*
X98539335Y-89973692D01*
X98594748Y-90029105D01*
X98633930Y-90096971D01*
X98654213Y-90172666D01*
X98654213Y-90251032D01*
X98633930Y-90326727D01*
X98594748Y-90394593D01*
X98539335Y-90450006D01*
X98471469Y-90489188D01*
X98395774Y-90509471D01*
X98317408Y-90509471D01*
X98241713Y-90489188D01*
X98173847Y-90450006D01*
X98118434Y-90394593D01*
X98079252Y-90326727D01*
X98058969Y-90251032D01*
X98058969Y-90172666D01*
X98079252Y-90096971D01*
X98118434Y-90029105D01*
X98173847Y-89973692D01*
X98241713Y-89934510D01*
X98317408Y-89914227D01*
X98395774Y-89914227D01*
X98471469Y-89934510D01*
G37*
G36*
X99471469Y-89934510D02*
G01*
X99539335Y-89973692D01*
X99594748Y-90029105D01*
X99633930Y-90096971D01*
X99654213Y-90172666D01*
X99654213Y-90251032D01*
X99633930Y-90326727D01*
X99594748Y-90394593D01*
X99539335Y-90450006D01*
X99471469Y-90489188D01*
X99395774Y-90509471D01*
X99317408Y-90509471D01*
X99241713Y-90489188D01*
X99173847Y-90450006D01*
X99118434Y-90394593D01*
X99079252Y-90326727D01*
X99058969Y-90251032D01*
X99058969Y-90172666D01*
X99079252Y-90096971D01*
X99118434Y-90029105D01*
X99173847Y-89973692D01*
X99241713Y-89934510D01*
X99317408Y-89914227D01*
X99395774Y-89914227D01*
X99471469Y-89934510D01*
G37*
G36*
X100471469Y-89934510D02*
G01*
X100539335Y-89973692D01*
X100594748Y-90029105D01*
X100633930Y-90096971D01*
X100654213Y-90172666D01*
X100654213Y-90251032D01*
X100633930Y-90326727D01*
X100594748Y-90394593D01*
X100539335Y-90450006D01*
X100471469Y-90489188D01*
X100395774Y-90509471D01*
X100317408Y-90509471D01*
X100241713Y-90489188D01*
X100173847Y-90450006D01*
X100118434Y-90394593D01*
X100079252Y-90326727D01*
X100058969Y-90251032D01*
X100058969Y-90172666D01*
X100079252Y-90096971D01*
X100118434Y-90029105D01*
X100173847Y-89973692D01*
X100241713Y-89934510D01*
X100317408Y-89914227D01*
X100395774Y-89914227D01*
X100471469Y-89934510D01*
G37*
G36*
X101471469Y-89934510D02*
G01*
X101539335Y-89973692D01*
X101594748Y-90029105D01*
X101633930Y-90096971D01*
X101654213Y-90172666D01*
X101654213Y-90251032D01*
X101633930Y-90326727D01*
X101594748Y-90394593D01*
X101539335Y-90450006D01*
X101471469Y-90489188D01*
X101395774Y-90509471D01*
X101317408Y-90509471D01*
X101241713Y-90489188D01*
X101173847Y-90450006D01*
X101118434Y-90394593D01*
X101079252Y-90326727D01*
X101058969Y-90251032D01*
X101058969Y-90172666D01*
X101079252Y-90096971D01*
X101118434Y-90029105D01*
X101173847Y-89973692D01*
X101241713Y-89934510D01*
X101317408Y-89914227D01*
X101395774Y-89914227D01*
X101471469Y-89934510D01*
G37*
G36*
X102471469Y-89934510D02*
G01*
X102539335Y-89973692D01*
X102594748Y-90029105D01*
X102633930Y-90096971D01*
X102654213Y-90172666D01*
X102654213Y-90251032D01*
X102633930Y-90326727D01*
X102594748Y-90394593D01*
X102539335Y-90450006D01*
X102471469Y-90489188D01*
X102395774Y-90509471D01*
X102317408Y-90509471D01*
X102241713Y-90489188D01*
X102173847Y-90450006D01*
X102118434Y-90394593D01*
X102079252Y-90326727D01*
X102058969Y-90251032D01*
X102058969Y-90172666D01*
X102079252Y-90096971D01*
X102118434Y-90029105D01*
X102173847Y-89973692D01*
X102241713Y-89934510D01*
X102317408Y-89914227D01*
X102395774Y-89914227D01*
X102471469Y-89934510D01*
G37*
G36*
X92471469Y-88934510D02*
G01*
X92539335Y-88973692D01*
X92594748Y-89029105D01*
X92633930Y-89096971D01*
X92654213Y-89172666D01*
X92654213Y-89251032D01*
X92633930Y-89326727D01*
X92594748Y-89394593D01*
X92539335Y-89450006D01*
X92471469Y-89489188D01*
X92395774Y-89509471D01*
X92317408Y-89509471D01*
X92241713Y-89489188D01*
X92173847Y-89450006D01*
X92118434Y-89394593D01*
X92079252Y-89326727D01*
X92058969Y-89251032D01*
X92058969Y-89172666D01*
X92079252Y-89096971D01*
X92118434Y-89029105D01*
X92173847Y-88973692D01*
X92241713Y-88934510D01*
X92317408Y-88914227D01*
X92395774Y-88914227D01*
X92471469Y-88934510D01*
G37*
G36*
X93471469Y-88934510D02*
G01*
X93539335Y-88973692D01*
X93594748Y-89029105D01*
X93633930Y-89096971D01*
X93654213Y-89172666D01*
X93654213Y-89251032D01*
X93633930Y-89326727D01*
X93594748Y-89394593D01*
X93539335Y-89450006D01*
X93471469Y-89489188D01*
X93395774Y-89509471D01*
X93317408Y-89509471D01*
X93241713Y-89489188D01*
X93173847Y-89450006D01*
X93118434Y-89394593D01*
X93079252Y-89326727D01*
X93058969Y-89251032D01*
X93058969Y-89172666D01*
X93079252Y-89096971D01*
X93118434Y-89029105D01*
X93173847Y-88973692D01*
X93241713Y-88934510D01*
X93317408Y-88914227D01*
X93395774Y-88914227D01*
X93471469Y-88934510D01*
G37*
G36*
X94471469Y-88934510D02*
G01*
X94539335Y-88973692D01*
X94594748Y-89029105D01*
X94633930Y-89096971D01*
X94654213Y-89172666D01*
X94654213Y-89251032D01*
X94633930Y-89326727D01*
X94594748Y-89394593D01*
X94539335Y-89450006D01*
X94471469Y-89489188D01*
X94395774Y-89509471D01*
X94317408Y-89509471D01*
X94241713Y-89489188D01*
X94173847Y-89450006D01*
X94118434Y-89394593D01*
X94079252Y-89326727D01*
X94058969Y-89251032D01*
X94058969Y-89172666D01*
X94079252Y-89096971D01*
X94118434Y-89029105D01*
X94173847Y-88973692D01*
X94241713Y-88934510D01*
X94317408Y-88914227D01*
X94395774Y-88914227D01*
X94471469Y-88934510D01*
G37*
G36*
X95471469Y-88934510D02*
G01*
X95539335Y-88973692D01*
X95594748Y-89029105D01*
X95633930Y-89096971D01*
X95654213Y-89172666D01*
X95654213Y-89251032D01*
X95633930Y-89326727D01*
X95594748Y-89394593D01*
X95539335Y-89450006D01*
X95471469Y-89489188D01*
X95395774Y-89509471D01*
X95317408Y-89509471D01*
X95241713Y-89489188D01*
X95173847Y-89450006D01*
X95118434Y-89394593D01*
X95079252Y-89326727D01*
X95058969Y-89251032D01*
X95058969Y-89172666D01*
X95079252Y-89096971D01*
X95118434Y-89029105D01*
X95173847Y-88973692D01*
X95241713Y-88934510D01*
X95317408Y-88914227D01*
X95395774Y-88914227D01*
X95471469Y-88934510D01*
G37*
G36*
X96471469Y-88934510D02*
G01*
X96539335Y-88973692D01*
X96594748Y-89029105D01*
X96633930Y-89096971D01*
X96654213Y-89172666D01*
X96654213Y-89251032D01*
X96633930Y-89326727D01*
X96594748Y-89394593D01*
X96539335Y-89450006D01*
X96471469Y-89489188D01*
X96395774Y-89509471D01*
X96317408Y-89509471D01*
X96241713Y-89489188D01*
X96173847Y-89450006D01*
X96118434Y-89394593D01*
X96079252Y-89326727D01*
X96058969Y-89251032D01*
X96058969Y-89172666D01*
X96079252Y-89096971D01*
X96118434Y-89029105D01*
X96173847Y-88973692D01*
X96241713Y-88934510D01*
X96317408Y-88914227D01*
X96395774Y-88914227D01*
X96471469Y-88934510D01*
G37*
G36*
X97471469Y-88934510D02*
G01*
X97539335Y-88973692D01*
X97594748Y-89029105D01*
X97633930Y-89096971D01*
X97654213Y-89172666D01*
X97654213Y-89251032D01*
X97633930Y-89326727D01*
X97594748Y-89394593D01*
X97539335Y-89450006D01*
X97471469Y-89489188D01*
X97395774Y-89509471D01*
X97317408Y-89509471D01*
X97241713Y-89489188D01*
X97173847Y-89450006D01*
X97118434Y-89394593D01*
X97079252Y-89326727D01*
X97058969Y-89251032D01*
X97058969Y-89172666D01*
X97079252Y-89096971D01*
X97118434Y-89029105D01*
X97173847Y-88973692D01*
X97241713Y-88934510D01*
X97317408Y-88914227D01*
X97395774Y-88914227D01*
X97471469Y-88934510D01*
G37*
G36*
X98471469Y-88934510D02*
G01*
X98539335Y-88973692D01*
X98594748Y-89029105D01*
X98633930Y-89096971D01*
X98654213Y-89172666D01*
X98654213Y-89251032D01*
X98633930Y-89326727D01*
X98594748Y-89394593D01*
X98539335Y-89450006D01*
X98471469Y-89489188D01*
X98395774Y-89509471D01*
X98317408Y-89509471D01*
X98241713Y-89489188D01*
X98173847Y-89450006D01*
X98118434Y-89394593D01*
X98079252Y-89326727D01*
X98058969Y-89251032D01*
X98058969Y-89172666D01*
X98079252Y-89096971D01*
X98118434Y-89029105D01*
X98173847Y-88973692D01*
X98241713Y-88934510D01*
X98317408Y-88914227D01*
X98395774Y-88914227D01*
X98471469Y-88934510D01*
G37*
G36*
X99471469Y-88934510D02*
G01*
X99539335Y-88973692D01*
X99594748Y-89029105D01*
X99633930Y-89096971D01*
X99654213Y-89172666D01*
X99654213Y-89251032D01*
X99633930Y-89326727D01*
X99594748Y-89394593D01*
X99539335Y-89450006D01*
X99471469Y-89489188D01*
X99395774Y-89509471D01*
X99317408Y-89509471D01*
X99241713Y-89489188D01*
X99173847Y-89450006D01*
X99118434Y-89394593D01*
X99079252Y-89326727D01*
X99058969Y-89251032D01*
X99058969Y-89172666D01*
X99079252Y-89096971D01*
X99118434Y-89029105D01*
X99173847Y-88973692D01*
X99241713Y-88934510D01*
X99317408Y-88914227D01*
X99395774Y-88914227D01*
X99471469Y-88934510D01*
G37*
G36*
X100471469Y-88934510D02*
G01*
X100539335Y-88973692D01*
X100594748Y-89029105D01*
X100633930Y-89096971D01*
X100654213Y-89172666D01*
X100654213Y-89251032D01*
X100633930Y-89326727D01*
X100594748Y-89394593D01*
X100539335Y-89450006D01*
X100471469Y-89489188D01*
X100395774Y-89509471D01*
X100317408Y-89509471D01*
X100241713Y-89489188D01*
X100173847Y-89450006D01*
X100118434Y-89394593D01*
X100079252Y-89326727D01*
X100058969Y-89251032D01*
X100058969Y-89172666D01*
X100079252Y-89096971D01*
X100118434Y-89029105D01*
X100173847Y-88973692D01*
X100241713Y-88934510D01*
X100317408Y-88914227D01*
X100395774Y-88914227D01*
X100471469Y-88934510D01*
G37*
G36*
X101471469Y-88934510D02*
G01*
X101539335Y-88973692D01*
X101594748Y-89029105D01*
X101633930Y-89096971D01*
X101654213Y-89172666D01*
X101654213Y-89251032D01*
X101633930Y-89326727D01*
X101594748Y-89394593D01*
X101539335Y-89450006D01*
X101471469Y-89489188D01*
X101395774Y-89509471D01*
X101317408Y-89509471D01*
X101241713Y-89489188D01*
X101173847Y-89450006D01*
X101118434Y-89394593D01*
X101079252Y-89326727D01*
X101058969Y-89251032D01*
X101058969Y-89172666D01*
X101079252Y-89096971D01*
X101118434Y-89029105D01*
X101173847Y-88973692D01*
X101241713Y-88934510D01*
X101317408Y-88914227D01*
X101395774Y-88914227D01*
X101471469Y-88934510D01*
G37*
G36*
X102471469Y-88934510D02*
G01*
X102539335Y-88973692D01*
X102594748Y-89029105D01*
X102633930Y-89096971D01*
X102654213Y-89172666D01*
X102654213Y-89251032D01*
X102633930Y-89326727D01*
X102594748Y-89394593D01*
X102539335Y-89450006D01*
X102471469Y-89489188D01*
X102395774Y-89509471D01*
X102317408Y-89509471D01*
X102241713Y-89489188D01*
X102173847Y-89450006D01*
X102118434Y-89394593D01*
X102079252Y-89326727D01*
X102058969Y-89251032D01*
X102058969Y-89172666D01*
X102079252Y-89096971D01*
X102118434Y-89029105D01*
X102173847Y-88973692D01*
X102241713Y-88934510D01*
X102317408Y-88914227D01*
X102395774Y-88914227D01*
X102471469Y-88934510D01*
G37*
G36*
X83975395Y-86941487D02*
G01*
X83991616Y-86952326D01*
X84002455Y-86968547D01*
X84006261Y-86987681D01*
X84006261Y-88487681D01*
X84002455Y-88506815D01*
X83991616Y-88523036D01*
X83975395Y-88533875D01*
X83956261Y-88537681D01*
X82656261Y-88537681D01*
X82637127Y-88533875D01*
X82620906Y-88523036D01*
X82610067Y-88506815D01*
X82606261Y-88487681D01*
X82606261Y-86987681D01*
X82610067Y-86968547D01*
X82620906Y-86952326D01*
X82637127Y-86941487D01*
X82656261Y-86937681D01*
X83956261Y-86937681D01*
X83975395Y-86941487D01*
G37*
G36*
X92471469Y-87934510D02*
G01*
X92539335Y-87973692D01*
X92594748Y-88029105D01*
X92633930Y-88096971D01*
X92654213Y-88172666D01*
X92654213Y-88251032D01*
X92633930Y-88326727D01*
X92594748Y-88394593D01*
X92539335Y-88450006D01*
X92471469Y-88489188D01*
X92395774Y-88509471D01*
X92317408Y-88509471D01*
X92241713Y-88489188D01*
X92173847Y-88450006D01*
X92118434Y-88394593D01*
X92079252Y-88326727D01*
X92058969Y-88251032D01*
X92058969Y-88172666D01*
X92079252Y-88096971D01*
X92118434Y-88029105D01*
X92173847Y-87973692D01*
X92241713Y-87934510D01*
X92317408Y-87914227D01*
X92395774Y-87914227D01*
X92471469Y-87934510D01*
G37*
G36*
X93471469Y-87934510D02*
G01*
X93539335Y-87973692D01*
X93594748Y-88029105D01*
X93633930Y-88096971D01*
X93654213Y-88172666D01*
X93654213Y-88251032D01*
X93633930Y-88326727D01*
X93594748Y-88394593D01*
X93539335Y-88450006D01*
X93471469Y-88489188D01*
X93395774Y-88509471D01*
X93317408Y-88509471D01*
X93241713Y-88489188D01*
X93173847Y-88450006D01*
X93118434Y-88394593D01*
X93079252Y-88326727D01*
X93058969Y-88251032D01*
X93058969Y-88172666D01*
X93079252Y-88096971D01*
X93118434Y-88029105D01*
X93173847Y-87973692D01*
X93241713Y-87934510D01*
X93317408Y-87914227D01*
X93395774Y-87914227D01*
X93471469Y-87934510D01*
G37*
G36*
X94471469Y-87934510D02*
G01*
X94539335Y-87973692D01*
X94594748Y-88029105D01*
X94633930Y-88096971D01*
X94654213Y-88172666D01*
X94654213Y-88251032D01*
X94633930Y-88326727D01*
X94594748Y-88394593D01*
X94539335Y-88450006D01*
X94471469Y-88489188D01*
X94395774Y-88509471D01*
X94317408Y-88509471D01*
X94241713Y-88489188D01*
X94173847Y-88450006D01*
X94118434Y-88394593D01*
X94079252Y-88326727D01*
X94058969Y-88251032D01*
X94058969Y-88172666D01*
X94079252Y-88096971D01*
X94118434Y-88029105D01*
X94173847Y-87973692D01*
X94241713Y-87934510D01*
X94317408Y-87914227D01*
X94395774Y-87914227D01*
X94471469Y-87934510D01*
G37*
G36*
X95471469Y-87934510D02*
G01*
X95539335Y-87973692D01*
X95594748Y-88029105D01*
X95633930Y-88096971D01*
X95654213Y-88172666D01*
X95654213Y-88251032D01*
X95633930Y-88326727D01*
X95594748Y-88394593D01*
X95539335Y-88450006D01*
X95471469Y-88489188D01*
X95395774Y-88509471D01*
X95317408Y-88509471D01*
X95241713Y-88489188D01*
X95173847Y-88450006D01*
X95118434Y-88394593D01*
X95079252Y-88326727D01*
X95058969Y-88251032D01*
X95058969Y-88172666D01*
X95079252Y-88096971D01*
X95118434Y-88029105D01*
X95173847Y-87973692D01*
X95241713Y-87934510D01*
X95317408Y-87914227D01*
X95395774Y-87914227D01*
X95471469Y-87934510D01*
G37*
G36*
X96471469Y-87934510D02*
G01*
X96539335Y-87973692D01*
X96594748Y-88029105D01*
X96633930Y-88096971D01*
X96654213Y-88172666D01*
X96654213Y-88251032D01*
X96633930Y-88326727D01*
X96594748Y-88394593D01*
X96539335Y-88450006D01*
X96471469Y-88489188D01*
X96395774Y-88509471D01*
X96317408Y-88509471D01*
X96241713Y-88489188D01*
X96173847Y-88450006D01*
X96118434Y-88394593D01*
X96079252Y-88326727D01*
X96058969Y-88251032D01*
X96058969Y-88172666D01*
X96079252Y-88096971D01*
X96118434Y-88029105D01*
X96173847Y-87973692D01*
X96241713Y-87934510D01*
X96317408Y-87914227D01*
X96395774Y-87914227D01*
X96471469Y-87934510D01*
G37*
G36*
X97471469Y-87934510D02*
G01*
X97539335Y-87973692D01*
X97594748Y-88029105D01*
X97633930Y-88096971D01*
X97654213Y-88172666D01*
X97654213Y-88251032D01*
X97633930Y-88326727D01*
X97594748Y-88394593D01*
X97539335Y-88450006D01*
X97471469Y-88489188D01*
X97395774Y-88509471D01*
X97317408Y-88509471D01*
X97241713Y-88489188D01*
X97173847Y-88450006D01*
X97118434Y-88394593D01*
X97079252Y-88326727D01*
X97058969Y-88251032D01*
X97058969Y-88172666D01*
X97079252Y-88096971D01*
X97118434Y-88029105D01*
X97173847Y-87973692D01*
X97241713Y-87934510D01*
X97317408Y-87914227D01*
X97395774Y-87914227D01*
X97471469Y-87934510D01*
G37*
G36*
X98471469Y-87934510D02*
G01*
X98539335Y-87973692D01*
X98594748Y-88029105D01*
X98633930Y-88096971D01*
X98654213Y-88172666D01*
X98654213Y-88251032D01*
X98633930Y-88326727D01*
X98594748Y-88394593D01*
X98539335Y-88450006D01*
X98471469Y-88489188D01*
X98395774Y-88509471D01*
X98317408Y-88509471D01*
X98241713Y-88489188D01*
X98173847Y-88450006D01*
X98118434Y-88394593D01*
X98079252Y-88326727D01*
X98058969Y-88251032D01*
X98058969Y-88172666D01*
X98079252Y-88096971D01*
X98118434Y-88029105D01*
X98173847Y-87973692D01*
X98241713Y-87934510D01*
X98317408Y-87914227D01*
X98395774Y-87914227D01*
X98471469Y-87934510D01*
G37*
G36*
X99471469Y-87934510D02*
G01*
X99539335Y-87973692D01*
X99594748Y-88029105D01*
X99633930Y-88096971D01*
X99654213Y-88172666D01*
X99654213Y-88251032D01*
X99633930Y-88326727D01*
X99594748Y-88394593D01*
X99539335Y-88450006D01*
X99471469Y-88489188D01*
X99395774Y-88509471D01*
X99317408Y-88509471D01*
X99241713Y-88489188D01*
X99173847Y-88450006D01*
X99118434Y-88394593D01*
X99079252Y-88326727D01*
X99058969Y-88251032D01*
X99058969Y-88172666D01*
X99079252Y-88096971D01*
X99118434Y-88029105D01*
X99173847Y-87973692D01*
X99241713Y-87934510D01*
X99317408Y-87914227D01*
X99395774Y-87914227D01*
X99471469Y-87934510D01*
G37*
G36*
X100471469Y-87934510D02*
G01*
X100539335Y-87973692D01*
X100594748Y-88029105D01*
X100633930Y-88096971D01*
X100654213Y-88172666D01*
X100654213Y-88251032D01*
X100633930Y-88326727D01*
X100594748Y-88394593D01*
X100539335Y-88450006D01*
X100471469Y-88489188D01*
X100395774Y-88509471D01*
X100317408Y-88509471D01*
X100241713Y-88489188D01*
X100173847Y-88450006D01*
X100118434Y-88394593D01*
X100079252Y-88326727D01*
X100058969Y-88251032D01*
X100058969Y-88172666D01*
X100079252Y-88096971D01*
X100118434Y-88029105D01*
X100173847Y-87973692D01*
X100241713Y-87934510D01*
X100317408Y-87914227D01*
X100395774Y-87914227D01*
X100471469Y-87934510D01*
G37*
G36*
X101471469Y-87934510D02*
G01*
X101539335Y-87973692D01*
X101594748Y-88029105D01*
X101633930Y-88096971D01*
X101654213Y-88172666D01*
X101654213Y-88251032D01*
X101633930Y-88326727D01*
X101594748Y-88394593D01*
X101539335Y-88450006D01*
X101471469Y-88489188D01*
X101395774Y-88509471D01*
X101317408Y-88509471D01*
X101241713Y-88489188D01*
X101173847Y-88450006D01*
X101118434Y-88394593D01*
X101079252Y-88326727D01*
X101058969Y-88251032D01*
X101058969Y-88172666D01*
X101079252Y-88096971D01*
X101118434Y-88029105D01*
X101173847Y-87973692D01*
X101241713Y-87934510D01*
X101317408Y-87914227D01*
X101395774Y-87914227D01*
X101471469Y-87934510D01*
G37*
G36*
X102471469Y-87934510D02*
G01*
X102539335Y-87973692D01*
X102594748Y-88029105D01*
X102633930Y-88096971D01*
X102654213Y-88172666D01*
X102654213Y-88251032D01*
X102633930Y-88326727D01*
X102594748Y-88394593D01*
X102539335Y-88450006D01*
X102471469Y-88489188D01*
X102395774Y-88509471D01*
X102317408Y-88509471D01*
X102241713Y-88489188D01*
X102173847Y-88450006D01*
X102118434Y-88394593D01*
X102079252Y-88326727D01*
X102058969Y-88251032D01*
X102058969Y-88172666D01*
X102079252Y-88096971D01*
X102118434Y-88029105D01*
X102173847Y-87973692D01*
X102241713Y-87934510D01*
X102317408Y-87914227D01*
X102395774Y-87914227D01*
X102471469Y-87934510D01*
G37*
G36*
X85953832Y-86891847D02*
G01*
X85957845Y-86893618D01*
X85961811Y-86894141D01*
X86011398Y-86917264D01*
X86050486Y-86934523D01*
X86052301Y-86936338D01*
X86052691Y-86936520D01*
X86123198Y-87007027D01*
X86123379Y-87007416D01*
X86125196Y-87009233D01*
X86142464Y-87048342D01*
X86165577Y-87097907D01*
X86166098Y-87101871D01*
X86167872Y-87105887D01*
X86175509Y-87171710D01*
X86175509Y-87671710D01*
X86167872Y-87737533D01*
X86166098Y-87741549D01*
X86165577Y-87745512D01*
X86142472Y-87795058D01*
X86125196Y-87834187D01*
X86123378Y-87836004D01*
X86123198Y-87836392D01*
X86052691Y-87906899D01*
X86052303Y-87907079D01*
X86050486Y-87908897D01*
X86011357Y-87926173D01*
X85961811Y-87949278D01*
X85957848Y-87949799D01*
X85953832Y-87951573D01*
X85888009Y-87959210D01*
X85413009Y-87959210D01*
X85347186Y-87951573D01*
X85343170Y-87949799D01*
X85339206Y-87949278D01*
X85289641Y-87926165D01*
X85250532Y-87908897D01*
X85248715Y-87907080D01*
X85248326Y-87906899D01*
X85177819Y-87836392D01*
X85177637Y-87836002D01*
X85175822Y-87834187D01*
X85158563Y-87795099D01*
X85135440Y-87745512D01*
X85134917Y-87741546D01*
X85133146Y-87737533D01*
X85125509Y-87671710D01*
X85125509Y-87171710D01*
X85133146Y-87105887D01*
X85134917Y-87101874D01*
X85135440Y-87097907D01*
X85158571Y-87048301D01*
X85175822Y-87009233D01*
X85177636Y-87007418D01*
X85177819Y-87007027D01*
X85248326Y-86936520D01*
X85248717Y-86936337D01*
X85250532Y-86934523D01*
X85289600Y-86917272D01*
X85339206Y-86894141D01*
X85343173Y-86893618D01*
X85347186Y-86891847D01*
X85413009Y-86884210D01*
X85888009Y-86884210D01*
X85953832Y-86891847D01*
G37*
G36*
X87453756Y-86891847D02*
G01*
X87457769Y-86893618D01*
X87461735Y-86894141D01*
X87511322Y-86917264D01*
X87550410Y-86934523D01*
X87552225Y-86936338D01*
X87552615Y-86936520D01*
X87623122Y-87007027D01*
X87623303Y-87007416D01*
X87625120Y-87009233D01*
X87642388Y-87048342D01*
X87665501Y-87097907D01*
X87666022Y-87101871D01*
X87667796Y-87105887D01*
X87675433Y-87171710D01*
X87675433Y-87671710D01*
X87667796Y-87737533D01*
X87666022Y-87741549D01*
X87665501Y-87745512D01*
X87642396Y-87795058D01*
X87625120Y-87834187D01*
X87623302Y-87836004D01*
X87623122Y-87836392D01*
X87552615Y-87906899D01*
X87552227Y-87907079D01*
X87550410Y-87908897D01*
X87511281Y-87926173D01*
X87461735Y-87949278D01*
X87457772Y-87949799D01*
X87453756Y-87951573D01*
X87387933Y-87959210D01*
X86912933Y-87959210D01*
X86847110Y-87951573D01*
X86843094Y-87949799D01*
X86839130Y-87949278D01*
X86789565Y-87926165D01*
X86750456Y-87908897D01*
X86748639Y-87907080D01*
X86748250Y-87906899D01*
X86677743Y-87836392D01*
X86677561Y-87836002D01*
X86675746Y-87834187D01*
X86658487Y-87795099D01*
X86635364Y-87745512D01*
X86634841Y-87741546D01*
X86633070Y-87737533D01*
X86625433Y-87671710D01*
X86625433Y-87171710D01*
X86633070Y-87105887D01*
X86634841Y-87101874D01*
X86635364Y-87097907D01*
X86658495Y-87048301D01*
X86675746Y-87009233D01*
X86677560Y-87007418D01*
X86677743Y-87007027D01*
X86748250Y-86936520D01*
X86748641Y-86936337D01*
X86750456Y-86934523D01*
X86789524Y-86917272D01*
X86839130Y-86894141D01*
X86843097Y-86893618D01*
X86847110Y-86891847D01*
X86912933Y-86884210D01*
X87387933Y-86884210D01*
X87453756Y-86891847D01*
G37*
G36*
X92471469Y-86934510D02*
G01*
X92539335Y-86973692D01*
X92594748Y-87029105D01*
X92633930Y-87096971D01*
X92654213Y-87172666D01*
X92654213Y-87251032D01*
X92633930Y-87326727D01*
X92594748Y-87394593D01*
X92539335Y-87450006D01*
X92471469Y-87489188D01*
X92395774Y-87509471D01*
X92317408Y-87509471D01*
X92241713Y-87489188D01*
X92173847Y-87450006D01*
X92118434Y-87394593D01*
X92079252Y-87326727D01*
X92058969Y-87251032D01*
X92058969Y-87172666D01*
X92079252Y-87096971D01*
X92118434Y-87029105D01*
X92173847Y-86973692D01*
X92241713Y-86934510D01*
X92317408Y-86914227D01*
X92395774Y-86914227D01*
X92471469Y-86934510D01*
G37*
G36*
X93471469Y-86934510D02*
G01*
X93539335Y-86973692D01*
X93594748Y-87029105D01*
X93633930Y-87096971D01*
X93654213Y-87172666D01*
X93654213Y-87251032D01*
X93633930Y-87326727D01*
X93594748Y-87394593D01*
X93539335Y-87450006D01*
X93471469Y-87489188D01*
X93395774Y-87509471D01*
X93317408Y-87509471D01*
X93241713Y-87489188D01*
X93173847Y-87450006D01*
X93118434Y-87394593D01*
X93079252Y-87326727D01*
X93058969Y-87251032D01*
X93058969Y-87172666D01*
X93079252Y-87096971D01*
X93118434Y-87029105D01*
X93173847Y-86973692D01*
X93241713Y-86934510D01*
X93317408Y-86914227D01*
X93395774Y-86914227D01*
X93471469Y-86934510D01*
G37*
G36*
X94471469Y-86934510D02*
G01*
X94539335Y-86973692D01*
X94594748Y-87029105D01*
X94633930Y-87096971D01*
X94654213Y-87172666D01*
X94654213Y-87251032D01*
X94633930Y-87326727D01*
X94594748Y-87394593D01*
X94539335Y-87450006D01*
X94471469Y-87489188D01*
X94395774Y-87509471D01*
X94317408Y-87509471D01*
X94241713Y-87489188D01*
X94173847Y-87450006D01*
X94118434Y-87394593D01*
X94079252Y-87326727D01*
X94058969Y-87251032D01*
X94058969Y-87172666D01*
X94079252Y-87096971D01*
X94118434Y-87029105D01*
X94173847Y-86973692D01*
X94241713Y-86934510D01*
X94317408Y-86914227D01*
X94395774Y-86914227D01*
X94471469Y-86934510D01*
G37*
G36*
X95471469Y-86934510D02*
G01*
X95539335Y-86973692D01*
X95594748Y-87029105D01*
X95633930Y-87096971D01*
X95654213Y-87172666D01*
X95654213Y-87251032D01*
X95633930Y-87326727D01*
X95594748Y-87394593D01*
X95539335Y-87450006D01*
X95471469Y-87489188D01*
X95395774Y-87509471D01*
X95317408Y-87509471D01*
X95241713Y-87489188D01*
X95173847Y-87450006D01*
X95118434Y-87394593D01*
X95079252Y-87326727D01*
X95058969Y-87251032D01*
X95058969Y-87172666D01*
X95079252Y-87096971D01*
X95118434Y-87029105D01*
X95173847Y-86973692D01*
X95241713Y-86934510D01*
X95317408Y-86914227D01*
X95395774Y-86914227D01*
X95471469Y-86934510D01*
G37*
G36*
X96471469Y-86934510D02*
G01*
X96539335Y-86973692D01*
X96594748Y-87029105D01*
X96633930Y-87096971D01*
X96654213Y-87172666D01*
X96654213Y-87251032D01*
X96633930Y-87326727D01*
X96594748Y-87394593D01*
X96539335Y-87450006D01*
X96471469Y-87489188D01*
X96395774Y-87509471D01*
X96317408Y-87509471D01*
X96241713Y-87489188D01*
X96173847Y-87450006D01*
X96118434Y-87394593D01*
X96079252Y-87326727D01*
X96058969Y-87251032D01*
X96058969Y-87172666D01*
X96079252Y-87096971D01*
X96118434Y-87029105D01*
X96173847Y-86973692D01*
X96241713Y-86934510D01*
X96317408Y-86914227D01*
X96395774Y-86914227D01*
X96471469Y-86934510D01*
G37*
G36*
X97471469Y-86934510D02*
G01*
X97539335Y-86973692D01*
X97594748Y-87029105D01*
X97633930Y-87096971D01*
X97654213Y-87172666D01*
X97654213Y-87251032D01*
X97633930Y-87326727D01*
X97594748Y-87394593D01*
X97539335Y-87450006D01*
X97471469Y-87489188D01*
X97395774Y-87509471D01*
X97317408Y-87509471D01*
X97241713Y-87489188D01*
X97173847Y-87450006D01*
X97118434Y-87394593D01*
X97079252Y-87326727D01*
X97058969Y-87251032D01*
X97058969Y-87172666D01*
X97079252Y-87096971D01*
X97118434Y-87029105D01*
X97173847Y-86973692D01*
X97241713Y-86934510D01*
X97317408Y-86914227D01*
X97395774Y-86914227D01*
X97471469Y-86934510D01*
G37*
G36*
X98471469Y-86934510D02*
G01*
X98539335Y-86973692D01*
X98594748Y-87029105D01*
X98633930Y-87096971D01*
X98654213Y-87172666D01*
X98654213Y-87251032D01*
X98633930Y-87326727D01*
X98594748Y-87394593D01*
X98539335Y-87450006D01*
X98471469Y-87489188D01*
X98395774Y-87509471D01*
X98317408Y-87509471D01*
X98241713Y-87489188D01*
X98173847Y-87450006D01*
X98118434Y-87394593D01*
X98079252Y-87326727D01*
X98058969Y-87251032D01*
X98058969Y-87172666D01*
X98079252Y-87096971D01*
X98118434Y-87029105D01*
X98173847Y-86973692D01*
X98241713Y-86934510D01*
X98317408Y-86914227D01*
X98395774Y-86914227D01*
X98471469Y-86934510D01*
G37*
G36*
X99471469Y-86934510D02*
G01*
X99539335Y-86973692D01*
X99594748Y-87029105D01*
X99633930Y-87096971D01*
X99654213Y-87172666D01*
X99654213Y-87251032D01*
X99633930Y-87326727D01*
X99594748Y-87394593D01*
X99539335Y-87450006D01*
X99471469Y-87489188D01*
X99395774Y-87509471D01*
X99317408Y-87509471D01*
X99241713Y-87489188D01*
X99173847Y-87450006D01*
X99118434Y-87394593D01*
X99079252Y-87326727D01*
X99058969Y-87251032D01*
X99058969Y-87172666D01*
X99079252Y-87096971D01*
X99118434Y-87029105D01*
X99173847Y-86973692D01*
X99241713Y-86934510D01*
X99317408Y-86914227D01*
X99395774Y-86914227D01*
X99471469Y-86934510D01*
G37*
G36*
X100471469Y-86934510D02*
G01*
X100539335Y-86973692D01*
X100594748Y-87029105D01*
X100633930Y-87096971D01*
X100654213Y-87172666D01*
X100654213Y-87251032D01*
X100633930Y-87326727D01*
X100594748Y-87394593D01*
X100539335Y-87450006D01*
X100471469Y-87489188D01*
X100395774Y-87509471D01*
X100317408Y-87509471D01*
X100241713Y-87489188D01*
X100173847Y-87450006D01*
X100118434Y-87394593D01*
X100079252Y-87326727D01*
X100058969Y-87251032D01*
X100058969Y-87172666D01*
X100079252Y-87096971D01*
X100118434Y-87029105D01*
X100173847Y-86973692D01*
X100241713Y-86934510D01*
X100317408Y-86914227D01*
X100395774Y-86914227D01*
X100471469Y-86934510D01*
G37*
G36*
X101471469Y-86934510D02*
G01*
X101539335Y-86973692D01*
X101594748Y-87029105D01*
X101633930Y-87096971D01*
X101654213Y-87172666D01*
X101654213Y-87251032D01*
X101633930Y-87326727D01*
X101594748Y-87394593D01*
X101539335Y-87450006D01*
X101471469Y-87489188D01*
X101395774Y-87509471D01*
X101317408Y-87509471D01*
X101241713Y-87489188D01*
X101173847Y-87450006D01*
X101118434Y-87394593D01*
X101079252Y-87326727D01*
X101058969Y-87251032D01*
X101058969Y-87172666D01*
X101079252Y-87096971D01*
X101118434Y-87029105D01*
X101173847Y-86973692D01*
X101241713Y-86934510D01*
X101317408Y-86914227D01*
X101395774Y-86914227D01*
X101471469Y-86934510D01*
G37*
G36*
X102471469Y-86934510D02*
G01*
X102539335Y-86973692D01*
X102594748Y-87029105D01*
X102633930Y-87096971D01*
X102654213Y-87172666D01*
X102654213Y-87251032D01*
X102633930Y-87326727D01*
X102594748Y-87394593D01*
X102539335Y-87450006D01*
X102471469Y-87489188D01*
X102395774Y-87509471D01*
X102317408Y-87509471D01*
X102241713Y-87489188D01*
X102173847Y-87450006D01*
X102118434Y-87394593D01*
X102079252Y-87326727D01*
X102058969Y-87251032D01*
X102058969Y-87172666D01*
X102079252Y-87096971D01*
X102118434Y-87029105D01*
X102173847Y-86973692D01*
X102241713Y-86934510D01*
X102317408Y-86914227D01*
X102395774Y-86914227D01*
X102471469Y-86934510D01*
G37*
G36*
X92471469Y-85934510D02*
G01*
X92539335Y-85973692D01*
X92594748Y-86029105D01*
X92633930Y-86096971D01*
X92654213Y-86172666D01*
X92654213Y-86251032D01*
X92633930Y-86326727D01*
X92594748Y-86394593D01*
X92539335Y-86450006D01*
X92471469Y-86489188D01*
X92395774Y-86509471D01*
X92317408Y-86509471D01*
X92241713Y-86489188D01*
X92173847Y-86450006D01*
X92118434Y-86394593D01*
X92079252Y-86326727D01*
X92058969Y-86251032D01*
X92058969Y-86172666D01*
X92079252Y-86096971D01*
X92118434Y-86029105D01*
X92173847Y-85973692D01*
X92241713Y-85934510D01*
X92317408Y-85914227D01*
X92395774Y-85914227D01*
X92471469Y-85934510D01*
G37*
G36*
X93471469Y-85934510D02*
G01*
X93539335Y-85973692D01*
X93594748Y-86029105D01*
X93633930Y-86096971D01*
X93654213Y-86172666D01*
X93654213Y-86251032D01*
X93633930Y-86326727D01*
X93594748Y-86394593D01*
X93539335Y-86450006D01*
X93471469Y-86489188D01*
X93395774Y-86509471D01*
X93317408Y-86509471D01*
X93241713Y-86489188D01*
X93173847Y-86450006D01*
X93118434Y-86394593D01*
X93079252Y-86326727D01*
X93058969Y-86251032D01*
X93058969Y-86172666D01*
X93079252Y-86096971D01*
X93118434Y-86029105D01*
X93173847Y-85973692D01*
X93241713Y-85934510D01*
X93317408Y-85914227D01*
X93395774Y-85914227D01*
X93471469Y-85934510D01*
G37*
G36*
X94471469Y-85934510D02*
G01*
X94539335Y-85973692D01*
X94594748Y-86029105D01*
X94633930Y-86096971D01*
X94654213Y-86172666D01*
X94654213Y-86251032D01*
X94633930Y-86326727D01*
X94594748Y-86394593D01*
X94539335Y-86450006D01*
X94471469Y-86489188D01*
X94395774Y-86509471D01*
X94317408Y-86509471D01*
X94241713Y-86489188D01*
X94173847Y-86450006D01*
X94118434Y-86394593D01*
X94079252Y-86326727D01*
X94058969Y-86251032D01*
X94058969Y-86172666D01*
X94079252Y-86096971D01*
X94118434Y-86029105D01*
X94173847Y-85973692D01*
X94241713Y-85934510D01*
X94317408Y-85914227D01*
X94395774Y-85914227D01*
X94471469Y-85934510D01*
G37*
G36*
X95471469Y-85934510D02*
G01*
X95539335Y-85973692D01*
X95594748Y-86029105D01*
X95633930Y-86096971D01*
X95654213Y-86172666D01*
X95654213Y-86251032D01*
X95633930Y-86326727D01*
X95594748Y-86394593D01*
X95539335Y-86450006D01*
X95471469Y-86489188D01*
X95395774Y-86509471D01*
X95317408Y-86509471D01*
X95241713Y-86489188D01*
X95173847Y-86450006D01*
X95118434Y-86394593D01*
X95079252Y-86326727D01*
X95058969Y-86251032D01*
X95058969Y-86172666D01*
X95079252Y-86096971D01*
X95118434Y-86029105D01*
X95173847Y-85973692D01*
X95241713Y-85934510D01*
X95317408Y-85914227D01*
X95395774Y-85914227D01*
X95471469Y-85934510D01*
G37*
G36*
X96471469Y-85934510D02*
G01*
X96539335Y-85973692D01*
X96594748Y-86029105D01*
X96633930Y-86096971D01*
X96654213Y-86172666D01*
X96654213Y-86251032D01*
X96633930Y-86326727D01*
X96594748Y-86394593D01*
X96539335Y-86450006D01*
X96471469Y-86489188D01*
X96395774Y-86509471D01*
X96317408Y-86509471D01*
X96241713Y-86489188D01*
X96173847Y-86450006D01*
X96118434Y-86394593D01*
X96079252Y-86326727D01*
X96058969Y-86251032D01*
X96058969Y-86172666D01*
X96079252Y-86096971D01*
X96118434Y-86029105D01*
X96173847Y-85973692D01*
X96241713Y-85934510D01*
X96317408Y-85914227D01*
X96395774Y-85914227D01*
X96471469Y-85934510D01*
G37*
G36*
X97471469Y-85934510D02*
G01*
X97539335Y-85973692D01*
X97594748Y-86029105D01*
X97633930Y-86096971D01*
X97654213Y-86172666D01*
X97654213Y-86251032D01*
X97633930Y-86326727D01*
X97594748Y-86394593D01*
X97539335Y-86450006D01*
X97471469Y-86489188D01*
X97395774Y-86509471D01*
X97317408Y-86509471D01*
X97241713Y-86489188D01*
X97173847Y-86450006D01*
X97118434Y-86394593D01*
X97079252Y-86326727D01*
X97058969Y-86251032D01*
X97058969Y-86172666D01*
X97079252Y-86096971D01*
X97118434Y-86029105D01*
X97173847Y-85973692D01*
X97241713Y-85934510D01*
X97317408Y-85914227D01*
X97395774Y-85914227D01*
X97471469Y-85934510D01*
G37*
G36*
X98471469Y-85934510D02*
G01*
X98539335Y-85973692D01*
X98594748Y-86029105D01*
X98633930Y-86096971D01*
X98654213Y-86172666D01*
X98654213Y-86251032D01*
X98633930Y-86326727D01*
X98594748Y-86394593D01*
X98539335Y-86450006D01*
X98471469Y-86489188D01*
X98395774Y-86509471D01*
X98317408Y-86509471D01*
X98241713Y-86489188D01*
X98173847Y-86450006D01*
X98118434Y-86394593D01*
X98079252Y-86326727D01*
X98058969Y-86251032D01*
X98058969Y-86172666D01*
X98079252Y-86096971D01*
X98118434Y-86029105D01*
X98173847Y-85973692D01*
X98241713Y-85934510D01*
X98317408Y-85914227D01*
X98395774Y-85914227D01*
X98471469Y-85934510D01*
G37*
G36*
X99471469Y-85934510D02*
G01*
X99539335Y-85973692D01*
X99594748Y-86029105D01*
X99633930Y-86096971D01*
X99654213Y-86172666D01*
X99654213Y-86251032D01*
X99633930Y-86326727D01*
X99594748Y-86394593D01*
X99539335Y-86450006D01*
X99471469Y-86489188D01*
X99395774Y-86509471D01*
X99317408Y-86509471D01*
X99241713Y-86489188D01*
X99173847Y-86450006D01*
X99118434Y-86394593D01*
X99079252Y-86326727D01*
X99058969Y-86251032D01*
X99058969Y-86172666D01*
X99079252Y-86096971D01*
X99118434Y-86029105D01*
X99173847Y-85973692D01*
X99241713Y-85934510D01*
X99317408Y-85914227D01*
X99395774Y-85914227D01*
X99471469Y-85934510D01*
G37*
G36*
X100471469Y-85934510D02*
G01*
X100539335Y-85973692D01*
X100594748Y-86029105D01*
X100633930Y-86096971D01*
X100654213Y-86172666D01*
X100654213Y-86251032D01*
X100633930Y-86326727D01*
X100594748Y-86394593D01*
X100539335Y-86450006D01*
X100471469Y-86489188D01*
X100395774Y-86509471D01*
X100317408Y-86509471D01*
X100241713Y-86489188D01*
X100173847Y-86450006D01*
X100118434Y-86394593D01*
X100079252Y-86326727D01*
X100058969Y-86251032D01*
X100058969Y-86172666D01*
X100079252Y-86096971D01*
X100118434Y-86029105D01*
X100173847Y-85973692D01*
X100241713Y-85934510D01*
X100317408Y-85914227D01*
X100395774Y-85914227D01*
X100471469Y-85934510D01*
G37*
G36*
X101471469Y-85934510D02*
G01*
X101539335Y-85973692D01*
X101594748Y-86029105D01*
X101633930Y-86096971D01*
X101654213Y-86172666D01*
X101654213Y-86251032D01*
X101633930Y-86326727D01*
X101594748Y-86394593D01*
X101539335Y-86450006D01*
X101471469Y-86489188D01*
X101395774Y-86509471D01*
X101317408Y-86509471D01*
X101241713Y-86489188D01*
X101173847Y-86450006D01*
X101118434Y-86394593D01*
X101079252Y-86326727D01*
X101058969Y-86251032D01*
X101058969Y-86172666D01*
X101079252Y-86096971D01*
X101118434Y-86029105D01*
X101173847Y-85973692D01*
X101241713Y-85934510D01*
X101317408Y-85914227D01*
X101395774Y-85914227D01*
X101471469Y-85934510D01*
G37*
G36*
X102471469Y-85934510D02*
G01*
X102539335Y-85973692D01*
X102594748Y-86029105D01*
X102633930Y-86096971D01*
X102654213Y-86172666D01*
X102654213Y-86251032D01*
X102633930Y-86326727D01*
X102594748Y-86394593D01*
X102539335Y-86450006D01*
X102471469Y-86489188D01*
X102395774Y-86509471D01*
X102317408Y-86509471D01*
X102241713Y-86489188D01*
X102173847Y-86450006D01*
X102118434Y-86394593D01*
X102079252Y-86326727D01*
X102058969Y-86251032D01*
X102058969Y-86172666D01*
X102079252Y-86096971D01*
X102118434Y-86029105D01*
X102173847Y-85973692D01*
X102241713Y-85934510D01*
X102317408Y-85914227D01*
X102395774Y-85914227D01*
X102471469Y-85934510D01*
G37*
G36*
X85953832Y-85066847D02*
G01*
X85957845Y-85068618D01*
X85961811Y-85069141D01*
X86011398Y-85092264D01*
X86050486Y-85109523D01*
X86052301Y-85111338D01*
X86052691Y-85111520D01*
X86123198Y-85182027D01*
X86123379Y-85182416D01*
X86125196Y-85184233D01*
X86142464Y-85223342D01*
X86165577Y-85272907D01*
X86166098Y-85276871D01*
X86167872Y-85280887D01*
X86175509Y-85346710D01*
X86175509Y-85846710D01*
X86167872Y-85912533D01*
X86166098Y-85916549D01*
X86165577Y-85920512D01*
X86142472Y-85970058D01*
X86125196Y-86009187D01*
X86123378Y-86011004D01*
X86123198Y-86011392D01*
X86052691Y-86081899D01*
X86052303Y-86082079D01*
X86050486Y-86083897D01*
X86011357Y-86101173D01*
X85961811Y-86124278D01*
X85957848Y-86124799D01*
X85953832Y-86126573D01*
X85888009Y-86134210D01*
X85413009Y-86134210D01*
X85347186Y-86126573D01*
X85343170Y-86124799D01*
X85339206Y-86124278D01*
X85289641Y-86101165D01*
X85250532Y-86083897D01*
X85248715Y-86082080D01*
X85248326Y-86081899D01*
X85177819Y-86011392D01*
X85177637Y-86011002D01*
X85175822Y-86009187D01*
X85158563Y-85970099D01*
X85135440Y-85920512D01*
X85134917Y-85916546D01*
X85133146Y-85912533D01*
X85125509Y-85846710D01*
X85125509Y-85346710D01*
X85133146Y-85280887D01*
X85134917Y-85276874D01*
X85135440Y-85272907D01*
X85158571Y-85223301D01*
X85175822Y-85184233D01*
X85177636Y-85182418D01*
X85177819Y-85182027D01*
X85248326Y-85111520D01*
X85248717Y-85111337D01*
X85250532Y-85109523D01*
X85289600Y-85092272D01*
X85339206Y-85069141D01*
X85343173Y-85068618D01*
X85347186Y-85066847D01*
X85413009Y-85059210D01*
X85888009Y-85059210D01*
X85953832Y-85066847D01*
G37*
G36*
X87453756Y-85066847D02*
G01*
X87457769Y-85068618D01*
X87461735Y-85069141D01*
X87511322Y-85092264D01*
X87550410Y-85109523D01*
X87552225Y-85111338D01*
X87552615Y-85111520D01*
X87623122Y-85182027D01*
X87623303Y-85182416D01*
X87625120Y-85184233D01*
X87642388Y-85223342D01*
X87665501Y-85272907D01*
X87666022Y-85276871D01*
X87667796Y-85280887D01*
X87675433Y-85346710D01*
X87675433Y-85846710D01*
X87667796Y-85912533D01*
X87666022Y-85916549D01*
X87665501Y-85920512D01*
X87642396Y-85970058D01*
X87625120Y-86009187D01*
X87623302Y-86011004D01*
X87623122Y-86011392D01*
X87552615Y-86081899D01*
X87552227Y-86082079D01*
X87550410Y-86083897D01*
X87511281Y-86101173D01*
X87461735Y-86124278D01*
X87457772Y-86124799D01*
X87453756Y-86126573D01*
X87387933Y-86134210D01*
X86912933Y-86134210D01*
X86847110Y-86126573D01*
X86843094Y-86124799D01*
X86839130Y-86124278D01*
X86789565Y-86101165D01*
X86750456Y-86083897D01*
X86748639Y-86082080D01*
X86748250Y-86081899D01*
X86677743Y-86011392D01*
X86677561Y-86011002D01*
X86675746Y-86009187D01*
X86658487Y-85970099D01*
X86635364Y-85920512D01*
X86634841Y-85916546D01*
X86633070Y-85912533D01*
X86625433Y-85846710D01*
X86625433Y-85346710D01*
X86633070Y-85280887D01*
X86634841Y-85276874D01*
X86635364Y-85272907D01*
X86658495Y-85223301D01*
X86675746Y-85184233D01*
X86677560Y-85182418D01*
X86677743Y-85182027D01*
X86748250Y-85111520D01*
X86748641Y-85111337D01*
X86750456Y-85109523D01*
X86789524Y-85092272D01*
X86839130Y-85069141D01*
X86843097Y-85068618D01*
X86847110Y-85066847D01*
X86912933Y-85059210D01*
X87387933Y-85059210D01*
X87453756Y-85066847D01*
G37*
G36*
X92471469Y-84934510D02*
G01*
X92539335Y-84973692D01*
X92594748Y-85029105D01*
X92633930Y-85096971D01*
X92654213Y-85172666D01*
X92654213Y-85251032D01*
X92633930Y-85326727D01*
X92594748Y-85394593D01*
X92539335Y-85450006D01*
X92471469Y-85489188D01*
X92395774Y-85509471D01*
X92317408Y-85509471D01*
X92241713Y-85489188D01*
X92173847Y-85450006D01*
X92118434Y-85394593D01*
X92079252Y-85326727D01*
X92058969Y-85251032D01*
X92058969Y-85172666D01*
X92079252Y-85096971D01*
X92118434Y-85029105D01*
X92173847Y-84973692D01*
X92241713Y-84934510D01*
X92317408Y-84914227D01*
X92395774Y-84914227D01*
X92471469Y-84934510D01*
G37*
G36*
X93471469Y-84934510D02*
G01*
X93539335Y-84973692D01*
X93594748Y-85029105D01*
X93633930Y-85096971D01*
X93654213Y-85172666D01*
X93654213Y-85251032D01*
X93633930Y-85326727D01*
X93594748Y-85394593D01*
X93539335Y-85450006D01*
X93471469Y-85489188D01*
X93395774Y-85509471D01*
X93317408Y-85509471D01*
X93241713Y-85489188D01*
X93173847Y-85450006D01*
X93118434Y-85394593D01*
X93079252Y-85326727D01*
X93058969Y-85251032D01*
X93058969Y-85172666D01*
X93079252Y-85096971D01*
X93118434Y-85029105D01*
X93173847Y-84973692D01*
X93241713Y-84934510D01*
X93317408Y-84914227D01*
X93395774Y-84914227D01*
X93471469Y-84934510D01*
G37*
G36*
X94471469Y-84934510D02*
G01*
X94539335Y-84973692D01*
X94594748Y-85029105D01*
X94633930Y-85096971D01*
X94654213Y-85172666D01*
X94654213Y-85251032D01*
X94633930Y-85326727D01*
X94594748Y-85394593D01*
X94539335Y-85450006D01*
X94471469Y-85489188D01*
X94395774Y-85509471D01*
X94317408Y-85509471D01*
X94241713Y-85489188D01*
X94173847Y-85450006D01*
X94118434Y-85394593D01*
X94079252Y-85326727D01*
X94058969Y-85251032D01*
X94058969Y-85172666D01*
X94079252Y-85096971D01*
X94118434Y-85029105D01*
X94173847Y-84973692D01*
X94241713Y-84934510D01*
X94317408Y-84914227D01*
X94395774Y-84914227D01*
X94471469Y-84934510D01*
G37*
G36*
X95471469Y-84934510D02*
G01*
X95539335Y-84973692D01*
X95594748Y-85029105D01*
X95633930Y-85096971D01*
X95654213Y-85172666D01*
X95654213Y-85251032D01*
X95633930Y-85326727D01*
X95594748Y-85394593D01*
X95539335Y-85450006D01*
X95471469Y-85489188D01*
X95395774Y-85509471D01*
X95317408Y-85509471D01*
X95241713Y-85489188D01*
X95173847Y-85450006D01*
X95118434Y-85394593D01*
X95079252Y-85326727D01*
X95058969Y-85251032D01*
X95058969Y-85172666D01*
X95079252Y-85096971D01*
X95118434Y-85029105D01*
X95173847Y-84973692D01*
X95241713Y-84934510D01*
X95317408Y-84914227D01*
X95395774Y-84914227D01*
X95471469Y-84934510D01*
G37*
G36*
X96471469Y-84934510D02*
G01*
X96539335Y-84973692D01*
X96594748Y-85029105D01*
X96633930Y-85096971D01*
X96654213Y-85172666D01*
X96654213Y-85251032D01*
X96633930Y-85326727D01*
X96594748Y-85394593D01*
X96539335Y-85450006D01*
X96471469Y-85489188D01*
X96395774Y-85509471D01*
X96317408Y-85509471D01*
X96241713Y-85489188D01*
X96173847Y-85450006D01*
X96118434Y-85394593D01*
X96079252Y-85326727D01*
X96058969Y-85251032D01*
X96058969Y-85172666D01*
X96079252Y-85096971D01*
X96118434Y-85029105D01*
X96173847Y-84973692D01*
X96241713Y-84934510D01*
X96317408Y-84914227D01*
X96395774Y-84914227D01*
X96471469Y-84934510D01*
G37*
G36*
X97471469Y-84934510D02*
G01*
X97539335Y-84973692D01*
X97594748Y-85029105D01*
X97633930Y-85096971D01*
X97654213Y-85172666D01*
X97654213Y-85251032D01*
X97633930Y-85326727D01*
X97594748Y-85394593D01*
X97539335Y-85450006D01*
X97471469Y-85489188D01*
X97395774Y-85509471D01*
X97317408Y-85509471D01*
X97241713Y-85489188D01*
X97173847Y-85450006D01*
X97118434Y-85394593D01*
X97079252Y-85326727D01*
X97058969Y-85251032D01*
X97058969Y-85172666D01*
X97079252Y-85096971D01*
X97118434Y-85029105D01*
X97173847Y-84973692D01*
X97241713Y-84934510D01*
X97317408Y-84914227D01*
X97395774Y-84914227D01*
X97471469Y-84934510D01*
G37*
G36*
X98471469Y-84934510D02*
G01*
X98539335Y-84973692D01*
X98594748Y-85029105D01*
X98633930Y-85096971D01*
X98654213Y-85172666D01*
X98654213Y-85251032D01*
X98633930Y-85326727D01*
X98594748Y-85394593D01*
X98539335Y-85450006D01*
X98471469Y-85489188D01*
X98395774Y-85509471D01*
X98317408Y-85509471D01*
X98241713Y-85489188D01*
X98173847Y-85450006D01*
X98118434Y-85394593D01*
X98079252Y-85326727D01*
X98058969Y-85251032D01*
X98058969Y-85172666D01*
X98079252Y-85096971D01*
X98118434Y-85029105D01*
X98173847Y-84973692D01*
X98241713Y-84934510D01*
X98317408Y-84914227D01*
X98395774Y-84914227D01*
X98471469Y-84934510D01*
G37*
G36*
X99471469Y-84934510D02*
G01*
X99539335Y-84973692D01*
X99594748Y-85029105D01*
X99633930Y-85096971D01*
X99654213Y-85172666D01*
X99654213Y-85251032D01*
X99633930Y-85326727D01*
X99594748Y-85394593D01*
X99539335Y-85450006D01*
X99471469Y-85489188D01*
X99395774Y-85509471D01*
X99317408Y-85509471D01*
X99241713Y-85489188D01*
X99173847Y-85450006D01*
X99118434Y-85394593D01*
X99079252Y-85326727D01*
X99058969Y-85251032D01*
X99058969Y-85172666D01*
X99079252Y-85096971D01*
X99118434Y-85029105D01*
X99173847Y-84973692D01*
X99241713Y-84934510D01*
X99317408Y-84914227D01*
X99395774Y-84914227D01*
X99471469Y-84934510D01*
G37*
G36*
X100472485Y-84934510D02*
G01*
X100540351Y-84973692D01*
X100595764Y-85029105D01*
X100634946Y-85096971D01*
X100655229Y-85172666D01*
X100655229Y-85251032D01*
X100634946Y-85326727D01*
X100595764Y-85394593D01*
X100540351Y-85450006D01*
X100472485Y-85489188D01*
X100396790Y-85509471D01*
X100318424Y-85509471D01*
X100242729Y-85489188D01*
X100174863Y-85450006D01*
X100119450Y-85394593D01*
X100080268Y-85326727D01*
X100059985Y-85251032D01*
X100059985Y-85172666D01*
X100080268Y-85096971D01*
X100119450Y-85029105D01*
X100174863Y-84973692D01*
X100242729Y-84934510D01*
X100318424Y-84914227D01*
X100396790Y-84914227D01*
X100472485Y-84934510D01*
G37*
G36*
X101471469Y-84934510D02*
G01*
X101539335Y-84973692D01*
X101594748Y-85029105D01*
X101633930Y-85096971D01*
X101654213Y-85172666D01*
X101654213Y-85251032D01*
X101633930Y-85326727D01*
X101594748Y-85394593D01*
X101539335Y-85450006D01*
X101471469Y-85489188D01*
X101395774Y-85509471D01*
X101317408Y-85509471D01*
X101241713Y-85489188D01*
X101173847Y-85450006D01*
X101118434Y-85394593D01*
X101079252Y-85326727D01*
X101058969Y-85251032D01*
X101058969Y-85172666D01*
X101079252Y-85096971D01*
X101118434Y-85029105D01*
X101173847Y-84973692D01*
X101241713Y-84934510D01*
X101317408Y-84914227D01*
X101395774Y-84914227D01*
X101471469Y-84934510D01*
G37*
G36*
X102471469Y-84934510D02*
G01*
X102539335Y-84973692D01*
X102594748Y-85029105D01*
X102633930Y-85096971D01*
X102654213Y-85172666D01*
X102654213Y-85251032D01*
X102633930Y-85326727D01*
X102594748Y-85394593D01*
X102539335Y-85450006D01*
X102471469Y-85489188D01*
X102395774Y-85509471D01*
X102317408Y-85509471D01*
X102241713Y-85489188D01*
X102173847Y-85450006D01*
X102118434Y-85394593D01*
X102079252Y-85326727D01*
X102058969Y-85251032D01*
X102058969Y-85172666D01*
X102079252Y-85096971D01*
X102118434Y-85029105D01*
X102173847Y-84973692D01*
X102241713Y-84934510D01*
X102317408Y-84914227D01*
X102395774Y-84914227D01*
X102471469Y-84934510D01*
G37*
G36*
X89471469Y-83934510D02*
G01*
X89539335Y-83973692D01*
X89594748Y-84029105D01*
X89633930Y-84096971D01*
X89654213Y-84172666D01*
X89654213Y-84251032D01*
X89633930Y-84326727D01*
X89594748Y-84394593D01*
X89539335Y-84450006D01*
X89471469Y-84489188D01*
X89395774Y-84509471D01*
X89317408Y-84509471D01*
X89241713Y-84489188D01*
X89173847Y-84450006D01*
X89118434Y-84394593D01*
X89079252Y-84326727D01*
X89058969Y-84251032D01*
X89058969Y-84172666D01*
X89079252Y-84096971D01*
X89118434Y-84029105D01*
X89173847Y-83973692D01*
X89241713Y-83934510D01*
X89317408Y-83914227D01*
X89395774Y-83914227D01*
X89471469Y-83934510D01*
G37*
G36*
X92471469Y-83934510D02*
G01*
X92539335Y-83973692D01*
X92594748Y-84029105D01*
X92633930Y-84096971D01*
X92654213Y-84172666D01*
X92654213Y-84251032D01*
X92633930Y-84326727D01*
X92594748Y-84394593D01*
X92539335Y-84450006D01*
X92471469Y-84489188D01*
X92395774Y-84509471D01*
X92317408Y-84509471D01*
X92241713Y-84489188D01*
X92173847Y-84450006D01*
X92118434Y-84394593D01*
X92079252Y-84326727D01*
X92058969Y-84251032D01*
X92058969Y-84172666D01*
X92079252Y-84096971D01*
X92118434Y-84029105D01*
X92173847Y-83973692D01*
X92241713Y-83934510D01*
X92317408Y-83914227D01*
X92395774Y-83914227D01*
X92471469Y-83934510D01*
G37*
G36*
X93471469Y-83934510D02*
G01*
X93539335Y-83973692D01*
X93594748Y-84029105D01*
X93633930Y-84096971D01*
X93654213Y-84172666D01*
X93654213Y-84251032D01*
X93633930Y-84326727D01*
X93594748Y-84394593D01*
X93539335Y-84450006D01*
X93471469Y-84489188D01*
X93395774Y-84509471D01*
X93317408Y-84509471D01*
X93241713Y-84489188D01*
X93173847Y-84450006D01*
X93118434Y-84394593D01*
X93079252Y-84326727D01*
X93058969Y-84251032D01*
X93058969Y-84172666D01*
X93079252Y-84096971D01*
X93118434Y-84029105D01*
X93173847Y-83973692D01*
X93241713Y-83934510D01*
X93317408Y-83914227D01*
X93395774Y-83914227D01*
X93471469Y-83934510D01*
G37*
G36*
X94471469Y-83934510D02*
G01*
X94539335Y-83973692D01*
X94594748Y-84029105D01*
X94633930Y-84096971D01*
X94654213Y-84172666D01*
X94654213Y-84251032D01*
X94633930Y-84326727D01*
X94594748Y-84394593D01*
X94539335Y-84450006D01*
X94471469Y-84489188D01*
X94395774Y-84509471D01*
X94317408Y-84509471D01*
X94241713Y-84489188D01*
X94173847Y-84450006D01*
X94118434Y-84394593D01*
X94079252Y-84326727D01*
X94058969Y-84251032D01*
X94058969Y-84172666D01*
X94079252Y-84096971D01*
X94118434Y-84029105D01*
X94173847Y-83973692D01*
X94241713Y-83934510D01*
X94317408Y-83914227D01*
X94395774Y-83914227D01*
X94471469Y-83934510D01*
G37*
G36*
X95471469Y-83934510D02*
G01*
X95539335Y-83973692D01*
X95594748Y-84029105D01*
X95633930Y-84096971D01*
X95654213Y-84172666D01*
X95654213Y-84251032D01*
X95633930Y-84326727D01*
X95594748Y-84394593D01*
X95539335Y-84450006D01*
X95471469Y-84489188D01*
X95395774Y-84509471D01*
X95317408Y-84509471D01*
X95241713Y-84489188D01*
X95173847Y-84450006D01*
X95118434Y-84394593D01*
X95079252Y-84326727D01*
X95058969Y-84251032D01*
X95058969Y-84172666D01*
X95079252Y-84096971D01*
X95118434Y-84029105D01*
X95173847Y-83973692D01*
X95241713Y-83934510D01*
X95317408Y-83914227D01*
X95395774Y-83914227D01*
X95471469Y-83934510D01*
G37*
G36*
X96471469Y-83934510D02*
G01*
X96539335Y-83973692D01*
X96594748Y-84029105D01*
X96633930Y-84096971D01*
X96654213Y-84172666D01*
X96654213Y-84251032D01*
X96633930Y-84326727D01*
X96594748Y-84394593D01*
X96539335Y-84450006D01*
X96471469Y-84489188D01*
X96395774Y-84509471D01*
X96317408Y-84509471D01*
X96241713Y-84489188D01*
X96173847Y-84450006D01*
X96118434Y-84394593D01*
X96079252Y-84326727D01*
X96058969Y-84251032D01*
X96058969Y-84172666D01*
X96079252Y-84096971D01*
X96118434Y-84029105D01*
X96173847Y-83973692D01*
X96241713Y-83934510D01*
X96317408Y-83914227D01*
X96395774Y-83914227D01*
X96471469Y-83934510D01*
G37*
G36*
X97471469Y-83934510D02*
G01*
X97539335Y-83973692D01*
X97594748Y-84029105D01*
X97633930Y-84096971D01*
X97654213Y-84172666D01*
X97654213Y-84251032D01*
X97633930Y-84326727D01*
X97594748Y-84394593D01*
X97539335Y-84450006D01*
X97471469Y-84489188D01*
X97395774Y-84509471D01*
X97317408Y-84509471D01*
X97241713Y-84489188D01*
X97173847Y-84450006D01*
X97118434Y-84394593D01*
X97079252Y-84326727D01*
X97058969Y-84251032D01*
X97058969Y-84172666D01*
X97079252Y-84096971D01*
X97118434Y-84029105D01*
X97173847Y-83973692D01*
X97241713Y-83934510D01*
X97317408Y-83914227D01*
X97395774Y-83914227D01*
X97471469Y-83934510D01*
G37*
G36*
X98471469Y-83934510D02*
G01*
X98539335Y-83973692D01*
X98594748Y-84029105D01*
X98633930Y-84096971D01*
X98654213Y-84172666D01*
X98654213Y-84251032D01*
X98633930Y-84326727D01*
X98594748Y-84394593D01*
X98539335Y-84450006D01*
X98471469Y-84489188D01*
X98395774Y-84509471D01*
X98317408Y-84509471D01*
X98241713Y-84489188D01*
X98173847Y-84450006D01*
X98118434Y-84394593D01*
X98079252Y-84326727D01*
X98058969Y-84251032D01*
X98058969Y-84172666D01*
X98079252Y-84096971D01*
X98118434Y-84029105D01*
X98173847Y-83973692D01*
X98241713Y-83934510D01*
X98317408Y-83914227D01*
X98395774Y-83914227D01*
X98471469Y-83934510D01*
G37*
G36*
X99471469Y-83934510D02*
G01*
X99539335Y-83973692D01*
X99594748Y-84029105D01*
X99633930Y-84096971D01*
X99654213Y-84172666D01*
X99654213Y-84251032D01*
X99633930Y-84326727D01*
X99594748Y-84394593D01*
X99539335Y-84450006D01*
X99471469Y-84489188D01*
X99395774Y-84509471D01*
X99317408Y-84509471D01*
X99241713Y-84489188D01*
X99173847Y-84450006D01*
X99118434Y-84394593D01*
X99079252Y-84326727D01*
X99058969Y-84251032D01*
X99058969Y-84172666D01*
X99079252Y-84096971D01*
X99118434Y-84029105D01*
X99173847Y-83973692D01*
X99241713Y-83934510D01*
X99317408Y-83914227D01*
X99395774Y-83914227D01*
X99471469Y-83934510D01*
G37*
G36*
X100471469Y-83934510D02*
G01*
X100539335Y-83973692D01*
X100594748Y-84029105D01*
X100633930Y-84096971D01*
X100654213Y-84172666D01*
X100654213Y-84251032D01*
X100633930Y-84326727D01*
X100594748Y-84394593D01*
X100539335Y-84450006D01*
X100471469Y-84489188D01*
X100395774Y-84509471D01*
X100317408Y-84509471D01*
X100241713Y-84489188D01*
X100173847Y-84450006D01*
X100118434Y-84394593D01*
X100079252Y-84326727D01*
X100058969Y-84251032D01*
X100058969Y-84172666D01*
X100079252Y-84096971D01*
X100118434Y-84029105D01*
X100173847Y-83973692D01*
X100241713Y-83934510D01*
X100317408Y-83914227D01*
X100395774Y-83914227D01*
X100471469Y-83934510D01*
G37*
G36*
X101471469Y-83934510D02*
G01*
X101539335Y-83973692D01*
X101594748Y-84029105D01*
X101633930Y-84096971D01*
X101654213Y-84172666D01*
X101654213Y-84251032D01*
X101633930Y-84326727D01*
X101594748Y-84394593D01*
X101539335Y-84450006D01*
X101471469Y-84489188D01*
X101395774Y-84509471D01*
X101317408Y-84509471D01*
X101241713Y-84489188D01*
X101173847Y-84450006D01*
X101118434Y-84394593D01*
X101079252Y-84326727D01*
X101058969Y-84251032D01*
X101058969Y-84172666D01*
X101079252Y-84096971D01*
X101118434Y-84029105D01*
X101173847Y-83973692D01*
X101241713Y-83934510D01*
X101317408Y-83914227D01*
X101395774Y-83914227D01*
X101471469Y-83934510D01*
G37*
G36*
X102471469Y-83934510D02*
G01*
X102539335Y-83973692D01*
X102594748Y-84029105D01*
X102633930Y-84096971D01*
X102654213Y-84172666D01*
X102654213Y-84251032D01*
X102633930Y-84326727D01*
X102594748Y-84394593D01*
X102539335Y-84450006D01*
X102471469Y-84489188D01*
X102395774Y-84509471D01*
X102317408Y-84509471D01*
X102241713Y-84489188D01*
X102173847Y-84450006D01*
X102118434Y-84394593D01*
X102079252Y-84326727D01*
X102058969Y-84251032D01*
X102058969Y-84172666D01*
X102079252Y-84096971D01*
X102118434Y-84029105D01*
X102173847Y-83973692D01*
X102241713Y-83934510D01*
X102317408Y-83914227D01*
X102395774Y-83914227D01*
X102471469Y-83934510D01*
G37*
G36*
X105471469Y-83934510D02*
G01*
X105539335Y-83973692D01*
X105594748Y-84029105D01*
X105633930Y-84096971D01*
X105654213Y-84172666D01*
X105654213Y-84251032D01*
X105633930Y-84326727D01*
X105594748Y-84394593D01*
X105539335Y-84450006D01*
X105471469Y-84489188D01*
X105395774Y-84509471D01*
X105317408Y-84509471D01*
X105241713Y-84489188D01*
X105173847Y-84450006D01*
X105118434Y-84394593D01*
X105079252Y-84326727D01*
X105058969Y-84251032D01*
X105058969Y-84172666D01*
X105079252Y-84096971D01*
X105118434Y-84029105D01*
X105173847Y-83973692D01*
X105241713Y-83934510D01*
X105317408Y-83914227D01*
X105395774Y-83914227D01*
X105471469Y-83934510D01*
G37*
G36*
X74512784Y-82391309D02*
G01*
X74529005Y-82402148D01*
X74539844Y-82418369D01*
X74543650Y-82437503D01*
X74543650Y-83587517D01*
X74539844Y-83606651D01*
X74529005Y-83622872D01*
X74512784Y-83633711D01*
X74493650Y-83637517D01*
X72993650Y-83637517D01*
X72974516Y-83633711D01*
X72958295Y-83622872D01*
X72947456Y-83606651D01*
X72943650Y-83587517D01*
X72943650Y-82437503D01*
X72947456Y-82418369D01*
X72958295Y-82402148D01*
X72974516Y-82391309D01*
X72993650Y-82387503D01*
X74493650Y-82387503D01*
X74512784Y-82391309D01*
G37*
G36*
X76812759Y-82391309D02*
G01*
X76828980Y-82402148D01*
X76839819Y-82418369D01*
X76843625Y-82437503D01*
X76843625Y-83587517D01*
X76839819Y-83606651D01*
X76828980Y-83622872D01*
X76812759Y-83633711D01*
X76793625Y-83637517D01*
X75293625Y-83637517D01*
X75274491Y-83633711D01*
X75258270Y-83622872D01*
X75247431Y-83606651D01*
X75243625Y-83587517D01*
X75243625Y-82437503D01*
X75247431Y-82418369D01*
X75258270Y-82402148D01*
X75274491Y-82391309D01*
X75293625Y-82387503D01*
X76793625Y-82387503D01*
X76812759Y-82391309D01*
G37*
G36*
X83412708Y-82391309D02*
G01*
X83428929Y-82402148D01*
X83439768Y-82418369D01*
X83443574Y-82437503D01*
X83443574Y-83587517D01*
X83439768Y-83606651D01*
X83428929Y-83622872D01*
X83412708Y-83633711D01*
X83393574Y-83637517D01*
X81893574Y-83637517D01*
X81874440Y-83633711D01*
X81858219Y-83622872D01*
X81847380Y-83606651D01*
X81843574Y-83587517D01*
X81843574Y-82437503D01*
X81847380Y-82418369D01*
X81858219Y-82402148D01*
X81874440Y-82391309D01*
X81893574Y-82387503D01*
X83393574Y-82387503D01*
X83412708Y-82391309D01*
G37*
G36*
X89471469Y-82934510D02*
G01*
X89539335Y-82973692D01*
X89594748Y-83029105D01*
X89633930Y-83096971D01*
X89654213Y-83172666D01*
X89654213Y-83251032D01*
X89633930Y-83326727D01*
X89594748Y-83394593D01*
X89539335Y-83450006D01*
X89471469Y-83489188D01*
X89395774Y-83509471D01*
X89317408Y-83509471D01*
X89241713Y-83489188D01*
X89173847Y-83450006D01*
X89118434Y-83394593D01*
X89079252Y-83326727D01*
X89058969Y-83251032D01*
X89058969Y-83172666D01*
X89079252Y-83096971D01*
X89118434Y-83029105D01*
X89173847Y-82973692D01*
X89241713Y-82934510D01*
X89317408Y-82914227D01*
X89395774Y-82914227D01*
X89471469Y-82934510D01*
G37*
G36*
X90471469Y-82934510D02*
G01*
X90539335Y-82973692D01*
X90594748Y-83029105D01*
X90633930Y-83096971D01*
X90654213Y-83172666D01*
X90654213Y-83251032D01*
X90633930Y-83326727D01*
X90594748Y-83394593D01*
X90539335Y-83450006D01*
X90471469Y-83489188D01*
X90395774Y-83509471D01*
X90317408Y-83509471D01*
X90241713Y-83489188D01*
X90173847Y-83450006D01*
X90118434Y-83394593D01*
X90079252Y-83326727D01*
X90058969Y-83251032D01*
X90058969Y-83172666D01*
X90079252Y-83096971D01*
X90118434Y-83029105D01*
X90173847Y-82973692D01*
X90241713Y-82934510D01*
X90317408Y-82914227D01*
X90395774Y-82914227D01*
X90471469Y-82934510D01*
G37*
G36*
X104471469Y-82934510D02*
G01*
X104539335Y-82973692D01*
X104594748Y-83029105D01*
X104633930Y-83096971D01*
X104654213Y-83172666D01*
X104654213Y-83251032D01*
X104633930Y-83326727D01*
X104594748Y-83394593D01*
X104539335Y-83450006D01*
X104471469Y-83489188D01*
X104395774Y-83509471D01*
X104317408Y-83509471D01*
X104241713Y-83489188D01*
X104173847Y-83450006D01*
X104118434Y-83394593D01*
X104079252Y-83326727D01*
X104058969Y-83251032D01*
X104058969Y-83172666D01*
X104079252Y-83096971D01*
X104118434Y-83029105D01*
X104173847Y-82973692D01*
X104241713Y-82934510D01*
X104317408Y-82914227D01*
X104395774Y-82914227D01*
X104471469Y-82934510D01*
G37*
G36*
X105471469Y-82934510D02*
G01*
X105539335Y-82973692D01*
X105594748Y-83029105D01*
X105633930Y-83096971D01*
X105654213Y-83172666D01*
X105654213Y-83251032D01*
X105633930Y-83326727D01*
X105594748Y-83394593D01*
X105539335Y-83450006D01*
X105471469Y-83489188D01*
X105395774Y-83509471D01*
X105317408Y-83509471D01*
X105241713Y-83489188D01*
X105173847Y-83450006D01*
X105118434Y-83394593D01*
X105079252Y-83326727D01*
X105058969Y-83251032D01*
X105058969Y-83172666D01*
X105079252Y-83096971D01*
X105118434Y-83029105D01*
X105173847Y-82973692D01*
X105241713Y-82934510D01*
X105317408Y-82914227D01*
X105395774Y-82914227D01*
X105471469Y-82934510D01*
G37*
G36*
X70168462Y-79281775D02*
G01*
X70340086Y-79337539D01*
X70500873Y-79419464D01*
X70646865Y-79525533D01*
X70774467Y-79653135D01*
X70880536Y-79799127D01*
X70962461Y-79959914D01*
X71018225Y-80131538D01*
X71046455Y-80309772D01*
X71046455Y-80490228D01*
X71018225Y-80668462D01*
X70962461Y-80840086D01*
X70880536Y-81000873D01*
X70774467Y-81146865D01*
X70646865Y-81274467D01*
X70500873Y-81380536D01*
X70340086Y-81462461D01*
X70168462Y-81518225D01*
X69990228Y-81546455D01*
X69809772Y-81546455D01*
X69631538Y-81518225D01*
X69459914Y-81462461D01*
X69299127Y-81380536D01*
X69153135Y-81274467D01*
X69025533Y-81146865D01*
X68919464Y-81000873D01*
X68837539Y-80840086D01*
X68781775Y-80668462D01*
X68753545Y-80490228D01*
X68753545Y-80309772D01*
X68781775Y-80131538D01*
X68837539Y-79959914D01*
X68919464Y-79799127D01*
X69025533Y-79653135D01*
X69153135Y-79525533D01*
X69299127Y-79419464D01*
X69459914Y-79337539D01*
X69631538Y-79281775D01*
X69809772Y-79253545D01*
X69990228Y-79253545D01*
X70168462Y-79281775D01*
G37*
G36*
X84253374Y-78282637D02*
G01*
X84257387Y-78284408D01*
X84261353Y-78284931D01*
X84310940Y-78308054D01*
X84350028Y-78325313D01*
X84351843Y-78327128D01*
X84352233Y-78327310D01*
X84422740Y-78397817D01*
X84422921Y-78398206D01*
X84424738Y-78400023D01*
X84442006Y-78439132D01*
X84465119Y-78488697D01*
X84465640Y-78492661D01*
X84467414Y-78496677D01*
X84475051Y-78562500D01*
X84475051Y-79062500D01*
X84467414Y-79128323D01*
X84465640Y-79132339D01*
X84465119Y-79136302D01*
X84442014Y-79185848D01*
X84424738Y-79224977D01*
X84422920Y-79226794D01*
X84422740Y-79227182D01*
X84352233Y-79297689D01*
X84351845Y-79297869D01*
X84350028Y-79299687D01*
X84310899Y-79316963D01*
X84261353Y-79340068D01*
X84257390Y-79340589D01*
X84253374Y-79342363D01*
X84187551Y-79350000D01*
X83712551Y-79350000D01*
X83646728Y-79342363D01*
X83642712Y-79340589D01*
X83638748Y-79340068D01*
X83589183Y-79316955D01*
X83550074Y-79299687D01*
X83548257Y-79297870D01*
X83547868Y-79297689D01*
X83477361Y-79227182D01*
X83477179Y-79226792D01*
X83475364Y-79224977D01*
X83458105Y-79185889D01*
X83434982Y-79136302D01*
X83434459Y-79132336D01*
X83432688Y-79128323D01*
X83425051Y-79062500D01*
X83425051Y-78562500D01*
X83432688Y-78496677D01*
X83434459Y-78492664D01*
X83434982Y-78488697D01*
X83458113Y-78439091D01*
X83475364Y-78400023D01*
X83477178Y-78398208D01*
X83477361Y-78397817D01*
X83547868Y-78327310D01*
X83548259Y-78327127D01*
X83550074Y-78325313D01*
X83589142Y-78308062D01*
X83638748Y-78284931D01*
X83642715Y-78284408D01*
X83646728Y-78282637D01*
X83712551Y-78275000D01*
X84187551Y-78275000D01*
X84253374Y-78282637D01*
G37*
G36*
X85803323Y-78232154D02*
G01*
X85807336Y-78233925D01*
X85811302Y-78234448D01*
X85860889Y-78257571D01*
X85899977Y-78274830D01*
X85901792Y-78276645D01*
X85902182Y-78276827D01*
X85972689Y-78347334D01*
X85972870Y-78347723D01*
X85974687Y-78349540D01*
X85991955Y-78388649D01*
X86015068Y-78438214D01*
X86015589Y-78442178D01*
X86017363Y-78446194D01*
X86025000Y-78512017D01*
X86025000Y-79012017D01*
X86017363Y-79077840D01*
X86015589Y-79081856D01*
X86015068Y-79085819D01*
X85991963Y-79135365D01*
X85974687Y-79174494D01*
X85972869Y-79176311D01*
X85972689Y-79176699D01*
X85902182Y-79247206D01*
X85901794Y-79247386D01*
X85899977Y-79249204D01*
X85860848Y-79266480D01*
X85811302Y-79289585D01*
X85807339Y-79290106D01*
X85803323Y-79291880D01*
X85737500Y-79299517D01*
X85262500Y-79299517D01*
X85196677Y-79291880D01*
X85192661Y-79290106D01*
X85188697Y-79289585D01*
X85139132Y-79266472D01*
X85100023Y-79249204D01*
X85098206Y-79247387D01*
X85097817Y-79247206D01*
X85027310Y-79176699D01*
X85027128Y-79176309D01*
X85025313Y-79174494D01*
X85008054Y-79135406D01*
X84984931Y-79085819D01*
X84984408Y-79081853D01*
X84982637Y-79077840D01*
X84975000Y-79012017D01*
X84975000Y-78512017D01*
X84982637Y-78446194D01*
X84984408Y-78442181D01*
X84984931Y-78438214D01*
X85008062Y-78388608D01*
X85025313Y-78349540D01*
X85027127Y-78347725D01*
X85027310Y-78347334D01*
X85097817Y-78276827D01*
X85098208Y-78276644D01*
X85100023Y-78274830D01*
X85139091Y-78257579D01*
X85188697Y-78234448D01*
X85192664Y-78233925D01*
X85196677Y-78232154D01*
X85262500Y-78224517D01*
X85737500Y-78224517D01*
X85803323Y-78232154D01*
G37*
G36*
X87303323Y-78232154D02*
G01*
X87307336Y-78233925D01*
X87311302Y-78234448D01*
X87360889Y-78257571D01*
X87399977Y-78274830D01*
X87401792Y-78276645D01*
X87402182Y-78276827D01*
X87472689Y-78347334D01*
X87472870Y-78347723D01*
X87474687Y-78349540D01*
X87491955Y-78388649D01*
X87515068Y-78438214D01*
X87515589Y-78442178D01*
X87517363Y-78446194D01*
X87525000Y-78512017D01*
X87525000Y-79012017D01*
X87517363Y-79077840D01*
X87515589Y-79081856D01*
X87515068Y-79085819D01*
X87491963Y-79135365D01*
X87474687Y-79174494D01*
X87472869Y-79176311D01*
X87472689Y-79176699D01*
X87402182Y-79247206D01*
X87401794Y-79247386D01*
X87399977Y-79249204D01*
X87360848Y-79266480D01*
X87311302Y-79289585D01*
X87307339Y-79290106D01*
X87303323Y-79291880D01*
X87237500Y-79299517D01*
X86762500Y-79299517D01*
X86696677Y-79291880D01*
X86692661Y-79290106D01*
X86688697Y-79289585D01*
X86639132Y-79266472D01*
X86600023Y-79249204D01*
X86598206Y-79247387D01*
X86597817Y-79247206D01*
X86527310Y-79176699D01*
X86527128Y-79176309D01*
X86525313Y-79174494D01*
X86508054Y-79135406D01*
X86484931Y-79085819D01*
X86484408Y-79081853D01*
X86482637Y-79077840D01*
X86475000Y-79012017D01*
X86475000Y-78512017D01*
X86482637Y-78446194D01*
X86484408Y-78442181D01*
X86484931Y-78438214D01*
X86508062Y-78388608D01*
X86525313Y-78349540D01*
X86527127Y-78347725D01*
X86527310Y-78347334D01*
X86597817Y-78276827D01*
X86598208Y-78276644D01*
X86600023Y-78274830D01*
X86639091Y-78257579D01*
X86688697Y-78234448D01*
X86692664Y-78233925D01*
X86696677Y-78232154D01*
X86762500Y-78224517D01*
X87237500Y-78224517D01*
X87303323Y-78232154D01*
G37*
G36*
X88803323Y-78232154D02*
G01*
X88807336Y-78233925D01*
X88811302Y-78234448D01*
X88860889Y-78257571D01*
X88899977Y-78274830D01*
X88901792Y-78276645D01*
X88902182Y-78276827D01*
X88972689Y-78347334D01*
X88972870Y-78347723D01*
X88974687Y-78349540D01*
X88991955Y-78388649D01*
X89015068Y-78438214D01*
X89015589Y-78442178D01*
X89017363Y-78446194D01*
X89025000Y-78512017D01*
X89025000Y-79012017D01*
X89017363Y-79077840D01*
X89015589Y-79081856D01*
X89015068Y-79085819D01*
X88991963Y-79135365D01*
X88974687Y-79174494D01*
X88972869Y-79176311D01*
X88972689Y-79176699D01*
X88902182Y-79247206D01*
X88901794Y-79247386D01*
X88899977Y-79249204D01*
X88860848Y-79266480D01*
X88811302Y-79289585D01*
X88807339Y-79290106D01*
X88803323Y-79291880D01*
X88737500Y-79299517D01*
X88262500Y-79299517D01*
X88196677Y-79291880D01*
X88192661Y-79290106D01*
X88188697Y-79289585D01*
X88139132Y-79266472D01*
X88100023Y-79249204D01*
X88098206Y-79247387D01*
X88097817Y-79247206D01*
X88027310Y-79176699D01*
X88027128Y-79176309D01*
X88025313Y-79174494D01*
X88008054Y-79135406D01*
X87984931Y-79085819D01*
X87984408Y-79081853D01*
X87982637Y-79077840D01*
X87975000Y-79012017D01*
X87975000Y-78512017D01*
X87982637Y-78446194D01*
X87984408Y-78442181D01*
X87984931Y-78438214D01*
X88008062Y-78388608D01*
X88025313Y-78349540D01*
X88027127Y-78347725D01*
X88027310Y-78347334D01*
X88097817Y-78276827D01*
X88098208Y-78276644D01*
X88100023Y-78274830D01*
X88139091Y-78257579D01*
X88188697Y-78234448D01*
X88192664Y-78233925D01*
X88196677Y-78232154D01*
X88262500Y-78224517D01*
X88737500Y-78224517D01*
X88803323Y-78232154D01*
G37*
G36*
X90303323Y-78232154D02*
G01*
X90307336Y-78233925D01*
X90311302Y-78234448D01*
X90360889Y-78257571D01*
X90399977Y-78274830D01*
X90401792Y-78276645D01*
X90402182Y-78276827D01*
X90472689Y-78347334D01*
X90472870Y-78347723D01*
X90474687Y-78349540D01*
X90491955Y-78388649D01*
X90515068Y-78438214D01*
X90515589Y-78442178D01*
X90517363Y-78446194D01*
X90525000Y-78512017D01*
X90525000Y-79012017D01*
X90517363Y-79077840D01*
X90515589Y-79081856D01*
X90515068Y-79085819D01*
X90491963Y-79135365D01*
X90474687Y-79174494D01*
X90472869Y-79176311D01*
X90472689Y-79176699D01*
X90402182Y-79247206D01*
X90401794Y-79247386D01*
X90399977Y-79249204D01*
X90360848Y-79266480D01*
X90311302Y-79289585D01*
X90307339Y-79290106D01*
X90303323Y-79291880D01*
X90237500Y-79299517D01*
X89762500Y-79299517D01*
X89696677Y-79291880D01*
X89692661Y-79290106D01*
X89688697Y-79289585D01*
X89639132Y-79266472D01*
X89600023Y-79249204D01*
X89598206Y-79247387D01*
X89597817Y-79247206D01*
X89527310Y-79176699D01*
X89527128Y-79176309D01*
X89525313Y-79174494D01*
X89508054Y-79135406D01*
X89484931Y-79085819D01*
X89484408Y-79081853D01*
X89482637Y-79077840D01*
X89475000Y-79012017D01*
X89475000Y-78512017D01*
X89482637Y-78446194D01*
X89484408Y-78442181D01*
X89484931Y-78438214D01*
X89508062Y-78388608D01*
X89525313Y-78349540D01*
X89527127Y-78347725D01*
X89527310Y-78347334D01*
X89597817Y-78276827D01*
X89598208Y-78276644D01*
X89600023Y-78274830D01*
X89639091Y-78257579D01*
X89688697Y-78234448D01*
X89692664Y-78233925D01*
X89696677Y-78232154D01*
X89762500Y-78224517D01*
X90237500Y-78224517D01*
X90303323Y-78232154D01*
G37*
G36*
X91803323Y-78232154D02*
G01*
X91807336Y-78233925D01*
X91811302Y-78234448D01*
X91860889Y-78257571D01*
X91899977Y-78274830D01*
X91901792Y-78276645D01*
X91902182Y-78276827D01*
X91972689Y-78347334D01*
X91972870Y-78347723D01*
X91974687Y-78349540D01*
X91991955Y-78388649D01*
X92015068Y-78438214D01*
X92015589Y-78442178D01*
X92017363Y-78446194D01*
X92025000Y-78512017D01*
X92025000Y-79012017D01*
X92017363Y-79077840D01*
X92015589Y-79081856D01*
X92015068Y-79085819D01*
X91991963Y-79135365D01*
X91974687Y-79174494D01*
X91972869Y-79176311D01*
X91972689Y-79176699D01*
X91902182Y-79247206D01*
X91901794Y-79247386D01*
X91899977Y-79249204D01*
X91860848Y-79266480D01*
X91811302Y-79289585D01*
X91807339Y-79290106D01*
X91803323Y-79291880D01*
X91737500Y-79299517D01*
X91262500Y-79299517D01*
X91196677Y-79291880D01*
X91192661Y-79290106D01*
X91188697Y-79289585D01*
X91139132Y-79266472D01*
X91100023Y-79249204D01*
X91098206Y-79247387D01*
X91097817Y-79247206D01*
X91027310Y-79176699D01*
X91027128Y-79176309D01*
X91025313Y-79174494D01*
X91008054Y-79135406D01*
X90984931Y-79085819D01*
X90984408Y-79081853D01*
X90982637Y-79077840D01*
X90975000Y-79012017D01*
X90975000Y-78512017D01*
X90982637Y-78446194D01*
X90984408Y-78442181D01*
X90984931Y-78438214D01*
X91008062Y-78388608D01*
X91025313Y-78349540D01*
X91027127Y-78347725D01*
X91027310Y-78347334D01*
X91097817Y-78276827D01*
X91098208Y-78276644D01*
X91100023Y-78274830D01*
X91139091Y-78257579D01*
X91188697Y-78234448D01*
X91192664Y-78233925D01*
X91196677Y-78232154D01*
X91262500Y-78224517D01*
X91737500Y-78224517D01*
X91803323Y-78232154D01*
G37*
G36*
X93353323Y-78232154D02*
G01*
X93357336Y-78233925D01*
X93361302Y-78234448D01*
X93410889Y-78257571D01*
X93449977Y-78274830D01*
X93451792Y-78276645D01*
X93452182Y-78276827D01*
X93522689Y-78347334D01*
X93522870Y-78347723D01*
X93524687Y-78349540D01*
X93541955Y-78388649D01*
X93565068Y-78438214D01*
X93565589Y-78442178D01*
X93567363Y-78446194D01*
X93575000Y-78512017D01*
X93575000Y-79012017D01*
X93567363Y-79077840D01*
X93565589Y-79081856D01*
X93565068Y-79085819D01*
X93541963Y-79135365D01*
X93524687Y-79174494D01*
X93522869Y-79176311D01*
X93522689Y-79176699D01*
X93452182Y-79247206D01*
X93451794Y-79247386D01*
X93449977Y-79249204D01*
X93410848Y-79266480D01*
X93361302Y-79289585D01*
X93357339Y-79290106D01*
X93353323Y-79291880D01*
X93287500Y-79299517D01*
X92812500Y-79299517D01*
X92746677Y-79291880D01*
X92742661Y-79290106D01*
X92738697Y-79289585D01*
X92689132Y-79266472D01*
X92650023Y-79249204D01*
X92648206Y-79247387D01*
X92647817Y-79247206D01*
X92577310Y-79176699D01*
X92577128Y-79176309D01*
X92575313Y-79174494D01*
X92558054Y-79135406D01*
X92534931Y-79085819D01*
X92534408Y-79081853D01*
X92532637Y-79077840D01*
X92525000Y-79012017D01*
X92525000Y-78512017D01*
X92532637Y-78446194D01*
X92534408Y-78442181D01*
X92534931Y-78438214D01*
X92558062Y-78388608D01*
X92575313Y-78349540D01*
X92577127Y-78347725D01*
X92577310Y-78347334D01*
X92647817Y-78276827D01*
X92648208Y-78276644D01*
X92650023Y-78274830D01*
X92689091Y-78257579D01*
X92738697Y-78234448D01*
X92742664Y-78233925D01*
X92746677Y-78232154D01*
X92812500Y-78224517D01*
X93287500Y-78224517D01*
X93353323Y-78232154D01*
G37*
G36*
X80153323Y-76482637D02*
G01*
X80157336Y-76484408D01*
X80161302Y-76484931D01*
X80210889Y-76508054D01*
X80249977Y-76525313D01*
X80251792Y-76527128D01*
X80252182Y-76527310D01*
X80322689Y-76597817D01*
X80322870Y-76598206D01*
X80324687Y-76600023D01*
X80341955Y-76639132D01*
X80365068Y-76688697D01*
X80365589Y-76692661D01*
X80367363Y-76696677D01*
X80375000Y-76762500D01*
X80375000Y-77237500D01*
X80367363Y-77303323D01*
X80365589Y-77307339D01*
X80365068Y-77311302D01*
X80341963Y-77360848D01*
X80324687Y-77399977D01*
X80322869Y-77401794D01*
X80322689Y-77402182D01*
X80252182Y-77472689D01*
X80251794Y-77472869D01*
X80249977Y-77474687D01*
X80210848Y-77491963D01*
X80161302Y-77515068D01*
X80157339Y-77515589D01*
X80153323Y-77517363D01*
X80087500Y-77525000D01*
X79587500Y-77525000D01*
X79521677Y-77517363D01*
X79517661Y-77515589D01*
X79513697Y-77515068D01*
X79464132Y-77491955D01*
X79425023Y-77474687D01*
X79423206Y-77472870D01*
X79422817Y-77472689D01*
X79352310Y-77402182D01*
X79352128Y-77401792D01*
X79350313Y-77399977D01*
X79333054Y-77360889D01*
X79309931Y-77311302D01*
X79309408Y-77307336D01*
X79307637Y-77303323D01*
X79300000Y-77237500D01*
X79300000Y-76762500D01*
X79307637Y-76696677D01*
X79309408Y-76692664D01*
X79309931Y-76688697D01*
X79333062Y-76639091D01*
X79350313Y-76600023D01*
X79352127Y-76598208D01*
X79352310Y-76597817D01*
X79422817Y-76527310D01*
X79423208Y-76527127D01*
X79425023Y-76525313D01*
X79464091Y-76508062D01*
X79513697Y-76484931D01*
X79517664Y-76484408D01*
X79521677Y-76482637D01*
X79587500Y-76475000D01*
X80087500Y-76475000D01*
X80153323Y-76482637D01*
G37*
G36*
X81978323Y-76482637D02*
G01*
X81982336Y-76484408D01*
X81986302Y-76484931D01*
X82035889Y-76508054D01*
X82074977Y-76525313D01*
X82076792Y-76527128D01*
X82077182Y-76527310D01*
X82147689Y-76597817D01*
X82147870Y-76598206D01*
X82149687Y-76600023D01*
X82166955Y-76639132D01*
X82190068Y-76688697D01*
X82190589Y-76692661D01*
X82192363Y-76696677D01*
X82200000Y-76762500D01*
X82200000Y-77237500D01*
X82192363Y-77303323D01*
X82190589Y-77307339D01*
X82190068Y-77311302D01*
X82166963Y-77360848D01*
X82149687Y-77399977D01*
X82147869Y-77401794D01*
X82147689Y-77402182D01*
X82077182Y-77472689D01*
X82076794Y-77472869D01*
X82074977Y-77474687D01*
X82035848Y-77491963D01*
X81986302Y-77515068D01*
X81982339Y-77515589D01*
X81978323Y-77517363D01*
X81912500Y-77525000D01*
X81412500Y-77525000D01*
X81346677Y-77517363D01*
X81342661Y-77515589D01*
X81338697Y-77515068D01*
X81289132Y-77491955D01*
X81250023Y-77474687D01*
X81248206Y-77472870D01*
X81247817Y-77472689D01*
X81177310Y-77402182D01*
X81177128Y-77401792D01*
X81175313Y-77399977D01*
X81158054Y-77360889D01*
X81134931Y-77311302D01*
X81134408Y-77307336D01*
X81132637Y-77303323D01*
X81125000Y-77237500D01*
X81125000Y-76762500D01*
X81132637Y-76696677D01*
X81134408Y-76692664D01*
X81134931Y-76688697D01*
X81158062Y-76639091D01*
X81175313Y-76600023D01*
X81177127Y-76598208D01*
X81177310Y-76597817D01*
X81247817Y-76527310D01*
X81248208Y-76527127D01*
X81250023Y-76525313D01*
X81289091Y-76508062D01*
X81338697Y-76484931D01*
X81342664Y-76484408D01*
X81346677Y-76482637D01*
X81412500Y-76475000D01*
X81912500Y-76475000D01*
X81978323Y-76482637D01*
G37*
G36*
X84253374Y-76457637D02*
G01*
X84257387Y-76459408D01*
X84261353Y-76459931D01*
X84310940Y-76483054D01*
X84350028Y-76500313D01*
X84351843Y-76502128D01*
X84352233Y-76502310D01*
X84422740Y-76572817D01*
X84422921Y-76573206D01*
X84424738Y-76575023D01*
X84442006Y-76614132D01*
X84465119Y-76663697D01*
X84465640Y-76667661D01*
X84467414Y-76671677D01*
X84475051Y-76737500D01*
X84475051Y-77237500D01*
X84467414Y-77303323D01*
X84465640Y-77307339D01*
X84465119Y-77311302D01*
X84442014Y-77360848D01*
X84424738Y-77399977D01*
X84422920Y-77401794D01*
X84422740Y-77402182D01*
X84352233Y-77472689D01*
X84351845Y-77472869D01*
X84350028Y-77474687D01*
X84310899Y-77491963D01*
X84261353Y-77515068D01*
X84257390Y-77515589D01*
X84253374Y-77517363D01*
X84187551Y-77525000D01*
X83712551Y-77525000D01*
X83646728Y-77517363D01*
X83642712Y-77515589D01*
X83638748Y-77515068D01*
X83589183Y-77491955D01*
X83550074Y-77474687D01*
X83548257Y-77472870D01*
X83547868Y-77472689D01*
X83477361Y-77402182D01*
X83477179Y-77401792D01*
X83475364Y-77399977D01*
X83458105Y-77360889D01*
X83434982Y-77311302D01*
X83434459Y-77307336D01*
X83432688Y-77303323D01*
X83425051Y-77237500D01*
X83425051Y-76737500D01*
X83432688Y-76671677D01*
X83434459Y-76667664D01*
X83434982Y-76663697D01*
X83458113Y-76614091D01*
X83475364Y-76575023D01*
X83477178Y-76573208D01*
X83477361Y-76572817D01*
X83547868Y-76502310D01*
X83548259Y-76502127D01*
X83550074Y-76500313D01*
X83589142Y-76483062D01*
X83638748Y-76459931D01*
X83642715Y-76459408D01*
X83646728Y-76457637D01*
X83712551Y-76450000D01*
X84187551Y-76450000D01*
X84253374Y-76457637D01*
G37*
G36*
X102878323Y-76457637D02*
G01*
X102882336Y-76459408D01*
X102886302Y-76459931D01*
X102935889Y-76483054D01*
X102974977Y-76500313D01*
X102976792Y-76502128D01*
X102977182Y-76502310D01*
X103047689Y-76572817D01*
X103047870Y-76573206D01*
X103049687Y-76575023D01*
X103066955Y-76614132D01*
X103090068Y-76663697D01*
X103090589Y-76667661D01*
X103092363Y-76671677D01*
X103100000Y-76737500D01*
X103100000Y-77237500D01*
X103092363Y-77303323D01*
X103090589Y-77307339D01*
X103090068Y-77311302D01*
X103066963Y-77360848D01*
X103049687Y-77399977D01*
X103047869Y-77401794D01*
X103047689Y-77402182D01*
X102977182Y-77472689D01*
X102976794Y-77472869D01*
X102974977Y-77474687D01*
X102935848Y-77491963D01*
X102886302Y-77515068D01*
X102882339Y-77515589D01*
X102878323Y-77517363D01*
X102812500Y-77525000D01*
X102337500Y-77525000D01*
X102271677Y-77517363D01*
X102267661Y-77515589D01*
X102263697Y-77515068D01*
X102214132Y-77491955D01*
X102175023Y-77474687D01*
X102173206Y-77472870D01*
X102172817Y-77472689D01*
X102102310Y-77402182D01*
X102102128Y-77401792D01*
X102100313Y-77399977D01*
X102083054Y-77360889D01*
X102059931Y-77311302D01*
X102059408Y-77307336D01*
X102057637Y-77303323D01*
X102050000Y-77237500D01*
X102050000Y-76737500D01*
X102057637Y-76671677D01*
X102059408Y-76667664D01*
X102059931Y-76663697D01*
X102083062Y-76614091D01*
X102100313Y-76575023D01*
X102102127Y-76573208D01*
X102102310Y-76572817D01*
X102172817Y-76502310D01*
X102173208Y-76502127D01*
X102175023Y-76500313D01*
X102214091Y-76483062D01*
X102263697Y-76459931D01*
X102267664Y-76459408D01*
X102271677Y-76457637D01*
X102337500Y-76450000D01*
X102812500Y-76450000D01*
X102878323Y-76457637D01*
G37*
G36*
X85803323Y-76407154D02*
G01*
X85807336Y-76408925D01*
X85811302Y-76409448D01*
X85860889Y-76432571D01*
X85899977Y-76449830D01*
X85901792Y-76451645D01*
X85902182Y-76451827D01*
X85972689Y-76522334D01*
X85972870Y-76522723D01*
X85974687Y-76524540D01*
X85991955Y-76563649D01*
X86015068Y-76613214D01*
X86015589Y-76617178D01*
X86017363Y-76621194D01*
X86025000Y-76687017D01*
X86025000Y-77187017D01*
X86017363Y-77252840D01*
X86015589Y-77256856D01*
X86015068Y-77260819D01*
X85991963Y-77310365D01*
X85974687Y-77349494D01*
X85972869Y-77351311D01*
X85972689Y-77351699D01*
X85902182Y-77422206D01*
X85901794Y-77422386D01*
X85899977Y-77424204D01*
X85860848Y-77441480D01*
X85811302Y-77464585D01*
X85807339Y-77465106D01*
X85803323Y-77466880D01*
X85737500Y-77474517D01*
X85262500Y-77474517D01*
X85196677Y-77466880D01*
X85192661Y-77465106D01*
X85188697Y-77464585D01*
X85139132Y-77441472D01*
X85100023Y-77424204D01*
X85098206Y-77422387D01*
X85097817Y-77422206D01*
X85027310Y-77351699D01*
X85027128Y-77351309D01*
X85025313Y-77349494D01*
X85008054Y-77310406D01*
X84984931Y-77260819D01*
X84984408Y-77256853D01*
X84982637Y-77252840D01*
X84975000Y-77187017D01*
X84975000Y-76687017D01*
X84982637Y-76621194D01*
X84984408Y-76617181D01*
X84984931Y-76613214D01*
X85008062Y-76563608D01*
X85025313Y-76524540D01*
X85027127Y-76522725D01*
X85027310Y-76522334D01*
X85097817Y-76451827D01*
X85098208Y-76451644D01*
X85100023Y-76449830D01*
X85139091Y-76432579D01*
X85188697Y-76409448D01*
X85192664Y-76408925D01*
X85196677Y-76407154D01*
X85262500Y-76399517D01*
X85737500Y-76399517D01*
X85803323Y-76407154D01*
G37*
G36*
X87303323Y-76407154D02*
G01*
X87307336Y-76408925D01*
X87311302Y-76409448D01*
X87360889Y-76432571D01*
X87399977Y-76449830D01*
X87401792Y-76451645D01*
X87402182Y-76451827D01*
X87472689Y-76522334D01*
X87472870Y-76522723D01*
X87474687Y-76524540D01*
X87491955Y-76563649D01*
X87515068Y-76613214D01*
X87515589Y-76617178D01*
X87517363Y-76621194D01*
X87525000Y-76687017D01*
X87525000Y-77187017D01*
X87517363Y-77252840D01*
X87515589Y-77256856D01*
X87515068Y-77260819D01*
X87491963Y-77310365D01*
X87474687Y-77349494D01*
X87472869Y-77351311D01*
X87472689Y-77351699D01*
X87402182Y-77422206D01*
X87401794Y-77422386D01*
X87399977Y-77424204D01*
X87360848Y-77441480D01*
X87311302Y-77464585D01*
X87307339Y-77465106D01*
X87303323Y-77466880D01*
X87237500Y-77474517D01*
X86762500Y-77474517D01*
X86696677Y-77466880D01*
X86692661Y-77465106D01*
X86688697Y-77464585D01*
X86639132Y-77441472D01*
X86600023Y-77424204D01*
X86598206Y-77422387D01*
X86597817Y-77422206D01*
X86527310Y-77351699D01*
X86527128Y-77351309D01*
X86525313Y-77349494D01*
X86508054Y-77310406D01*
X86484931Y-77260819D01*
X86484408Y-77256853D01*
X86482637Y-77252840D01*
X86475000Y-77187017D01*
X86475000Y-76687017D01*
X86482637Y-76621194D01*
X86484408Y-76617181D01*
X86484931Y-76613214D01*
X86508062Y-76563608D01*
X86525313Y-76524540D01*
X86527127Y-76522725D01*
X86527310Y-76522334D01*
X86597817Y-76451827D01*
X86598208Y-76451644D01*
X86600023Y-76449830D01*
X86639091Y-76432579D01*
X86688697Y-76409448D01*
X86692664Y-76408925D01*
X86696677Y-76407154D01*
X86762500Y-76399517D01*
X87237500Y-76399517D01*
X87303323Y-76407154D01*
G37*
G36*
X88803323Y-76407154D02*
G01*
X88807336Y-76408925D01*
X88811302Y-76409448D01*
X88860889Y-76432571D01*
X88899977Y-76449830D01*
X88901792Y-76451645D01*
X88902182Y-76451827D01*
X88972689Y-76522334D01*
X88972870Y-76522723D01*
X88974687Y-76524540D01*
X88991955Y-76563649D01*
X89015068Y-76613214D01*
X89015589Y-76617178D01*
X89017363Y-76621194D01*
X89025000Y-76687017D01*
X89025000Y-77187017D01*
X89017363Y-77252840D01*
X89015589Y-77256856D01*
X89015068Y-77260819D01*
X88991963Y-77310365D01*
X88974687Y-77349494D01*
X88972869Y-77351311D01*
X88972689Y-77351699D01*
X88902182Y-77422206D01*
X88901794Y-77422386D01*
X88899977Y-77424204D01*
X88860848Y-77441480D01*
X88811302Y-77464585D01*
X88807339Y-77465106D01*
X88803323Y-77466880D01*
X88737500Y-77474517D01*
X88262500Y-77474517D01*
X88196677Y-77466880D01*
X88192661Y-77465106D01*
X88188697Y-77464585D01*
X88139132Y-77441472D01*
X88100023Y-77424204D01*
X88098206Y-77422387D01*
X88097817Y-77422206D01*
X88027310Y-77351699D01*
X88027128Y-77351309D01*
X88025313Y-77349494D01*
X88008054Y-77310406D01*
X87984931Y-77260819D01*
X87984408Y-77256853D01*
X87982637Y-77252840D01*
X87975000Y-77187017D01*
X87975000Y-76687017D01*
X87982637Y-76621194D01*
X87984408Y-76617181D01*
X87984931Y-76613214D01*
X88008062Y-76563608D01*
X88025313Y-76524540D01*
X88027127Y-76522725D01*
X88027310Y-76522334D01*
X88097817Y-76451827D01*
X88098208Y-76451644D01*
X88100023Y-76449830D01*
X88139091Y-76432579D01*
X88188697Y-76409448D01*
X88192664Y-76408925D01*
X88196677Y-76407154D01*
X88262500Y-76399517D01*
X88737500Y-76399517D01*
X88803323Y-76407154D01*
G37*
G36*
X90303323Y-76407154D02*
G01*
X90307336Y-76408925D01*
X90311302Y-76409448D01*
X90360889Y-76432571D01*
X90399977Y-76449830D01*
X90401792Y-76451645D01*
X90402182Y-76451827D01*
X90472689Y-76522334D01*
X90472870Y-76522723D01*
X90474687Y-76524540D01*
X90491955Y-76563649D01*
X90515068Y-76613214D01*
X90515589Y-76617178D01*
X90517363Y-76621194D01*
X90525000Y-76687017D01*
X90525000Y-77187017D01*
X90517363Y-77252840D01*
X90515589Y-77256856D01*
X90515068Y-77260819D01*
X90491963Y-77310365D01*
X90474687Y-77349494D01*
X90472869Y-77351311D01*
X90472689Y-77351699D01*
X90402182Y-77422206D01*
X90401794Y-77422386D01*
X90399977Y-77424204D01*
X90360848Y-77441480D01*
X90311302Y-77464585D01*
X90307339Y-77465106D01*
X90303323Y-77466880D01*
X90237500Y-77474517D01*
X89762500Y-77474517D01*
X89696677Y-77466880D01*
X89692661Y-77465106D01*
X89688697Y-77464585D01*
X89639132Y-77441472D01*
X89600023Y-77424204D01*
X89598206Y-77422387D01*
X89597817Y-77422206D01*
X89527310Y-77351699D01*
X89527128Y-77351309D01*
X89525313Y-77349494D01*
X89508054Y-77310406D01*
X89484931Y-77260819D01*
X89484408Y-77256853D01*
X89482637Y-77252840D01*
X89475000Y-77187017D01*
X89475000Y-76687017D01*
X89482637Y-76621194D01*
X89484408Y-76617181D01*
X89484931Y-76613214D01*
X89508062Y-76563608D01*
X89525313Y-76524540D01*
X89527127Y-76522725D01*
X89527310Y-76522334D01*
X89597817Y-76451827D01*
X89598208Y-76451644D01*
X89600023Y-76449830D01*
X89639091Y-76432579D01*
X89688697Y-76409448D01*
X89692664Y-76408925D01*
X89696677Y-76407154D01*
X89762500Y-76399517D01*
X90237500Y-76399517D01*
X90303323Y-76407154D01*
G37*
G36*
X91803323Y-76407154D02*
G01*
X91807336Y-76408925D01*
X91811302Y-76409448D01*
X91860889Y-76432571D01*
X91899977Y-76449830D01*
X91901792Y-76451645D01*
X91902182Y-76451827D01*
X91972689Y-76522334D01*
X91972870Y-76522723D01*
X91974687Y-76524540D01*
X91991955Y-76563649D01*
X92015068Y-76613214D01*
X92015589Y-76617178D01*
X92017363Y-76621194D01*
X92025000Y-76687017D01*
X92025000Y-77187017D01*
X92017363Y-77252840D01*
X92015589Y-77256856D01*
X92015068Y-77260819D01*
X91991963Y-77310365D01*
X91974687Y-77349494D01*
X91972869Y-77351311D01*
X91972689Y-77351699D01*
X91902182Y-77422206D01*
X91901794Y-77422386D01*
X91899977Y-77424204D01*
X91860848Y-77441480D01*
X91811302Y-77464585D01*
X91807339Y-77465106D01*
X91803323Y-77466880D01*
X91737500Y-77474517D01*
X91262500Y-77474517D01*
X91196677Y-77466880D01*
X91192661Y-77465106D01*
X91188697Y-77464585D01*
X91139132Y-77441472D01*
X91100023Y-77424204D01*
X91098206Y-77422387D01*
X91097817Y-77422206D01*
X91027310Y-77351699D01*
X91027128Y-77351309D01*
X91025313Y-77349494D01*
X91008054Y-77310406D01*
X90984931Y-77260819D01*
X90984408Y-77256853D01*
X90982637Y-77252840D01*
X90975000Y-77187017D01*
X90975000Y-76687017D01*
X90982637Y-76621194D01*
X90984408Y-76617181D01*
X90984931Y-76613214D01*
X91008062Y-76563608D01*
X91025313Y-76524540D01*
X91027127Y-76522725D01*
X91027310Y-76522334D01*
X91097817Y-76451827D01*
X91098208Y-76451644D01*
X91100023Y-76449830D01*
X91139091Y-76432579D01*
X91188697Y-76409448D01*
X91192664Y-76408925D01*
X91196677Y-76407154D01*
X91262500Y-76399517D01*
X91737500Y-76399517D01*
X91803323Y-76407154D01*
G37*
G36*
X93353323Y-76407154D02*
G01*
X93357336Y-76408925D01*
X93361302Y-76409448D01*
X93410889Y-76432571D01*
X93449977Y-76449830D01*
X93451792Y-76451645D01*
X93452182Y-76451827D01*
X93522689Y-76522334D01*
X93522870Y-76522723D01*
X93524687Y-76524540D01*
X93541955Y-76563649D01*
X93565068Y-76613214D01*
X93565589Y-76617178D01*
X93567363Y-76621194D01*
X93575000Y-76687017D01*
X93575000Y-77187017D01*
X93567363Y-77252840D01*
X93565589Y-77256856D01*
X93565068Y-77260819D01*
X93541963Y-77310365D01*
X93524687Y-77349494D01*
X93522869Y-77351311D01*
X93522689Y-77351699D01*
X93452182Y-77422206D01*
X93451794Y-77422386D01*
X93449977Y-77424204D01*
X93410848Y-77441480D01*
X93361302Y-77464585D01*
X93357339Y-77465106D01*
X93353323Y-77466880D01*
X93287500Y-77474517D01*
X92812500Y-77474517D01*
X92746677Y-77466880D01*
X92742661Y-77465106D01*
X92738697Y-77464585D01*
X92689132Y-77441472D01*
X92650023Y-77424204D01*
X92648206Y-77422387D01*
X92647817Y-77422206D01*
X92577310Y-77351699D01*
X92577128Y-77351309D01*
X92575313Y-77349494D01*
X92558054Y-77310406D01*
X92534931Y-77260819D01*
X92534408Y-77256853D01*
X92532637Y-77252840D01*
X92525000Y-77187017D01*
X92525000Y-76687017D01*
X92532637Y-76621194D01*
X92534408Y-76617181D01*
X92534931Y-76613214D01*
X92558062Y-76563608D01*
X92575313Y-76524540D01*
X92577127Y-76522725D01*
X92577310Y-76522334D01*
X92647817Y-76451827D01*
X92648208Y-76451644D01*
X92650023Y-76449830D01*
X92689091Y-76432579D01*
X92738697Y-76409448D01*
X92742664Y-76408925D01*
X92746677Y-76407154D01*
X92812500Y-76399517D01*
X93287500Y-76399517D01*
X93353323Y-76407154D01*
G37*
G36*
X71446917Y-72503205D02*
G01*
X71449318Y-72504079D01*
X71449409Y-72504237D01*
X71453889Y-72506093D01*
X71462539Y-72526978D01*
X71469361Y-72538792D01*
X71469877Y-72544691D01*
X71469998Y-72544984D01*
X71469998Y-75975006D01*
X71456769Y-76006943D01*
X71455902Y-76009326D01*
X71455744Y-76009416D01*
X71453889Y-76013897D01*
X71433000Y-76022549D01*
X71421189Y-76029369D01*
X71415290Y-76029884D01*
X71414998Y-76030006D01*
X71413906Y-76030006D01*
X70149403Y-76030006D01*
X70144996Y-76030006D01*
X70113065Y-76016779D01*
X70110675Y-76015910D01*
X70110583Y-76015752D01*
X70106105Y-76013897D01*
X70097455Y-75993014D01*
X70090632Y-75981197D01*
X70090116Y-75975297D01*
X70089996Y-75975006D01*
X70089996Y-72544984D01*
X70103214Y-72513072D01*
X70104091Y-72510663D01*
X70104250Y-72510571D01*
X70106105Y-72506093D01*
X70126984Y-72497444D01*
X70138804Y-72490620D01*
X70144704Y-72490104D01*
X70144996Y-72489984D01*
X71414998Y-72489984D01*
X71446917Y-72503205D01*
G37*
G36*
X80153323Y-74982637D02*
G01*
X80157336Y-74984408D01*
X80161302Y-74984931D01*
X80210889Y-75008054D01*
X80249977Y-75025313D01*
X80251792Y-75027128D01*
X80252182Y-75027310D01*
X80322689Y-75097817D01*
X80322870Y-75098206D01*
X80324687Y-75100023D01*
X80341955Y-75139132D01*
X80365068Y-75188697D01*
X80365589Y-75192661D01*
X80367363Y-75196677D01*
X80375000Y-75262500D01*
X80375000Y-75737500D01*
X80367363Y-75803323D01*
X80365589Y-75807339D01*
X80365068Y-75811302D01*
X80341963Y-75860848D01*
X80324687Y-75899977D01*
X80322869Y-75901794D01*
X80322689Y-75902182D01*
X80252182Y-75972689D01*
X80251794Y-75972869D01*
X80249977Y-75974687D01*
X80210848Y-75991963D01*
X80161302Y-76015068D01*
X80157339Y-76015589D01*
X80153323Y-76017363D01*
X80087500Y-76025000D01*
X79587500Y-76025000D01*
X79521677Y-76017363D01*
X79517661Y-76015589D01*
X79513697Y-76015068D01*
X79464132Y-75991955D01*
X79425023Y-75974687D01*
X79423206Y-75972870D01*
X79422817Y-75972689D01*
X79352310Y-75902182D01*
X79352128Y-75901792D01*
X79350313Y-75899977D01*
X79333054Y-75860889D01*
X79309931Y-75811302D01*
X79309408Y-75807336D01*
X79307637Y-75803323D01*
X79300000Y-75737500D01*
X79300000Y-75262500D01*
X79307637Y-75196677D01*
X79309408Y-75192664D01*
X79309931Y-75188697D01*
X79333062Y-75139091D01*
X79350313Y-75100023D01*
X79352127Y-75098208D01*
X79352310Y-75097817D01*
X79422817Y-75027310D01*
X79423208Y-75027127D01*
X79425023Y-75025313D01*
X79464091Y-75008062D01*
X79513697Y-74984931D01*
X79517664Y-74984408D01*
X79521677Y-74982637D01*
X79587500Y-74975000D01*
X80087500Y-74975000D01*
X80153323Y-74982637D01*
G37*
G36*
X81978323Y-74982637D02*
G01*
X81982336Y-74984408D01*
X81986302Y-74984931D01*
X82035889Y-75008054D01*
X82074977Y-75025313D01*
X82076792Y-75027128D01*
X82077182Y-75027310D01*
X82147689Y-75097817D01*
X82147870Y-75098206D01*
X82149687Y-75100023D01*
X82166955Y-75139132D01*
X82190068Y-75188697D01*
X82190589Y-75192661D01*
X82192363Y-75196677D01*
X82200000Y-75262500D01*
X82200000Y-75737500D01*
X82192363Y-75803323D01*
X82190589Y-75807339D01*
X82190068Y-75811302D01*
X82166963Y-75860848D01*
X82149687Y-75899977D01*
X82147869Y-75901794D01*
X82147689Y-75902182D01*
X82077182Y-75972689D01*
X82076794Y-75972869D01*
X82074977Y-75974687D01*
X82035848Y-75991963D01*
X81986302Y-76015068D01*
X81982339Y-76015589D01*
X81978323Y-76017363D01*
X81912500Y-76025000D01*
X81412500Y-76025000D01*
X81346677Y-76017363D01*
X81342661Y-76015589D01*
X81338697Y-76015068D01*
X81289132Y-75991955D01*
X81250023Y-75974687D01*
X81248206Y-75972870D01*
X81247817Y-75972689D01*
X81177310Y-75902182D01*
X81177128Y-75901792D01*
X81175313Y-75899977D01*
X81158054Y-75860889D01*
X81134931Y-75811302D01*
X81134408Y-75807336D01*
X81132637Y-75803323D01*
X81125000Y-75737500D01*
X81125000Y-75262500D01*
X81132637Y-75196677D01*
X81134408Y-75192664D01*
X81134931Y-75188697D01*
X81158062Y-75139091D01*
X81175313Y-75100023D01*
X81177127Y-75098208D01*
X81177310Y-75097817D01*
X81247817Y-75027310D01*
X81248208Y-75027127D01*
X81250023Y-75025313D01*
X81289091Y-75008062D01*
X81338697Y-74984931D01*
X81342664Y-74984408D01*
X81346677Y-74982637D01*
X81412500Y-74975000D01*
X81912500Y-74975000D01*
X81978323Y-74982637D01*
G37*
G36*
X95952091Y-74875749D02*
G01*
X95956104Y-74877520D01*
X95960070Y-74878043D01*
X96009657Y-74901166D01*
X96048745Y-74918425D01*
X96050560Y-74920240D01*
X96050950Y-74920422D01*
X96121457Y-74990929D01*
X96121638Y-74991318D01*
X96123455Y-74993135D01*
X96140723Y-75032244D01*
X96163836Y-75081809D01*
X96164357Y-75085773D01*
X96166131Y-75089789D01*
X96173768Y-75155612D01*
X96173768Y-75630612D01*
X96166131Y-75696435D01*
X96164357Y-75700451D01*
X96163836Y-75704414D01*
X96140731Y-75753960D01*
X96123455Y-75793089D01*
X96121637Y-75794906D01*
X96121457Y-75795294D01*
X96050950Y-75865801D01*
X96050562Y-75865981D01*
X96048745Y-75867799D01*
X96009616Y-75885075D01*
X95960070Y-75908180D01*
X95956107Y-75908701D01*
X95952091Y-75910475D01*
X95886268Y-75918112D01*
X95386268Y-75918112D01*
X95320445Y-75910475D01*
X95316429Y-75908701D01*
X95312465Y-75908180D01*
X95262900Y-75885067D01*
X95223791Y-75867799D01*
X95221974Y-75865982D01*
X95221585Y-75865801D01*
X95151078Y-75795294D01*
X95150896Y-75794904D01*
X95149081Y-75793089D01*
X95131822Y-75754001D01*
X95108699Y-75704414D01*
X95108176Y-75700448D01*
X95106405Y-75696435D01*
X95098768Y-75630612D01*
X95098768Y-75155612D01*
X95106405Y-75089789D01*
X95108176Y-75085776D01*
X95108699Y-75081809D01*
X95131830Y-75032203D01*
X95149081Y-74993135D01*
X95150895Y-74991320D01*
X95151078Y-74990929D01*
X95221585Y-74920422D01*
X95221976Y-74920239D01*
X95223791Y-74918425D01*
X95262859Y-74901174D01*
X95312465Y-74878043D01*
X95316432Y-74877520D01*
X95320445Y-74875749D01*
X95386268Y-74868112D01*
X95886268Y-74868112D01*
X95952091Y-74875749D01*
G37*
G36*
X97777091Y-74875749D02*
G01*
X97781104Y-74877520D01*
X97785070Y-74878043D01*
X97834657Y-74901166D01*
X97873745Y-74918425D01*
X97875560Y-74920240D01*
X97875950Y-74920422D01*
X97946457Y-74990929D01*
X97946638Y-74991318D01*
X97948455Y-74993135D01*
X97965723Y-75032244D01*
X97988836Y-75081809D01*
X97989357Y-75085773D01*
X97991131Y-75089789D01*
X97998768Y-75155612D01*
X97998768Y-75630612D01*
X97991131Y-75696435D01*
X97989357Y-75700451D01*
X97988836Y-75704414D01*
X97965731Y-75753960D01*
X97948455Y-75793089D01*
X97946637Y-75794906D01*
X97946457Y-75795294D01*
X97875950Y-75865801D01*
X97875562Y-75865981D01*
X97873745Y-75867799D01*
X97834616Y-75885075D01*
X97785070Y-75908180D01*
X97781107Y-75908701D01*
X97777091Y-75910475D01*
X97711268Y-75918112D01*
X97211268Y-75918112D01*
X97145445Y-75910475D01*
X97141429Y-75908701D01*
X97137465Y-75908180D01*
X97087900Y-75885067D01*
X97048791Y-75867799D01*
X97046974Y-75865982D01*
X97046585Y-75865801D01*
X96976078Y-75795294D01*
X96975896Y-75794904D01*
X96974081Y-75793089D01*
X96956822Y-75754001D01*
X96933699Y-75704414D01*
X96933176Y-75700448D01*
X96931405Y-75696435D01*
X96923768Y-75630612D01*
X96923768Y-75155612D01*
X96931405Y-75089789D01*
X96933176Y-75085776D01*
X96933699Y-75081809D01*
X96956830Y-75032203D01*
X96974081Y-74993135D01*
X96975895Y-74991320D01*
X96976078Y-74990929D01*
X97046585Y-74920422D01*
X97046976Y-74920239D01*
X97048791Y-74918425D01*
X97087859Y-74901174D01*
X97137465Y-74878043D01*
X97141432Y-74877520D01*
X97145445Y-74875749D01*
X97211268Y-74868112D01*
X97711268Y-74868112D01*
X97777091Y-74875749D01*
G37*
G36*
X102878323Y-74632637D02*
G01*
X102882336Y-74634408D01*
X102886302Y-74634931D01*
X102935889Y-74658054D01*
X102974977Y-74675313D01*
X102976792Y-74677128D01*
X102977182Y-74677310D01*
X103047689Y-74747817D01*
X103047870Y-74748206D01*
X103049687Y-74750023D01*
X103066955Y-74789132D01*
X103090068Y-74838697D01*
X103090589Y-74842661D01*
X103092363Y-74846677D01*
X103100000Y-74912500D01*
X103100000Y-75412500D01*
X103092363Y-75478323D01*
X103090589Y-75482339D01*
X103090068Y-75486302D01*
X103066963Y-75535848D01*
X103049687Y-75574977D01*
X103047869Y-75576794D01*
X103047689Y-75577182D01*
X102977182Y-75647689D01*
X102976794Y-75647869D01*
X102974977Y-75649687D01*
X102935848Y-75666963D01*
X102886302Y-75690068D01*
X102882339Y-75690589D01*
X102878323Y-75692363D01*
X102812500Y-75700000D01*
X102337500Y-75700000D01*
X102271677Y-75692363D01*
X102267661Y-75690589D01*
X102263697Y-75690068D01*
X102214132Y-75666955D01*
X102175023Y-75649687D01*
X102173206Y-75647870D01*
X102172817Y-75647689D01*
X102102310Y-75577182D01*
X102102128Y-75576792D01*
X102100313Y-75574977D01*
X102083054Y-75535889D01*
X102059931Y-75486302D01*
X102059408Y-75482336D01*
X102057637Y-75478323D01*
X102050000Y-75412500D01*
X102050000Y-74912500D01*
X102057637Y-74846677D01*
X102059408Y-74842664D01*
X102059931Y-74838697D01*
X102083062Y-74789091D01*
X102100313Y-74750023D01*
X102102127Y-74748208D01*
X102102310Y-74747817D01*
X102172817Y-74677310D01*
X102173208Y-74677127D01*
X102175023Y-74675313D01*
X102214091Y-74658062D01*
X102263697Y-74634931D01*
X102267664Y-74634408D01*
X102271677Y-74632637D01*
X102337500Y-74625000D01*
X102812500Y-74625000D01*
X102878323Y-74632637D01*
G37*
G36*
X80153323Y-73482637D02*
G01*
X80157336Y-73484408D01*
X80161302Y-73484931D01*
X80210889Y-73508054D01*
X80249977Y-73525313D01*
X80251792Y-73527128D01*
X80252182Y-73527310D01*
X80322689Y-73597817D01*
X80322870Y-73598206D01*
X80324687Y-73600023D01*
X80341955Y-73639132D01*
X80365068Y-73688697D01*
X80365589Y-73692661D01*
X80367363Y-73696677D01*
X80375000Y-73762500D01*
X80375000Y-74237500D01*
X80367363Y-74303323D01*
X80365589Y-74307339D01*
X80365068Y-74311302D01*
X80341963Y-74360848D01*
X80324687Y-74399977D01*
X80322869Y-74401794D01*
X80322689Y-74402182D01*
X80252182Y-74472689D01*
X80251794Y-74472869D01*
X80249977Y-74474687D01*
X80210848Y-74491963D01*
X80161302Y-74515068D01*
X80157339Y-74515589D01*
X80153323Y-74517363D01*
X80087500Y-74525000D01*
X79587500Y-74525000D01*
X79521677Y-74517363D01*
X79517661Y-74515589D01*
X79513697Y-74515068D01*
X79464132Y-74491955D01*
X79425023Y-74474687D01*
X79423206Y-74472870D01*
X79422817Y-74472689D01*
X79352310Y-74402182D01*
X79352128Y-74401792D01*
X79350313Y-74399977D01*
X79333054Y-74360889D01*
X79309931Y-74311302D01*
X79309408Y-74307336D01*
X79307637Y-74303323D01*
X79300000Y-74237500D01*
X79300000Y-73762500D01*
X79307637Y-73696677D01*
X79309408Y-73692664D01*
X79309931Y-73688697D01*
X79333062Y-73639091D01*
X79350313Y-73600023D01*
X79352127Y-73598208D01*
X79352310Y-73597817D01*
X79422817Y-73527310D01*
X79423208Y-73527127D01*
X79425023Y-73525313D01*
X79464091Y-73508062D01*
X79513697Y-73484931D01*
X79517664Y-73484408D01*
X79521677Y-73482637D01*
X79587500Y-73475000D01*
X80087500Y-73475000D01*
X80153323Y-73482637D01*
G37*
G36*
X81978323Y-73482637D02*
G01*
X81982336Y-73484408D01*
X81986302Y-73484931D01*
X82035889Y-73508054D01*
X82074977Y-73525313D01*
X82076792Y-73527128D01*
X82077182Y-73527310D01*
X82147689Y-73597817D01*
X82147870Y-73598206D01*
X82149687Y-73600023D01*
X82166955Y-73639132D01*
X82190068Y-73688697D01*
X82190589Y-73692661D01*
X82192363Y-73696677D01*
X82200000Y-73762500D01*
X82200000Y-74237500D01*
X82192363Y-74303323D01*
X82190589Y-74307339D01*
X82190068Y-74311302D01*
X82166963Y-74360848D01*
X82149687Y-74399977D01*
X82147869Y-74401794D01*
X82147689Y-74402182D01*
X82077182Y-74472689D01*
X82076794Y-74472869D01*
X82074977Y-74474687D01*
X82035848Y-74491963D01*
X81986302Y-74515068D01*
X81982339Y-74515589D01*
X81978323Y-74517363D01*
X81912500Y-74525000D01*
X81412500Y-74525000D01*
X81346677Y-74517363D01*
X81342661Y-74515589D01*
X81338697Y-74515068D01*
X81289132Y-74491955D01*
X81250023Y-74474687D01*
X81248206Y-74472870D01*
X81247817Y-74472689D01*
X81177310Y-74402182D01*
X81177128Y-74401792D01*
X81175313Y-74399977D01*
X81158054Y-74360889D01*
X81134931Y-74311302D01*
X81134408Y-74307336D01*
X81132637Y-74303323D01*
X81125000Y-74237500D01*
X81125000Y-73762500D01*
X81132637Y-73696677D01*
X81134408Y-73692664D01*
X81134931Y-73688697D01*
X81158062Y-73639091D01*
X81175313Y-73600023D01*
X81177127Y-73598208D01*
X81177310Y-73597817D01*
X81247817Y-73527310D01*
X81248208Y-73527127D01*
X81250023Y-73525313D01*
X81289091Y-73508062D01*
X81338697Y-73484931D01*
X81342664Y-73484408D01*
X81346677Y-73482637D01*
X81412500Y-73475000D01*
X81912500Y-73475000D01*
X81978323Y-73482637D01*
G37*
G36*
X91952091Y-73475749D02*
G01*
X91956104Y-73477520D01*
X91960070Y-73478043D01*
X92009657Y-73501166D01*
X92048745Y-73518425D01*
X92050560Y-73520240D01*
X92050950Y-73520422D01*
X92121457Y-73590929D01*
X92121638Y-73591318D01*
X92123455Y-73593135D01*
X92140723Y-73632244D01*
X92163836Y-73681809D01*
X92164357Y-73685773D01*
X92166131Y-73689789D01*
X92173768Y-73755612D01*
X92173768Y-74230612D01*
X92166131Y-74296435D01*
X92164357Y-74300451D01*
X92163836Y-74304414D01*
X92140731Y-74353960D01*
X92123455Y-74393089D01*
X92121637Y-74394906D01*
X92121457Y-74395294D01*
X92050950Y-74465801D01*
X92050562Y-74465981D01*
X92048745Y-74467799D01*
X92009616Y-74485075D01*
X91960070Y-74508180D01*
X91956107Y-74508701D01*
X91952091Y-74510475D01*
X91886268Y-74518112D01*
X91386268Y-74518112D01*
X91320445Y-74510475D01*
X91316429Y-74508701D01*
X91312465Y-74508180D01*
X91262900Y-74485067D01*
X91223791Y-74467799D01*
X91221974Y-74465982D01*
X91221585Y-74465801D01*
X91151078Y-74395294D01*
X91150896Y-74394904D01*
X91149081Y-74393089D01*
X91131822Y-74354001D01*
X91108699Y-74304414D01*
X91108176Y-74300448D01*
X91106405Y-74296435D01*
X91098768Y-74230612D01*
X91098768Y-73755612D01*
X91106405Y-73689789D01*
X91108176Y-73685776D01*
X91108699Y-73681809D01*
X91131830Y-73632203D01*
X91149081Y-73593135D01*
X91150895Y-73591320D01*
X91151078Y-73590929D01*
X91221585Y-73520422D01*
X91221976Y-73520239D01*
X91223791Y-73518425D01*
X91262859Y-73501174D01*
X91312465Y-73478043D01*
X91316432Y-73477520D01*
X91320445Y-73475749D01*
X91386268Y-73468112D01*
X91886268Y-73468112D01*
X91952091Y-73475749D01*
G37*
G36*
X93777091Y-73475749D02*
G01*
X93781104Y-73477520D01*
X93785070Y-73478043D01*
X93834657Y-73501166D01*
X93873745Y-73518425D01*
X93875560Y-73520240D01*
X93875950Y-73520422D01*
X93946457Y-73590929D01*
X93946638Y-73591318D01*
X93948455Y-73593135D01*
X93965723Y-73632244D01*
X93988836Y-73681809D01*
X93989357Y-73685773D01*
X93991131Y-73689789D01*
X93998768Y-73755612D01*
X93998768Y-74230612D01*
X93991131Y-74296435D01*
X93989357Y-74300451D01*
X93988836Y-74304414D01*
X93965731Y-74353960D01*
X93948455Y-74393089D01*
X93946637Y-74394906D01*
X93946457Y-74395294D01*
X93875950Y-74465801D01*
X93875562Y-74465981D01*
X93873745Y-74467799D01*
X93834616Y-74485075D01*
X93785070Y-74508180D01*
X93781107Y-74508701D01*
X93777091Y-74510475D01*
X93711268Y-74518112D01*
X93211268Y-74518112D01*
X93145445Y-74510475D01*
X93141429Y-74508701D01*
X93137465Y-74508180D01*
X93087900Y-74485067D01*
X93048791Y-74467799D01*
X93046974Y-74465982D01*
X93046585Y-74465801D01*
X92976078Y-74395294D01*
X92975896Y-74394904D01*
X92974081Y-74393089D01*
X92956822Y-74354001D01*
X92933699Y-74304414D01*
X92933176Y-74300448D01*
X92931405Y-74296435D01*
X92923768Y-74230612D01*
X92923768Y-73755612D01*
X92931405Y-73689789D01*
X92933176Y-73685776D01*
X92933699Y-73681809D01*
X92956830Y-73632203D01*
X92974081Y-73593135D01*
X92975895Y-73591320D01*
X92976078Y-73590929D01*
X93046585Y-73520422D01*
X93046976Y-73520239D01*
X93048791Y-73518425D01*
X93087859Y-73501174D01*
X93137465Y-73478043D01*
X93141432Y-73477520D01*
X93145445Y-73475749D01*
X93211268Y-73468112D01*
X93711268Y-73468112D01*
X93777091Y-73475749D01*
G37*
G36*
X86049538Y-72903323D02*
G01*
X86065759Y-72914162D01*
X86076598Y-72930383D01*
X86080404Y-72949517D01*
X86080404Y-73799505D01*
X86076598Y-73818639D01*
X86065759Y-73834860D01*
X86049538Y-73845699D01*
X86030404Y-73849505D01*
X85780390Y-73849505D01*
X85761256Y-73845699D01*
X85745035Y-73834860D01*
X85734196Y-73818639D01*
X85730390Y-73799505D01*
X85730390Y-72949517D01*
X85734196Y-72930383D01*
X85745035Y-72914162D01*
X85761256Y-72903323D01*
X85780390Y-72899517D01*
X86030404Y-72899517D01*
X86049538Y-72903323D01*
G37*
G36*
X86549919Y-72903323D02*
G01*
X86566140Y-72914162D01*
X86576979Y-72930383D01*
X86580785Y-72949517D01*
X86580785Y-73799505D01*
X86576979Y-73818639D01*
X86566140Y-73834860D01*
X86549919Y-73845699D01*
X86530785Y-73849505D01*
X86280771Y-73849505D01*
X86261637Y-73845699D01*
X86245416Y-73834860D01*
X86234577Y-73818639D01*
X86230771Y-73799505D01*
X86230771Y-72949517D01*
X86234577Y-72930383D01*
X86245416Y-72914162D01*
X86261637Y-72903323D01*
X86280771Y-72899517D01*
X86530785Y-72899517D01*
X86549919Y-72903323D01*
G37*
G36*
X87050300Y-72903323D02*
G01*
X87066521Y-72914162D01*
X87077360Y-72930383D01*
X87081166Y-72949517D01*
X87081166Y-73799505D01*
X87077360Y-73818639D01*
X87066521Y-73834860D01*
X87050300Y-73845699D01*
X87031166Y-73849505D01*
X86781152Y-73849505D01*
X86762018Y-73845699D01*
X86745797Y-73834860D01*
X86734958Y-73818639D01*
X86731152Y-73799505D01*
X86731152Y-72949517D01*
X86734958Y-72930383D01*
X86745797Y-72914162D01*
X86762018Y-72903323D01*
X86781152Y-72899517D01*
X87031166Y-72899517D01*
X87050300Y-72903323D01*
G37*
G36*
X87550681Y-72903323D02*
G01*
X87566902Y-72914162D01*
X87577741Y-72930383D01*
X87581547Y-72949517D01*
X87581547Y-73799505D01*
X87577741Y-73818639D01*
X87566902Y-73834860D01*
X87550681Y-73845699D01*
X87531547Y-73849505D01*
X87281533Y-73849505D01*
X87262399Y-73845699D01*
X87246178Y-73834860D01*
X87235339Y-73818639D01*
X87231533Y-73799505D01*
X87231533Y-72949517D01*
X87235339Y-72930383D01*
X87246178Y-72914162D01*
X87262399Y-72903323D01*
X87281533Y-72899517D01*
X87531547Y-72899517D01*
X87550681Y-72903323D01*
G37*
G36*
X88048522Y-72903323D02*
G01*
X88064743Y-72914162D01*
X88075582Y-72930383D01*
X88079388Y-72949517D01*
X88079388Y-73799505D01*
X88075582Y-73818639D01*
X88064743Y-73834860D01*
X88048522Y-73845699D01*
X88029388Y-73849505D01*
X87779374Y-73849505D01*
X87760240Y-73845699D01*
X87744019Y-73834860D01*
X87733180Y-73818639D01*
X87729374Y-73799505D01*
X87729374Y-72949517D01*
X87733180Y-72930383D01*
X87744019Y-72914162D01*
X87760240Y-72903323D01*
X87779374Y-72899517D01*
X88029388Y-72899517D01*
X88048522Y-72903323D01*
G37*
G36*
X88549208Y-72903323D02*
G01*
X88565429Y-72914162D01*
X88576268Y-72930383D01*
X88580074Y-72949517D01*
X88580074Y-73799505D01*
X88576268Y-73818639D01*
X88565429Y-73834860D01*
X88549208Y-73845699D01*
X88530074Y-73849505D01*
X88280060Y-73849505D01*
X88260926Y-73845699D01*
X88244705Y-73834860D01*
X88233866Y-73818639D01*
X88230060Y-73799505D01*
X88230060Y-72949517D01*
X88233866Y-72930383D01*
X88244705Y-72914162D01*
X88260926Y-72903323D01*
X88280060Y-72899517D01*
X88530074Y-72899517D01*
X88549208Y-72903323D01*
G37*
G36*
X102853323Y-72682637D02*
G01*
X102857336Y-72684408D01*
X102861302Y-72684931D01*
X102910889Y-72708054D01*
X102949977Y-72725313D01*
X102951792Y-72727128D01*
X102952182Y-72727310D01*
X103022689Y-72797817D01*
X103022870Y-72798206D01*
X103024687Y-72800023D01*
X103041955Y-72839132D01*
X103065068Y-72888697D01*
X103065589Y-72892661D01*
X103067363Y-72896677D01*
X103075000Y-72962500D01*
X103075000Y-73537500D01*
X103067363Y-73603323D01*
X103065589Y-73607339D01*
X103065068Y-73611302D01*
X103041963Y-73660848D01*
X103024687Y-73699977D01*
X103022869Y-73701794D01*
X103022689Y-73702182D01*
X102952182Y-73772689D01*
X102951794Y-73772869D01*
X102949977Y-73774687D01*
X102910848Y-73791963D01*
X102861302Y-73815068D01*
X102857339Y-73815589D01*
X102853323Y-73817363D01*
X102787500Y-73825000D01*
X102312500Y-73825000D01*
X102246677Y-73817363D01*
X102242661Y-73815589D01*
X102238697Y-73815068D01*
X102189132Y-73791955D01*
X102150023Y-73774687D01*
X102148206Y-73772870D01*
X102147817Y-73772689D01*
X102077310Y-73702182D01*
X102077128Y-73701792D01*
X102075313Y-73699977D01*
X102058054Y-73660889D01*
X102034931Y-73611302D01*
X102034408Y-73607336D01*
X102032637Y-73603323D01*
X102025000Y-73537500D01*
X102025000Y-72962500D01*
X102032637Y-72896677D01*
X102034408Y-72892664D01*
X102034931Y-72888697D01*
X102058062Y-72839091D01*
X102075313Y-72800023D01*
X102077127Y-72798208D01*
X102077310Y-72797817D01*
X102147817Y-72727310D01*
X102148208Y-72727127D01*
X102150023Y-72725313D01*
X102189091Y-72708062D01*
X102238697Y-72684931D01*
X102242664Y-72684408D01*
X102246677Y-72682637D01*
X102312500Y-72675000D01*
X102787500Y-72675000D01*
X102853323Y-72682637D01*
G37*
G36*
X95952091Y-72675749D02*
G01*
X95956104Y-72677520D01*
X95960070Y-72678043D01*
X96009657Y-72701166D01*
X96048745Y-72718425D01*
X96050560Y-72720240D01*
X96050950Y-72720422D01*
X96121457Y-72790929D01*
X96121638Y-72791318D01*
X96123455Y-72793135D01*
X96140723Y-72832244D01*
X96163836Y-72881809D01*
X96164357Y-72885773D01*
X96166131Y-72889789D01*
X96173768Y-72955612D01*
X96173768Y-73430612D01*
X96166131Y-73496435D01*
X96164357Y-73500451D01*
X96163836Y-73504414D01*
X96140731Y-73553960D01*
X96123455Y-73593089D01*
X96121637Y-73594906D01*
X96121457Y-73595294D01*
X96050950Y-73665801D01*
X96050562Y-73665981D01*
X96048745Y-73667799D01*
X96009616Y-73685075D01*
X95960070Y-73708180D01*
X95956107Y-73708701D01*
X95952091Y-73710475D01*
X95886268Y-73718112D01*
X95386268Y-73718112D01*
X95320445Y-73710475D01*
X95316429Y-73708701D01*
X95312465Y-73708180D01*
X95262900Y-73685067D01*
X95223791Y-73667799D01*
X95221974Y-73665982D01*
X95221585Y-73665801D01*
X95151078Y-73595294D01*
X95150896Y-73594904D01*
X95149081Y-73593089D01*
X95131822Y-73554001D01*
X95108699Y-73504414D01*
X95108176Y-73500448D01*
X95106405Y-73496435D01*
X95098768Y-73430612D01*
X95098768Y-72955612D01*
X95106405Y-72889789D01*
X95108176Y-72885776D01*
X95108699Y-72881809D01*
X95131830Y-72832203D01*
X95149081Y-72793135D01*
X95150895Y-72791320D01*
X95151078Y-72790929D01*
X95221585Y-72720422D01*
X95221976Y-72720239D01*
X95223791Y-72718425D01*
X95262859Y-72701174D01*
X95312465Y-72678043D01*
X95316432Y-72677520D01*
X95320445Y-72675749D01*
X95386268Y-72668112D01*
X95886268Y-72668112D01*
X95952091Y-72675749D01*
G37*
G36*
X97777091Y-72675749D02*
G01*
X97781104Y-72677520D01*
X97785070Y-72678043D01*
X97834657Y-72701166D01*
X97873745Y-72718425D01*
X97875560Y-72720240D01*
X97875950Y-72720422D01*
X97946457Y-72790929D01*
X97946638Y-72791318D01*
X97948455Y-72793135D01*
X97965723Y-72832244D01*
X97988836Y-72881809D01*
X97989357Y-72885773D01*
X97991131Y-72889789D01*
X97998768Y-72955612D01*
X97998768Y-73430612D01*
X97991131Y-73496435D01*
X97989357Y-73500451D01*
X97988836Y-73504414D01*
X97965731Y-73553960D01*
X97948455Y-73593089D01*
X97946637Y-73594906D01*
X97946457Y-73595294D01*
X97875950Y-73665801D01*
X97875562Y-73665981D01*
X97873745Y-73667799D01*
X97834616Y-73685075D01*
X97785070Y-73708180D01*
X97781107Y-73708701D01*
X97777091Y-73710475D01*
X97711268Y-73718112D01*
X97211268Y-73718112D01*
X97145445Y-73710475D01*
X97141429Y-73708701D01*
X97137465Y-73708180D01*
X97087900Y-73685067D01*
X97048791Y-73667799D01*
X97046974Y-73665982D01*
X97046585Y-73665801D01*
X96976078Y-73595294D01*
X96975896Y-73594904D01*
X96974081Y-73593089D01*
X96956822Y-73554001D01*
X96933699Y-73504414D01*
X96933176Y-73500448D01*
X96931405Y-73496435D01*
X96923768Y-73430612D01*
X96923768Y-72955612D01*
X96931405Y-72889789D01*
X96933176Y-72885776D01*
X96933699Y-72881809D01*
X96956830Y-72832203D01*
X96974081Y-72793135D01*
X96975895Y-72791320D01*
X96976078Y-72790929D01*
X97046585Y-72720422D01*
X97046976Y-72720239D01*
X97048791Y-72718425D01*
X97087859Y-72701174D01*
X97137465Y-72678043D01*
X97141432Y-72677520D01*
X97145445Y-72675749D01*
X97211268Y-72668112D01*
X97711268Y-72668112D01*
X97777091Y-72675749D01*
G37*
G36*
X73986923Y-69583215D02*
G01*
X73989324Y-69584089D01*
X73989415Y-69584247D01*
X73993895Y-69586103D01*
X74002545Y-69606988D01*
X74009367Y-69618802D01*
X74009883Y-69624701D01*
X74010004Y-69624994D01*
X74010004Y-73055016D01*
X73996775Y-73086953D01*
X73995908Y-73089336D01*
X73995750Y-73089426D01*
X73993895Y-73093907D01*
X73973006Y-73102559D01*
X73961195Y-73109379D01*
X73955296Y-73109894D01*
X73955004Y-73110016D01*
X73953912Y-73110016D01*
X72689409Y-73110016D01*
X72685002Y-73110016D01*
X72653071Y-73096789D01*
X72650681Y-73095920D01*
X72650589Y-73095762D01*
X72646111Y-73093907D01*
X72637461Y-73073024D01*
X72630638Y-73061207D01*
X72630122Y-73055307D01*
X72630002Y-73055016D01*
X72630002Y-69624994D01*
X72643220Y-69593082D01*
X72644097Y-69590673D01*
X72644256Y-69590581D01*
X72646111Y-69586103D01*
X72666990Y-69577454D01*
X72678810Y-69570630D01*
X72684710Y-69570114D01*
X72685002Y-69569994D01*
X73955004Y-69569994D01*
X73986923Y-69583215D01*
G37*
G36*
X80153323Y-71982637D02*
G01*
X80157336Y-71984408D01*
X80161302Y-71984931D01*
X80210889Y-72008054D01*
X80249977Y-72025313D01*
X80251792Y-72027128D01*
X80252182Y-72027310D01*
X80322689Y-72097817D01*
X80322870Y-72098206D01*
X80324687Y-72100023D01*
X80341955Y-72139132D01*
X80365068Y-72188697D01*
X80365589Y-72192661D01*
X80367363Y-72196677D01*
X80375000Y-72262500D01*
X80375000Y-72737500D01*
X80367363Y-72803323D01*
X80365589Y-72807339D01*
X80365068Y-72811302D01*
X80341963Y-72860848D01*
X80324687Y-72899977D01*
X80322869Y-72901794D01*
X80322689Y-72902182D01*
X80252182Y-72972689D01*
X80251794Y-72972869D01*
X80249977Y-72974687D01*
X80210848Y-72991963D01*
X80161302Y-73015068D01*
X80157339Y-73015589D01*
X80153323Y-73017363D01*
X80087500Y-73025000D01*
X79587500Y-73025000D01*
X79521677Y-73017363D01*
X79517661Y-73015589D01*
X79513697Y-73015068D01*
X79464132Y-72991955D01*
X79425023Y-72974687D01*
X79423206Y-72972870D01*
X79422817Y-72972689D01*
X79352310Y-72902182D01*
X79352128Y-72901792D01*
X79350313Y-72899977D01*
X79333054Y-72860889D01*
X79309931Y-72811302D01*
X79309408Y-72807336D01*
X79307637Y-72803323D01*
X79300000Y-72737500D01*
X79300000Y-72262500D01*
X79307637Y-72196677D01*
X79309408Y-72192664D01*
X79309931Y-72188697D01*
X79333062Y-72139091D01*
X79350313Y-72100023D01*
X79352127Y-72098208D01*
X79352310Y-72097817D01*
X79422817Y-72027310D01*
X79423208Y-72027127D01*
X79425023Y-72025313D01*
X79464091Y-72008062D01*
X79513697Y-71984931D01*
X79517664Y-71984408D01*
X79521677Y-71982637D01*
X79587500Y-71975000D01*
X80087500Y-71975000D01*
X80153323Y-71982637D01*
G37*
G36*
X81978323Y-71982637D02*
G01*
X81982336Y-71984408D01*
X81986302Y-71984931D01*
X82035889Y-72008054D01*
X82074977Y-72025313D01*
X82076792Y-72027128D01*
X82077182Y-72027310D01*
X82147689Y-72097817D01*
X82147870Y-72098206D01*
X82149687Y-72100023D01*
X82166955Y-72139132D01*
X82190068Y-72188697D01*
X82190589Y-72192661D01*
X82192363Y-72196677D01*
X82200000Y-72262500D01*
X82200000Y-72737500D01*
X82192363Y-72803323D01*
X82190589Y-72807339D01*
X82190068Y-72811302D01*
X82166963Y-72860848D01*
X82149687Y-72899977D01*
X82147869Y-72901794D01*
X82147689Y-72902182D01*
X82077182Y-72972689D01*
X82076794Y-72972869D01*
X82074977Y-72974687D01*
X82035848Y-72991963D01*
X81986302Y-73015068D01*
X81982339Y-73015589D01*
X81978323Y-73017363D01*
X81912500Y-73025000D01*
X81412500Y-73025000D01*
X81346677Y-73017363D01*
X81342661Y-73015589D01*
X81338697Y-73015068D01*
X81289132Y-72991955D01*
X81250023Y-72974687D01*
X81248206Y-72972870D01*
X81247817Y-72972689D01*
X81177310Y-72902182D01*
X81177128Y-72901792D01*
X81175313Y-72899977D01*
X81158054Y-72860889D01*
X81134931Y-72811302D01*
X81134408Y-72807336D01*
X81132637Y-72803323D01*
X81125000Y-72737500D01*
X81125000Y-72262500D01*
X81132637Y-72196677D01*
X81134408Y-72192664D01*
X81134931Y-72188697D01*
X81158062Y-72139091D01*
X81175313Y-72100023D01*
X81177127Y-72098208D01*
X81177310Y-72097817D01*
X81247817Y-72027310D01*
X81248208Y-72027127D01*
X81250023Y-72025313D01*
X81289091Y-72008062D01*
X81338697Y-71984931D01*
X81342664Y-71984408D01*
X81346677Y-71982637D01*
X81412500Y-71975000D01*
X81912500Y-71975000D01*
X81978323Y-71982637D01*
G37*
G36*
X91952091Y-71975749D02*
G01*
X91956104Y-71977520D01*
X91960070Y-71978043D01*
X92009657Y-72001166D01*
X92048745Y-72018425D01*
X92050560Y-72020240D01*
X92050950Y-72020422D01*
X92121457Y-72090929D01*
X92121638Y-72091318D01*
X92123455Y-72093135D01*
X92140723Y-72132244D01*
X92163836Y-72181809D01*
X92164357Y-72185773D01*
X92166131Y-72189789D01*
X92173768Y-72255612D01*
X92173768Y-72730612D01*
X92166131Y-72796435D01*
X92164357Y-72800451D01*
X92163836Y-72804414D01*
X92140731Y-72853960D01*
X92123455Y-72893089D01*
X92121637Y-72894906D01*
X92121457Y-72895294D01*
X92050950Y-72965801D01*
X92050562Y-72965981D01*
X92048745Y-72967799D01*
X92009616Y-72985075D01*
X91960070Y-73008180D01*
X91956107Y-73008701D01*
X91952091Y-73010475D01*
X91886268Y-73018112D01*
X91386268Y-73018112D01*
X91320445Y-73010475D01*
X91316429Y-73008701D01*
X91312465Y-73008180D01*
X91262900Y-72985067D01*
X91223791Y-72967799D01*
X91221974Y-72965982D01*
X91221585Y-72965801D01*
X91151078Y-72895294D01*
X91150896Y-72894904D01*
X91149081Y-72893089D01*
X91131822Y-72854001D01*
X91108699Y-72804414D01*
X91108176Y-72800448D01*
X91106405Y-72796435D01*
X91098768Y-72730612D01*
X91098768Y-72255612D01*
X91106405Y-72189789D01*
X91108176Y-72185776D01*
X91108699Y-72181809D01*
X91131830Y-72132203D01*
X91149081Y-72093135D01*
X91150895Y-72091320D01*
X91151078Y-72090929D01*
X91221585Y-72020422D01*
X91221976Y-72020239D01*
X91223791Y-72018425D01*
X91262859Y-72001174D01*
X91312465Y-71978043D01*
X91316432Y-71977520D01*
X91320445Y-71975749D01*
X91386268Y-71968112D01*
X91886268Y-71968112D01*
X91952091Y-71975749D01*
G37*
G36*
X93777091Y-71975749D02*
G01*
X93781104Y-71977520D01*
X93785070Y-71978043D01*
X93834657Y-72001166D01*
X93873745Y-72018425D01*
X93875560Y-72020240D01*
X93875950Y-72020422D01*
X93946457Y-72090929D01*
X93946638Y-72091318D01*
X93948455Y-72093135D01*
X93965723Y-72132244D01*
X93988836Y-72181809D01*
X93989357Y-72185773D01*
X93991131Y-72189789D01*
X93998768Y-72255612D01*
X93998768Y-72730612D01*
X93991131Y-72796435D01*
X93989357Y-72800451D01*
X93988836Y-72804414D01*
X93965731Y-72853960D01*
X93948455Y-72893089D01*
X93946637Y-72894906D01*
X93946457Y-72895294D01*
X93875950Y-72965801D01*
X93875562Y-72965981D01*
X93873745Y-72967799D01*
X93834616Y-72985075D01*
X93785070Y-73008180D01*
X93781107Y-73008701D01*
X93777091Y-73010475D01*
X93711268Y-73018112D01*
X93211268Y-73018112D01*
X93145445Y-73010475D01*
X93141429Y-73008701D01*
X93137465Y-73008180D01*
X93087900Y-72985067D01*
X93048791Y-72967799D01*
X93046974Y-72965982D01*
X93046585Y-72965801D01*
X92976078Y-72895294D01*
X92975896Y-72894904D01*
X92974081Y-72893089D01*
X92956822Y-72854001D01*
X92933699Y-72804414D01*
X92933176Y-72800448D01*
X92931405Y-72796435D01*
X92923768Y-72730612D01*
X92923768Y-72255612D01*
X92931405Y-72189789D01*
X92933176Y-72185776D01*
X92933699Y-72181809D01*
X92956830Y-72132203D01*
X92974081Y-72093135D01*
X92975895Y-72091320D01*
X92976078Y-72090929D01*
X93046585Y-72020422D01*
X93046976Y-72020239D01*
X93048791Y-72018425D01*
X93087859Y-72001174D01*
X93137465Y-71978043D01*
X93141432Y-71977520D01*
X93145445Y-71975749D01*
X93211268Y-71968112D01*
X93711268Y-71968112D01*
X93777091Y-71975749D01*
G37*
G36*
X85569083Y-72423401D02*
G01*
X85585304Y-72434240D01*
X85596143Y-72450461D01*
X85599949Y-72469595D01*
X85599949Y-72719609D01*
X85596143Y-72738743D01*
X85585304Y-72754964D01*
X85569083Y-72765803D01*
X85549949Y-72769609D01*
X84699961Y-72769609D01*
X84680827Y-72765803D01*
X84664606Y-72754964D01*
X84653767Y-72738743D01*
X84649961Y-72719609D01*
X84649961Y-72469595D01*
X84653767Y-72450461D01*
X84664606Y-72434240D01*
X84680827Y-72423401D01*
X84699961Y-72419595D01*
X85549949Y-72419595D01*
X85569083Y-72423401D01*
G37*
G36*
X89619071Y-72423401D02*
G01*
X89635292Y-72434240D01*
X89646131Y-72450461D01*
X89649937Y-72469595D01*
X89649937Y-72719609D01*
X89646131Y-72738743D01*
X89635292Y-72754964D01*
X89619071Y-72765803D01*
X89599937Y-72769609D01*
X88749949Y-72769609D01*
X88730815Y-72765803D01*
X88714594Y-72754964D01*
X88703755Y-72738743D01*
X88699949Y-72719609D01*
X88699949Y-72469595D01*
X88703755Y-72450461D01*
X88714594Y-72434240D01*
X88730815Y-72423401D01*
X88749949Y-72419595D01*
X89599937Y-72419595D01*
X89619071Y-72423401D01*
G37*
G36*
X88419134Y-70053806D02*
G01*
X88435355Y-70064645D01*
X88446194Y-70080866D01*
X88450000Y-70100000D01*
X88450000Y-72600000D01*
X88446194Y-72619134D01*
X88435355Y-72635355D01*
X88419134Y-72646194D01*
X88400000Y-72650000D01*
X85900000Y-72650000D01*
X85880866Y-72646194D01*
X85864645Y-72635355D01*
X85853806Y-72619134D01*
X85850000Y-72600000D01*
X85850000Y-70100000D01*
X85853806Y-70080866D01*
X85864645Y-70064645D01*
X85880866Y-70053806D01*
X85900000Y-70050000D01*
X88400000Y-70050000D01*
X88419134Y-70053806D01*
G37*
G36*
X85569083Y-71923020D02*
G01*
X85585304Y-71933859D01*
X85596143Y-71950080D01*
X85599949Y-71969214D01*
X85599949Y-72219228D01*
X85596143Y-72238362D01*
X85585304Y-72254583D01*
X85569083Y-72265422D01*
X85549949Y-72269228D01*
X84699961Y-72269228D01*
X84680827Y-72265422D01*
X84664606Y-72254583D01*
X84653767Y-72238362D01*
X84649961Y-72219228D01*
X84649961Y-71969214D01*
X84653767Y-71950080D01*
X84664606Y-71933859D01*
X84680827Y-71923020D01*
X84699961Y-71919214D01*
X85549949Y-71919214D01*
X85569083Y-71923020D01*
G37*
G36*
X89619071Y-71923020D02*
G01*
X89635292Y-71933859D01*
X89646131Y-71950080D01*
X89649937Y-71969214D01*
X89649937Y-72219228D01*
X89646131Y-72238362D01*
X89635292Y-72254583D01*
X89619071Y-72265422D01*
X89599937Y-72269228D01*
X88749949Y-72269228D01*
X88730815Y-72265422D01*
X88714594Y-72254583D01*
X88703755Y-72238362D01*
X88699949Y-72219228D01*
X88699949Y-71969214D01*
X88703755Y-71950080D01*
X88714594Y-71933859D01*
X88730815Y-71923020D01*
X88749949Y-71919214D01*
X89599937Y-71919214D01*
X89619071Y-71923020D01*
G37*
G36*
X102853323Y-70932637D02*
G01*
X102857336Y-70934408D01*
X102861302Y-70934931D01*
X102910889Y-70958054D01*
X102949977Y-70975313D01*
X102951792Y-70977128D01*
X102952182Y-70977310D01*
X103022689Y-71047817D01*
X103022870Y-71048206D01*
X103024687Y-71050023D01*
X103041955Y-71089132D01*
X103065068Y-71138697D01*
X103065589Y-71142661D01*
X103067363Y-71146677D01*
X103075000Y-71212500D01*
X103075000Y-71787500D01*
X103067363Y-71853323D01*
X103065589Y-71857339D01*
X103065068Y-71861302D01*
X103041963Y-71910848D01*
X103024687Y-71949977D01*
X103022869Y-71951794D01*
X103022689Y-71952182D01*
X102952182Y-72022689D01*
X102951794Y-72022869D01*
X102949977Y-72024687D01*
X102910848Y-72041963D01*
X102861302Y-72065068D01*
X102857339Y-72065589D01*
X102853323Y-72067363D01*
X102787500Y-72075000D01*
X102312500Y-72075000D01*
X102246677Y-72067363D01*
X102242661Y-72065589D01*
X102238697Y-72065068D01*
X102189132Y-72041955D01*
X102150023Y-72024687D01*
X102148206Y-72022870D01*
X102147817Y-72022689D01*
X102077310Y-71952182D01*
X102077128Y-71951792D01*
X102075313Y-71949977D01*
X102058054Y-71910889D01*
X102034931Y-71861302D01*
X102034408Y-71857336D01*
X102032637Y-71853323D01*
X102025000Y-71787500D01*
X102025000Y-71212500D01*
X102032637Y-71146677D01*
X102034408Y-71142664D01*
X102034931Y-71138697D01*
X102058062Y-71089091D01*
X102075313Y-71050023D01*
X102077127Y-71048208D01*
X102077310Y-71047817D01*
X102147817Y-70977310D01*
X102148208Y-70977127D01*
X102150023Y-70975313D01*
X102189091Y-70958062D01*
X102238697Y-70934931D01*
X102242664Y-70934408D01*
X102246677Y-70932637D01*
X102312500Y-70925000D01*
X102787500Y-70925000D01*
X102853323Y-70932637D01*
G37*
G36*
X105543462Y-69606775D02*
G01*
X105715086Y-69662539D01*
X105875873Y-69744464D01*
X106021865Y-69850533D01*
X106149467Y-69978135D01*
X106255536Y-70124127D01*
X106337461Y-70284914D01*
X106393225Y-70456538D01*
X106421455Y-70634772D01*
X106421455Y-70815228D01*
X106393225Y-70993462D01*
X106337461Y-71165086D01*
X106255536Y-71325873D01*
X106149467Y-71471865D01*
X106021865Y-71599467D01*
X105875873Y-71705536D01*
X105715086Y-71787461D01*
X105543462Y-71843225D01*
X105365228Y-71871455D01*
X105184772Y-71871455D01*
X105006538Y-71843225D01*
X104834914Y-71787461D01*
X104674127Y-71705536D01*
X104528135Y-71599467D01*
X104400533Y-71471865D01*
X104294464Y-71325873D01*
X104212539Y-71165086D01*
X104156775Y-70993462D01*
X104128545Y-70815228D01*
X104128545Y-70634772D01*
X104156775Y-70456538D01*
X104212539Y-70284914D01*
X104294464Y-70124127D01*
X104400533Y-69978135D01*
X104528135Y-69850533D01*
X104674127Y-69744464D01*
X104834914Y-69662539D01*
X105006538Y-69606775D01*
X105184772Y-69578545D01*
X105365228Y-69578545D01*
X105543462Y-69606775D01*
G37*
G36*
X85569083Y-71422639D02*
G01*
X85585304Y-71433478D01*
X85596143Y-71449699D01*
X85599949Y-71468833D01*
X85599949Y-71718847D01*
X85596143Y-71737981D01*
X85585304Y-71754202D01*
X85569083Y-71765041D01*
X85549949Y-71768847D01*
X84699961Y-71768847D01*
X84680827Y-71765041D01*
X84664606Y-71754202D01*
X84653767Y-71737981D01*
X84649961Y-71718847D01*
X84649961Y-71468833D01*
X84653767Y-71449699D01*
X84664606Y-71433478D01*
X84680827Y-71422639D01*
X84699961Y-71418833D01*
X85549949Y-71418833D01*
X85569083Y-71422639D01*
G37*
G36*
X89619071Y-71422639D02*
G01*
X89635292Y-71433478D01*
X89646131Y-71449699D01*
X89649937Y-71468833D01*
X89649937Y-71718847D01*
X89646131Y-71737981D01*
X89635292Y-71754202D01*
X89619071Y-71765041D01*
X89599937Y-71768847D01*
X88749949Y-71768847D01*
X88730815Y-71765041D01*
X88714594Y-71754202D01*
X88703755Y-71737981D01*
X88699949Y-71718847D01*
X88699949Y-71468833D01*
X88703755Y-71449699D01*
X88714594Y-71433478D01*
X88730815Y-71422639D01*
X88749949Y-71418833D01*
X89599937Y-71418833D01*
X89619071Y-71422639D01*
G37*
G36*
X80153323Y-70482637D02*
G01*
X80157336Y-70484408D01*
X80161302Y-70484931D01*
X80210889Y-70508054D01*
X80249977Y-70525313D01*
X80251792Y-70527128D01*
X80252182Y-70527310D01*
X80322689Y-70597817D01*
X80322870Y-70598206D01*
X80324687Y-70600023D01*
X80341955Y-70639132D01*
X80365068Y-70688697D01*
X80365589Y-70692661D01*
X80367363Y-70696677D01*
X80375000Y-70762500D01*
X80375000Y-71237500D01*
X80367363Y-71303323D01*
X80365589Y-71307339D01*
X80365068Y-71311302D01*
X80341963Y-71360848D01*
X80324687Y-71399977D01*
X80322869Y-71401794D01*
X80322689Y-71402182D01*
X80252182Y-71472689D01*
X80251794Y-71472869D01*
X80249977Y-71474687D01*
X80210848Y-71491963D01*
X80161302Y-71515068D01*
X80157339Y-71515589D01*
X80153323Y-71517363D01*
X80087500Y-71525000D01*
X79587500Y-71525000D01*
X79521677Y-71517363D01*
X79517661Y-71515589D01*
X79513697Y-71515068D01*
X79464132Y-71491955D01*
X79425023Y-71474687D01*
X79423206Y-71472870D01*
X79422817Y-71472689D01*
X79352310Y-71402182D01*
X79352128Y-71401792D01*
X79350313Y-71399977D01*
X79333054Y-71360889D01*
X79309931Y-71311302D01*
X79309408Y-71307336D01*
X79307637Y-71303323D01*
X79300000Y-71237500D01*
X79300000Y-70762500D01*
X79307637Y-70696677D01*
X79309408Y-70692664D01*
X79309931Y-70688697D01*
X79333062Y-70639091D01*
X79350313Y-70600023D01*
X79352127Y-70598208D01*
X79352310Y-70597817D01*
X79422817Y-70527310D01*
X79423208Y-70527127D01*
X79425023Y-70525313D01*
X79464091Y-70508062D01*
X79513697Y-70484931D01*
X79517664Y-70484408D01*
X79521677Y-70482637D01*
X79587500Y-70475000D01*
X80087500Y-70475000D01*
X80153323Y-70482637D01*
G37*
G36*
X81978323Y-70482637D02*
G01*
X81982336Y-70484408D01*
X81986302Y-70484931D01*
X82035889Y-70508054D01*
X82074977Y-70525313D01*
X82076792Y-70527128D01*
X82077182Y-70527310D01*
X82147689Y-70597817D01*
X82147870Y-70598206D01*
X82149687Y-70600023D01*
X82166955Y-70639132D01*
X82190068Y-70688697D01*
X82190589Y-70692661D01*
X82192363Y-70696677D01*
X82200000Y-70762500D01*
X82200000Y-71237500D01*
X82192363Y-71303323D01*
X82190589Y-71307339D01*
X82190068Y-71311302D01*
X82166963Y-71360848D01*
X82149687Y-71399977D01*
X82147869Y-71401794D01*
X82147689Y-71402182D01*
X82077182Y-71472689D01*
X82076794Y-71472869D01*
X82074977Y-71474687D01*
X82035848Y-71491963D01*
X81986302Y-71515068D01*
X81982339Y-71515589D01*
X81978323Y-71517363D01*
X81912500Y-71525000D01*
X81412500Y-71525000D01*
X81346677Y-71517363D01*
X81342661Y-71515589D01*
X81338697Y-71515068D01*
X81289132Y-71491955D01*
X81250023Y-71474687D01*
X81248206Y-71472870D01*
X81247817Y-71472689D01*
X81177310Y-71402182D01*
X81177128Y-71401792D01*
X81175313Y-71399977D01*
X81158054Y-71360889D01*
X81134931Y-71311302D01*
X81134408Y-71307336D01*
X81132637Y-71303323D01*
X81125000Y-71237500D01*
X81125000Y-70762500D01*
X81132637Y-70696677D01*
X81134408Y-70692664D01*
X81134931Y-70688697D01*
X81158062Y-70639091D01*
X81175313Y-70600023D01*
X81177127Y-70598208D01*
X81177310Y-70597817D01*
X81247817Y-70527310D01*
X81248208Y-70527127D01*
X81250023Y-70525313D01*
X81289091Y-70508062D01*
X81338697Y-70484931D01*
X81342664Y-70484408D01*
X81346677Y-70482637D01*
X81412500Y-70475000D01*
X81912500Y-70475000D01*
X81978323Y-70482637D01*
G37*
G36*
X95952091Y-70482637D02*
G01*
X95956104Y-70484408D01*
X95960070Y-70484931D01*
X96009657Y-70508054D01*
X96048745Y-70525313D01*
X96050560Y-70527128D01*
X96050950Y-70527310D01*
X96121457Y-70597817D01*
X96121638Y-70598206D01*
X96123455Y-70600023D01*
X96140723Y-70639132D01*
X96163836Y-70688697D01*
X96164357Y-70692661D01*
X96166131Y-70696677D01*
X96173768Y-70762500D01*
X96173768Y-71237500D01*
X96166131Y-71303323D01*
X96164357Y-71307339D01*
X96163836Y-71311302D01*
X96140731Y-71360848D01*
X96123455Y-71399977D01*
X96121637Y-71401794D01*
X96121457Y-71402182D01*
X96050950Y-71472689D01*
X96050562Y-71472869D01*
X96048745Y-71474687D01*
X96009616Y-71491963D01*
X95960070Y-71515068D01*
X95956107Y-71515589D01*
X95952091Y-71517363D01*
X95886268Y-71525000D01*
X95386268Y-71525000D01*
X95320445Y-71517363D01*
X95316429Y-71515589D01*
X95312465Y-71515068D01*
X95262900Y-71491955D01*
X95223791Y-71474687D01*
X95221974Y-71472870D01*
X95221585Y-71472689D01*
X95151078Y-71402182D01*
X95150896Y-71401792D01*
X95149081Y-71399977D01*
X95131822Y-71360889D01*
X95108699Y-71311302D01*
X95108176Y-71307336D01*
X95106405Y-71303323D01*
X95098768Y-71237500D01*
X95098768Y-70762500D01*
X95106405Y-70696677D01*
X95108176Y-70692664D01*
X95108699Y-70688697D01*
X95131830Y-70639091D01*
X95149081Y-70600023D01*
X95150895Y-70598208D01*
X95151078Y-70597817D01*
X95221585Y-70527310D01*
X95221976Y-70527127D01*
X95223791Y-70525313D01*
X95262859Y-70508062D01*
X95312465Y-70484931D01*
X95316432Y-70484408D01*
X95320445Y-70482637D01*
X95386268Y-70475000D01*
X95886268Y-70475000D01*
X95952091Y-70482637D01*
G37*
G36*
X97777091Y-70482637D02*
G01*
X97781104Y-70484408D01*
X97785070Y-70484931D01*
X97834657Y-70508054D01*
X97873745Y-70525313D01*
X97875560Y-70527128D01*
X97875950Y-70527310D01*
X97946457Y-70597817D01*
X97946638Y-70598206D01*
X97948455Y-70600023D01*
X97965723Y-70639132D01*
X97988836Y-70688697D01*
X97989357Y-70692661D01*
X97991131Y-70696677D01*
X97998768Y-70762500D01*
X97998768Y-71237500D01*
X97991131Y-71303323D01*
X97989357Y-71307339D01*
X97988836Y-71311302D01*
X97965731Y-71360848D01*
X97948455Y-71399977D01*
X97946637Y-71401794D01*
X97946457Y-71402182D01*
X97875950Y-71472689D01*
X97875562Y-71472869D01*
X97873745Y-71474687D01*
X97834616Y-71491963D01*
X97785070Y-71515068D01*
X97781107Y-71515589D01*
X97777091Y-71517363D01*
X97711268Y-71525000D01*
X97211268Y-71525000D01*
X97145445Y-71517363D01*
X97141429Y-71515589D01*
X97137465Y-71515068D01*
X97087900Y-71491955D01*
X97048791Y-71474687D01*
X97046974Y-71472870D01*
X97046585Y-71472689D01*
X96976078Y-71402182D01*
X96975896Y-71401792D01*
X96974081Y-71399977D01*
X96956822Y-71360889D01*
X96933699Y-71311302D01*
X96933176Y-71307336D01*
X96931405Y-71303323D01*
X96923768Y-71237500D01*
X96923768Y-70762500D01*
X96931405Y-70696677D01*
X96933176Y-70692664D01*
X96933699Y-70688697D01*
X96956830Y-70639091D01*
X96974081Y-70600023D01*
X96975895Y-70598208D01*
X96976078Y-70597817D01*
X97046585Y-70527310D01*
X97046976Y-70527127D01*
X97048791Y-70525313D01*
X97087859Y-70508062D01*
X97137465Y-70484931D01*
X97141432Y-70484408D01*
X97145445Y-70482637D01*
X97211268Y-70475000D01*
X97711268Y-70475000D01*
X97777091Y-70482637D01*
G37*
G36*
X91952091Y-70475749D02*
G01*
X91956104Y-70477520D01*
X91960070Y-70478043D01*
X92009657Y-70501166D01*
X92048745Y-70518425D01*
X92050560Y-70520240D01*
X92050950Y-70520422D01*
X92121457Y-70590929D01*
X92121638Y-70591318D01*
X92123455Y-70593135D01*
X92140723Y-70632244D01*
X92163836Y-70681809D01*
X92164357Y-70685773D01*
X92166131Y-70689789D01*
X92173768Y-70755612D01*
X92173768Y-71230612D01*
X92166131Y-71296435D01*
X92164357Y-71300451D01*
X92163836Y-71304414D01*
X92140731Y-71353960D01*
X92123455Y-71393089D01*
X92121637Y-71394906D01*
X92121457Y-71395294D01*
X92050950Y-71465801D01*
X92050562Y-71465981D01*
X92048745Y-71467799D01*
X92009616Y-71485075D01*
X91960070Y-71508180D01*
X91956107Y-71508701D01*
X91952091Y-71510475D01*
X91886268Y-71518112D01*
X91386268Y-71518112D01*
X91320445Y-71510475D01*
X91316429Y-71508701D01*
X91312465Y-71508180D01*
X91262900Y-71485067D01*
X91223791Y-71467799D01*
X91221974Y-71465982D01*
X91221585Y-71465801D01*
X91151078Y-71395294D01*
X91150896Y-71394904D01*
X91149081Y-71393089D01*
X91131822Y-71354001D01*
X91108699Y-71304414D01*
X91108176Y-71300448D01*
X91106405Y-71296435D01*
X91098768Y-71230612D01*
X91098768Y-70755612D01*
X91106405Y-70689789D01*
X91108176Y-70685776D01*
X91108699Y-70681809D01*
X91131830Y-70632203D01*
X91149081Y-70593135D01*
X91150895Y-70591320D01*
X91151078Y-70590929D01*
X91221585Y-70520422D01*
X91221976Y-70520239D01*
X91223791Y-70518425D01*
X91262859Y-70501174D01*
X91312465Y-70478043D01*
X91316432Y-70477520D01*
X91320445Y-70475749D01*
X91386268Y-70468112D01*
X91886268Y-70468112D01*
X91952091Y-70475749D01*
G37*
G36*
X93777091Y-70475749D02*
G01*
X93781104Y-70477520D01*
X93785070Y-70478043D01*
X93834657Y-70501166D01*
X93873745Y-70518425D01*
X93875560Y-70520240D01*
X93875950Y-70520422D01*
X93946457Y-70590929D01*
X93946638Y-70591318D01*
X93948455Y-70593135D01*
X93965723Y-70632244D01*
X93988836Y-70681809D01*
X93989357Y-70685773D01*
X93991131Y-70689789D01*
X93998768Y-70755612D01*
X93998768Y-71230612D01*
X93991131Y-71296435D01*
X93989357Y-71300451D01*
X93988836Y-71304414D01*
X93965731Y-71353960D01*
X93948455Y-71393089D01*
X93946637Y-71394906D01*
X93946457Y-71395294D01*
X93875950Y-71465801D01*
X93875562Y-71465981D01*
X93873745Y-71467799D01*
X93834616Y-71485075D01*
X93785070Y-71508180D01*
X93781107Y-71508701D01*
X93777091Y-71510475D01*
X93711268Y-71518112D01*
X93211268Y-71518112D01*
X93145445Y-71510475D01*
X93141429Y-71508701D01*
X93137465Y-71508180D01*
X93087900Y-71485067D01*
X93048791Y-71467799D01*
X93046974Y-71465982D01*
X93046585Y-71465801D01*
X92976078Y-71395294D01*
X92975896Y-71394904D01*
X92974081Y-71393089D01*
X92956822Y-71354001D01*
X92933699Y-71304414D01*
X92933176Y-71300448D01*
X92931405Y-71296435D01*
X92923768Y-71230612D01*
X92923768Y-70755612D01*
X92931405Y-70689789D01*
X92933176Y-70685776D01*
X92933699Y-70681809D01*
X92956830Y-70632203D01*
X92974081Y-70593135D01*
X92975895Y-70591320D01*
X92976078Y-70590929D01*
X93046585Y-70520422D01*
X93046976Y-70520239D01*
X93048791Y-70518425D01*
X93087859Y-70501174D01*
X93137465Y-70478043D01*
X93141432Y-70477520D01*
X93145445Y-70475749D01*
X93211268Y-70468112D01*
X93711268Y-70468112D01*
X93777091Y-70475749D01*
G37*
G36*
X85569083Y-70922258D02*
G01*
X85585304Y-70933097D01*
X85596143Y-70949318D01*
X85599949Y-70968452D01*
X85599949Y-71218466D01*
X85596143Y-71237600D01*
X85585304Y-71253821D01*
X85569083Y-71264660D01*
X85549949Y-71268466D01*
X84699961Y-71268466D01*
X84680827Y-71264660D01*
X84664606Y-71253821D01*
X84653767Y-71237600D01*
X84649961Y-71218466D01*
X84649961Y-70968452D01*
X84653767Y-70949318D01*
X84664606Y-70933097D01*
X84680827Y-70922258D01*
X84699961Y-70918452D01*
X85549949Y-70918452D01*
X85569083Y-70922258D01*
G37*
G36*
X89619071Y-70922258D02*
G01*
X89635292Y-70933097D01*
X89646131Y-70949318D01*
X89649937Y-70968452D01*
X89649937Y-71218466D01*
X89646131Y-71237600D01*
X89635292Y-71253821D01*
X89619071Y-71264660D01*
X89599937Y-71268466D01*
X88749949Y-71268466D01*
X88730815Y-71264660D01*
X88714594Y-71253821D01*
X88703755Y-71237600D01*
X88699949Y-71218466D01*
X88699949Y-70968452D01*
X88703755Y-70949318D01*
X88714594Y-70933097D01*
X88730815Y-70922258D01*
X88749949Y-70918452D01*
X89599937Y-70918452D01*
X89619071Y-70922258D01*
G37*
G36*
X85569083Y-70421877D02*
G01*
X85585304Y-70432716D01*
X85596143Y-70448937D01*
X85599949Y-70468071D01*
X85599949Y-70718085D01*
X85596143Y-70737219D01*
X85585304Y-70753440D01*
X85569083Y-70764279D01*
X85549949Y-70768085D01*
X84699961Y-70768085D01*
X84680827Y-70764279D01*
X84664606Y-70753440D01*
X84653767Y-70737219D01*
X84649961Y-70718085D01*
X84649961Y-70468071D01*
X84653767Y-70448937D01*
X84664606Y-70432716D01*
X84680827Y-70421877D01*
X84699961Y-70418071D01*
X85549949Y-70418071D01*
X85569083Y-70421877D01*
G37*
G36*
X89619071Y-70421877D02*
G01*
X89635292Y-70432716D01*
X89646131Y-70448937D01*
X89649937Y-70468071D01*
X89649937Y-70718085D01*
X89646131Y-70737219D01*
X89635292Y-70753440D01*
X89619071Y-70764279D01*
X89599937Y-70768085D01*
X88749949Y-70768085D01*
X88730815Y-70764279D01*
X88714594Y-70753440D01*
X88703755Y-70737219D01*
X88699949Y-70718085D01*
X88699949Y-70468071D01*
X88703755Y-70448937D01*
X88714594Y-70432716D01*
X88730815Y-70421877D01*
X88749949Y-70418071D01*
X89599937Y-70418071D01*
X89619071Y-70421877D01*
G37*
G36*
X85569083Y-69924442D02*
G01*
X85585304Y-69935281D01*
X85596143Y-69951502D01*
X85599949Y-69970636D01*
X85599949Y-70220650D01*
X85596143Y-70239784D01*
X85585304Y-70256005D01*
X85569083Y-70266844D01*
X85549949Y-70270650D01*
X84699961Y-70270650D01*
X84680827Y-70266844D01*
X84664606Y-70256005D01*
X84653767Y-70239784D01*
X84649961Y-70220650D01*
X84649961Y-69970636D01*
X84653767Y-69951502D01*
X84664606Y-69935281D01*
X84680827Y-69924442D01*
X84699961Y-69920636D01*
X85549949Y-69920636D01*
X85569083Y-69924442D01*
G37*
G36*
X89619071Y-69924442D02*
G01*
X89635292Y-69935281D01*
X89646131Y-69951502D01*
X89649937Y-69970636D01*
X89649937Y-70220650D01*
X89646131Y-70239784D01*
X89635292Y-70256005D01*
X89619071Y-70266844D01*
X89599937Y-70270650D01*
X88749949Y-70270650D01*
X88730815Y-70266844D01*
X88714594Y-70256005D01*
X88703755Y-70239784D01*
X88699949Y-70220650D01*
X88699949Y-69970636D01*
X88703755Y-69951502D01*
X88714594Y-69935281D01*
X88730815Y-69924442D01*
X88749949Y-69920636D01*
X89599937Y-69920636D01*
X89619071Y-69924442D01*
G37*
G36*
X80213323Y-68992637D02*
G01*
X80217336Y-68994408D01*
X80221302Y-68994931D01*
X80270889Y-69018054D01*
X80309977Y-69035313D01*
X80311792Y-69037128D01*
X80312182Y-69037310D01*
X80382689Y-69107817D01*
X80382870Y-69108206D01*
X80384687Y-69110023D01*
X80401955Y-69149132D01*
X80425068Y-69198697D01*
X80425589Y-69202661D01*
X80427363Y-69206677D01*
X80435000Y-69272500D01*
X80435000Y-69747500D01*
X80427363Y-69813323D01*
X80425589Y-69817339D01*
X80425068Y-69821302D01*
X80401963Y-69870848D01*
X80384687Y-69909977D01*
X80382869Y-69911794D01*
X80382689Y-69912182D01*
X80312182Y-69982689D01*
X80311794Y-69982869D01*
X80309977Y-69984687D01*
X80270848Y-70001963D01*
X80221302Y-70025068D01*
X80217339Y-70025589D01*
X80213323Y-70027363D01*
X80147500Y-70035000D01*
X79647500Y-70035000D01*
X79581677Y-70027363D01*
X79577661Y-70025589D01*
X79573697Y-70025068D01*
X79524132Y-70001955D01*
X79485023Y-69984687D01*
X79483206Y-69982870D01*
X79482817Y-69982689D01*
X79412310Y-69912182D01*
X79412128Y-69911792D01*
X79410313Y-69909977D01*
X79393054Y-69870889D01*
X79369931Y-69821302D01*
X79369408Y-69817336D01*
X79367637Y-69813323D01*
X79360000Y-69747500D01*
X79360000Y-69272500D01*
X79367637Y-69206677D01*
X79369408Y-69202664D01*
X79369931Y-69198697D01*
X79393062Y-69149091D01*
X79410313Y-69110023D01*
X79412127Y-69108208D01*
X79412310Y-69107817D01*
X79482817Y-69037310D01*
X79483208Y-69037127D01*
X79485023Y-69035313D01*
X79524091Y-69018062D01*
X79573697Y-68994931D01*
X79577664Y-68994408D01*
X79581677Y-68992637D01*
X79647500Y-68985000D01*
X80147500Y-68985000D01*
X80213323Y-68992637D01*
G37*
G36*
X82038323Y-68992637D02*
G01*
X82042336Y-68994408D01*
X82046302Y-68994931D01*
X82095889Y-69018054D01*
X82134977Y-69035313D01*
X82136792Y-69037128D01*
X82137182Y-69037310D01*
X82207689Y-69107817D01*
X82207870Y-69108206D01*
X82209687Y-69110023D01*
X82226955Y-69149132D01*
X82250068Y-69198697D01*
X82250589Y-69202661D01*
X82252363Y-69206677D01*
X82260000Y-69272500D01*
X82260000Y-69747500D01*
X82252363Y-69813323D01*
X82250589Y-69817339D01*
X82250068Y-69821302D01*
X82226963Y-69870848D01*
X82209687Y-69909977D01*
X82207869Y-69911794D01*
X82207689Y-69912182D01*
X82137182Y-69982689D01*
X82136794Y-69982869D01*
X82134977Y-69984687D01*
X82095848Y-70001963D01*
X82046302Y-70025068D01*
X82042339Y-70025589D01*
X82038323Y-70027363D01*
X81972500Y-70035000D01*
X81472500Y-70035000D01*
X81406677Y-70027363D01*
X81402661Y-70025589D01*
X81398697Y-70025068D01*
X81349132Y-70001955D01*
X81310023Y-69984687D01*
X81308206Y-69982870D01*
X81307817Y-69982689D01*
X81237310Y-69912182D01*
X81237128Y-69911792D01*
X81235313Y-69909977D01*
X81218054Y-69870889D01*
X81194931Y-69821302D01*
X81194408Y-69817336D01*
X81192637Y-69813323D01*
X81185000Y-69747500D01*
X81185000Y-69272500D01*
X81192637Y-69206677D01*
X81194408Y-69202664D01*
X81194931Y-69198697D01*
X81218062Y-69149091D01*
X81235313Y-69110023D01*
X81237127Y-69108208D01*
X81237310Y-69107817D01*
X81307817Y-69037310D01*
X81308208Y-69037127D01*
X81310023Y-69035313D01*
X81349091Y-69018062D01*
X81398697Y-68994931D01*
X81402664Y-68994408D01*
X81406677Y-68992637D01*
X81472500Y-68985000D01*
X81972500Y-68985000D01*
X82038323Y-68992637D01*
G37*
G36*
X95952091Y-68982637D02*
G01*
X95956104Y-68984408D01*
X95960070Y-68984931D01*
X96009657Y-69008054D01*
X96048745Y-69025313D01*
X96050560Y-69027128D01*
X96050950Y-69027310D01*
X96121457Y-69097817D01*
X96121638Y-69098206D01*
X96123455Y-69100023D01*
X96140723Y-69139132D01*
X96163836Y-69188697D01*
X96164357Y-69192661D01*
X96166131Y-69196677D01*
X96173768Y-69262500D01*
X96173768Y-69737500D01*
X96166131Y-69803323D01*
X96164357Y-69807339D01*
X96163836Y-69811302D01*
X96140731Y-69860848D01*
X96123455Y-69899977D01*
X96121637Y-69901794D01*
X96121457Y-69902182D01*
X96050950Y-69972689D01*
X96050562Y-69972869D01*
X96048745Y-69974687D01*
X96009616Y-69991963D01*
X95960070Y-70015068D01*
X95956107Y-70015589D01*
X95952091Y-70017363D01*
X95886268Y-70025000D01*
X95386268Y-70025000D01*
X95320445Y-70017363D01*
X95316429Y-70015589D01*
X95312465Y-70015068D01*
X95262900Y-69991955D01*
X95223791Y-69974687D01*
X95221974Y-69972870D01*
X95221585Y-69972689D01*
X95151078Y-69902182D01*
X95150896Y-69901792D01*
X95149081Y-69899977D01*
X95131822Y-69860889D01*
X95108699Y-69811302D01*
X95108176Y-69807336D01*
X95106405Y-69803323D01*
X95098768Y-69737500D01*
X95098768Y-69262500D01*
X95106405Y-69196677D01*
X95108176Y-69192664D01*
X95108699Y-69188697D01*
X95131830Y-69139091D01*
X95149081Y-69100023D01*
X95150895Y-69098208D01*
X95151078Y-69097817D01*
X95221585Y-69027310D01*
X95221976Y-69027127D01*
X95223791Y-69025313D01*
X95262859Y-69008062D01*
X95312465Y-68984931D01*
X95316432Y-68984408D01*
X95320445Y-68982637D01*
X95386268Y-68975000D01*
X95886268Y-68975000D01*
X95952091Y-68982637D01*
G37*
G36*
X97777091Y-68982637D02*
G01*
X97781104Y-68984408D01*
X97785070Y-68984931D01*
X97834657Y-69008054D01*
X97873745Y-69025313D01*
X97875560Y-69027128D01*
X97875950Y-69027310D01*
X97946457Y-69097817D01*
X97946638Y-69098206D01*
X97948455Y-69100023D01*
X97965723Y-69139132D01*
X97988836Y-69188697D01*
X97989357Y-69192661D01*
X97991131Y-69196677D01*
X97998768Y-69262500D01*
X97998768Y-69737500D01*
X97991131Y-69803323D01*
X97989357Y-69807339D01*
X97988836Y-69811302D01*
X97965731Y-69860848D01*
X97948455Y-69899977D01*
X97946637Y-69901794D01*
X97946457Y-69902182D01*
X97875950Y-69972689D01*
X97875562Y-69972869D01*
X97873745Y-69974687D01*
X97834616Y-69991963D01*
X97785070Y-70015068D01*
X97781107Y-70015589D01*
X97777091Y-70017363D01*
X97711268Y-70025000D01*
X97211268Y-70025000D01*
X97145445Y-70017363D01*
X97141429Y-70015589D01*
X97137465Y-70015068D01*
X97087900Y-69991955D01*
X97048791Y-69974687D01*
X97046974Y-69972870D01*
X97046585Y-69972689D01*
X96976078Y-69902182D01*
X96975896Y-69901792D01*
X96974081Y-69899977D01*
X96956822Y-69860889D01*
X96933699Y-69811302D01*
X96933176Y-69807336D01*
X96931405Y-69803323D01*
X96923768Y-69737500D01*
X96923768Y-69262500D01*
X96931405Y-69196677D01*
X96933176Y-69192664D01*
X96933699Y-69188697D01*
X96956830Y-69139091D01*
X96974081Y-69100023D01*
X96975895Y-69098208D01*
X96976078Y-69097817D01*
X97046585Y-69027310D01*
X97046976Y-69027127D01*
X97048791Y-69025313D01*
X97087859Y-69008062D01*
X97137465Y-68984931D01*
X97141432Y-68984408D01*
X97145445Y-68982637D01*
X97211268Y-68975000D01*
X97711268Y-68975000D01*
X97777091Y-68982637D01*
G37*
G36*
X91952091Y-68975749D02*
G01*
X91956104Y-68977520D01*
X91960070Y-68978043D01*
X92009657Y-69001166D01*
X92048745Y-69018425D01*
X92050560Y-69020240D01*
X92050950Y-69020422D01*
X92121457Y-69090929D01*
X92121638Y-69091318D01*
X92123455Y-69093135D01*
X92140723Y-69132244D01*
X92163836Y-69181809D01*
X92164357Y-69185773D01*
X92166131Y-69189789D01*
X92173768Y-69255612D01*
X92173768Y-69730612D01*
X92166131Y-69796435D01*
X92164357Y-69800451D01*
X92163836Y-69804414D01*
X92140731Y-69853960D01*
X92123455Y-69893089D01*
X92121637Y-69894906D01*
X92121457Y-69895294D01*
X92050950Y-69965801D01*
X92050562Y-69965981D01*
X92048745Y-69967799D01*
X92009616Y-69985075D01*
X91960070Y-70008180D01*
X91956107Y-70008701D01*
X91952091Y-70010475D01*
X91886268Y-70018112D01*
X91386268Y-70018112D01*
X91320445Y-70010475D01*
X91316429Y-70008701D01*
X91312465Y-70008180D01*
X91262900Y-69985067D01*
X91223791Y-69967799D01*
X91221974Y-69965982D01*
X91221585Y-69965801D01*
X91151078Y-69895294D01*
X91150896Y-69894904D01*
X91149081Y-69893089D01*
X91131822Y-69854001D01*
X91108699Y-69804414D01*
X91108176Y-69800448D01*
X91106405Y-69796435D01*
X91098768Y-69730612D01*
X91098768Y-69255612D01*
X91106405Y-69189789D01*
X91108176Y-69185776D01*
X91108699Y-69181809D01*
X91131830Y-69132203D01*
X91149081Y-69093135D01*
X91150895Y-69091320D01*
X91151078Y-69090929D01*
X91221585Y-69020422D01*
X91221976Y-69020239D01*
X91223791Y-69018425D01*
X91262859Y-69001174D01*
X91312465Y-68978043D01*
X91316432Y-68977520D01*
X91320445Y-68975749D01*
X91386268Y-68968112D01*
X91886268Y-68968112D01*
X91952091Y-68975749D01*
G37*
G36*
X93777091Y-68975749D02*
G01*
X93781104Y-68977520D01*
X93785070Y-68978043D01*
X93834657Y-69001166D01*
X93873745Y-69018425D01*
X93875560Y-69020240D01*
X93875950Y-69020422D01*
X93946457Y-69090929D01*
X93946638Y-69091318D01*
X93948455Y-69093135D01*
X93965723Y-69132244D01*
X93988836Y-69181809D01*
X93989357Y-69185773D01*
X93991131Y-69189789D01*
X93998768Y-69255612D01*
X93998768Y-69730612D01*
X93991131Y-69796435D01*
X93989357Y-69800451D01*
X93988836Y-69804414D01*
X93965731Y-69853960D01*
X93948455Y-69893089D01*
X93946637Y-69894906D01*
X93946457Y-69895294D01*
X93875950Y-69965801D01*
X93875562Y-69965981D01*
X93873745Y-69967799D01*
X93834616Y-69985075D01*
X93785070Y-70008180D01*
X93781107Y-70008701D01*
X93777091Y-70010475D01*
X93711268Y-70018112D01*
X93211268Y-70018112D01*
X93145445Y-70010475D01*
X93141429Y-70008701D01*
X93137465Y-70008180D01*
X93087900Y-69985067D01*
X93048791Y-69967799D01*
X93046974Y-69965982D01*
X93046585Y-69965801D01*
X92976078Y-69895294D01*
X92975896Y-69894904D01*
X92974081Y-69893089D01*
X92956822Y-69854001D01*
X92933699Y-69804414D01*
X92933176Y-69800448D01*
X92931405Y-69796435D01*
X92923768Y-69730612D01*
X92923768Y-69255612D01*
X92931405Y-69189789D01*
X92933176Y-69185776D01*
X92933699Y-69181809D01*
X92956830Y-69132203D01*
X92974081Y-69093135D01*
X92975895Y-69091320D01*
X92976078Y-69090929D01*
X93046585Y-69020422D01*
X93046976Y-69020239D01*
X93048791Y-69018425D01*
X93087859Y-69001174D01*
X93137465Y-68978043D01*
X93141432Y-68977520D01*
X93145445Y-68975749D01*
X93211268Y-68968112D01*
X93711268Y-68968112D01*
X93777091Y-68975749D01*
G37*
G36*
X86049234Y-68853335D02*
G01*
X86065455Y-68864174D01*
X86076294Y-68880395D01*
X86080100Y-68899529D01*
X86080100Y-69749517D01*
X86076294Y-69768651D01*
X86065455Y-69784872D01*
X86049234Y-69795711D01*
X86030100Y-69799517D01*
X85780086Y-69799517D01*
X85760952Y-69795711D01*
X85744731Y-69784872D01*
X85733892Y-69768651D01*
X85730086Y-69749517D01*
X85730086Y-68899529D01*
X85733892Y-68880395D01*
X85744731Y-68864174D01*
X85760952Y-68853335D01*
X85780086Y-68849529D01*
X86030100Y-68849529D01*
X86049234Y-68853335D01*
G37*
G36*
X86549919Y-68853335D02*
G01*
X86566140Y-68864174D01*
X86576979Y-68880395D01*
X86580785Y-68899529D01*
X86580785Y-69749517D01*
X86576979Y-69768651D01*
X86566140Y-69784872D01*
X86549919Y-69795711D01*
X86530785Y-69799517D01*
X86280771Y-69799517D01*
X86261637Y-69795711D01*
X86245416Y-69784872D01*
X86234577Y-69768651D01*
X86230771Y-69749517D01*
X86230771Y-68899529D01*
X86234577Y-68880395D01*
X86245416Y-68864174D01*
X86261637Y-68853335D01*
X86280771Y-68849529D01*
X86530785Y-68849529D01*
X86549919Y-68853335D01*
G37*
G36*
X87050300Y-68853335D02*
G01*
X87066521Y-68864174D01*
X87077360Y-68880395D01*
X87081166Y-68899529D01*
X87081166Y-69749517D01*
X87077360Y-69768651D01*
X87066521Y-69784872D01*
X87050300Y-69795711D01*
X87031166Y-69799517D01*
X86781152Y-69799517D01*
X86762018Y-69795711D01*
X86745797Y-69784872D01*
X86734958Y-69768651D01*
X86731152Y-69749517D01*
X86731152Y-68899529D01*
X86734958Y-68880395D01*
X86745797Y-68864174D01*
X86762018Y-68853335D01*
X86781152Y-68849529D01*
X87031166Y-68849529D01*
X87050300Y-68853335D01*
G37*
G36*
X87550681Y-68853335D02*
G01*
X87566902Y-68864174D01*
X87577741Y-68880395D01*
X87581547Y-68899529D01*
X87581547Y-69749517D01*
X87577741Y-69768651D01*
X87566902Y-69784872D01*
X87550681Y-69795711D01*
X87531547Y-69799517D01*
X87281533Y-69799517D01*
X87262399Y-69795711D01*
X87246178Y-69784872D01*
X87235339Y-69768651D01*
X87231533Y-69749517D01*
X87231533Y-68899529D01*
X87235339Y-68880395D01*
X87246178Y-68864174D01*
X87262399Y-68853335D01*
X87281533Y-68849529D01*
X87531547Y-68849529D01*
X87550681Y-68853335D01*
G37*
G36*
X88048522Y-68853335D02*
G01*
X88064743Y-68864174D01*
X88075582Y-68880395D01*
X88079388Y-68899529D01*
X88079388Y-69749517D01*
X88075582Y-69768651D01*
X88064743Y-69784872D01*
X88048522Y-69795711D01*
X88029388Y-69799517D01*
X87779374Y-69799517D01*
X87760240Y-69795711D01*
X87744019Y-69784872D01*
X87733180Y-69768651D01*
X87729374Y-69749517D01*
X87729374Y-68899529D01*
X87733180Y-68880395D01*
X87744019Y-68864174D01*
X87760240Y-68853335D01*
X87779374Y-68849529D01*
X88029388Y-68849529D01*
X88048522Y-68853335D01*
G37*
G36*
X88548903Y-68853335D02*
G01*
X88565124Y-68864174D01*
X88575963Y-68880395D01*
X88579769Y-68899529D01*
X88579769Y-69749517D01*
X88575963Y-69768651D01*
X88565124Y-69784872D01*
X88548903Y-69795711D01*
X88529769Y-69799517D01*
X88279755Y-69799517D01*
X88260621Y-69795711D01*
X88244400Y-69784872D01*
X88233561Y-69768651D01*
X88229755Y-69749517D01*
X88229755Y-68899529D01*
X88233561Y-68880395D01*
X88244400Y-68864174D01*
X88260621Y-68853335D01*
X88279755Y-68849529D01*
X88529769Y-68849529D01*
X88548903Y-68853335D01*
G37*
G36*
X82553323Y-67382637D02*
G01*
X82557336Y-67384408D01*
X82561302Y-67384931D01*
X82610889Y-67408054D01*
X82649977Y-67425313D01*
X82651792Y-67427128D01*
X82652182Y-67427310D01*
X82722689Y-67497817D01*
X82722870Y-67498206D01*
X82724687Y-67500023D01*
X82741955Y-67539132D01*
X82765068Y-67588697D01*
X82765589Y-67592661D01*
X82767363Y-67596677D01*
X82775000Y-67662500D01*
X82775000Y-68162500D01*
X82767363Y-68228323D01*
X82765589Y-68232339D01*
X82765068Y-68236302D01*
X82741963Y-68285848D01*
X82724687Y-68324977D01*
X82722869Y-68326794D01*
X82722689Y-68327182D01*
X82652182Y-68397689D01*
X82651794Y-68397869D01*
X82649977Y-68399687D01*
X82610848Y-68416963D01*
X82561302Y-68440068D01*
X82557339Y-68440589D01*
X82553323Y-68442363D01*
X82487500Y-68450000D01*
X82012500Y-68450000D01*
X81946677Y-68442363D01*
X81942661Y-68440589D01*
X81938697Y-68440068D01*
X81889132Y-68416955D01*
X81850023Y-68399687D01*
X81848206Y-68397870D01*
X81847817Y-68397689D01*
X81777310Y-68327182D01*
X81777128Y-68326792D01*
X81775313Y-68324977D01*
X81758054Y-68285889D01*
X81734931Y-68236302D01*
X81734408Y-68232336D01*
X81732637Y-68228323D01*
X81725000Y-68162500D01*
X81725000Y-67662500D01*
X81732637Y-67596677D01*
X81734408Y-67592664D01*
X81734931Y-67588697D01*
X81758062Y-67539091D01*
X81775313Y-67500023D01*
X81777127Y-67498208D01*
X81777310Y-67497817D01*
X81847817Y-67427310D01*
X81848208Y-67427127D01*
X81850023Y-67425313D01*
X81889091Y-67408062D01*
X81938697Y-67384931D01*
X81942664Y-67384408D01*
X81946677Y-67382637D01*
X82012500Y-67375000D01*
X82487500Y-67375000D01*
X82553323Y-67382637D01*
G37*
G36*
X82553323Y-65557637D02*
G01*
X82557336Y-65559408D01*
X82561302Y-65559931D01*
X82610889Y-65583054D01*
X82649977Y-65600313D01*
X82651792Y-65602128D01*
X82652182Y-65602310D01*
X82722689Y-65672817D01*
X82722870Y-65673206D01*
X82724687Y-65675023D01*
X82741955Y-65714132D01*
X82765068Y-65763697D01*
X82765589Y-65767661D01*
X82767363Y-65771677D01*
X82775000Y-65837500D01*
X82775000Y-66337500D01*
X82767363Y-66403323D01*
X82765589Y-66407339D01*
X82765068Y-66411302D01*
X82741963Y-66460848D01*
X82724687Y-66499977D01*
X82722869Y-66501794D01*
X82722689Y-66502182D01*
X82652182Y-66572689D01*
X82651794Y-66572869D01*
X82649977Y-66574687D01*
X82610848Y-66591963D01*
X82561302Y-66615068D01*
X82557339Y-66615589D01*
X82553323Y-66617363D01*
X82487500Y-66625000D01*
X82012500Y-66625000D01*
X81946677Y-66617363D01*
X81942661Y-66615589D01*
X81938697Y-66615068D01*
X81889132Y-66591955D01*
X81850023Y-66574687D01*
X81848206Y-66572870D01*
X81847817Y-66572689D01*
X81777310Y-66502182D01*
X81777128Y-66501792D01*
X81775313Y-66499977D01*
X81758054Y-66460889D01*
X81734931Y-66411302D01*
X81734408Y-66407336D01*
X81732637Y-66403323D01*
X81725000Y-66337500D01*
X81725000Y-65837500D01*
X81732637Y-65771677D01*
X81734408Y-65767664D01*
X81734931Y-65763697D01*
X81758062Y-65714091D01*
X81775313Y-65675023D01*
X81777127Y-65673208D01*
X81777310Y-65672817D01*
X81847817Y-65602310D01*
X81848208Y-65602127D01*
X81850023Y-65600313D01*
X81889091Y-65583062D01*
X81938697Y-65559931D01*
X81942664Y-65559408D01*
X81946677Y-65557637D01*
X82012500Y-65550000D01*
X82487500Y-65550000D01*
X82553323Y-65557637D01*
G37*
M02*
