%TF.GenerationSoftware,KiCad,Pcbnew,9.0.2*%
%TF.CreationDate,2025-06-23T22:31:53+02:00*%
%TF.ProjectId,Board,426f6172-642e-46b6-9963-61645f706362,rev?*%
%TF.SameCoordinates,Original*%
%TF.FileFunction,Paste,Bot*%
%TF.FilePolarity,Positive*%
%FSLAX46Y46*%
G04 Gerber Fmt 4.6, Leading zero omitted, Abs format (unit mm)*
G04 Created by KiCad (PCBNEW 9.0.2) date 2025-06-23 22:31:53*
%MOMM*%
%LPD*%
G01*
G04 APERTURE LIST*
G04 Aperture macros list*
%AMRoundRect*
0 Rectangle with rounded corners*
0 $1 Rounding radius*
0 $2 $3 $4 $5 $6 $7 $8 $9 X,Y pos of 4 corners*
0 Add a 4 corners polygon primitive as box body*
4,1,4,$2,$3,$4,$5,$6,$7,$8,$9,$2,$3,0*
0 Add four circle primitives for the rounded corners*
1,1,$1+$1,$2,$3*
1,1,$1+$1,$4,$5*
1,1,$1+$1,$6,$7*
1,1,$1+$1,$8,$9*
0 Add four rect primitives between the rounded corners*
20,1,$1+$1,$2,$3,$4,$5,0*
20,1,$1+$1,$4,$5,$6,$7,0*
20,1,$1+$1,$6,$7,$8,$9,0*
20,1,$1+$1,$8,$9,$2,$3,0*%
%AMFreePoly0*
4,1,5,0.635001,-1.715011,-0.635001,-1.715011,-0.635001,1.715011,0.635001,1.715011,0.635001,-1.715011,0.635001,-1.715011,$1*%
G04 Aperture macros list end*
%ADD10RoundRect,0.237500X0.237500X-0.287500X0.237500X0.287500X-0.237500X0.287500X-0.237500X-0.287500X0*%
%ADD11RoundRect,0.237500X0.237500X-0.250000X0.237500X0.250000X-0.237500X0.250000X-0.237500X-0.250000X0*%
%ADD12RoundRect,0.237500X-0.237500X0.250000X-0.237500X-0.250000X0.237500X-0.250000X0.237500X0.250000X0*%
%ADD13R,0.800000X1.500000*%
%ADD14R,1.400000X1.700000*%
%ADD15R,1.500000X1.150013*%
%ADD16R,1.300000X1.500000*%
%ADD17RoundRect,0.237500X0.250000X0.237500X-0.250000X0.237500X-0.250000X-0.237500X0.250000X-0.237500X0*%
%ADD18RoundRect,0.237500X-0.250000X-0.237500X0.250000X-0.237500X0.250000X0.237500X-0.250000X0.237500X0*%
%ADD19C,0.500381*%
%ADD20R,0.250013X0.849987*%
%ADD21R,0.849987X0.250013*%
%ADD22R,2.500000X2.500000*%
%ADD23FreePoly0,0.000000*%
G04 APERTURE END LIST*
D10*
%TO.C,U4*%
X102550000Y-73250000D03*
X102550000Y-71500000D03*
%TD*%
D11*
%TO.C,R26*%
X85650509Y-87421710D03*
X85650509Y-85596710D03*
%TD*%
%TO.C,R3*%
X82250000Y-67912500D03*
X82250000Y-66087500D03*
%TD*%
D12*
%TO.C,R4*%
X94500000Y-96087500D03*
X94500000Y-97912500D03*
%TD*%
D13*
%TO.C,U1*%
X73943548Y-94587567D03*
X75043625Y-94587567D03*
X76143701Y-94587567D03*
X77243777Y-94587567D03*
X78343599Y-94587567D03*
X79443675Y-94587567D03*
X80543752Y-94587567D03*
X81643574Y-94587567D03*
D14*
X70193739Y-97487490D03*
D15*
X73743650Y-83012510D03*
X82643574Y-83012510D03*
D14*
X83093663Y-97487490D03*
D15*
X76043625Y-83012510D03*
D16*
X83306261Y-87737681D03*
%TD*%
D17*
%TO.C,R18*%
X81662500Y-72500000D03*
X79837500Y-72500000D03*
%TD*%
D11*
%TO.C,R10*%
X102000000Y-97912500D03*
X102000000Y-96087500D03*
%TD*%
%TO.C,R9*%
X99000000Y-97912500D03*
X99000000Y-96087500D03*
%TD*%
D18*
%TO.C,R2*%
X91636268Y-73993112D03*
X93461268Y-73993112D03*
%TD*%
%TO.C,R19*%
X91636268Y-70993112D03*
X93461268Y-70993112D03*
%TD*%
D17*
%TO.C,R22*%
X81662500Y-71000000D03*
X79837500Y-71000000D03*
%TD*%
D19*
%TO.C,U3*%
X89356591Y-83211849D03*
X89356591Y-84211849D03*
X89356591Y-91211849D03*
X89356591Y-92211849D03*
X90356591Y-83211849D03*
X90356591Y-92211849D03*
X92356591Y-84211849D03*
X92356591Y-85211849D03*
X92356591Y-86211849D03*
X92356591Y-87211849D03*
X92356591Y-88211849D03*
X92356591Y-89211849D03*
X92356591Y-90211849D03*
X92356591Y-91211849D03*
X93356591Y-84211849D03*
X93356591Y-85211849D03*
X93356591Y-86211849D03*
X93356591Y-87211849D03*
X93356591Y-88211849D03*
X93356591Y-89211849D03*
X93356591Y-90211849D03*
X93356591Y-91211849D03*
X94356591Y-84211849D03*
X94356591Y-85211849D03*
X94356591Y-86211849D03*
X94356591Y-87211849D03*
X94356591Y-88211849D03*
X94356591Y-89211849D03*
X94356591Y-90211849D03*
X94356591Y-91211849D03*
X95356591Y-84211849D03*
X95356591Y-85211849D03*
X95356591Y-86211849D03*
X95356591Y-87211849D03*
X95356591Y-88211849D03*
X95356591Y-89211849D03*
X95356591Y-90211849D03*
X95356591Y-91211849D03*
X96356591Y-84211849D03*
X96356591Y-85211849D03*
X96356591Y-86211849D03*
X96356591Y-87211849D03*
X96356591Y-88211849D03*
X96356591Y-89211849D03*
X96356591Y-90211849D03*
X96356591Y-91211849D03*
X97356591Y-84211849D03*
X97356591Y-85211849D03*
X97356591Y-86211849D03*
X97356591Y-87211849D03*
X97356591Y-88211849D03*
X97356591Y-89211849D03*
X97356591Y-90211849D03*
X97356591Y-91211849D03*
X98356591Y-84211849D03*
X98356591Y-85211849D03*
X98356591Y-86211849D03*
X98356591Y-87211849D03*
X98356591Y-88211849D03*
X98356591Y-89211849D03*
X98356591Y-90211849D03*
X98356591Y-91211849D03*
X99356591Y-84211849D03*
X99356591Y-85211849D03*
X99356591Y-86211849D03*
X99356591Y-87211849D03*
X99356591Y-88211849D03*
X99356591Y-89211849D03*
X99356591Y-90211849D03*
X99356591Y-91211849D03*
X100356591Y-84211849D03*
X100357607Y-85211849D03*
X100356591Y-86211849D03*
X100356591Y-87211849D03*
X100356591Y-88211849D03*
X100356591Y-89211849D03*
X100356591Y-90211849D03*
X100356591Y-91211849D03*
X101356591Y-84211849D03*
X101356591Y-85211849D03*
X101356591Y-86211849D03*
X101356591Y-87211849D03*
X101356591Y-88211849D03*
X101356591Y-89211849D03*
X101356591Y-90211849D03*
X101356591Y-91211849D03*
X102356591Y-84211849D03*
X102356591Y-85211849D03*
X102356591Y-86211849D03*
X102356591Y-87211849D03*
X102356591Y-88211849D03*
X102356591Y-89211849D03*
X102356591Y-90211849D03*
X102356591Y-91211849D03*
X104356591Y-83211849D03*
X104356591Y-92211849D03*
X105356591Y-83211849D03*
X105356591Y-84211849D03*
X105356591Y-91211849D03*
X105356591Y-92211849D03*
%TD*%
D18*
%TO.C,R23*%
X91636268Y-69493112D03*
X93461268Y-69493112D03*
%TD*%
%TO.C,R7*%
X95636268Y-69500000D03*
X97461268Y-69500000D03*
%TD*%
D11*
%TO.C,R5*%
X91500000Y-78762017D03*
X91500000Y-76937017D03*
%TD*%
D12*
%TO.C,R17*%
X90000000Y-76937017D03*
X90000000Y-78762017D03*
%TD*%
D20*
%TO.C,U2*%
X85905093Y-69324523D03*
X86405778Y-69324523D03*
X86906159Y-69324523D03*
X87406540Y-69324523D03*
X87904381Y-69324523D03*
X88404762Y-69324523D03*
D21*
X89174943Y-70095643D03*
X89174943Y-70593078D03*
X89174943Y-71093459D03*
X89174943Y-71593840D03*
X89174943Y-72094221D03*
X89174943Y-72594602D03*
D20*
X88405067Y-73374511D03*
X87904381Y-73374511D03*
X87406540Y-73374511D03*
X86906159Y-73374511D03*
X86405778Y-73374511D03*
X85905397Y-73374511D03*
D21*
X85124955Y-72594602D03*
X85124955Y-72094221D03*
X85124955Y-71593840D03*
X85124955Y-71093459D03*
X85124955Y-70593078D03*
X85124955Y-70095643D03*
D22*
X87150000Y-71350000D03*
%TD*%
D12*
%TO.C,R30*%
X102575000Y-75162500D03*
X102575000Y-76987500D03*
%TD*%
%TO.C,R1*%
X83950051Y-76987500D03*
X83950051Y-78812500D03*
%TD*%
D17*
%TO.C,R21*%
X81662500Y-75500000D03*
X79837500Y-75500000D03*
%TD*%
D12*
%TO.C,R24*%
X87000000Y-76937017D03*
X87000000Y-78762017D03*
%TD*%
%TO.C,R6*%
X93050000Y-76937017D03*
X93050000Y-78762017D03*
%TD*%
%TO.C,R16*%
X85500000Y-76937017D03*
X85500000Y-78762017D03*
%TD*%
D11*
%TO.C,R15*%
X96000000Y-97912500D03*
X96000000Y-96087500D03*
%TD*%
D18*
%TO.C,R31*%
X79837500Y-77000000D03*
X81662500Y-77000000D03*
%TD*%
%TO.C,R29*%
X79837500Y-74000000D03*
X81662500Y-74000000D03*
%TD*%
%TO.C,R14*%
X95636268Y-73193112D03*
X97461268Y-73193112D03*
%TD*%
D11*
%TO.C,R27*%
X87150433Y-87421710D03*
X87150433Y-85596710D03*
%TD*%
%TO.C,R12*%
X100500000Y-97912500D03*
X100500000Y-96087500D03*
%TD*%
D23*
%TO.C,J3*%
X70779997Y-74259995D03*
X73320003Y-71340005D03*
%TD*%
D18*
%TO.C,R20*%
X91636268Y-72493112D03*
X93461268Y-72493112D03*
%TD*%
%TO.C,R13*%
X95636268Y-75393112D03*
X97461268Y-75393112D03*
%TD*%
%TO.C,R8*%
X95636268Y-71000000D03*
X97461268Y-71000000D03*
%TD*%
%TO.C,R28*%
X79897500Y-69510000D03*
X81722500Y-69510000D03*
%TD*%
D12*
%TO.C,R25*%
X88500000Y-76937017D03*
X88500000Y-78762017D03*
%TD*%
D11*
%TO.C,R11*%
X97500000Y-97912500D03*
X97500000Y-96087500D03*
%TD*%
M02*
