%TF.GenerationSoftware,KiCad,Pcbnew,9.0.2*%
%TF.CreationDate,2025-06-22T16:31:42+02:00*%
%TF.ProjectId,Board,426f6172-642e-46b6-9963-61645f706362,rev?*%
%TF.SameCoordinates,Original*%
%TF.FileFunction,Legend,Bot*%
%TF.FilePolarity,Positive*%
%FSLAX46Y46*%
G04 Gerber Fmt 4.6, Leading zero omitted, Abs format (unit mm)*
G04 Created by KiCad (PCBNEW 9.0.2) date 2025-06-22 16:31:42*
%MOMM*%
%LPD*%
G01*
G04 APERTURE LIST*
%ADD10C,0.150000*%
%ADD11C,0.120000*%
%ADD12C,0.254001*%
%ADD13C,0.152400*%
%ADD14C,0.059995*%
%ADD15C,0.149987*%
%ADD16C,0.100000*%
%ADD17C,0.152000*%
G04 APERTURE END LIST*
D10*
X103969819Y-73341541D02*
X103969819Y-73960588D01*
X103969819Y-73960588D02*
X104350771Y-73627255D01*
X104350771Y-73627255D02*
X104350771Y-73770112D01*
X104350771Y-73770112D02*
X104398390Y-73865350D01*
X104398390Y-73865350D02*
X104446009Y-73912969D01*
X104446009Y-73912969D02*
X104541247Y-73960588D01*
X104541247Y-73960588D02*
X104779342Y-73960588D01*
X104779342Y-73960588D02*
X104874580Y-73912969D01*
X104874580Y-73912969D02*
X104922200Y-73865350D01*
X104922200Y-73865350D02*
X104969819Y-73770112D01*
X104969819Y-73770112D02*
X104969819Y-73484398D01*
X104969819Y-73484398D02*
X104922200Y-73389160D01*
X104922200Y-73389160D02*
X104874580Y-73341541D01*
X104874580Y-74389160D02*
X104922200Y-74436779D01*
X104922200Y-74436779D02*
X104969819Y-74389160D01*
X104969819Y-74389160D02*
X104922200Y-74341541D01*
X104922200Y-74341541D02*
X104874580Y-74389160D01*
X104874580Y-74389160D02*
X104969819Y-74389160D01*
X103969819Y-74770112D02*
X103969819Y-75389159D01*
X103969819Y-75389159D02*
X104350771Y-75055826D01*
X104350771Y-75055826D02*
X104350771Y-75198683D01*
X104350771Y-75198683D02*
X104398390Y-75293921D01*
X104398390Y-75293921D02*
X104446009Y-75341540D01*
X104446009Y-75341540D02*
X104541247Y-75389159D01*
X104541247Y-75389159D02*
X104779342Y-75389159D01*
X104779342Y-75389159D02*
X104874580Y-75341540D01*
X104874580Y-75341540D02*
X104922200Y-75293921D01*
X104922200Y-75293921D02*
X104969819Y-75198683D01*
X104969819Y-75198683D02*
X104969819Y-74912969D01*
X104969819Y-74912969D02*
X104922200Y-74817731D01*
X104922200Y-74817731D02*
X104874580Y-74770112D01*
X103969819Y-75674874D02*
X104969819Y-76008207D01*
X104969819Y-76008207D02*
X103969819Y-76341540D01*
X103969819Y-77627255D02*
X103969819Y-77817731D01*
X103969819Y-77817731D02*
X104017438Y-77912969D01*
X104017438Y-77912969D02*
X104112676Y-78008207D01*
X104112676Y-78008207D02*
X104303152Y-78055826D01*
X104303152Y-78055826D02*
X104636485Y-78055826D01*
X104636485Y-78055826D02*
X104826961Y-78008207D01*
X104826961Y-78008207D02*
X104922200Y-77912969D01*
X104922200Y-77912969D02*
X104969819Y-77817731D01*
X104969819Y-77817731D02*
X104969819Y-77627255D01*
X104969819Y-77627255D02*
X104922200Y-77532017D01*
X104922200Y-77532017D02*
X104826961Y-77436779D01*
X104826961Y-77436779D02*
X104636485Y-77389160D01*
X104636485Y-77389160D02*
X104303152Y-77389160D01*
X104303152Y-77389160D02*
X104112676Y-77436779D01*
X104112676Y-77436779D02*
X104017438Y-77532017D01*
X104017438Y-77532017D02*
X103969819Y-77627255D01*
X104969819Y-78484398D02*
X103969819Y-78484398D01*
X103969819Y-78484398D02*
X104969819Y-79055826D01*
X104969819Y-79055826D02*
X103969819Y-79055826D01*
X68879636Y-76330180D02*
X68784398Y-76377800D01*
X68784398Y-76377800D02*
X68736779Y-76473038D01*
X68736779Y-76473038D02*
X68736779Y-77330180D01*
X69403446Y-76330180D02*
X69308208Y-76377800D01*
X69308208Y-76377800D02*
X69260589Y-76425419D01*
X69260589Y-76425419D02*
X69212970Y-76520657D01*
X69212970Y-76520657D02*
X69212970Y-76806371D01*
X69212970Y-76806371D02*
X69260589Y-76901609D01*
X69260589Y-76901609D02*
X69308208Y-76949228D01*
X69308208Y-76949228D02*
X69403446Y-76996847D01*
X69403446Y-76996847D02*
X69546303Y-76996847D01*
X69546303Y-76996847D02*
X69641541Y-76949228D01*
X69641541Y-76949228D02*
X69689160Y-76901609D01*
X69689160Y-76901609D02*
X69736779Y-76806371D01*
X69736779Y-76806371D02*
X69736779Y-76520657D01*
X69736779Y-76520657D02*
X69689160Y-76425419D01*
X69689160Y-76425419D02*
X69641541Y-76377800D01*
X69641541Y-76377800D02*
X69546303Y-76330180D01*
X69546303Y-76330180D02*
X69403446Y-76330180D01*
X70070113Y-76996847D02*
X70260589Y-76330180D01*
X70260589Y-76330180D02*
X70451065Y-76806371D01*
X70451065Y-76806371D02*
X70641541Y-76330180D01*
X70641541Y-76330180D02*
X70832017Y-76996847D01*
X71212970Y-76853990D02*
X71974875Y-76853990D01*
X71974875Y-76568276D02*
X71212970Y-76568276D01*
X72403446Y-76377800D02*
X72546303Y-76330180D01*
X72546303Y-76330180D02*
X72784398Y-76330180D01*
X72784398Y-76330180D02*
X72879636Y-76377800D01*
X72879636Y-76377800D02*
X72927255Y-76425419D01*
X72927255Y-76425419D02*
X72974874Y-76520657D01*
X72974874Y-76520657D02*
X72974874Y-76615895D01*
X72974874Y-76615895D02*
X72927255Y-76711133D01*
X72927255Y-76711133D02*
X72879636Y-76758752D01*
X72879636Y-76758752D02*
X72784398Y-76806371D01*
X72784398Y-76806371D02*
X72593922Y-76853990D01*
X72593922Y-76853990D02*
X72498684Y-76901609D01*
X72498684Y-76901609D02*
X72451065Y-76949228D01*
X72451065Y-76949228D02*
X72403446Y-77044466D01*
X72403446Y-77044466D02*
X72403446Y-77139704D01*
X72403446Y-77139704D02*
X72451065Y-77234942D01*
X72451065Y-77234942D02*
X72498684Y-77282561D01*
X72498684Y-77282561D02*
X72593922Y-77330180D01*
X72593922Y-77330180D02*
X72832017Y-77330180D01*
X72832017Y-77330180D02*
X72974874Y-77282561D01*
X73403446Y-76330180D02*
X73403446Y-77330180D01*
X73403446Y-77330180D02*
X73641541Y-77330180D01*
X73641541Y-77330180D02*
X73784398Y-77282561D01*
X73784398Y-77282561D02*
X73879636Y-77187323D01*
X73879636Y-77187323D02*
X73927255Y-77092085D01*
X73927255Y-77092085D02*
X73974874Y-76901609D01*
X73974874Y-76901609D02*
X73974874Y-76758752D01*
X73974874Y-76758752D02*
X73927255Y-76568276D01*
X73927255Y-76568276D02*
X73879636Y-76473038D01*
X73879636Y-76473038D02*
X73784398Y-76377800D01*
X73784398Y-76377800D02*
X73641541Y-76330180D01*
X73641541Y-76330180D02*
X73403446Y-76330180D01*
X104161904Y-68954819D02*
X104161904Y-69764342D01*
X104161904Y-69764342D02*
X104114285Y-69859580D01*
X104114285Y-69859580D02*
X104066666Y-69907200D01*
X104066666Y-69907200D02*
X103971428Y-69954819D01*
X103971428Y-69954819D02*
X103780952Y-69954819D01*
X103780952Y-69954819D02*
X103685714Y-69907200D01*
X103685714Y-69907200D02*
X103638095Y-69859580D01*
X103638095Y-69859580D02*
X103590476Y-69764342D01*
X103590476Y-69764342D02*
X103590476Y-68954819D01*
X102685714Y-69288152D02*
X102685714Y-69954819D01*
X102923809Y-68907200D02*
X103161904Y-69621485D01*
X103161904Y-69621485D02*
X102542857Y-69621485D01*
X86005404Y-89166352D02*
X85529213Y-88833019D01*
X86005404Y-88594924D02*
X85005404Y-88594924D01*
X85005404Y-88594924D02*
X85005404Y-88975876D01*
X85005404Y-88975876D02*
X85053023Y-89071114D01*
X85053023Y-89071114D02*
X85100642Y-89118733D01*
X85100642Y-89118733D02*
X85195880Y-89166352D01*
X85195880Y-89166352D02*
X85338737Y-89166352D01*
X85338737Y-89166352D02*
X85433975Y-89118733D01*
X85433975Y-89118733D02*
X85481594Y-89071114D01*
X85481594Y-89071114D02*
X85529213Y-88975876D01*
X85529213Y-88975876D02*
X85529213Y-88594924D01*
X85100642Y-89547305D02*
X85053023Y-89594924D01*
X85053023Y-89594924D02*
X85005404Y-89690162D01*
X85005404Y-89690162D02*
X85005404Y-89928257D01*
X85005404Y-89928257D02*
X85053023Y-90023495D01*
X85053023Y-90023495D02*
X85100642Y-90071114D01*
X85100642Y-90071114D02*
X85195880Y-90118733D01*
X85195880Y-90118733D02*
X85291118Y-90118733D01*
X85291118Y-90118733D02*
X85433975Y-90071114D01*
X85433975Y-90071114D02*
X86005404Y-89499686D01*
X86005404Y-89499686D02*
X86005404Y-90118733D01*
X85005404Y-90975876D02*
X85005404Y-90785400D01*
X85005404Y-90785400D02*
X85053023Y-90690162D01*
X85053023Y-90690162D02*
X85100642Y-90642543D01*
X85100642Y-90642543D02*
X85243499Y-90547305D01*
X85243499Y-90547305D02*
X85433975Y-90499686D01*
X85433975Y-90499686D02*
X85814927Y-90499686D01*
X85814927Y-90499686D02*
X85910165Y-90547305D01*
X85910165Y-90547305D02*
X85957785Y-90594924D01*
X85957785Y-90594924D02*
X86005404Y-90690162D01*
X86005404Y-90690162D02*
X86005404Y-90880638D01*
X86005404Y-90880638D02*
X85957785Y-90975876D01*
X85957785Y-90975876D02*
X85910165Y-91023495D01*
X85910165Y-91023495D02*
X85814927Y-91071114D01*
X85814927Y-91071114D02*
X85576832Y-91071114D01*
X85576832Y-91071114D02*
X85481594Y-91023495D01*
X85481594Y-91023495D02*
X85433975Y-90975876D01*
X85433975Y-90975876D02*
X85386356Y-90880638D01*
X85386356Y-90880638D02*
X85386356Y-90690162D01*
X85386356Y-90690162D02*
X85433975Y-90594924D01*
X85433975Y-90594924D02*
X85481594Y-90547305D01*
X85481594Y-90547305D02*
X85576832Y-90499686D01*
X84454819Y-66733333D02*
X83978628Y-66400000D01*
X84454819Y-66161905D02*
X83454819Y-66161905D01*
X83454819Y-66161905D02*
X83454819Y-66542857D01*
X83454819Y-66542857D02*
X83502438Y-66638095D01*
X83502438Y-66638095D02*
X83550057Y-66685714D01*
X83550057Y-66685714D02*
X83645295Y-66733333D01*
X83645295Y-66733333D02*
X83788152Y-66733333D01*
X83788152Y-66733333D02*
X83883390Y-66685714D01*
X83883390Y-66685714D02*
X83931009Y-66638095D01*
X83931009Y-66638095D02*
X83978628Y-66542857D01*
X83978628Y-66542857D02*
X83978628Y-66161905D01*
X83454819Y-67066667D02*
X83454819Y-67685714D01*
X83454819Y-67685714D02*
X83835771Y-67352381D01*
X83835771Y-67352381D02*
X83835771Y-67495238D01*
X83835771Y-67495238D02*
X83883390Y-67590476D01*
X83883390Y-67590476D02*
X83931009Y-67638095D01*
X83931009Y-67638095D02*
X84026247Y-67685714D01*
X84026247Y-67685714D02*
X84264342Y-67685714D01*
X84264342Y-67685714D02*
X84359580Y-67638095D01*
X84359580Y-67638095D02*
X84407200Y-67590476D01*
X84407200Y-67590476D02*
X84454819Y-67495238D01*
X84454819Y-67495238D02*
X84454819Y-67209524D01*
X84454819Y-67209524D02*
X84407200Y-67114286D01*
X84407200Y-67114286D02*
X84359580Y-67066667D01*
X87754819Y-96233333D02*
X87278628Y-95900000D01*
X87754819Y-95661905D02*
X86754819Y-95661905D01*
X86754819Y-95661905D02*
X86754819Y-96042857D01*
X86754819Y-96042857D02*
X86802438Y-96138095D01*
X86802438Y-96138095D02*
X86850057Y-96185714D01*
X86850057Y-96185714D02*
X86945295Y-96233333D01*
X86945295Y-96233333D02*
X87088152Y-96233333D01*
X87088152Y-96233333D02*
X87183390Y-96185714D01*
X87183390Y-96185714D02*
X87231009Y-96138095D01*
X87231009Y-96138095D02*
X87278628Y-96042857D01*
X87278628Y-96042857D02*
X87278628Y-95661905D01*
X87088152Y-97090476D02*
X87754819Y-97090476D01*
X86707200Y-96852381D02*
X87421485Y-96614286D01*
X87421485Y-96614286D02*
X87421485Y-97233333D01*
X79311904Y-80904819D02*
X79311904Y-81714342D01*
X79311904Y-81714342D02*
X79264285Y-81809580D01*
X79264285Y-81809580D02*
X79216666Y-81857200D01*
X79216666Y-81857200D02*
X79121428Y-81904819D01*
X79121428Y-81904819D02*
X78930952Y-81904819D01*
X78930952Y-81904819D02*
X78835714Y-81857200D01*
X78835714Y-81857200D02*
X78788095Y-81809580D01*
X78788095Y-81809580D02*
X78740476Y-81714342D01*
X78740476Y-81714342D02*
X78740476Y-80904819D01*
X77740476Y-81904819D02*
X78311904Y-81904819D01*
X78026190Y-81904819D02*
X78026190Y-80904819D01*
X78026190Y-80904819D02*
X78121428Y-81047676D01*
X78121428Y-81047676D02*
X78216666Y-81142914D01*
X78216666Y-81142914D02*
X78311904Y-81190533D01*
X77252857Y-73229819D02*
X77586190Y-72753628D01*
X77824285Y-73229819D02*
X77824285Y-72229819D01*
X77824285Y-72229819D02*
X77443333Y-72229819D01*
X77443333Y-72229819D02*
X77348095Y-72277438D01*
X77348095Y-72277438D02*
X77300476Y-72325057D01*
X77300476Y-72325057D02*
X77252857Y-72420295D01*
X77252857Y-72420295D02*
X77252857Y-72563152D01*
X77252857Y-72563152D02*
X77300476Y-72658390D01*
X77300476Y-72658390D02*
X77348095Y-72706009D01*
X77348095Y-72706009D02*
X77443333Y-72753628D01*
X77443333Y-72753628D02*
X77824285Y-72753628D01*
X76300476Y-73229819D02*
X76871904Y-73229819D01*
X76586190Y-73229819D02*
X76586190Y-72229819D01*
X76586190Y-72229819D02*
X76681428Y-72372676D01*
X76681428Y-72372676D02*
X76776666Y-72467914D01*
X76776666Y-72467914D02*
X76871904Y-72515533D01*
X75729047Y-72658390D02*
X75824285Y-72610771D01*
X75824285Y-72610771D02*
X75871904Y-72563152D01*
X75871904Y-72563152D02*
X75919523Y-72467914D01*
X75919523Y-72467914D02*
X75919523Y-72420295D01*
X75919523Y-72420295D02*
X75871904Y-72325057D01*
X75871904Y-72325057D02*
X75824285Y-72277438D01*
X75824285Y-72277438D02*
X75729047Y-72229819D01*
X75729047Y-72229819D02*
X75538571Y-72229819D01*
X75538571Y-72229819D02*
X75443333Y-72277438D01*
X75443333Y-72277438D02*
X75395714Y-72325057D01*
X75395714Y-72325057D02*
X75348095Y-72420295D01*
X75348095Y-72420295D02*
X75348095Y-72467914D01*
X75348095Y-72467914D02*
X75395714Y-72563152D01*
X75395714Y-72563152D02*
X75443333Y-72610771D01*
X75443333Y-72610771D02*
X75538571Y-72658390D01*
X75538571Y-72658390D02*
X75729047Y-72658390D01*
X75729047Y-72658390D02*
X75824285Y-72706009D01*
X75824285Y-72706009D02*
X75871904Y-72753628D01*
X75871904Y-72753628D02*
X75919523Y-72848866D01*
X75919523Y-72848866D02*
X75919523Y-73039342D01*
X75919523Y-73039342D02*
X75871904Y-73134580D01*
X75871904Y-73134580D02*
X75824285Y-73182200D01*
X75824285Y-73182200D02*
X75729047Y-73229819D01*
X75729047Y-73229819D02*
X75538571Y-73229819D01*
X75538571Y-73229819D02*
X75443333Y-73182200D01*
X75443333Y-73182200D02*
X75395714Y-73134580D01*
X75395714Y-73134580D02*
X75348095Y-73039342D01*
X75348095Y-73039342D02*
X75348095Y-72848866D01*
X75348095Y-72848866D02*
X75395714Y-72753628D01*
X75395714Y-72753628D02*
X75443333Y-72706009D01*
X75443333Y-72706009D02*
X75538571Y-72658390D01*
X106504819Y-96257142D02*
X106028628Y-95923809D01*
X106504819Y-95685714D02*
X105504819Y-95685714D01*
X105504819Y-95685714D02*
X105504819Y-96066666D01*
X105504819Y-96066666D02*
X105552438Y-96161904D01*
X105552438Y-96161904D02*
X105600057Y-96209523D01*
X105600057Y-96209523D02*
X105695295Y-96257142D01*
X105695295Y-96257142D02*
X105838152Y-96257142D01*
X105838152Y-96257142D02*
X105933390Y-96209523D01*
X105933390Y-96209523D02*
X105981009Y-96161904D01*
X105981009Y-96161904D02*
X106028628Y-96066666D01*
X106028628Y-96066666D02*
X106028628Y-95685714D01*
X106504819Y-97209523D02*
X106504819Y-96638095D01*
X106504819Y-96923809D02*
X105504819Y-96923809D01*
X105504819Y-96923809D02*
X105647676Y-96828571D01*
X105647676Y-96828571D02*
X105742914Y-96733333D01*
X105742914Y-96733333D02*
X105790533Y-96638095D01*
X105504819Y-97828571D02*
X105504819Y-97923809D01*
X105504819Y-97923809D02*
X105552438Y-98019047D01*
X105552438Y-98019047D02*
X105600057Y-98066666D01*
X105600057Y-98066666D02*
X105695295Y-98114285D01*
X105695295Y-98114285D02*
X105885771Y-98161904D01*
X105885771Y-98161904D02*
X106123866Y-98161904D01*
X106123866Y-98161904D02*
X106314342Y-98114285D01*
X106314342Y-98114285D02*
X106409580Y-98066666D01*
X106409580Y-98066666D02*
X106457200Y-98019047D01*
X106457200Y-98019047D02*
X106504819Y-97923809D01*
X106504819Y-97923809D02*
X106504819Y-97828571D01*
X106504819Y-97828571D02*
X106457200Y-97733333D01*
X106457200Y-97733333D02*
X106409580Y-97685714D01*
X106409580Y-97685714D02*
X106314342Y-97638095D01*
X106314342Y-97638095D02*
X106123866Y-97590476D01*
X106123866Y-97590476D02*
X105885771Y-97590476D01*
X105885771Y-97590476D02*
X105695295Y-97638095D01*
X105695295Y-97638095D02*
X105600057Y-97685714D01*
X105600057Y-97685714D02*
X105552438Y-97733333D01*
X105552438Y-97733333D02*
X105504819Y-97828571D01*
X92754819Y-96083333D02*
X92278628Y-95750000D01*
X92754819Y-95511905D02*
X91754819Y-95511905D01*
X91754819Y-95511905D02*
X91754819Y-95892857D01*
X91754819Y-95892857D02*
X91802438Y-95988095D01*
X91802438Y-95988095D02*
X91850057Y-96035714D01*
X91850057Y-96035714D02*
X91945295Y-96083333D01*
X91945295Y-96083333D02*
X92088152Y-96083333D01*
X92088152Y-96083333D02*
X92183390Y-96035714D01*
X92183390Y-96035714D02*
X92231009Y-95988095D01*
X92231009Y-95988095D02*
X92278628Y-95892857D01*
X92278628Y-95892857D02*
X92278628Y-95511905D01*
X92754819Y-96559524D02*
X92754819Y-96750000D01*
X92754819Y-96750000D02*
X92707200Y-96845238D01*
X92707200Y-96845238D02*
X92659580Y-96892857D01*
X92659580Y-96892857D02*
X92516723Y-96988095D01*
X92516723Y-96988095D02*
X92326247Y-97035714D01*
X92326247Y-97035714D02*
X91945295Y-97035714D01*
X91945295Y-97035714D02*
X91850057Y-96988095D01*
X91850057Y-96988095D02*
X91802438Y-96940476D01*
X91802438Y-96940476D02*
X91754819Y-96845238D01*
X91754819Y-96845238D02*
X91754819Y-96654762D01*
X91754819Y-96654762D02*
X91802438Y-96559524D01*
X91802438Y-96559524D02*
X91850057Y-96511905D01*
X91850057Y-96511905D02*
X91945295Y-96464286D01*
X91945295Y-96464286D02*
X92183390Y-96464286D01*
X92183390Y-96464286D02*
X92278628Y-96511905D01*
X92278628Y-96511905D02*
X92326247Y-96559524D01*
X92326247Y-96559524D02*
X92373866Y-96654762D01*
X92373866Y-96654762D02*
X92373866Y-96845238D01*
X92373866Y-96845238D02*
X92326247Y-96940476D01*
X92326247Y-96940476D02*
X92278628Y-96988095D01*
X92278628Y-96988095D02*
X92183390Y-97035714D01*
X91466666Y-68254819D02*
X91799999Y-67778628D01*
X92038094Y-68254819D02*
X92038094Y-67254819D01*
X92038094Y-67254819D02*
X91657142Y-67254819D01*
X91657142Y-67254819D02*
X91561904Y-67302438D01*
X91561904Y-67302438D02*
X91514285Y-67350057D01*
X91514285Y-67350057D02*
X91466666Y-67445295D01*
X91466666Y-67445295D02*
X91466666Y-67588152D01*
X91466666Y-67588152D02*
X91514285Y-67683390D01*
X91514285Y-67683390D02*
X91561904Y-67731009D01*
X91561904Y-67731009D02*
X91657142Y-67778628D01*
X91657142Y-67778628D02*
X92038094Y-67778628D01*
X91085713Y-67350057D02*
X91038094Y-67302438D01*
X91038094Y-67302438D02*
X90942856Y-67254819D01*
X90942856Y-67254819D02*
X90704761Y-67254819D01*
X90704761Y-67254819D02*
X90609523Y-67302438D01*
X90609523Y-67302438D02*
X90561904Y-67350057D01*
X90561904Y-67350057D02*
X90514285Y-67445295D01*
X90514285Y-67445295D02*
X90514285Y-67540533D01*
X90514285Y-67540533D02*
X90561904Y-67683390D01*
X90561904Y-67683390D02*
X91133332Y-68254819D01*
X91133332Y-68254819D02*
X90514285Y-68254819D01*
X90542857Y-65254819D02*
X90876190Y-64778628D01*
X91114285Y-65254819D02*
X91114285Y-64254819D01*
X91114285Y-64254819D02*
X90733333Y-64254819D01*
X90733333Y-64254819D02*
X90638095Y-64302438D01*
X90638095Y-64302438D02*
X90590476Y-64350057D01*
X90590476Y-64350057D02*
X90542857Y-64445295D01*
X90542857Y-64445295D02*
X90542857Y-64588152D01*
X90542857Y-64588152D02*
X90590476Y-64683390D01*
X90590476Y-64683390D02*
X90638095Y-64731009D01*
X90638095Y-64731009D02*
X90733333Y-64778628D01*
X90733333Y-64778628D02*
X91114285Y-64778628D01*
X89590476Y-65254819D02*
X90161904Y-65254819D01*
X89876190Y-65254819D02*
X89876190Y-64254819D01*
X89876190Y-64254819D02*
X89971428Y-64397676D01*
X89971428Y-64397676D02*
X90066666Y-64492914D01*
X90066666Y-64492914D02*
X90161904Y-64540533D01*
X89114285Y-65254819D02*
X88923809Y-65254819D01*
X88923809Y-65254819D02*
X88828571Y-65207200D01*
X88828571Y-65207200D02*
X88780952Y-65159580D01*
X88780952Y-65159580D02*
X88685714Y-65016723D01*
X88685714Y-65016723D02*
X88638095Y-64826247D01*
X88638095Y-64826247D02*
X88638095Y-64445295D01*
X88638095Y-64445295D02*
X88685714Y-64350057D01*
X88685714Y-64350057D02*
X88733333Y-64302438D01*
X88733333Y-64302438D02*
X88828571Y-64254819D01*
X88828571Y-64254819D02*
X89019047Y-64254819D01*
X89019047Y-64254819D02*
X89114285Y-64302438D01*
X89114285Y-64302438D02*
X89161904Y-64350057D01*
X89161904Y-64350057D02*
X89209523Y-64445295D01*
X89209523Y-64445295D02*
X89209523Y-64683390D01*
X89209523Y-64683390D02*
X89161904Y-64778628D01*
X89161904Y-64778628D02*
X89114285Y-64826247D01*
X89114285Y-64826247D02*
X89019047Y-64873866D01*
X89019047Y-64873866D02*
X88828571Y-64873866D01*
X88828571Y-64873866D02*
X88733333Y-64826247D01*
X88733333Y-64826247D02*
X88685714Y-64778628D01*
X88685714Y-64778628D02*
X88638095Y-64683390D01*
X77267857Y-71679819D02*
X77601190Y-71203628D01*
X77839285Y-71679819D02*
X77839285Y-70679819D01*
X77839285Y-70679819D02*
X77458333Y-70679819D01*
X77458333Y-70679819D02*
X77363095Y-70727438D01*
X77363095Y-70727438D02*
X77315476Y-70775057D01*
X77315476Y-70775057D02*
X77267857Y-70870295D01*
X77267857Y-70870295D02*
X77267857Y-71013152D01*
X77267857Y-71013152D02*
X77315476Y-71108390D01*
X77315476Y-71108390D02*
X77363095Y-71156009D01*
X77363095Y-71156009D02*
X77458333Y-71203628D01*
X77458333Y-71203628D02*
X77839285Y-71203628D01*
X76886904Y-70775057D02*
X76839285Y-70727438D01*
X76839285Y-70727438D02*
X76744047Y-70679819D01*
X76744047Y-70679819D02*
X76505952Y-70679819D01*
X76505952Y-70679819D02*
X76410714Y-70727438D01*
X76410714Y-70727438D02*
X76363095Y-70775057D01*
X76363095Y-70775057D02*
X76315476Y-70870295D01*
X76315476Y-70870295D02*
X76315476Y-70965533D01*
X76315476Y-70965533D02*
X76363095Y-71108390D01*
X76363095Y-71108390D02*
X76934523Y-71679819D01*
X76934523Y-71679819D02*
X76315476Y-71679819D01*
X75934523Y-70775057D02*
X75886904Y-70727438D01*
X75886904Y-70727438D02*
X75791666Y-70679819D01*
X75791666Y-70679819D02*
X75553571Y-70679819D01*
X75553571Y-70679819D02*
X75458333Y-70727438D01*
X75458333Y-70727438D02*
X75410714Y-70775057D01*
X75410714Y-70775057D02*
X75363095Y-70870295D01*
X75363095Y-70870295D02*
X75363095Y-70965533D01*
X75363095Y-70965533D02*
X75410714Y-71108390D01*
X75410714Y-71108390D02*
X75982142Y-71679819D01*
X75982142Y-71679819D02*
X75363095Y-71679819D01*
X99761904Y-79104819D02*
X99761904Y-79914342D01*
X99761904Y-79914342D02*
X99714285Y-80009580D01*
X99714285Y-80009580D02*
X99666666Y-80057200D01*
X99666666Y-80057200D02*
X99571428Y-80104819D01*
X99571428Y-80104819D02*
X99380952Y-80104819D01*
X99380952Y-80104819D02*
X99285714Y-80057200D01*
X99285714Y-80057200D02*
X99238095Y-80009580D01*
X99238095Y-80009580D02*
X99190476Y-79914342D01*
X99190476Y-79914342D02*
X99190476Y-79104819D01*
X98809523Y-79104819D02*
X98190476Y-79104819D01*
X98190476Y-79104819D02*
X98523809Y-79485771D01*
X98523809Y-79485771D02*
X98380952Y-79485771D01*
X98380952Y-79485771D02*
X98285714Y-79533390D01*
X98285714Y-79533390D02*
X98238095Y-79581009D01*
X98238095Y-79581009D02*
X98190476Y-79676247D01*
X98190476Y-79676247D02*
X98190476Y-79914342D01*
X98190476Y-79914342D02*
X98238095Y-80009580D01*
X98238095Y-80009580D02*
X98285714Y-80057200D01*
X98285714Y-80057200D02*
X98380952Y-80104819D01*
X98380952Y-80104819D02*
X98666666Y-80104819D01*
X98666666Y-80104819D02*
X98761904Y-80057200D01*
X98761904Y-80057200D02*
X98809523Y-80009580D01*
X90542857Y-63854819D02*
X90876190Y-63378628D01*
X91114285Y-63854819D02*
X91114285Y-62854819D01*
X91114285Y-62854819D02*
X90733333Y-62854819D01*
X90733333Y-62854819D02*
X90638095Y-62902438D01*
X90638095Y-62902438D02*
X90590476Y-62950057D01*
X90590476Y-62950057D02*
X90542857Y-63045295D01*
X90542857Y-63045295D02*
X90542857Y-63188152D01*
X90542857Y-63188152D02*
X90590476Y-63283390D01*
X90590476Y-63283390D02*
X90638095Y-63331009D01*
X90638095Y-63331009D02*
X90733333Y-63378628D01*
X90733333Y-63378628D02*
X91114285Y-63378628D01*
X90161904Y-62950057D02*
X90114285Y-62902438D01*
X90114285Y-62902438D02*
X90019047Y-62854819D01*
X90019047Y-62854819D02*
X89780952Y-62854819D01*
X89780952Y-62854819D02*
X89685714Y-62902438D01*
X89685714Y-62902438D02*
X89638095Y-62950057D01*
X89638095Y-62950057D02*
X89590476Y-63045295D01*
X89590476Y-63045295D02*
X89590476Y-63140533D01*
X89590476Y-63140533D02*
X89638095Y-63283390D01*
X89638095Y-63283390D02*
X90209523Y-63854819D01*
X90209523Y-63854819D02*
X89590476Y-63854819D01*
X89257142Y-62854819D02*
X88638095Y-62854819D01*
X88638095Y-62854819D02*
X88971428Y-63235771D01*
X88971428Y-63235771D02*
X88828571Y-63235771D01*
X88828571Y-63235771D02*
X88733333Y-63283390D01*
X88733333Y-63283390D02*
X88685714Y-63331009D01*
X88685714Y-63331009D02*
X88638095Y-63426247D01*
X88638095Y-63426247D02*
X88638095Y-63664342D01*
X88638095Y-63664342D02*
X88685714Y-63759580D01*
X88685714Y-63759580D02*
X88733333Y-63807200D01*
X88733333Y-63807200D02*
X88828571Y-63854819D01*
X88828571Y-63854819D02*
X89114285Y-63854819D01*
X89114285Y-63854819D02*
X89209523Y-63807200D01*
X89209523Y-63807200D02*
X89257142Y-63759580D01*
X100166666Y-70004819D02*
X100499999Y-69528628D01*
X100738094Y-70004819D02*
X100738094Y-69004819D01*
X100738094Y-69004819D02*
X100357142Y-69004819D01*
X100357142Y-69004819D02*
X100261904Y-69052438D01*
X100261904Y-69052438D02*
X100214285Y-69100057D01*
X100214285Y-69100057D02*
X100166666Y-69195295D01*
X100166666Y-69195295D02*
X100166666Y-69338152D01*
X100166666Y-69338152D02*
X100214285Y-69433390D01*
X100214285Y-69433390D02*
X100261904Y-69481009D01*
X100261904Y-69481009D02*
X100357142Y-69528628D01*
X100357142Y-69528628D02*
X100738094Y-69528628D01*
X99833332Y-69004819D02*
X99166666Y-69004819D01*
X99166666Y-69004819D02*
X99595237Y-70004819D01*
X97454819Y-77282850D02*
X96978628Y-76949517D01*
X97454819Y-76711422D02*
X96454819Y-76711422D01*
X96454819Y-76711422D02*
X96454819Y-77092374D01*
X96454819Y-77092374D02*
X96502438Y-77187612D01*
X96502438Y-77187612D02*
X96550057Y-77235231D01*
X96550057Y-77235231D02*
X96645295Y-77282850D01*
X96645295Y-77282850D02*
X96788152Y-77282850D01*
X96788152Y-77282850D02*
X96883390Y-77235231D01*
X96883390Y-77235231D02*
X96931009Y-77187612D01*
X96931009Y-77187612D02*
X96978628Y-77092374D01*
X96978628Y-77092374D02*
X96978628Y-76711422D01*
X96454819Y-78187612D02*
X96454819Y-77711422D01*
X96454819Y-77711422D02*
X96931009Y-77663803D01*
X96931009Y-77663803D02*
X96883390Y-77711422D01*
X96883390Y-77711422D02*
X96835771Y-77806660D01*
X96835771Y-77806660D02*
X96835771Y-78044755D01*
X96835771Y-78044755D02*
X96883390Y-78139993D01*
X96883390Y-78139993D02*
X96931009Y-78187612D01*
X96931009Y-78187612D02*
X97026247Y-78235231D01*
X97026247Y-78235231D02*
X97264342Y-78235231D01*
X97264342Y-78235231D02*
X97359580Y-78187612D01*
X97359580Y-78187612D02*
X97407200Y-78139993D01*
X97407200Y-78139993D02*
X97454819Y-78044755D01*
X97454819Y-78044755D02*
X97454819Y-77806660D01*
X97454819Y-77806660D02*
X97407200Y-77711422D01*
X97407200Y-77711422D02*
X97359580Y-77663803D01*
X96054819Y-77357142D02*
X95578628Y-77023809D01*
X96054819Y-76785714D02*
X95054819Y-76785714D01*
X95054819Y-76785714D02*
X95054819Y-77166666D01*
X95054819Y-77166666D02*
X95102438Y-77261904D01*
X95102438Y-77261904D02*
X95150057Y-77309523D01*
X95150057Y-77309523D02*
X95245295Y-77357142D01*
X95245295Y-77357142D02*
X95388152Y-77357142D01*
X95388152Y-77357142D02*
X95483390Y-77309523D01*
X95483390Y-77309523D02*
X95531009Y-77261904D01*
X95531009Y-77261904D02*
X95578628Y-77166666D01*
X95578628Y-77166666D02*
X95578628Y-76785714D01*
X96054819Y-78309523D02*
X96054819Y-77738095D01*
X96054819Y-78023809D02*
X95054819Y-78023809D01*
X95054819Y-78023809D02*
X95197676Y-77928571D01*
X95197676Y-77928571D02*
X95292914Y-77833333D01*
X95292914Y-77833333D02*
X95340533Y-77738095D01*
X95054819Y-78642857D02*
X95054819Y-79309523D01*
X95054819Y-79309523D02*
X96054819Y-78880952D01*
X87861904Y-66654819D02*
X87861904Y-67464342D01*
X87861904Y-67464342D02*
X87814285Y-67559580D01*
X87814285Y-67559580D02*
X87766666Y-67607200D01*
X87766666Y-67607200D02*
X87671428Y-67654819D01*
X87671428Y-67654819D02*
X87480952Y-67654819D01*
X87480952Y-67654819D02*
X87385714Y-67607200D01*
X87385714Y-67607200D02*
X87338095Y-67559580D01*
X87338095Y-67559580D02*
X87290476Y-67464342D01*
X87290476Y-67464342D02*
X87290476Y-66654819D01*
X86861904Y-66750057D02*
X86814285Y-66702438D01*
X86814285Y-66702438D02*
X86719047Y-66654819D01*
X86719047Y-66654819D02*
X86480952Y-66654819D01*
X86480952Y-66654819D02*
X86385714Y-66702438D01*
X86385714Y-66702438D02*
X86338095Y-66750057D01*
X86338095Y-66750057D02*
X86290476Y-66845295D01*
X86290476Y-66845295D02*
X86290476Y-66940533D01*
X86290476Y-66940533D02*
X86338095Y-67083390D01*
X86338095Y-67083390D02*
X86909523Y-67654819D01*
X86909523Y-67654819D02*
X86290476Y-67654819D01*
X101354819Y-76757142D02*
X100878628Y-76423809D01*
X101354819Y-76185714D02*
X100354819Y-76185714D01*
X100354819Y-76185714D02*
X100354819Y-76566666D01*
X100354819Y-76566666D02*
X100402438Y-76661904D01*
X100402438Y-76661904D02*
X100450057Y-76709523D01*
X100450057Y-76709523D02*
X100545295Y-76757142D01*
X100545295Y-76757142D02*
X100688152Y-76757142D01*
X100688152Y-76757142D02*
X100783390Y-76709523D01*
X100783390Y-76709523D02*
X100831009Y-76661904D01*
X100831009Y-76661904D02*
X100878628Y-76566666D01*
X100878628Y-76566666D02*
X100878628Y-76185714D01*
X100354819Y-77090476D02*
X100354819Y-77709523D01*
X100354819Y-77709523D02*
X100735771Y-77376190D01*
X100735771Y-77376190D02*
X100735771Y-77519047D01*
X100735771Y-77519047D02*
X100783390Y-77614285D01*
X100783390Y-77614285D02*
X100831009Y-77661904D01*
X100831009Y-77661904D02*
X100926247Y-77709523D01*
X100926247Y-77709523D02*
X101164342Y-77709523D01*
X101164342Y-77709523D02*
X101259580Y-77661904D01*
X101259580Y-77661904D02*
X101307200Y-77614285D01*
X101307200Y-77614285D02*
X101354819Y-77519047D01*
X101354819Y-77519047D02*
X101354819Y-77233333D01*
X101354819Y-77233333D02*
X101307200Y-77138095D01*
X101307200Y-77138095D02*
X101259580Y-77090476D01*
X100354819Y-78328571D02*
X100354819Y-78423809D01*
X100354819Y-78423809D02*
X100402438Y-78519047D01*
X100402438Y-78519047D02*
X100450057Y-78566666D01*
X100450057Y-78566666D02*
X100545295Y-78614285D01*
X100545295Y-78614285D02*
X100735771Y-78661904D01*
X100735771Y-78661904D02*
X100973866Y-78661904D01*
X100973866Y-78661904D02*
X101164342Y-78614285D01*
X101164342Y-78614285D02*
X101259580Y-78566666D01*
X101259580Y-78566666D02*
X101307200Y-78519047D01*
X101307200Y-78519047D02*
X101354819Y-78423809D01*
X101354819Y-78423809D02*
X101354819Y-78328571D01*
X101354819Y-78328571D02*
X101307200Y-78233333D01*
X101307200Y-78233333D02*
X101259580Y-78185714D01*
X101259580Y-78185714D02*
X101164342Y-78138095D01*
X101164342Y-78138095D02*
X100973866Y-78090476D01*
X100973866Y-78090476D02*
X100735771Y-78090476D01*
X100735771Y-78090476D02*
X100545295Y-78138095D01*
X100545295Y-78138095D02*
X100450057Y-78185714D01*
X100450057Y-78185714D02*
X100402438Y-78233333D01*
X100402438Y-78233333D02*
X100354819Y-78328571D01*
X83004768Y-80133333D02*
X82528577Y-79800000D01*
X83004768Y-79561905D02*
X82004768Y-79561905D01*
X82004768Y-79561905D02*
X82004768Y-79942857D01*
X82004768Y-79942857D02*
X82052387Y-80038095D01*
X82052387Y-80038095D02*
X82100006Y-80085714D01*
X82100006Y-80085714D02*
X82195244Y-80133333D01*
X82195244Y-80133333D02*
X82338101Y-80133333D01*
X82338101Y-80133333D02*
X82433339Y-80085714D01*
X82433339Y-80085714D02*
X82480958Y-80038095D01*
X82480958Y-80038095D02*
X82528577Y-79942857D01*
X82528577Y-79942857D02*
X82528577Y-79561905D01*
X83004768Y-81085714D02*
X83004768Y-80514286D01*
X83004768Y-80800000D02*
X82004768Y-80800000D01*
X82004768Y-80800000D02*
X82147625Y-80704762D01*
X82147625Y-80704762D02*
X82242863Y-80609524D01*
X82242863Y-80609524D02*
X82290482Y-80514286D01*
X77292857Y-76254819D02*
X77626190Y-75778628D01*
X77864285Y-76254819D02*
X77864285Y-75254819D01*
X77864285Y-75254819D02*
X77483333Y-75254819D01*
X77483333Y-75254819D02*
X77388095Y-75302438D01*
X77388095Y-75302438D02*
X77340476Y-75350057D01*
X77340476Y-75350057D02*
X77292857Y-75445295D01*
X77292857Y-75445295D02*
X77292857Y-75588152D01*
X77292857Y-75588152D02*
X77340476Y-75683390D01*
X77340476Y-75683390D02*
X77388095Y-75731009D01*
X77388095Y-75731009D02*
X77483333Y-75778628D01*
X77483333Y-75778628D02*
X77864285Y-75778628D01*
X76911904Y-75350057D02*
X76864285Y-75302438D01*
X76864285Y-75302438D02*
X76769047Y-75254819D01*
X76769047Y-75254819D02*
X76530952Y-75254819D01*
X76530952Y-75254819D02*
X76435714Y-75302438D01*
X76435714Y-75302438D02*
X76388095Y-75350057D01*
X76388095Y-75350057D02*
X76340476Y-75445295D01*
X76340476Y-75445295D02*
X76340476Y-75540533D01*
X76340476Y-75540533D02*
X76388095Y-75683390D01*
X76388095Y-75683390D02*
X76959523Y-76254819D01*
X76959523Y-76254819D02*
X76340476Y-76254819D01*
X75388095Y-76254819D02*
X75959523Y-76254819D01*
X75673809Y-76254819D02*
X75673809Y-75254819D01*
X75673809Y-75254819D02*
X75769047Y-75397676D01*
X75769047Y-75397676D02*
X75864285Y-75492914D01*
X75864285Y-75492914D02*
X75959523Y-75540533D01*
X86104819Y-80511511D02*
X85628628Y-80178178D01*
X86104819Y-79940083D02*
X85104819Y-79940083D01*
X85104819Y-79940083D02*
X85104819Y-80321035D01*
X85104819Y-80321035D02*
X85152438Y-80416273D01*
X85152438Y-80416273D02*
X85200057Y-80463892D01*
X85200057Y-80463892D02*
X85295295Y-80511511D01*
X85295295Y-80511511D02*
X85438152Y-80511511D01*
X85438152Y-80511511D02*
X85533390Y-80463892D01*
X85533390Y-80463892D02*
X85581009Y-80416273D01*
X85581009Y-80416273D02*
X85628628Y-80321035D01*
X85628628Y-80321035D02*
X85628628Y-79940083D01*
X85200057Y-80892464D02*
X85152438Y-80940083D01*
X85152438Y-80940083D02*
X85104819Y-81035321D01*
X85104819Y-81035321D02*
X85104819Y-81273416D01*
X85104819Y-81273416D02*
X85152438Y-81368654D01*
X85152438Y-81368654D02*
X85200057Y-81416273D01*
X85200057Y-81416273D02*
X85295295Y-81463892D01*
X85295295Y-81463892D02*
X85390533Y-81463892D01*
X85390533Y-81463892D02*
X85533390Y-81416273D01*
X85533390Y-81416273D02*
X86104819Y-80844845D01*
X86104819Y-80844845D02*
X86104819Y-81463892D01*
X85438152Y-82321035D02*
X86104819Y-82321035D01*
X85057200Y-82082940D02*
X85771485Y-81844845D01*
X85771485Y-81844845D02*
X85771485Y-82463892D01*
X99004819Y-77233333D02*
X98528628Y-76900000D01*
X99004819Y-76661905D02*
X98004819Y-76661905D01*
X98004819Y-76661905D02*
X98004819Y-77042857D01*
X98004819Y-77042857D02*
X98052438Y-77138095D01*
X98052438Y-77138095D02*
X98100057Y-77185714D01*
X98100057Y-77185714D02*
X98195295Y-77233333D01*
X98195295Y-77233333D02*
X98338152Y-77233333D01*
X98338152Y-77233333D02*
X98433390Y-77185714D01*
X98433390Y-77185714D02*
X98481009Y-77138095D01*
X98481009Y-77138095D02*
X98528628Y-77042857D01*
X98528628Y-77042857D02*
X98528628Y-76661905D01*
X98004819Y-78090476D02*
X98004819Y-77900000D01*
X98004819Y-77900000D02*
X98052438Y-77804762D01*
X98052438Y-77804762D02*
X98100057Y-77757143D01*
X98100057Y-77757143D02*
X98242914Y-77661905D01*
X98242914Y-77661905D02*
X98433390Y-77614286D01*
X98433390Y-77614286D02*
X98814342Y-77614286D01*
X98814342Y-77614286D02*
X98909580Y-77661905D01*
X98909580Y-77661905D02*
X98957200Y-77709524D01*
X98957200Y-77709524D02*
X99004819Y-77804762D01*
X99004819Y-77804762D02*
X99004819Y-77995238D01*
X99004819Y-77995238D02*
X98957200Y-78090476D01*
X98957200Y-78090476D02*
X98909580Y-78138095D01*
X98909580Y-78138095D02*
X98814342Y-78185714D01*
X98814342Y-78185714D02*
X98576247Y-78185714D01*
X98576247Y-78185714D02*
X98481009Y-78138095D01*
X98481009Y-78138095D02*
X98433390Y-78090476D01*
X98433390Y-78090476D02*
X98385771Y-77995238D01*
X98385771Y-77995238D02*
X98385771Y-77804762D01*
X98385771Y-77804762D02*
X98433390Y-77709524D01*
X98433390Y-77709524D02*
X98481009Y-77661905D01*
X98481009Y-77661905D02*
X98576247Y-77614286D01*
X84454768Y-80511511D02*
X83978577Y-80178178D01*
X84454768Y-79940083D02*
X83454768Y-79940083D01*
X83454768Y-79940083D02*
X83454768Y-80321035D01*
X83454768Y-80321035D02*
X83502387Y-80416273D01*
X83502387Y-80416273D02*
X83550006Y-80463892D01*
X83550006Y-80463892D02*
X83645244Y-80511511D01*
X83645244Y-80511511D02*
X83788101Y-80511511D01*
X83788101Y-80511511D02*
X83883339Y-80463892D01*
X83883339Y-80463892D02*
X83930958Y-80416273D01*
X83930958Y-80416273D02*
X83978577Y-80321035D01*
X83978577Y-80321035D02*
X83978577Y-79940083D01*
X84454768Y-81463892D02*
X84454768Y-80892464D01*
X84454768Y-81178178D02*
X83454768Y-81178178D01*
X83454768Y-81178178D02*
X83597625Y-81082940D01*
X83597625Y-81082940D02*
X83692863Y-80987702D01*
X83692863Y-80987702D02*
X83740482Y-80892464D01*
X83454768Y-82321035D02*
X83454768Y-82130559D01*
X83454768Y-82130559D02*
X83502387Y-82035321D01*
X83502387Y-82035321D02*
X83550006Y-81987702D01*
X83550006Y-81987702D02*
X83692863Y-81892464D01*
X83692863Y-81892464D02*
X83883339Y-81844845D01*
X83883339Y-81844845D02*
X84264291Y-81844845D01*
X84264291Y-81844845D02*
X84359529Y-81892464D01*
X84359529Y-81892464D02*
X84407149Y-81940083D01*
X84407149Y-81940083D02*
X84454768Y-82035321D01*
X84454768Y-82035321D02*
X84454768Y-82225797D01*
X84454768Y-82225797D02*
X84407149Y-82321035D01*
X84407149Y-82321035D02*
X84359529Y-82368654D01*
X84359529Y-82368654D02*
X84264291Y-82416273D01*
X84264291Y-82416273D02*
X84026196Y-82416273D01*
X84026196Y-82416273D02*
X83930958Y-82368654D01*
X83930958Y-82368654D02*
X83883339Y-82321035D01*
X83883339Y-82321035D02*
X83835720Y-82225797D01*
X83835720Y-82225797D02*
X83835720Y-82035321D01*
X83835720Y-82035321D02*
X83883339Y-81940083D01*
X83883339Y-81940083D02*
X83930958Y-81892464D01*
X83930958Y-81892464D02*
X84026196Y-81844845D01*
X89304819Y-96257142D02*
X88828628Y-95923809D01*
X89304819Y-95685714D02*
X88304819Y-95685714D01*
X88304819Y-95685714D02*
X88304819Y-96066666D01*
X88304819Y-96066666D02*
X88352438Y-96161904D01*
X88352438Y-96161904D02*
X88400057Y-96209523D01*
X88400057Y-96209523D02*
X88495295Y-96257142D01*
X88495295Y-96257142D02*
X88638152Y-96257142D01*
X88638152Y-96257142D02*
X88733390Y-96209523D01*
X88733390Y-96209523D02*
X88781009Y-96161904D01*
X88781009Y-96161904D02*
X88828628Y-96066666D01*
X88828628Y-96066666D02*
X88828628Y-95685714D01*
X89304819Y-97209523D02*
X89304819Y-96638095D01*
X89304819Y-96923809D02*
X88304819Y-96923809D01*
X88304819Y-96923809D02*
X88447676Y-96828571D01*
X88447676Y-96828571D02*
X88542914Y-96733333D01*
X88542914Y-96733333D02*
X88590533Y-96638095D01*
X88304819Y-98114285D02*
X88304819Y-97638095D01*
X88304819Y-97638095D02*
X88781009Y-97590476D01*
X88781009Y-97590476D02*
X88733390Y-97638095D01*
X88733390Y-97638095D02*
X88685771Y-97733333D01*
X88685771Y-97733333D02*
X88685771Y-97971428D01*
X88685771Y-97971428D02*
X88733390Y-98066666D01*
X88733390Y-98066666D02*
X88781009Y-98114285D01*
X88781009Y-98114285D02*
X88876247Y-98161904D01*
X88876247Y-98161904D02*
X89114342Y-98161904D01*
X89114342Y-98161904D02*
X89209580Y-98114285D01*
X89209580Y-98114285D02*
X89257200Y-98066666D01*
X89257200Y-98066666D02*
X89304819Y-97971428D01*
X89304819Y-97971428D02*
X89304819Y-97733333D01*
X89304819Y-97733333D02*
X89257200Y-97638095D01*
X89257200Y-97638095D02*
X89209580Y-97590476D01*
X77317857Y-77779819D02*
X77651190Y-77303628D01*
X77889285Y-77779819D02*
X77889285Y-76779819D01*
X77889285Y-76779819D02*
X77508333Y-76779819D01*
X77508333Y-76779819D02*
X77413095Y-76827438D01*
X77413095Y-76827438D02*
X77365476Y-76875057D01*
X77365476Y-76875057D02*
X77317857Y-76970295D01*
X77317857Y-76970295D02*
X77317857Y-77113152D01*
X77317857Y-77113152D02*
X77365476Y-77208390D01*
X77365476Y-77208390D02*
X77413095Y-77256009D01*
X77413095Y-77256009D02*
X77508333Y-77303628D01*
X77508333Y-77303628D02*
X77889285Y-77303628D01*
X76984523Y-76779819D02*
X76365476Y-76779819D01*
X76365476Y-76779819D02*
X76698809Y-77160771D01*
X76698809Y-77160771D02*
X76555952Y-77160771D01*
X76555952Y-77160771D02*
X76460714Y-77208390D01*
X76460714Y-77208390D02*
X76413095Y-77256009D01*
X76413095Y-77256009D02*
X76365476Y-77351247D01*
X76365476Y-77351247D02*
X76365476Y-77589342D01*
X76365476Y-77589342D02*
X76413095Y-77684580D01*
X76413095Y-77684580D02*
X76460714Y-77732200D01*
X76460714Y-77732200D02*
X76555952Y-77779819D01*
X76555952Y-77779819D02*
X76841666Y-77779819D01*
X76841666Y-77779819D02*
X76936904Y-77732200D01*
X76936904Y-77732200D02*
X76984523Y-77684580D01*
X75413095Y-77779819D02*
X75984523Y-77779819D01*
X75698809Y-77779819D02*
X75698809Y-76779819D01*
X75698809Y-76779819D02*
X75794047Y-76922676D01*
X75794047Y-76922676D02*
X75889285Y-77017914D01*
X75889285Y-77017914D02*
X75984523Y-77065533D01*
X77267857Y-74779819D02*
X77601190Y-74303628D01*
X77839285Y-74779819D02*
X77839285Y-73779819D01*
X77839285Y-73779819D02*
X77458333Y-73779819D01*
X77458333Y-73779819D02*
X77363095Y-73827438D01*
X77363095Y-73827438D02*
X77315476Y-73875057D01*
X77315476Y-73875057D02*
X77267857Y-73970295D01*
X77267857Y-73970295D02*
X77267857Y-74113152D01*
X77267857Y-74113152D02*
X77315476Y-74208390D01*
X77315476Y-74208390D02*
X77363095Y-74256009D01*
X77363095Y-74256009D02*
X77458333Y-74303628D01*
X77458333Y-74303628D02*
X77839285Y-74303628D01*
X76886904Y-73875057D02*
X76839285Y-73827438D01*
X76839285Y-73827438D02*
X76744047Y-73779819D01*
X76744047Y-73779819D02*
X76505952Y-73779819D01*
X76505952Y-73779819D02*
X76410714Y-73827438D01*
X76410714Y-73827438D02*
X76363095Y-73875057D01*
X76363095Y-73875057D02*
X76315476Y-73970295D01*
X76315476Y-73970295D02*
X76315476Y-74065533D01*
X76315476Y-74065533D02*
X76363095Y-74208390D01*
X76363095Y-74208390D02*
X76934523Y-74779819D01*
X76934523Y-74779819D02*
X76315476Y-74779819D01*
X75839285Y-74779819D02*
X75648809Y-74779819D01*
X75648809Y-74779819D02*
X75553571Y-74732200D01*
X75553571Y-74732200D02*
X75505952Y-74684580D01*
X75505952Y-74684580D02*
X75410714Y-74541723D01*
X75410714Y-74541723D02*
X75363095Y-74351247D01*
X75363095Y-74351247D02*
X75363095Y-73970295D01*
X75363095Y-73970295D02*
X75410714Y-73875057D01*
X75410714Y-73875057D02*
X75458333Y-73827438D01*
X75458333Y-73827438D02*
X75553571Y-73779819D01*
X75553571Y-73779819D02*
X75744047Y-73779819D01*
X75744047Y-73779819D02*
X75839285Y-73827438D01*
X75839285Y-73827438D02*
X75886904Y-73875057D01*
X75886904Y-73875057D02*
X75934523Y-73970295D01*
X75934523Y-73970295D02*
X75934523Y-74208390D01*
X75934523Y-74208390D02*
X75886904Y-74303628D01*
X75886904Y-74303628D02*
X75839285Y-74351247D01*
X75839285Y-74351247D02*
X75744047Y-74398866D01*
X75744047Y-74398866D02*
X75553571Y-74398866D01*
X75553571Y-74398866D02*
X75458333Y-74351247D01*
X75458333Y-74351247D02*
X75410714Y-74303628D01*
X75410714Y-74303628D02*
X75363095Y-74208390D01*
X100442857Y-73054819D02*
X100776190Y-72578628D01*
X101014285Y-73054819D02*
X101014285Y-72054819D01*
X101014285Y-72054819D02*
X100633333Y-72054819D01*
X100633333Y-72054819D02*
X100538095Y-72102438D01*
X100538095Y-72102438D02*
X100490476Y-72150057D01*
X100490476Y-72150057D02*
X100442857Y-72245295D01*
X100442857Y-72245295D02*
X100442857Y-72388152D01*
X100442857Y-72388152D02*
X100490476Y-72483390D01*
X100490476Y-72483390D02*
X100538095Y-72531009D01*
X100538095Y-72531009D02*
X100633333Y-72578628D01*
X100633333Y-72578628D02*
X101014285Y-72578628D01*
X99490476Y-73054819D02*
X100061904Y-73054819D01*
X99776190Y-73054819D02*
X99776190Y-72054819D01*
X99776190Y-72054819D02*
X99871428Y-72197676D01*
X99871428Y-72197676D02*
X99966666Y-72292914D01*
X99966666Y-72292914D02*
X100061904Y-72340533D01*
X98633333Y-72388152D02*
X98633333Y-73054819D01*
X98871428Y-72007200D02*
X99109523Y-72721485D01*
X99109523Y-72721485D02*
X98490476Y-72721485D01*
X87605328Y-89216352D02*
X87129137Y-88883019D01*
X87605328Y-88644924D02*
X86605328Y-88644924D01*
X86605328Y-88644924D02*
X86605328Y-89025876D01*
X86605328Y-89025876D02*
X86652947Y-89121114D01*
X86652947Y-89121114D02*
X86700566Y-89168733D01*
X86700566Y-89168733D02*
X86795804Y-89216352D01*
X86795804Y-89216352D02*
X86938661Y-89216352D01*
X86938661Y-89216352D02*
X87033899Y-89168733D01*
X87033899Y-89168733D02*
X87081518Y-89121114D01*
X87081518Y-89121114D02*
X87129137Y-89025876D01*
X87129137Y-89025876D02*
X87129137Y-88644924D01*
X86700566Y-89597305D02*
X86652947Y-89644924D01*
X86652947Y-89644924D02*
X86605328Y-89740162D01*
X86605328Y-89740162D02*
X86605328Y-89978257D01*
X86605328Y-89978257D02*
X86652947Y-90073495D01*
X86652947Y-90073495D02*
X86700566Y-90121114D01*
X86700566Y-90121114D02*
X86795804Y-90168733D01*
X86795804Y-90168733D02*
X86891042Y-90168733D01*
X86891042Y-90168733D02*
X87033899Y-90121114D01*
X87033899Y-90121114D02*
X87605328Y-89549686D01*
X87605328Y-89549686D02*
X87605328Y-90168733D01*
X86605328Y-90502067D02*
X86605328Y-91168733D01*
X86605328Y-91168733D02*
X87605328Y-90740162D01*
X105054819Y-96357142D02*
X104578628Y-96023809D01*
X105054819Y-95785714D02*
X104054819Y-95785714D01*
X104054819Y-95785714D02*
X104054819Y-96166666D01*
X104054819Y-96166666D02*
X104102438Y-96261904D01*
X104102438Y-96261904D02*
X104150057Y-96309523D01*
X104150057Y-96309523D02*
X104245295Y-96357142D01*
X104245295Y-96357142D02*
X104388152Y-96357142D01*
X104388152Y-96357142D02*
X104483390Y-96309523D01*
X104483390Y-96309523D02*
X104531009Y-96261904D01*
X104531009Y-96261904D02*
X104578628Y-96166666D01*
X104578628Y-96166666D02*
X104578628Y-95785714D01*
X105054819Y-97309523D02*
X105054819Y-96738095D01*
X105054819Y-97023809D02*
X104054819Y-97023809D01*
X104054819Y-97023809D02*
X104197676Y-96928571D01*
X104197676Y-96928571D02*
X104292914Y-96833333D01*
X104292914Y-96833333D02*
X104340533Y-96738095D01*
X104150057Y-97690476D02*
X104102438Y-97738095D01*
X104102438Y-97738095D02*
X104054819Y-97833333D01*
X104054819Y-97833333D02*
X104054819Y-98071428D01*
X104054819Y-98071428D02*
X104102438Y-98166666D01*
X104102438Y-98166666D02*
X104150057Y-98214285D01*
X104150057Y-98214285D02*
X104245295Y-98261904D01*
X104245295Y-98261904D02*
X104340533Y-98261904D01*
X104340533Y-98261904D02*
X104483390Y-98214285D01*
X104483390Y-98214285D02*
X105054819Y-97642857D01*
X105054819Y-97642857D02*
X105054819Y-98261904D01*
X70433333Y-69654819D02*
X70433333Y-70369104D01*
X70433333Y-70369104D02*
X70480952Y-70511961D01*
X70480952Y-70511961D02*
X70576190Y-70607200D01*
X70576190Y-70607200D02*
X70719047Y-70654819D01*
X70719047Y-70654819D02*
X70814285Y-70654819D01*
X70052380Y-69654819D02*
X69433333Y-69654819D01*
X69433333Y-69654819D02*
X69766666Y-70035771D01*
X69766666Y-70035771D02*
X69623809Y-70035771D01*
X69623809Y-70035771D02*
X69528571Y-70083390D01*
X69528571Y-70083390D02*
X69480952Y-70131009D01*
X69480952Y-70131009D02*
X69433333Y-70226247D01*
X69433333Y-70226247D02*
X69433333Y-70464342D01*
X69433333Y-70464342D02*
X69480952Y-70559580D01*
X69480952Y-70559580D02*
X69528571Y-70607200D01*
X69528571Y-70607200D02*
X69623809Y-70654819D01*
X69623809Y-70654819D02*
X69909523Y-70654819D01*
X69909523Y-70654819D02*
X70004761Y-70607200D01*
X70004761Y-70607200D02*
X70052380Y-70559580D01*
X91442857Y-66754819D02*
X91776190Y-66278628D01*
X92014285Y-66754819D02*
X92014285Y-65754819D01*
X92014285Y-65754819D02*
X91633333Y-65754819D01*
X91633333Y-65754819D02*
X91538095Y-65802438D01*
X91538095Y-65802438D02*
X91490476Y-65850057D01*
X91490476Y-65850057D02*
X91442857Y-65945295D01*
X91442857Y-65945295D02*
X91442857Y-66088152D01*
X91442857Y-66088152D02*
X91490476Y-66183390D01*
X91490476Y-66183390D02*
X91538095Y-66231009D01*
X91538095Y-66231009D02*
X91633333Y-66278628D01*
X91633333Y-66278628D02*
X92014285Y-66278628D01*
X91061904Y-65850057D02*
X91014285Y-65802438D01*
X91014285Y-65802438D02*
X90919047Y-65754819D01*
X90919047Y-65754819D02*
X90680952Y-65754819D01*
X90680952Y-65754819D02*
X90585714Y-65802438D01*
X90585714Y-65802438D02*
X90538095Y-65850057D01*
X90538095Y-65850057D02*
X90490476Y-65945295D01*
X90490476Y-65945295D02*
X90490476Y-66040533D01*
X90490476Y-66040533D02*
X90538095Y-66183390D01*
X90538095Y-66183390D02*
X91109523Y-66754819D01*
X91109523Y-66754819D02*
X90490476Y-66754819D01*
X89871428Y-65754819D02*
X89776190Y-65754819D01*
X89776190Y-65754819D02*
X89680952Y-65802438D01*
X89680952Y-65802438D02*
X89633333Y-65850057D01*
X89633333Y-65850057D02*
X89585714Y-65945295D01*
X89585714Y-65945295D02*
X89538095Y-66135771D01*
X89538095Y-66135771D02*
X89538095Y-66373866D01*
X89538095Y-66373866D02*
X89585714Y-66564342D01*
X89585714Y-66564342D02*
X89633333Y-66659580D01*
X89633333Y-66659580D02*
X89680952Y-66707200D01*
X89680952Y-66707200D02*
X89776190Y-66754819D01*
X89776190Y-66754819D02*
X89871428Y-66754819D01*
X89871428Y-66754819D02*
X89966666Y-66707200D01*
X89966666Y-66707200D02*
X90014285Y-66659580D01*
X90014285Y-66659580D02*
X90061904Y-66564342D01*
X90061904Y-66564342D02*
X90109523Y-66373866D01*
X90109523Y-66373866D02*
X90109523Y-66135771D01*
X90109523Y-66135771D02*
X90061904Y-65945295D01*
X90061904Y-65945295D02*
X90014285Y-65850057D01*
X90014285Y-65850057D02*
X89966666Y-65802438D01*
X89966666Y-65802438D02*
X89871428Y-65754819D01*
X100442857Y-74654819D02*
X100776190Y-74178628D01*
X101014285Y-74654819D02*
X101014285Y-73654819D01*
X101014285Y-73654819D02*
X100633333Y-73654819D01*
X100633333Y-73654819D02*
X100538095Y-73702438D01*
X100538095Y-73702438D02*
X100490476Y-73750057D01*
X100490476Y-73750057D02*
X100442857Y-73845295D01*
X100442857Y-73845295D02*
X100442857Y-73988152D01*
X100442857Y-73988152D02*
X100490476Y-74083390D01*
X100490476Y-74083390D02*
X100538095Y-74131009D01*
X100538095Y-74131009D02*
X100633333Y-74178628D01*
X100633333Y-74178628D02*
X101014285Y-74178628D01*
X99490476Y-74654819D02*
X100061904Y-74654819D01*
X99776190Y-74654819D02*
X99776190Y-73654819D01*
X99776190Y-73654819D02*
X99871428Y-73797676D01*
X99871428Y-73797676D02*
X99966666Y-73892914D01*
X99966666Y-73892914D02*
X100061904Y-73940533D01*
X99157142Y-73654819D02*
X98538095Y-73654819D01*
X98538095Y-73654819D02*
X98871428Y-74035771D01*
X98871428Y-74035771D02*
X98728571Y-74035771D01*
X98728571Y-74035771D02*
X98633333Y-74083390D01*
X98633333Y-74083390D02*
X98585714Y-74131009D01*
X98585714Y-74131009D02*
X98538095Y-74226247D01*
X98538095Y-74226247D02*
X98538095Y-74464342D01*
X98538095Y-74464342D02*
X98585714Y-74559580D01*
X98585714Y-74559580D02*
X98633333Y-74607200D01*
X98633333Y-74607200D02*
X98728571Y-74654819D01*
X98728571Y-74654819D02*
X99014285Y-74654819D01*
X99014285Y-74654819D02*
X99109523Y-74607200D01*
X99109523Y-74607200D02*
X99157142Y-74559580D01*
X100166666Y-71454819D02*
X100499999Y-70978628D01*
X100738094Y-71454819D02*
X100738094Y-70454819D01*
X100738094Y-70454819D02*
X100357142Y-70454819D01*
X100357142Y-70454819D02*
X100261904Y-70502438D01*
X100261904Y-70502438D02*
X100214285Y-70550057D01*
X100214285Y-70550057D02*
X100166666Y-70645295D01*
X100166666Y-70645295D02*
X100166666Y-70788152D01*
X100166666Y-70788152D02*
X100214285Y-70883390D01*
X100214285Y-70883390D02*
X100261904Y-70931009D01*
X100261904Y-70931009D02*
X100357142Y-70978628D01*
X100357142Y-70978628D02*
X100738094Y-70978628D01*
X99595237Y-70883390D02*
X99690475Y-70835771D01*
X99690475Y-70835771D02*
X99738094Y-70788152D01*
X99738094Y-70788152D02*
X99785713Y-70692914D01*
X99785713Y-70692914D02*
X99785713Y-70645295D01*
X99785713Y-70645295D02*
X99738094Y-70550057D01*
X99738094Y-70550057D02*
X99690475Y-70502438D01*
X99690475Y-70502438D02*
X99595237Y-70454819D01*
X99595237Y-70454819D02*
X99404761Y-70454819D01*
X99404761Y-70454819D02*
X99309523Y-70502438D01*
X99309523Y-70502438D02*
X99261904Y-70550057D01*
X99261904Y-70550057D02*
X99214285Y-70645295D01*
X99214285Y-70645295D02*
X99214285Y-70692914D01*
X99214285Y-70692914D02*
X99261904Y-70788152D01*
X99261904Y-70788152D02*
X99309523Y-70835771D01*
X99309523Y-70835771D02*
X99404761Y-70883390D01*
X99404761Y-70883390D02*
X99595237Y-70883390D01*
X99595237Y-70883390D02*
X99690475Y-70931009D01*
X99690475Y-70931009D02*
X99738094Y-70978628D01*
X99738094Y-70978628D02*
X99785713Y-71073866D01*
X99785713Y-71073866D02*
X99785713Y-71264342D01*
X99785713Y-71264342D02*
X99738094Y-71359580D01*
X99738094Y-71359580D02*
X99690475Y-71407200D01*
X99690475Y-71407200D02*
X99595237Y-71454819D01*
X99595237Y-71454819D02*
X99404761Y-71454819D01*
X99404761Y-71454819D02*
X99309523Y-71407200D01*
X99309523Y-71407200D02*
X99261904Y-71359580D01*
X99261904Y-71359580D02*
X99214285Y-71264342D01*
X99214285Y-71264342D02*
X99214285Y-71073866D01*
X99214285Y-71073866D02*
X99261904Y-70978628D01*
X99261904Y-70978628D02*
X99309523Y-70931009D01*
X99309523Y-70931009D02*
X99404761Y-70883390D01*
X77267857Y-70154819D02*
X77601190Y-69678628D01*
X77839285Y-70154819D02*
X77839285Y-69154819D01*
X77839285Y-69154819D02*
X77458333Y-69154819D01*
X77458333Y-69154819D02*
X77363095Y-69202438D01*
X77363095Y-69202438D02*
X77315476Y-69250057D01*
X77315476Y-69250057D02*
X77267857Y-69345295D01*
X77267857Y-69345295D02*
X77267857Y-69488152D01*
X77267857Y-69488152D02*
X77315476Y-69583390D01*
X77315476Y-69583390D02*
X77363095Y-69631009D01*
X77363095Y-69631009D02*
X77458333Y-69678628D01*
X77458333Y-69678628D02*
X77839285Y-69678628D01*
X76886904Y-69250057D02*
X76839285Y-69202438D01*
X76839285Y-69202438D02*
X76744047Y-69154819D01*
X76744047Y-69154819D02*
X76505952Y-69154819D01*
X76505952Y-69154819D02*
X76410714Y-69202438D01*
X76410714Y-69202438D02*
X76363095Y-69250057D01*
X76363095Y-69250057D02*
X76315476Y-69345295D01*
X76315476Y-69345295D02*
X76315476Y-69440533D01*
X76315476Y-69440533D02*
X76363095Y-69583390D01*
X76363095Y-69583390D02*
X76934523Y-70154819D01*
X76934523Y-70154819D02*
X76315476Y-70154819D01*
X75744047Y-69583390D02*
X75839285Y-69535771D01*
X75839285Y-69535771D02*
X75886904Y-69488152D01*
X75886904Y-69488152D02*
X75934523Y-69392914D01*
X75934523Y-69392914D02*
X75934523Y-69345295D01*
X75934523Y-69345295D02*
X75886904Y-69250057D01*
X75886904Y-69250057D02*
X75839285Y-69202438D01*
X75839285Y-69202438D02*
X75744047Y-69154819D01*
X75744047Y-69154819D02*
X75553571Y-69154819D01*
X75553571Y-69154819D02*
X75458333Y-69202438D01*
X75458333Y-69202438D02*
X75410714Y-69250057D01*
X75410714Y-69250057D02*
X75363095Y-69345295D01*
X75363095Y-69345295D02*
X75363095Y-69392914D01*
X75363095Y-69392914D02*
X75410714Y-69488152D01*
X75410714Y-69488152D02*
X75458333Y-69535771D01*
X75458333Y-69535771D02*
X75553571Y-69583390D01*
X75553571Y-69583390D02*
X75744047Y-69583390D01*
X75744047Y-69583390D02*
X75839285Y-69631009D01*
X75839285Y-69631009D02*
X75886904Y-69678628D01*
X75886904Y-69678628D02*
X75934523Y-69773866D01*
X75934523Y-69773866D02*
X75934523Y-69964342D01*
X75934523Y-69964342D02*
X75886904Y-70059580D01*
X75886904Y-70059580D02*
X75839285Y-70107200D01*
X75839285Y-70107200D02*
X75744047Y-70154819D01*
X75744047Y-70154819D02*
X75553571Y-70154819D01*
X75553571Y-70154819D02*
X75458333Y-70107200D01*
X75458333Y-70107200D02*
X75410714Y-70059580D01*
X75410714Y-70059580D02*
X75363095Y-69964342D01*
X75363095Y-69964342D02*
X75363095Y-69773866D01*
X75363095Y-69773866D02*
X75410714Y-69678628D01*
X75410714Y-69678628D02*
X75458333Y-69631009D01*
X75458333Y-69631009D02*
X75553571Y-69583390D01*
X87654819Y-80511511D02*
X87178628Y-80178178D01*
X87654819Y-79940083D02*
X86654819Y-79940083D01*
X86654819Y-79940083D02*
X86654819Y-80321035D01*
X86654819Y-80321035D02*
X86702438Y-80416273D01*
X86702438Y-80416273D02*
X86750057Y-80463892D01*
X86750057Y-80463892D02*
X86845295Y-80511511D01*
X86845295Y-80511511D02*
X86988152Y-80511511D01*
X86988152Y-80511511D02*
X87083390Y-80463892D01*
X87083390Y-80463892D02*
X87131009Y-80416273D01*
X87131009Y-80416273D02*
X87178628Y-80321035D01*
X87178628Y-80321035D02*
X87178628Y-79940083D01*
X86750057Y-80892464D02*
X86702438Y-80940083D01*
X86702438Y-80940083D02*
X86654819Y-81035321D01*
X86654819Y-81035321D02*
X86654819Y-81273416D01*
X86654819Y-81273416D02*
X86702438Y-81368654D01*
X86702438Y-81368654D02*
X86750057Y-81416273D01*
X86750057Y-81416273D02*
X86845295Y-81463892D01*
X86845295Y-81463892D02*
X86940533Y-81463892D01*
X86940533Y-81463892D02*
X87083390Y-81416273D01*
X87083390Y-81416273D02*
X87654819Y-80844845D01*
X87654819Y-80844845D02*
X87654819Y-81463892D01*
X86654819Y-82368654D02*
X86654819Y-81892464D01*
X86654819Y-81892464D02*
X87131009Y-81844845D01*
X87131009Y-81844845D02*
X87083390Y-81892464D01*
X87083390Y-81892464D02*
X87035771Y-81987702D01*
X87035771Y-81987702D02*
X87035771Y-82225797D01*
X87035771Y-82225797D02*
X87083390Y-82321035D01*
X87083390Y-82321035D02*
X87131009Y-82368654D01*
X87131009Y-82368654D02*
X87226247Y-82416273D01*
X87226247Y-82416273D02*
X87464342Y-82416273D01*
X87464342Y-82416273D02*
X87559580Y-82368654D01*
X87559580Y-82368654D02*
X87607200Y-82321035D01*
X87607200Y-82321035D02*
X87654819Y-82225797D01*
X87654819Y-82225797D02*
X87654819Y-81987702D01*
X87654819Y-81987702D02*
X87607200Y-81892464D01*
X87607200Y-81892464D02*
X87559580Y-81844845D01*
X91354819Y-96057142D02*
X90878628Y-95723809D01*
X91354819Y-95485714D02*
X90354819Y-95485714D01*
X90354819Y-95485714D02*
X90354819Y-95866666D01*
X90354819Y-95866666D02*
X90402438Y-95961904D01*
X90402438Y-95961904D02*
X90450057Y-96009523D01*
X90450057Y-96009523D02*
X90545295Y-96057142D01*
X90545295Y-96057142D02*
X90688152Y-96057142D01*
X90688152Y-96057142D02*
X90783390Y-96009523D01*
X90783390Y-96009523D02*
X90831009Y-95961904D01*
X90831009Y-95961904D02*
X90878628Y-95866666D01*
X90878628Y-95866666D02*
X90878628Y-95485714D01*
X91354819Y-97009523D02*
X91354819Y-96438095D01*
X91354819Y-96723809D02*
X90354819Y-96723809D01*
X90354819Y-96723809D02*
X90497676Y-96628571D01*
X90497676Y-96628571D02*
X90592914Y-96533333D01*
X90592914Y-96533333D02*
X90640533Y-96438095D01*
X91354819Y-97961904D02*
X91354819Y-97390476D01*
X91354819Y-97676190D02*
X90354819Y-97676190D01*
X90354819Y-97676190D02*
X90497676Y-97580952D01*
X90497676Y-97580952D02*
X90592914Y-97485714D01*
X90592914Y-97485714D02*
X90640533Y-97390476D01*
D11*
%TO.C,U4*%
X101815000Y-74035000D02*
X101815000Y-71575000D01*
X103285000Y-71575000D02*
X103285000Y-74035000D01*
X103285000Y-74035000D02*
X101815000Y-74035000D01*
%TO.C,R26*%
X85128009Y-86763934D02*
X85128009Y-86254486D01*
X86173009Y-86763934D02*
X86173009Y-86254486D01*
%TO.C,R3*%
X81727500Y-67254724D02*
X81727500Y-66745276D01*
X82772500Y-67254724D02*
X82772500Y-66745276D01*
%TO.C,R4*%
X93977500Y-96745276D02*
X93977500Y-97254724D01*
X95022500Y-96745276D02*
X95022500Y-97254724D01*
D12*
%TO.C,U1*%
X69706109Y-82750076D02*
X69706109Y-96250000D01*
X69706109Y-82750076D02*
X72500000Y-82750076D01*
X71250000Y-98250000D02*
X72306160Y-98250102D01*
X71500000Y-98250000D02*
X71573368Y-98250102D01*
X72306160Y-96299530D02*
X82205677Y-96299530D01*
X72306160Y-98250102D02*
X72306160Y-96299530D01*
X77250000Y-82750000D02*
X81500000Y-82750076D01*
X82205677Y-96299530D02*
X82205677Y-96390000D01*
X83706210Y-84000000D02*
X83706210Y-86500000D01*
X83706210Y-88825000D02*
X83710000Y-96290000D01*
D11*
%TO.C,R18*%
X81004724Y-71977500D02*
X80495276Y-71977500D01*
X81004724Y-73022500D02*
X80495276Y-73022500D01*
%TO.C,R10*%
X101477500Y-97254724D02*
X101477500Y-96745276D01*
X102522500Y-97254724D02*
X102522500Y-96745276D01*
%TO.C,R9*%
X98477500Y-97254724D02*
X98477500Y-96745276D01*
X99522500Y-97254724D02*
X99522500Y-96745276D01*
%TO.C,R2*%
X92294044Y-73470612D02*
X92803492Y-73470612D01*
X92294044Y-74515612D02*
X92803492Y-74515612D01*
%TO.C,R19*%
X92294044Y-70470612D02*
X92803492Y-70470612D01*
X92294044Y-71515612D02*
X92803492Y-71515612D01*
%TO.C,R22*%
X81004724Y-70477500D02*
X80495276Y-70477500D01*
X81004724Y-71522500D02*
X80495276Y-71522500D01*
D13*
%TO.C,U3*%
X88356566Y-80711697D02*
X106356616Y-80711697D01*
X88356566Y-80874206D02*
X88519075Y-80711697D01*
X88356566Y-80881547D02*
X88356566Y-80874206D01*
X88356566Y-81003848D02*
X88386868Y-81003848D01*
X88356566Y-81154369D02*
X88424485Y-81154369D01*
X88356566Y-81363411D02*
X89008280Y-80711697D01*
X88356566Y-81380150D02*
X88356566Y-81363411D01*
X88356566Y-94711747D02*
X88356566Y-80711697D01*
X88386868Y-81003848D02*
X88679019Y-80711697D01*
X88424485Y-81154369D02*
X88867157Y-80711697D01*
X106356616Y-80711697D02*
X106356616Y-94711747D01*
X106356616Y-94711747D02*
X88356566Y-94711747D01*
D14*
X88386563Y-80711849D02*
G75*
G02*
X88326569Y-80711849I-29997J0D01*
G01*
X88326569Y-80711849D02*
G75*
G02*
X88386563Y-80711849I29997J0D01*
G01*
D13*
X89498070Y-80411747D02*
G75*
G02*
X89215112Y-80411747I-141479J0D01*
G01*
X89215112Y-80411747D02*
G75*
G02*
X89498070Y-80411747I141479J0D01*
G01*
D11*
%TO.C,R23*%
X92294044Y-68970612D02*
X92803492Y-68970612D01*
X92294044Y-70015612D02*
X92803492Y-70015612D01*
%TO.C,R7*%
X96294044Y-68977500D02*
X96803492Y-68977500D01*
X96294044Y-70022500D02*
X96803492Y-70022500D01*
%TO.C,R5*%
X90977500Y-78104241D02*
X90977500Y-77594793D01*
X92022500Y-78104241D02*
X92022500Y-77594793D01*
%TO.C,R17*%
X89477500Y-77594793D02*
X89477500Y-78104241D01*
X90522500Y-77594793D02*
X90522500Y-78104241D01*
D15*
%TO.C,U2*%
X85006109Y-72970396D02*
X85006109Y-73493637D01*
X85006109Y-73493637D02*
X85529350Y-73493637D01*
X85016269Y-69543751D02*
X85376949Y-69184518D01*
X85016269Y-69714109D02*
X85016269Y-69543751D01*
X85376949Y-69184518D02*
X85503950Y-69184518D01*
X89306337Y-69193408D02*
X88780556Y-69193408D01*
X89306337Y-69719189D02*
X89306337Y-69193408D01*
X89306337Y-72970396D02*
X89306337Y-73493637D01*
X89306337Y-73493637D02*
X88780556Y-73493637D01*
D14*
X85179946Y-69349517D02*
G75*
G02*
X85119952Y-69349517I-29997J0D01*
G01*
X85119952Y-69349517D02*
G75*
G02*
X85179946Y-69349517I29997J0D01*
G01*
D16*
X85961277Y-68702044D02*
G75*
G02*
X85808877Y-68702044I-76200J0D01*
G01*
X85808877Y-68702044D02*
G75*
G02*
X85961277Y-68702044I76200J0D01*
G01*
D11*
%TO.C,R30*%
X102052500Y-75820276D02*
X102052500Y-76329724D01*
X103097500Y-75820276D02*
X103097500Y-76329724D01*
%TO.C,R1*%
X83427551Y-77645276D02*
X83427551Y-78154724D01*
X84472551Y-77645276D02*
X84472551Y-78154724D01*
%TO.C,R21*%
X81004724Y-74977500D02*
X80495276Y-74977500D01*
X81004724Y-76022500D02*
X80495276Y-76022500D01*
%TO.C,R24*%
X86477500Y-77594793D02*
X86477500Y-78104241D01*
X87522500Y-77594793D02*
X87522500Y-78104241D01*
%TO.C,R6*%
X92527500Y-77594793D02*
X92527500Y-78104241D01*
X93572500Y-77594793D02*
X93572500Y-78104241D01*
%TO.C,R16*%
X84977500Y-77594793D02*
X84977500Y-78104241D01*
X86022500Y-77594793D02*
X86022500Y-78104241D01*
%TO.C,R15*%
X95477500Y-97254724D02*
X95477500Y-96745276D01*
X96522500Y-97254724D02*
X96522500Y-96745276D01*
%TO.C,R31*%
X80495276Y-76477500D02*
X81004724Y-76477500D01*
X80495276Y-77522500D02*
X81004724Y-77522500D01*
%TO.C,R29*%
X80495276Y-73477500D02*
X81004724Y-73477500D01*
X80495276Y-74522500D02*
X81004724Y-74522500D01*
%TO.C,R14*%
X96294044Y-72670612D02*
X96803492Y-72670612D01*
X96294044Y-73715612D02*
X96803492Y-73715612D01*
%TO.C,R27*%
X86627933Y-86763934D02*
X86627933Y-86254486D01*
X87672933Y-86763934D02*
X87672933Y-86254486D01*
%TO.C,R12*%
X99977500Y-97254724D02*
X99977500Y-96745276D01*
X101022500Y-97254724D02*
X101022500Y-96745276D01*
D17*
%TO.C,J3*%
X69509995Y-71529997D02*
X71797015Y-71529997D01*
X69509995Y-71783998D02*
X69509995Y-71529997D01*
X69509995Y-73816002D02*
X69509995Y-71783998D01*
X69509995Y-74070003D02*
X69509995Y-73816002D01*
X69509995Y-74070003D02*
X69964859Y-74070003D01*
X71595136Y-74070003D02*
X71797015Y-74070003D01*
X71797015Y-71529997D02*
X71944082Y-71783998D01*
X71944082Y-71783998D02*
X72050000Y-71783998D01*
X71944082Y-73816002D02*
X71797015Y-74070003D01*
X72050000Y-71783998D02*
X72155918Y-71783998D01*
X72050000Y-73816002D02*
X71944082Y-73816002D01*
X72155918Y-71783998D02*
X72302985Y-71529997D01*
X72155918Y-73816002D02*
X72050000Y-73816002D01*
X72302985Y-71529997D02*
X72504864Y-71529997D01*
X72302985Y-74070003D02*
X72155918Y-73816002D01*
X74135141Y-71529997D02*
X74590005Y-71529997D01*
X74590005Y-71529997D02*
X74590005Y-71783998D01*
X74590005Y-71783998D02*
X74590005Y-73816002D01*
X74590005Y-73816002D02*
X74590005Y-74070003D01*
X74590005Y-74070003D02*
X72302985Y-74070003D01*
D14*
X69539967Y-75420015D02*
G75*
G02*
X69480023Y-75420015I-29972J0D01*
G01*
X69480023Y-75420015D02*
G75*
G02*
X69539967Y-75420015I29972J0D01*
G01*
D11*
%TO.C,R20*%
X92294044Y-71970612D02*
X92803492Y-71970612D01*
X92294044Y-73015612D02*
X92803492Y-73015612D01*
%TO.C,R13*%
X96294044Y-74870612D02*
X96803492Y-74870612D01*
X96294044Y-75915612D02*
X96803492Y-75915612D01*
%TO.C,R8*%
X96294044Y-70477500D02*
X96803492Y-70477500D01*
X96294044Y-71522500D02*
X96803492Y-71522500D01*
%TO.C,R28*%
X80555276Y-68987500D02*
X81064724Y-68987500D01*
X80555276Y-70032500D02*
X81064724Y-70032500D01*
%TO.C,R25*%
X87977500Y-77594793D02*
X87977500Y-78104241D01*
X89022500Y-77594793D02*
X89022500Y-78104241D01*
%TO.C,R11*%
X96977500Y-97254724D02*
X96977500Y-96745276D01*
X98022500Y-97254724D02*
X98022500Y-96745276D01*
%TD*%
M02*
