%TF.GenerationSoftware,KiCad,Pcbnew,9.0.2*%
%TF.CreationDate,2025-06-22T16:31:42+02:00*%
%TF.ProjectId,Board,426f6172-642e-46b6-9963-61645f706362,rev?*%
%TF.SameCoordinates,Original*%
%TF.FileFunction,Copper,L1,Top*%
%TF.FilePolarity,Positive*%
%FSLAX46Y46*%
G04 Gerber Fmt 4.6, Leading zero omitted, Abs format (unit mm)*
G04 Created by KiCad (PCBNEW 9.0.2) date 2025-06-22 16:31:42*
%MOMM*%
%LPD*%
G01*
G04 APERTURE LIST*
G04 Aperture macros list*
%AMRoundRect*
0 Rectangle with rounded corners*
0 $1 Rounding radius*
0 $2 $3 $4 $5 $6 $7 $8 $9 X,Y pos of 4 corners*
0 Add a 4 corners polygon primitive as box body*
4,1,4,$2,$3,$4,$5,$6,$7,$8,$9,$2,$3,0*
0 Add four circle primitives for the rounded corners*
1,1,$1+$1,$2,$3*
1,1,$1+$1,$4,$5*
1,1,$1+$1,$6,$7*
1,1,$1+$1,$8,$9*
0 Add four rect primitives between the rounded corners*
20,1,$1+$1,$2,$3,$4,$5,0*
20,1,$1+$1,$4,$5,$6,$7,0*
20,1,$1+$1,$6,$7,$8,$9,0*
20,1,$1+$1,$8,$9,$2,$3,0*%
%AMFreePoly0*
4,1,5,0.635001,-1.715011,-0.635001,-1.715011,-0.635001,1.715011,0.635001,1.715011,0.635001,-1.715011,0.635001,-1.715011,$1*%
G04 Aperture macros list end*
%TA.AperFunction,SMDPad,CuDef*%
%ADD10RoundRect,0.237500X-0.237500X0.300000X-0.237500X-0.300000X0.237500X-0.300000X0.237500X0.300000X0*%
%TD*%
%TA.AperFunction,SMDPad,CuDef*%
%ADD11RoundRect,0.237500X0.300000X0.237500X-0.300000X0.237500X-0.300000X-0.237500X0.300000X-0.237500X0*%
%TD*%
%TA.AperFunction,SMDPad,CuDef*%
%ADD12C,2.000000*%
%TD*%
%TA.AperFunction,SMDPad,CuDef*%
%ADD13RoundRect,0.237500X0.237500X-0.300000X0.237500X0.300000X-0.237500X0.300000X-0.237500X-0.300000X0*%
%TD*%
%TA.AperFunction,SMDPad,CuDef*%
%ADD14RoundRect,0.200000X-0.200000X-1.600000X0.200000X-1.600000X0.200000X1.600000X-0.200000X1.600000X0*%
%TD*%
%TA.AperFunction,SMDPad,CuDef*%
%ADD15RoundRect,0.200000X-0.200000X-1.750000X0.200000X-1.750000X0.200000X1.750000X-0.200000X1.750000X0*%
%TD*%
%TA.AperFunction,SMDPad,CuDef*%
%ADD16FreePoly0,270.000000*%
%TD*%
%TA.AperFunction,SMDPad,CuDef*%
%ADD17RoundRect,0.237500X-0.287500X-0.237500X0.287500X-0.237500X0.287500X0.237500X-0.287500X0.237500X0*%
%TD*%
%TA.AperFunction,SMDPad,CuDef*%
%ADD18RoundRect,0.237500X0.250000X0.237500X-0.250000X0.237500X-0.250000X-0.237500X0.250000X-0.237500X0*%
%TD*%
%TA.AperFunction,SMDPad,CuDef*%
%ADD19RoundRect,0.237500X-0.300000X-0.237500X0.300000X-0.237500X0.300000X0.237500X-0.300000X0.237500X0*%
%TD*%
%TA.AperFunction,ViaPad*%
%ADD20C,0.800000*%
%TD*%
%TA.AperFunction,ViaPad*%
%ADD21C,0.600000*%
%TD*%
%TA.AperFunction,ViaPad*%
%ADD22C,0.450000*%
%TD*%
%TA.AperFunction,ViaPad*%
%ADD23C,0.550000*%
%TD*%
%TA.AperFunction,Conductor*%
%ADD24C,0.150000*%
%TD*%
%TA.AperFunction,Conductor*%
%ADD25C,0.600000*%
%TD*%
%TA.AperFunction,Conductor*%
%ADD26C,0.400000*%
%TD*%
%TA.AperFunction,Conductor*%
%ADD27C,0.500000*%
%TD*%
%TA.AperFunction,Conductor*%
%ADD28C,1.000000*%
%TD*%
%TA.AperFunction,Conductor*%
%ADD29C,0.200000*%
%TD*%
G04 APERTURE END LIST*
D10*
%TO.P,C5,1,1*%
%TO.N,P3V3*%
X105200000Y-89437525D03*
%TO.P,C5,2,2*%
%TO.N,GND*%
X105200000Y-91162525D03*
%TD*%
D11*
%TO.P,C8,1,1*%
%TO.N,GND*%
X88062500Y-73200000D03*
%TO.P,C8,2,2*%
%TO.N,P3V3*%
X86337500Y-73200000D03*
%TD*%
D12*
%TO.P,TP1,1,1*%
%TO.N,Net-(U1-DETECT-SW)*%
X75850000Y-79150000D03*
%TD*%
%TO.P,TP2,1,1*%
%TO.N,Net-(U1-DETECT_LEVER)*%
X82600000Y-88250000D03*
%TD*%
D10*
%TO.P,C3,1,1*%
%TO.N,Net-(U3B-VDDIM)*%
X90000000Y-86577525D03*
%TO.P,C3,2,2*%
%TO.N,GND*%
X90000000Y-88302525D03*
%TD*%
D11*
%TO.P,C10,1,1*%
%TO.N,GND*%
X79112500Y-91400000D03*
%TO.P,C10,2,2*%
%TO.N,P3V3*%
X77387500Y-91400000D03*
%TD*%
%TO.P,C2,1,1*%
%TO.N,GND*%
X89662500Y-67100000D03*
%TO.P,C2,2,2*%
%TO.N,P3V3_SD*%
X87937500Y-67100000D03*
%TD*%
D13*
%TO.P,C1,1,1*%
%TO.N,GND*%
X91700000Y-88302525D03*
%TO.P,C1,2,2*%
%TO.N,Net-(U3B-VDDIM)*%
X91700000Y-86577525D03*
%TD*%
D14*
%TO.P,J1,1,DAT2/NC*%
%TO.N,/PAD_uSD_DAT2*%
X83400000Y-48210414D03*
%TO.P,J1,2,DAT3/CS*%
%TO.N,/PAD_uSD_DAT3*%
X84500000Y-48210414D03*
%TO.P,J1,3,CMD/SDI*%
%TO.N,/PAD_uSD_CMD*%
X85600000Y-48210414D03*
D15*
%TO.P,J1,4,VDD*%
%TO.N,P3V3_SD*%
X86700000Y-48060414D03*
D14*
%TO.P,J1,5,CLK/SCLK*%
%TO.N,/PAD_uSD_SCLK*%
X87800000Y-48210414D03*
D15*
%TO.P,J1,6,GND*%
%TO.N,GND*%
X88900000Y-48060414D03*
D14*
%TO.P,J1,7,DAT0/SDO*%
%TO.N,/PAD_uSD_DAT0*%
X90000000Y-48210414D03*
%TO.P,J1,8,DAT1/NC*%
%TO.N,/PAD_uSD_DAT1*%
X91100000Y-48210414D03*
%TD*%
D16*
%TO.P,J2,1,1*%
%TO.N,P3V3_SD*%
X83209995Y-66979997D03*
%TO.P,J2,2,2*%
%TO.N,P3V3*%
X80290005Y-69520003D03*
%TD*%
D17*
%TO.P,U5,1,K*%
%TO.N,Net-(U5-K)*%
X76725000Y-71500000D03*
%TO.P,U5,2,A*%
%TO.N,P3V3*%
X78475000Y-71500000D03*
%TD*%
D10*
%TO.P,C9,1,1*%
%TO.N,GND*%
X85700000Y-69537500D03*
%TO.P,C9,2,2*%
%TO.N,P3V3*%
X85700000Y-71262500D03*
%TD*%
D13*
%TO.P,C4,1,1*%
%TO.N,GND*%
X103300000Y-91162525D03*
%TO.P,C4,2,2*%
%TO.N,P3V3*%
X103300000Y-89437525D03*
%TD*%
D11*
%TO.P,C6,1,1*%
%TO.N,GND*%
X96162500Y-81550000D03*
%TO.P,C6,2,2*%
%TO.N,P3V3*%
X94437500Y-81550000D03*
%TD*%
D18*
%TO.P,R32,1*%
%TO.N,Net-(U5-K)*%
X75059134Y-71500000D03*
%TO.P,R32,2*%
%TO.N,GND*%
X73234134Y-71500000D03*
%TD*%
D19*
%TO.P,C7,1,1*%
%TO.N,P3V3*%
X93887500Y-93550000D03*
%TO.P,C7,2,2*%
%TO.N,GND*%
X95612500Y-93550000D03*
%TD*%
D20*
%TO.N,/PAD_uSD_CMD*%
X85659107Y-51300000D03*
D21*
%TO.N,GND*%
X102600000Y-83300000D03*
D22*
X90294221Y-72094221D03*
X95850000Y-85725000D03*
X99895834Y-85704444D03*
X98860000Y-89710000D03*
D20*
X82375000Y-56775000D03*
D23*
X86292765Y-68330170D03*
D20*
X69000000Y-90000000D03*
X72600000Y-75100000D03*
X69000000Y-85000000D03*
X105600000Y-81600000D03*
D22*
X94860000Y-89700000D03*
D20*
X92200000Y-97700000D03*
X99900000Y-75400000D03*
X105200000Y-93300000D03*
X80450000Y-79650000D03*
X73400000Y-98000000D03*
D22*
X96379693Y-91991723D03*
D20*
X80900000Y-98000000D03*
D23*
X94625000Y-70400000D03*
D21*
X95500000Y-92250012D03*
D20*
X103400000Y-96000000D03*
X106000000Y-73500000D03*
X71600000Y-70900000D03*
X88850000Y-53100000D03*
X93000000Y-67000000D03*
D22*
X94860000Y-88710000D03*
D23*
X94775000Y-74250000D03*
D20*
X90000000Y-98000000D03*
X105600000Y-85800000D03*
X102000000Y-70000000D03*
X69000000Y-82500000D03*
X90025000Y-55950000D03*
X91200000Y-89300000D03*
D22*
X102990000Y-84740000D03*
X94860000Y-85710000D03*
D20*
X78400000Y-98000000D03*
X85800000Y-84100000D03*
X69000000Y-75500000D03*
X98750000Y-69675000D03*
X106000000Y-78500000D03*
X96000000Y-83000000D03*
X68600000Y-70500000D03*
X85650000Y-52350000D03*
X70200000Y-95550000D03*
X85600000Y-55200000D03*
X88475000Y-50950000D03*
X79500000Y-93000000D03*
D22*
X99860000Y-88710000D03*
D20*
X88950000Y-51800000D03*
X69000000Y-93000000D03*
X71600000Y-69700000D03*
X85000000Y-97500000D03*
D23*
X89500000Y-73194610D03*
D22*
X96850000Y-86710000D03*
D20*
X69000000Y-87500000D03*
D23*
X96950000Y-72050000D03*
D20*
X89600000Y-89300000D03*
X105600000Y-88000000D03*
X69000000Y-73000000D03*
X77400000Y-68100000D03*
X103500000Y-97700000D03*
X89350000Y-50900000D03*
X69000000Y-78000000D03*
D22*
X94860000Y-87710000D03*
D20*
X82650000Y-81600000D03*
D22*
X94860000Y-86710000D03*
D20*
X93000000Y-75350000D03*
D22*
X101895364Y-90704956D03*
D20*
X88850000Y-66050000D03*
X102600000Y-78250000D03*
X73750000Y-81600000D03*
X87500000Y-98000000D03*
X75900000Y-98000000D03*
X106000000Y-76000000D03*
%TO.N,/PAD_uSD_DAT0*%
X90097861Y-52997861D03*
%TO.N,/PAD_uSD_DAT1*%
X91100000Y-55975000D03*
D22*
%TO.N,/PAD_uSD_SCLK*%
X90450000Y-70850000D03*
D20*
%TO.N,/PAD_uSD_DAT3*%
X84500000Y-55200000D03*
%TO.N,/PAD_uSD_DAT2*%
X83475000Y-56775000D03*
%TO.N,P3V3*%
X98750000Y-71000000D03*
X87200000Y-84100000D03*
X93300000Y-97700000D03*
X94350000Y-78750000D03*
D21*
X94000000Y-92250012D03*
D20*
X91500000Y-75500000D03*
D22*
X98850000Y-88700000D03*
D23*
X83000000Y-69500000D03*
D22*
X101860000Y-89710000D03*
X95850000Y-89700000D03*
D20*
X86233617Y-74751402D03*
X77250000Y-93000000D03*
X98650000Y-75400000D03*
D22*
X93850000Y-88710000D03*
X95860000Y-84700000D03*
X93860000Y-84710000D03*
D23*
X83500000Y-72000000D03*
D20*
X81650000Y-78550000D03*
X94000000Y-83000000D03*
D22*
X93850000Y-89700000D03*
D20*
X79400000Y-67000000D03*
D21*
X99000000Y-83300000D03*
D22*
X93850000Y-87700000D03*
X98860000Y-85710000D03*
X98860000Y-90710000D03*
X93850000Y-85700000D03*
D23*
X83000000Y-73950000D03*
D22*
X101850000Y-85725000D03*
X93850000Y-86700000D03*
%TO.N,Net-(U3B-VDDIM)*%
X92826388Y-86723612D03*
D23*
%TO.N,P3V3_SD*%
X87956540Y-68350000D03*
%TO.N,/eMMC_RST_N*%
X94500000Y-95000000D03*
D22*
X99850000Y-87720000D03*
%TO.N,/eMMC_D2*%
X97860000Y-84710000D03*
D23*
X94605940Y-69500000D03*
D22*
%TO.N,/eMMC_D3*%
X101870000Y-84700000D03*
D23*
X95800000Y-72000000D03*
%TO.N,Net-(U3A-DS)*%
X96900000Y-92700000D03*
D22*
X97830000Y-87720000D03*
D20*
%TO.N,Net-(U1-DETECT-SW)*%
X76050000Y-81550000D03*
%TO.N,Net-(U1-DETECT_LEVER)*%
X82550000Y-85900000D03*
D22*
%TO.N,/eMMC_CMD*%
X101850000Y-86710000D03*
D23*
X95790000Y-74230000D03*
%TD*%
D24*
%TO.N,/PAD_uSD_CMD*%
X85650000Y-51290893D02*
X85650000Y-48219521D01*
X85650000Y-48219521D02*
X85659107Y-48210414D01*
X85659107Y-51300000D02*
X85650000Y-51290893D01*
D25*
%TO.N,GND*%
X96162500Y-81550000D02*
X96150000Y-81562500D01*
D26*
X86169830Y-68330170D02*
X86292765Y-68330170D01*
D27*
X105200000Y-93300000D02*
X105300000Y-93200000D01*
D26*
X88900000Y-48060414D02*
X88900000Y-50450000D01*
X89205390Y-73194610D02*
X89200000Y-73200000D01*
X89500025Y-66700025D02*
X89500025Y-67100000D01*
X89200000Y-73200000D02*
X88362500Y-73200000D01*
D27*
X102190458Y-91000050D02*
X101895364Y-90704956D01*
D25*
X90000000Y-88140050D02*
X90000000Y-88900000D01*
D26*
X95500000Y-93449987D02*
X95500025Y-93450012D01*
X95500000Y-92250012D02*
X95500000Y-93449987D01*
D27*
X72200000Y-71500000D02*
X71600000Y-70900000D01*
X73393268Y-71500000D02*
X72200000Y-71500000D01*
D25*
X91700000Y-88140050D02*
X91700000Y-88800000D01*
D26*
X105200000Y-91000050D02*
X103300000Y-91000050D01*
D25*
X96150000Y-82850000D02*
X96000000Y-83000000D01*
D26*
X89300000Y-50950000D02*
X89350000Y-50900000D01*
X88475000Y-51325000D02*
X88950000Y-51800000D01*
X79112500Y-91400000D02*
X79112500Y-92612500D01*
D25*
X91700000Y-88800000D02*
X91200000Y-89300000D01*
D26*
X104899975Y-91200000D02*
X104700025Y-91000050D01*
X89500000Y-73194610D02*
X89205390Y-73194610D01*
X88850000Y-66050000D02*
X89500025Y-66700025D01*
X85700000Y-68800000D02*
X86169830Y-68330170D01*
X89350000Y-51400000D02*
X88950000Y-51800000D01*
X88900000Y-50450000D02*
X89350000Y-50900000D01*
D27*
X103300000Y-91000050D02*
X102190458Y-91000050D01*
D26*
X88475000Y-50950000D02*
X88475000Y-51325000D01*
X79112500Y-92612500D02*
X79500000Y-93000000D01*
X104700025Y-91000050D02*
X103300000Y-91000050D01*
D27*
X105300000Y-91262525D02*
X105200000Y-91162525D01*
D26*
X88475000Y-50950000D02*
X89300000Y-50950000D01*
X89350000Y-50900000D02*
X89350000Y-51400000D01*
D25*
X90000000Y-88900000D02*
X89600000Y-89300000D01*
D26*
X85700000Y-69537500D02*
X85700000Y-68800000D01*
X88900000Y-50525000D02*
X88900000Y-48060414D01*
D27*
X105300000Y-93200000D02*
X105300000Y-91262525D01*
D25*
X96150000Y-81562500D02*
X96150000Y-82850000D01*
D26*
X88475000Y-50950000D02*
X88900000Y-50525000D01*
D24*
%TO.N,/PAD_uSD_DAT0*%
X90097861Y-48249168D02*
X90059107Y-48210414D01*
X90097861Y-52997861D02*
X90097861Y-48249168D01*
%TO.N,/PAD_uSD_DAT1*%
X91100000Y-48269521D02*
X91159107Y-48210414D01*
X91100000Y-55975000D02*
X91100000Y-48269521D01*
%TO.N,/PAD_uSD_SCLK*%
X87800000Y-48269521D02*
X87859107Y-48210414D01*
X87800000Y-58175000D02*
X87800000Y-48269521D01*
X90550000Y-70950000D02*
X90450000Y-70850000D01*
X90750000Y-61125000D02*
X87800000Y-58175000D01*
X90450000Y-70850000D02*
X90750000Y-70550000D01*
X90750000Y-70550000D02*
X90750000Y-61125000D01*
%TO.N,/PAD_uSD_DAT3*%
X84500000Y-48269521D02*
X84559107Y-48210414D01*
X84500000Y-55200000D02*
X84500000Y-48269521D01*
%TO.N,/PAD_uSD_DAT2*%
X83459107Y-56759107D02*
X83459107Y-48210414D01*
X83475000Y-56775000D02*
X83459107Y-56759107D01*
D28*
%TO.N,P3V3*%
X83000000Y-69500000D02*
X80310008Y-69500000D01*
X92275000Y-73775000D02*
X92275000Y-69125000D01*
D25*
X99000000Y-83300000D02*
X99000000Y-85570000D01*
D28*
X93850000Y-92100012D02*
X94000000Y-92250012D01*
X79400000Y-67000000D02*
X80100000Y-67700000D01*
X94500000Y-82500000D02*
X94500000Y-78900000D01*
D25*
X95850000Y-89700000D02*
X95850000Y-90150000D01*
D28*
X83000000Y-69500000D02*
X84762500Y-71262500D01*
X78450000Y-70050000D02*
X78979997Y-69520003D01*
X78500000Y-78550000D02*
X78500000Y-85500000D01*
X100325000Y-86650000D02*
X101860000Y-88185000D01*
X83000000Y-72500000D02*
X83000000Y-73950000D01*
X98860000Y-86800000D02*
X98860000Y-88690000D01*
X86250000Y-74750000D02*
X87050000Y-75550000D01*
X84762500Y-71262500D02*
X85700000Y-71262500D01*
X95381003Y-68156003D02*
X98225000Y-71000000D01*
X96329209Y-84670000D02*
X95830000Y-84670000D01*
X94199975Y-82800025D02*
X94500000Y-82500000D01*
X101860000Y-88185000D02*
X101860000Y-89710000D01*
D25*
X103300000Y-86700000D02*
X103300000Y-89600000D01*
D28*
X83850000Y-78550000D02*
X87200000Y-81900000D01*
X93850000Y-86700000D02*
X93850000Y-89700000D01*
X98860000Y-85710000D02*
X97369209Y-85710000D01*
D26*
X78399467Y-71247586D02*
X78399467Y-71496520D01*
D28*
X87200000Y-81900000D02*
X87200000Y-84100000D01*
D27*
X93900000Y-84670000D02*
X93970000Y-84600000D01*
D28*
X83500000Y-72000000D02*
X83000000Y-72500000D01*
X87050000Y-75550000D02*
X91450000Y-75550000D01*
D26*
X77387500Y-91400000D02*
X77387500Y-92862500D01*
D28*
X77387500Y-86612500D02*
X77387500Y-91400000D01*
X93887500Y-93550000D02*
X93887500Y-92362512D01*
D26*
X78450000Y-71197053D02*
X78399467Y-71247586D01*
D28*
X86337500Y-74647519D02*
X86233617Y-74751402D01*
X99010000Y-86650000D02*
X100325000Y-86650000D01*
X78979997Y-69520003D02*
X81540005Y-69520003D01*
D25*
X98800000Y-88700000D02*
X98100000Y-89400000D01*
D28*
X105200000Y-89600000D02*
X103300000Y-89600000D01*
D25*
X102325000Y-85725000D02*
X103300000Y-86700000D01*
D28*
X93850000Y-89700000D02*
X93850000Y-91000000D01*
X81650000Y-78550000D02*
X83850000Y-78550000D01*
D25*
X98100000Y-90400000D02*
X98410000Y-90710000D01*
X98410000Y-90710000D02*
X98860000Y-90710000D01*
D28*
X91650000Y-74400000D02*
X92275000Y-73775000D01*
X93860000Y-83140000D02*
X94000000Y-83000000D01*
X85700000Y-71262500D02*
X84237500Y-71262500D01*
X91650000Y-75350000D02*
X91650000Y-74400000D01*
X98860000Y-86800000D02*
X99010000Y-86650000D01*
X93900000Y-84670000D02*
X95830000Y-84670000D01*
X78500000Y-85500000D02*
X77387500Y-86612500D01*
X93860000Y-84710000D02*
X93860000Y-85690000D01*
X92275000Y-69125000D02*
X93243997Y-68156003D01*
X86337500Y-72137500D02*
X86337500Y-73200000D01*
D26*
X77387500Y-92862500D02*
X77250000Y-93000000D01*
D28*
X94350000Y-78600000D02*
X94350000Y-78750000D01*
D26*
X98860000Y-88690000D02*
X98850000Y-88700000D01*
X102000320Y-89600000D02*
X101895364Y-89704956D01*
D25*
X101850000Y-85725000D02*
X102325000Y-85725000D01*
D28*
X86337500Y-73200000D02*
X86337500Y-74647519D01*
X97369209Y-85710000D02*
X96329209Y-84670000D01*
D25*
X93300000Y-97700000D02*
X93300000Y-94550000D01*
X95850000Y-90150000D02*
X95000000Y-91000000D01*
D28*
X98750000Y-71000000D02*
X98750000Y-75300000D01*
X80100000Y-67700000D02*
X80100000Y-69329998D01*
D25*
X94199975Y-82800025D02*
X94000000Y-83000000D01*
D28*
X91450000Y-75550000D02*
X91650000Y-75350000D01*
D25*
X93300000Y-94550000D02*
X93887500Y-93962500D01*
X93887500Y-93962500D02*
X93887500Y-93550000D01*
D28*
X91500000Y-75750000D02*
X94350000Y-78600000D01*
X85700000Y-71500000D02*
X86337500Y-72137500D01*
D25*
X93860000Y-85690000D02*
X93850000Y-85700000D01*
D28*
X81650000Y-78550000D02*
X78500000Y-78550000D01*
X93860000Y-84710000D02*
X93860000Y-83140000D01*
X93900000Y-84600000D02*
X93900000Y-84670000D01*
X93850000Y-91000000D02*
X93850000Y-92100012D01*
X93243997Y-68156003D02*
X95381003Y-68156003D01*
X93887500Y-92362512D02*
X94000000Y-92250012D01*
D26*
X98850000Y-88700000D02*
X98800000Y-88700000D01*
D28*
X95830000Y-84670000D02*
X95860000Y-84700000D01*
D26*
X99000000Y-85570000D02*
X98860000Y-85710000D01*
D28*
X103300000Y-89600000D02*
X102000320Y-89600000D01*
X78450000Y-71197053D02*
X78450000Y-70050000D01*
X93850000Y-85700000D02*
X93850000Y-86700000D01*
X84237500Y-71262500D02*
X83500000Y-72000000D01*
X98860000Y-85710000D02*
X98860000Y-86800000D01*
X94500000Y-78900000D02*
X94350000Y-78750000D01*
X91500000Y-75500000D02*
X91500000Y-75750000D01*
X78500000Y-71597053D02*
X78500000Y-78550000D01*
D25*
X95000000Y-91000000D02*
X93850000Y-91000000D01*
X93900000Y-84670000D02*
X93860000Y-84710000D01*
D28*
X85700000Y-71262500D02*
X85700000Y-71500000D01*
X98225000Y-71000000D02*
X98750000Y-71000000D01*
X80100000Y-69329998D02*
X80290005Y-69520003D01*
D25*
X98750000Y-75300000D02*
X98650000Y-75400000D01*
X98100000Y-89400000D02*
X98100000Y-90400000D01*
D26*
%TO.N,Net-(U3B-VDDIM)*%
X92810000Y-86740000D02*
X92826388Y-86723612D01*
D27*
X90000000Y-86740000D02*
X91700000Y-86740000D01*
X91700000Y-86740000D02*
X92810000Y-86740000D01*
D25*
%TO.N,P3V3_SD*%
X86700000Y-56600000D02*
X83250000Y-60050000D01*
D27*
X87999975Y-67000000D02*
X84689992Y-67000000D01*
D26*
X86759107Y-48060414D02*
X86800000Y-48101307D01*
D25*
X86700000Y-48201307D02*
X86700000Y-56600000D01*
D27*
X88100000Y-67100025D02*
X87999975Y-67000000D01*
D26*
X87937500Y-67262525D02*
X87937500Y-68330960D01*
D24*
X84589967Y-67100025D02*
X84459995Y-67229997D01*
D29*
X88100000Y-67100025D02*
X87937500Y-67262525D01*
D25*
X86800000Y-48101307D02*
X86700000Y-48201307D01*
D27*
X84689992Y-67000000D02*
X84589967Y-67100025D01*
D25*
X83250000Y-60050000D02*
X83250000Y-66729997D01*
D29*
X87937500Y-68330960D02*
X87956540Y-68350000D01*
D25*
X83250000Y-66729997D02*
X84459995Y-66729997D01*
D24*
%TO.N,/eMMC_RST_N*%
X99080000Y-95000000D02*
X94500000Y-95000000D01*
X99860000Y-87720000D02*
X100500000Y-88360000D01*
X100500000Y-88360000D02*
X100500000Y-93580000D01*
X99850000Y-87720000D02*
X99860000Y-87720000D01*
X100500000Y-93580000D02*
X99080000Y-95000000D01*
%TO.N,/eMMC_D2*%
X98180000Y-80834871D02*
X98550000Y-80834871D01*
X98550000Y-81634871D02*
X98180000Y-81634871D01*
X93950000Y-70155940D02*
X93950000Y-75840000D01*
X97860000Y-82408600D02*
X97860000Y-84710000D01*
X93950000Y-75840000D02*
X97860000Y-79750000D01*
X97860000Y-79750000D02*
X97860000Y-80514871D01*
X94605940Y-69500000D02*
X93950000Y-70155940D01*
X97860000Y-81954871D02*
X97860000Y-82114871D01*
X97860000Y-82114871D02*
X97860000Y-82408600D01*
X98870000Y-81154871D02*
X98870000Y-81314871D01*
X98180000Y-81634871D02*
G75*
G03*
X97859971Y-81954871I0J-320029D01*
G01*
X98550000Y-80834871D02*
G75*
G02*
X98870029Y-81154871I0J-320029D01*
G01*
X98870000Y-81314871D02*
G75*
G02*
X98550000Y-81634900I-320000J-29D01*
G01*
X97860000Y-80514871D02*
G75*
G03*
X98180000Y-80834900I320000J-29D01*
G01*
%TO.N,/eMMC_D3*%
X101697980Y-80357980D02*
X101870000Y-80530000D01*
X100821140Y-79028592D02*
X101040344Y-78809389D01*
X97325000Y-73525000D02*
X97325000Y-75985000D01*
X97325000Y-75985000D02*
X100368592Y-79028592D01*
X101386824Y-80046824D02*
X101499962Y-80159962D01*
X101606029Y-79375074D02*
X101386824Y-79594276D01*
X95800000Y-72000000D02*
X97325000Y-73525000D01*
X101492892Y-78809389D02*
X101606029Y-78922526D01*
X101499962Y-80159962D02*
X101697980Y-80357980D01*
X101870000Y-80530000D02*
X101870000Y-84700000D01*
X101040344Y-78809389D02*
G75*
G02*
X101492892Y-78809389I226274J-226273D01*
G01*
X101606029Y-78922526D02*
G75*
G02*
X101606029Y-79375074I-226229J-226274D01*
G01*
X100368592Y-79028592D02*
G75*
G03*
X100821140Y-79028592I226274J226273D01*
G01*
X101386824Y-79594276D02*
G75*
G03*
X101386774Y-80046874I226276J-226324D01*
G01*
%TO.N,Net-(U3A-DS)*%
X96900000Y-92460000D02*
X96910000Y-92450000D01*
X96910000Y-92450000D02*
X96910000Y-88640000D01*
X96900000Y-92700000D02*
X96900000Y-92460000D01*
X96910000Y-88640000D02*
X97830000Y-87720000D01*
D28*
%TO.N,Net-(U1-DETECT-SW)*%
X76050000Y-81550000D02*
X76050000Y-79350000D01*
X76050000Y-79350000D02*
X75850000Y-79150000D01*
%TO.N,Net-(U1-DETECT_LEVER)*%
X82600000Y-88250000D02*
X82600000Y-85950000D01*
X82600000Y-85950000D02*
X82550000Y-85900000D01*
D24*
%TO.N,/eMMC_CMD*%
X100690000Y-81503636D02*
X100690000Y-81659636D01*
X99850000Y-82283636D02*
X99850000Y-82439636D01*
X100450000Y-83833446D02*
X100450000Y-83633446D01*
X99850000Y-82833446D02*
X99850000Y-82650000D01*
X100162000Y-81191636D02*
X100378000Y-81191636D01*
X99850000Y-83033446D02*
X99850000Y-82833446D01*
X99850000Y-84710000D02*
X99850000Y-84433446D01*
X99850000Y-82439636D02*
X99850000Y-82650000D01*
X99850000Y-80090000D02*
X99850000Y-80879636D01*
X100378000Y-81971636D02*
X100162000Y-81971636D01*
X95790000Y-74230000D02*
X95790000Y-76030000D01*
X101740000Y-86600000D02*
X99850000Y-84710000D01*
X95790000Y-76030000D02*
X99850000Y-80090000D01*
X99850000Y-80879636D02*
G75*
G03*
X100162000Y-81191600I312000J36D01*
G01*
X100690000Y-81659636D02*
G75*
G02*
X100378000Y-81971600I-312000J36D01*
G01*
X100150000Y-83333446D02*
G75*
G02*
X99849954Y-83033446I0J300046D01*
G01*
X100378000Y-81191636D02*
G75*
G02*
X100689964Y-81503636I0J-311964D01*
G01*
X100450000Y-83633446D02*
G75*
G03*
X100150000Y-83333400I-300000J46D01*
G01*
X99850000Y-84433446D02*
G75*
G02*
X100150000Y-84133400I300000J46D01*
G01*
X100150000Y-84133446D02*
G75*
G03*
X100450046Y-83833446I0J300046D01*
G01*
X100162000Y-81971636D02*
G75*
G03*
X99850036Y-82283636I0J-311964D01*
G01*
D25*
%TO.N,Net-(U5-K)*%
X76800533Y-71503378D02*
X74903378Y-71503378D01*
X74903378Y-71503378D02*
X74900000Y-71500000D01*
%TD*%
M02*
