%TF.GenerationSoftware,KiCad,Pcbnew,9.0.2*%
%TF.CreationDate,2025-06-22T16:31:42+02:00*%
%TF.ProjectId,Board,426f6172-642e-46b6-9963-61645f706362,rev?*%
%TF.SameCoordinates,Original*%
%TF.FileFunction,Copper,L3,Inr*%
%TF.FilePolarity,Positive*%
%FSLAX46Y46*%
G04 Gerber Fmt 4.6, Leading zero omitted, Abs format (unit mm)*
G04 Created by KiCad (PCBNEW 9.0.2) date 2025-06-22 16:31:42*
%MOMM*%
%LPD*%
G01*
G04 APERTURE LIST*
%TA.AperFunction,ViaPad*%
%ADD10C,0.600000*%
%TD*%
%TA.AperFunction,ViaPad*%
%ADD11C,0.450000*%
%TD*%
%TA.AperFunction,ViaPad*%
%ADD12C,0.800000*%
%TD*%
%TA.AperFunction,ViaPad*%
%ADD13C,0.550000*%
%TD*%
G04 APERTURE END LIST*
D10*
%TO.N,GND*%
X102600000Y-83300000D03*
D11*
X90294221Y-72094221D03*
X95850000Y-85725000D03*
X99895834Y-85704444D03*
X98860000Y-89710000D03*
D12*
X82375000Y-56775000D03*
D13*
X86292765Y-68330170D03*
D12*
X69000000Y-90000000D03*
X72600000Y-75100000D03*
X69000000Y-85000000D03*
X105600000Y-81600000D03*
D11*
X94860000Y-89700000D03*
D12*
X92200000Y-97700000D03*
X99900000Y-75400000D03*
X105200000Y-93300000D03*
X80450000Y-79650000D03*
X73400000Y-98000000D03*
D11*
X96379693Y-91991723D03*
D12*
X80900000Y-98000000D03*
D13*
X94625000Y-70400000D03*
D10*
X95500000Y-92250012D03*
D12*
X103400000Y-96000000D03*
X106000000Y-73500000D03*
X71600000Y-70900000D03*
X88850000Y-53100000D03*
X93000000Y-67000000D03*
D11*
X94860000Y-88710000D03*
D13*
X94775000Y-74250000D03*
D12*
X90000000Y-98000000D03*
X105600000Y-85800000D03*
X102000000Y-70000000D03*
X69000000Y-82500000D03*
X90025000Y-55950000D03*
X91200000Y-89300000D03*
D11*
X102990000Y-84740000D03*
X94860000Y-85710000D03*
D12*
X78400000Y-98000000D03*
X85800000Y-84100000D03*
X69000000Y-75500000D03*
X98750000Y-69675000D03*
X106000000Y-78500000D03*
X96000000Y-83000000D03*
X68600000Y-70500000D03*
X85650000Y-52350000D03*
X70200000Y-95550000D03*
X85600000Y-55200000D03*
X88475000Y-50950000D03*
X79500000Y-93000000D03*
D11*
X99860000Y-88710000D03*
D12*
X88950000Y-51800000D03*
X69000000Y-93000000D03*
X71600000Y-69700000D03*
X85000000Y-97500000D03*
D13*
X89500000Y-73194610D03*
D11*
X96850000Y-86710000D03*
D12*
X69000000Y-87500000D03*
D13*
X96950000Y-72050000D03*
D12*
X89600000Y-89300000D03*
X105600000Y-88000000D03*
X69000000Y-73000000D03*
X77400000Y-68100000D03*
X103500000Y-97700000D03*
X89350000Y-50900000D03*
X69000000Y-78000000D03*
D11*
X94860000Y-87710000D03*
D12*
X82650000Y-81600000D03*
D11*
X94860000Y-86710000D03*
D12*
X93000000Y-75350000D03*
D11*
X101895364Y-90704956D03*
D12*
X88850000Y-66050000D03*
X102600000Y-78250000D03*
X73750000Y-81600000D03*
X87500000Y-98000000D03*
X75900000Y-98000000D03*
X106000000Y-76000000D03*
%TD*%
%TA.AperFunction,Conductor*%
%TO.N,GND*%
G36*
X91543308Y-45964428D02*
G01*
X91552183Y-45964436D01*
X91552254Y-45964462D01*
X91586765Y-45964465D01*
X91606047Y-45965992D01*
X91654135Y-45973612D01*
X91691021Y-45985600D01*
X91718889Y-45999801D01*
X91725581Y-46003212D01*
X91756962Y-46026013D01*
X91784390Y-46053442D01*
X91785774Y-46055348D01*
X91786854Y-46055978D01*
X91807190Y-46084824D01*
X91824801Y-46119385D01*
X91836789Y-46156276D01*
X91838028Y-46164090D01*
X91844420Y-46204435D01*
X91845947Y-46223827D01*
X91845950Y-46268759D01*
X91845957Y-46268830D01*
X91849492Y-64425089D01*
X91849494Y-64436804D01*
X91844601Y-64462507D01*
X91849503Y-64486141D01*
X91849506Y-64498854D01*
X91849507Y-64498855D01*
X91849509Y-64510289D01*
X91849510Y-64510293D01*
X91855043Y-64523644D01*
X91861904Y-64545923D01*
X91864842Y-64560083D01*
X91871270Y-64569536D01*
X91877837Y-64579192D01*
X91878421Y-64580050D01*
X91887664Y-64602352D01*
X91906169Y-64620849D01*
X91920885Y-64642488D01*
X91941068Y-64655736D01*
X91958144Y-64672805D01*
X91982320Y-64682813D01*
X97679197Y-68422173D01*
X97679198Y-68422173D01*
X98095316Y-68695308D01*
X98112372Y-68712364D01*
X98136571Y-68722387D01*
X98158466Y-68736759D01*
X98169655Y-68738889D01*
X98193904Y-68746135D01*
X98204441Y-68750500D01*
X98204443Y-68750500D01*
X98230633Y-68750500D01*
X98256362Y-68755399D01*
X98279978Y-68750500D01*
X98325172Y-68750500D01*
X106538945Y-68750500D01*
X106554315Y-68751456D01*
X106586623Y-68755495D01*
X106599195Y-68757731D01*
X106731053Y-68788281D01*
X106755228Y-68796588D01*
X106872158Y-68850826D01*
X106894117Y-68863918D01*
X106981025Y-68928752D01*
X106997424Y-68940986D01*
X107016238Y-68958312D01*
X107101537Y-69054936D01*
X107116391Y-69075746D01*
X107172487Y-69174500D01*
X107180051Y-69187816D01*
X107190322Y-69211240D01*
X107229633Y-69333982D01*
X107234881Y-69359014D01*
X107248839Y-69493623D01*
X107249500Y-69506412D01*
X107249500Y-97993907D01*
X107248903Y-98006061D01*
X107236296Y-98134064D01*
X107231554Y-98157906D01*
X107195993Y-98275134D01*
X107186690Y-98297592D01*
X107128942Y-98405630D01*
X107115438Y-98425840D01*
X107037725Y-98520535D01*
X107020535Y-98537725D01*
X106925840Y-98615438D01*
X106905630Y-98628942D01*
X106797592Y-98686690D01*
X106775134Y-98695993D01*
X106657906Y-98731554D01*
X106634064Y-98736296D01*
X106506062Y-98748903D01*
X106493908Y-98749500D01*
X68513164Y-98749500D01*
X68501067Y-98748908D01*
X68463621Y-98745237D01*
X68372259Y-98736280D01*
X68348521Y-98731581D01*
X68230444Y-98695935D01*
X68208071Y-98686714D01*
X68099170Y-98628816D01*
X68079014Y-98615426D01*
X67983430Y-98537479D01*
X67966257Y-98520427D01*
X67887630Y-98425395D01*
X67874098Y-98405336D01*
X67815429Y-98296853D01*
X67806050Y-98274550D01*
X67769563Y-98156719D01*
X67764697Y-98133024D01*
X67751181Y-98004563D01*
X67750500Y-97991588D01*
X67750500Y-97653856D01*
X92949500Y-97653856D01*
X92949500Y-97746143D01*
X92973387Y-97835290D01*
X92973388Y-97835293D01*
X93019526Y-97915205D01*
X93019529Y-97915209D01*
X93019531Y-97915212D01*
X93084788Y-97980469D01*
X93084791Y-97980470D01*
X93084794Y-97980473D01*
X93164706Y-98026611D01*
X93164707Y-98026611D01*
X93164712Y-98026614D01*
X93253856Y-98050500D01*
X93253858Y-98050500D01*
X93346142Y-98050500D01*
X93346144Y-98050500D01*
X93435288Y-98026614D01*
X93515212Y-97980469D01*
X93580469Y-97915212D01*
X93626614Y-97835288D01*
X93650500Y-97746144D01*
X93650500Y-97653856D01*
X93626614Y-97564712D01*
X93626611Y-97564706D01*
X93580473Y-97484794D01*
X93580470Y-97484791D01*
X93580469Y-97484788D01*
X93515212Y-97419531D01*
X93515209Y-97419529D01*
X93515205Y-97419526D01*
X93435293Y-97373388D01*
X93435290Y-97373387D01*
X93435289Y-97373386D01*
X93435288Y-97373386D01*
X93346144Y-97349500D01*
X93253856Y-97349500D01*
X93164712Y-97373386D01*
X93164711Y-97373386D01*
X93164709Y-97373387D01*
X93164706Y-97373388D01*
X93084794Y-97419526D01*
X93084785Y-97419533D01*
X93019533Y-97484785D01*
X93019526Y-97484794D01*
X92973388Y-97564706D01*
X92973387Y-97564709D01*
X92949500Y-97653856D01*
X67750500Y-97653856D01*
X67750500Y-94957147D01*
X94174500Y-94957147D01*
X94174500Y-95042852D01*
X94196682Y-95125637D01*
X94196685Y-95125644D01*
X94239530Y-95199855D01*
X94239534Y-95199860D01*
X94239535Y-95199862D01*
X94300138Y-95260465D01*
X94300140Y-95260466D01*
X94300144Y-95260469D01*
X94374355Y-95303314D01*
X94374362Y-95303318D01*
X94457147Y-95325500D01*
X94457149Y-95325500D01*
X94542851Y-95325500D01*
X94542853Y-95325500D01*
X94625638Y-95303318D01*
X94699862Y-95260465D01*
X94760465Y-95199862D01*
X94803318Y-95125638D01*
X94825500Y-95042853D01*
X94825500Y-94957147D01*
X94803318Y-94874362D01*
X94803314Y-94874355D01*
X94760469Y-94800144D01*
X94760463Y-94800136D01*
X94699863Y-94739536D01*
X94699855Y-94739530D01*
X94625644Y-94696685D01*
X94625640Y-94696683D01*
X94625638Y-94696682D01*
X94542853Y-94674500D01*
X94457147Y-94674500D01*
X94374362Y-94696682D01*
X94374355Y-94696685D01*
X94300144Y-94739530D01*
X94300136Y-94739536D01*
X94239536Y-94800136D01*
X94239530Y-94800144D01*
X94196685Y-94874355D01*
X94196682Y-94874362D01*
X94174500Y-94957147D01*
X67750500Y-94957147D01*
X67750500Y-92953856D01*
X76899500Y-92953856D01*
X76899500Y-93046143D01*
X76923387Y-93135290D01*
X76923388Y-93135293D01*
X76969526Y-93215205D01*
X76969529Y-93215209D01*
X76969531Y-93215212D01*
X77034788Y-93280469D01*
X77034791Y-93280470D01*
X77034794Y-93280473D01*
X77114706Y-93326611D01*
X77114707Y-93326611D01*
X77114712Y-93326614D01*
X77203856Y-93350500D01*
X77203858Y-93350500D01*
X77296142Y-93350500D01*
X77296144Y-93350500D01*
X77385288Y-93326614D01*
X77465212Y-93280469D01*
X77530469Y-93215212D01*
X77576614Y-93135288D01*
X77600500Y-93046144D01*
X77600500Y-92953856D01*
X77576614Y-92864712D01*
X77554058Y-92825644D01*
X77530473Y-92784794D01*
X77530470Y-92784791D01*
X77530469Y-92784788D01*
X77465212Y-92719531D01*
X77465209Y-92719529D01*
X77465205Y-92719526D01*
X77385293Y-92673388D01*
X77385290Y-92673387D01*
X77385289Y-92673386D01*
X77385288Y-92673386D01*
X77324683Y-92657147D01*
X96574500Y-92657147D01*
X96574500Y-92742853D01*
X96585737Y-92784788D01*
X96596682Y-92825637D01*
X96596685Y-92825644D01*
X96639530Y-92899855D01*
X96639534Y-92899860D01*
X96639535Y-92899862D01*
X96700138Y-92960465D01*
X96700140Y-92960466D01*
X96700144Y-92960469D01*
X96774355Y-93003314D01*
X96774362Y-93003318D01*
X96857147Y-93025500D01*
X96857149Y-93025500D01*
X96942851Y-93025500D01*
X96942853Y-93025500D01*
X97025638Y-93003318D01*
X97099862Y-92960465D01*
X97160465Y-92899862D01*
X97203318Y-92825638D01*
X97225500Y-92742853D01*
X97225500Y-92657147D01*
X97203318Y-92574362D01*
X97177984Y-92530482D01*
X97160469Y-92500144D01*
X97160463Y-92500136D01*
X97099863Y-92439536D01*
X97099855Y-92439530D01*
X97025644Y-92396685D01*
X97025640Y-92396683D01*
X97025638Y-92396682D01*
X96942853Y-92374500D01*
X96857147Y-92374500D01*
X96774362Y-92396682D01*
X96774355Y-92396685D01*
X96700144Y-92439530D01*
X96700136Y-92439536D01*
X96639536Y-92500136D01*
X96639530Y-92500144D01*
X96596685Y-92574355D01*
X96596682Y-92574362D01*
X96574500Y-92657147D01*
X77324683Y-92657147D01*
X77296144Y-92649500D01*
X77203856Y-92649500D01*
X77114712Y-92673386D01*
X77114711Y-92673386D01*
X77114709Y-92673387D01*
X77114706Y-92673388D01*
X77034794Y-92719526D01*
X77034785Y-92719533D01*
X76969533Y-92784785D01*
X76969526Y-92784794D01*
X76923388Y-92864706D01*
X76923387Y-92864709D01*
X76923386Y-92864711D01*
X76923386Y-92864712D01*
X76913968Y-92899862D01*
X76899500Y-92953856D01*
X67750500Y-92953856D01*
X67750500Y-92203868D01*
X93649500Y-92203868D01*
X93649500Y-92296156D01*
X93670492Y-92374500D01*
X93673387Y-92385302D01*
X93673388Y-92385305D01*
X93719526Y-92465217D01*
X93719529Y-92465221D01*
X93719531Y-92465224D01*
X93784788Y-92530481D01*
X93784791Y-92530482D01*
X93784794Y-92530485D01*
X93864706Y-92576623D01*
X93864707Y-92576623D01*
X93864712Y-92576626D01*
X93953856Y-92600512D01*
X93953858Y-92600512D01*
X94046142Y-92600512D01*
X94046144Y-92600512D01*
X94135288Y-92576626D01*
X94215212Y-92530481D01*
X94280469Y-92465224D01*
X94326614Y-92385300D01*
X94350500Y-92296156D01*
X94350500Y-92203868D01*
X94326614Y-92114724D01*
X94326611Y-92114718D01*
X94280473Y-92034806D01*
X94280470Y-92034803D01*
X94280469Y-92034800D01*
X94215212Y-91969543D01*
X94215209Y-91969541D01*
X94215205Y-91969538D01*
X94135293Y-91923400D01*
X94135290Y-91923399D01*
X94135289Y-91923398D01*
X94135288Y-91923398D01*
X94046144Y-91899512D01*
X93953856Y-91899512D01*
X93864712Y-91923398D01*
X93864711Y-91923398D01*
X93864709Y-91923399D01*
X93864706Y-91923400D01*
X93784794Y-91969538D01*
X93784785Y-91969545D01*
X93719533Y-92034797D01*
X93719526Y-92034806D01*
X93673388Y-92114718D01*
X93673387Y-92114721D01*
X93673386Y-92114723D01*
X93673386Y-92114724D01*
X93649500Y-92203868D01*
X67750500Y-92203868D01*
X67750500Y-90667147D01*
X98534500Y-90667147D01*
X98534500Y-90752852D01*
X98556682Y-90835637D01*
X98556685Y-90835644D01*
X98599530Y-90909855D01*
X98599534Y-90909860D01*
X98599535Y-90909862D01*
X98660138Y-90970465D01*
X98660140Y-90970466D01*
X98660144Y-90970469D01*
X98734355Y-91013314D01*
X98734362Y-91013318D01*
X98817147Y-91035500D01*
X98817149Y-91035500D01*
X98902851Y-91035500D01*
X98902853Y-91035500D01*
X98985638Y-91013318D01*
X99059862Y-90970465D01*
X99120465Y-90909862D01*
X99163318Y-90835638D01*
X99185500Y-90752853D01*
X99185500Y-90667147D01*
X99163318Y-90584362D01*
X99163314Y-90584355D01*
X99120469Y-90510144D01*
X99120463Y-90510136D01*
X99059863Y-90449536D01*
X99059855Y-90449530D01*
X98985644Y-90406685D01*
X98985640Y-90406683D01*
X98985638Y-90406682D01*
X98902853Y-90384500D01*
X98817147Y-90384500D01*
X98734362Y-90406682D01*
X98734355Y-90406685D01*
X98660144Y-90449530D01*
X98660136Y-90449536D01*
X98599536Y-90510136D01*
X98599530Y-90510144D01*
X98556685Y-90584355D01*
X98556682Y-90584362D01*
X98534500Y-90667147D01*
X67750500Y-90667147D01*
X67750500Y-89657147D01*
X93524500Y-89657147D01*
X93524500Y-89742853D01*
X93527180Y-89752853D01*
X93546682Y-89825637D01*
X93546685Y-89825644D01*
X93589530Y-89899855D01*
X93589534Y-89899860D01*
X93589535Y-89899862D01*
X93650138Y-89960465D01*
X93650140Y-89960466D01*
X93650144Y-89960469D01*
X93724355Y-90003314D01*
X93724362Y-90003318D01*
X93807147Y-90025500D01*
X93807149Y-90025500D01*
X93892851Y-90025500D01*
X93892853Y-90025500D01*
X93975638Y-90003318D01*
X94049862Y-89960465D01*
X94110465Y-89899862D01*
X94153318Y-89825638D01*
X94175500Y-89742853D01*
X94175500Y-89657147D01*
X95524500Y-89657147D01*
X95524500Y-89742853D01*
X95527180Y-89752853D01*
X95546682Y-89825637D01*
X95546685Y-89825644D01*
X95589530Y-89899855D01*
X95589534Y-89899860D01*
X95589535Y-89899862D01*
X95650138Y-89960465D01*
X95650140Y-89960466D01*
X95650144Y-89960469D01*
X95724355Y-90003314D01*
X95724362Y-90003318D01*
X95807147Y-90025500D01*
X95807149Y-90025500D01*
X95892851Y-90025500D01*
X95892853Y-90025500D01*
X95975638Y-90003318D01*
X96049862Y-89960465D01*
X96110465Y-89899862D01*
X96153318Y-89825638D01*
X96175500Y-89742853D01*
X96175500Y-89667147D01*
X101534500Y-89667147D01*
X101534500Y-89752853D01*
X101554003Y-89825637D01*
X101556682Y-89835637D01*
X101556685Y-89835644D01*
X101599530Y-89909855D01*
X101599534Y-89909860D01*
X101599535Y-89909862D01*
X101660138Y-89970465D01*
X101660140Y-89970466D01*
X101660144Y-89970469D01*
X101717041Y-90003318D01*
X101734362Y-90013318D01*
X101817147Y-90035500D01*
X101817149Y-90035500D01*
X101902851Y-90035500D01*
X101902853Y-90035500D01*
X101985638Y-90013318D01*
X102059862Y-89970465D01*
X102120465Y-89909862D01*
X102163318Y-89835638D01*
X102185500Y-89752853D01*
X102185500Y-89667147D01*
X102163318Y-89584362D01*
X102157545Y-89574362D01*
X102120469Y-89510144D01*
X102120463Y-89510136D01*
X102059863Y-89449536D01*
X102059855Y-89449530D01*
X101985644Y-89406685D01*
X101985640Y-89406683D01*
X101985638Y-89406682D01*
X101902853Y-89384500D01*
X101817147Y-89384500D01*
X101734362Y-89406682D01*
X101734355Y-89406685D01*
X101660144Y-89449530D01*
X101660136Y-89449536D01*
X101599536Y-89510136D01*
X101599530Y-89510144D01*
X101556685Y-89584355D01*
X101556682Y-89584362D01*
X101534500Y-89667147D01*
X96175500Y-89667147D01*
X96175500Y-89657147D01*
X96153318Y-89574362D01*
X96116242Y-89510144D01*
X96110469Y-89500144D01*
X96110463Y-89500136D01*
X96049863Y-89439536D01*
X96049855Y-89439530D01*
X95975644Y-89396685D01*
X95975640Y-89396683D01*
X95975638Y-89396682D01*
X95892853Y-89374500D01*
X95807147Y-89374500D01*
X95724362Y-89396682D01*
X95724355Y-89396685D01*
X95650144Y-89439530D01*
X95650136Y-89439536D01*
X95589536Y-89500136D01*
X95589530Y-89500144D01*
X95546685Y-89574355D01*
X95546682Y-89574362D01*
X95524500Y-89657147D01*
X94175500Y-89657147D01*
X94153318Y-89574362D01*
X94116242Y-89510144D01*
X94110469Y-89500144D01*
X94110463Y-89500136D01*
X94049863Y-89439536D01*
X94049855Y-89439530D01*
X93975644Y-89396685D01*
X93975640Y-89396683D01*
X93975638Y-89396682D01*
X93892853Y-89374500D01*
X93807147Y-89374500D01*
X93724362Y-89396682D01*
X93724355Y-89396685D01*
X93650144Y-89439530D01*
X93650136Y-89439536D01*
X93589536Y-89500136D01*
X93589530Y-89500144D01*
X93546685Y-89574355D01*
X93546682Y-89574362D01*
X93524500Y-89657147D01*
X67750500Y-89657147D01*
X67750500Y-88667147D01*
X93524500Y-88667147D01*
X93524500Y-88752853D01*
X93544003Y-88825637D01*
X93546682Y-88835637D01*
X93546685Y-88835644D01*
X93589530Y-88909855D01*
X93589534Y-88909860D01*
X93589535Y-88909862D01*
X93650138Y-88970465D01*
X93650140Y-88970466D01*
X93650144Y-88970469D01*
X93707041Y-89003318D01*
X93724362Y-89013318D01*
X93807147Y-89035500D01*
X93807149Y-89035500D01*
X93892851Y-89035500D01*
X93892853Y-89035500D01*
X93975638Y-89013318D01*
X94049862Y-88970465D01*
X94110465Y-88909862D01*
X94153318Y-88835638D01*
X94175500Y-88752853D01*
X94175500Y-88667147D01*
X94172821Y-88657147D01*
X98524500Y-88657147D01*
X98524500Y-88742853D01*
X98527180Y-88752853D01*
X98546682Y-88825637D01*
X98546685Y-88825644D01*
X98589530Y-88899855D01*
X98589534Y-88899860D01*
X98589535Y-88899862D01*
X98650138Y-88960465D01*
X98650140Y-88960466D01*
X98650144Y-88960469D01*
X98724355Y-89003314D01*
X98724362Y-89003318D01*
X98807147Y-89025500D01*
X98807149Y-89025500D01*
X98892851Y-89025500D01*
X98892853Y-89025500D01*
X98975638Y-89003318D01*
X99049862Y-88960465D01*
X99110465Y-88899862D01*
X99153318Y-88825638D01*
X99175500Y-88742853D01*
X99175500Y-88657147D01*
X99153318Y-88574362D01*
X99116242Y-88510144D01*
X99110469Y-88500144D01*
X99110463Y-88500136D01*
X99049863Y-88439536D01*
X99049855Y-88439530D01*
X98975644Y-88396685D01*
X98975640Y-88396683D01*
X98975638Y-88396682D01*
X98892853Y-88374500D01*
X98807147Y-88374500D01*
X98724362Y-88396682D01*
X98724355Y-88396685D01*
X98650144Y-88439530D01*
X98650136Y-88439536D01*
X98589536Y-88500136D01*
X98589530Y-88500144D01*
X98546685Y-88574355D01*
X98546682Y-88574362D01*
X98524500Y-88657147D01*
X94172821Y-88657147D01*
X94153318Y-88584362D01*
X94147545Y-88574362D01*
X94110469Y-88510144D01*
X94110463Y-88510136D01*
X94049863Y-88449536D01*
X94049855Y-88449530D01*
X93975644Y-88406685D01*
X93975640Y-88406683D01*
X93975638Y-88406682D01*
X93892853Y-88384500D01*
X93807147Y-88384500D01*
X93724362Y-88406682D01*
X93724355Y-88406685D01*
X93650144Y-88449530D01*
X93650136Y-88449536D01*
X93589536Y-88510136D01*
X93589530Y-88510144D01*
X93546685Y-88584355D01*
X93546682Y-88584362D01*
X93524500Y-88667147D01*
X67750500Y-88667147D01*
X67750500Y-87657147D01*
X93524500Y-87657147D01*
X93524500Y-87742853D01*
X93529859Y-87762851D01*
X93546682Y-87825637D01*
X93546685Y-87825644D01*
X93589530Y-87899855D01*
X93589534Y-87899860D01*
X93589535Y-87899862D01*
X93650138Y-87960465D01*
X93650140Y-87960466D01*
X93650144Y-87960469D01*
X93684779Y-87980465D01*
X93724362Y-88003318D01*
X93807147Y-88025500D01*
X93807149Y-88025500D01*
X93892851Y-88025500D01*
X93892853Y-88025500D01*
X93975638Y-88003318D01*
X94049862Y-87960465D01*
X94110465Y-87899862D01*
X94153318Y-87825638D01*
X94175500Y-87742853D01*
X94175500Y-87677147D01*
X97504500Y-87677147D01*
X97504500Y-87762852D01*
X97526682Y-87845637D01*
X97526685Y-87845644D01*
X97569530Y-87919855D01*
X97569534Y-87919860D01*
X97569535Y-87919862D01*
X97630138Y-87980465D01*
X97630140Y-87980466D01*
X97630144Y-87980469D01*
X97704355Y-88023314D01*
X97704362Y-88023318D01*
X97787147Y-88045500D01*
X97787149Y-88045500D01*
X97872851Y-88045500D01*
X97872853Y-88045500D01*
X97955638Y-88023318D01*
X98029862Y-87980465D01*
X98090465Y-87919862D01*
X98133318Y-87845638D01*
X98155500Y-87762853D01*
X98155500Y-87677147D01*
X99524500Y-87677147D01*
X99524500Y-87762852D01*
X99546682Y-87845637D01*
X99546685Y-87845644D01*
X99589530Y-87919855D01*
X99589534Y-87919860D01*
X99589535Y-87919862D01*
X99650138Y-87980465D01*
X99650140Y-87980466D01*
X99650144Y-87980469D01*
X99724355Y-88023314D01*
X99724362Y-88023318D01*
X99807147Y-88045500D01*
X99807149Y-88045500D01*
X99892851Y-88045500D01*
X99892853Y-88045500D01*
X99975638Y-88023318D01*
X100049862Y-87980465D01*
X100110465Y-87919862D01*
X100153318Y-87845638D01*
X100175500Y-87762853D01*
X100175500Y-87677147D01*
X100153318Y-87594362D01*
X100141767Y-87574355D01*
X100110469Y-87520144D01*
X100110463Y-87520136D01*
X100049863Y-87459536D01*
X100049855Y-87459530D01*
X99975644Y-87416685D01*
X99975640Y-87416683D01*
X99975638Y-87416682D01*
X99892853Y-87394500D01*
X99807147Y-87394500D01*
X99724362Y-87416682D01*
X99724355Y-87416685D01*
X99650144Y-87459530D01*
X99650136Y-87459536D01*
X99589536Y-87520136D01*
X99589530Y-87520144D01*
X99546685Y-87594355D01*
X99546682Y-87594362D01*
X99524500Y-87677147D01*
X98155500Y-87677147D01*
X98133318Y-87594362D01*
X98121767Y-87574355D01*
X98090469Y-87520144D01*
X98090463Y-87520136D01*
X98029863Y-87459536D01*
X98029855Y-87459530D01*
X97955644Y-87416685D01*
X97955640Y-87416683D01*
X97955638Y-87416682D01*
X97872853Y-87394500D01*
X97787147Y-87394500D01*
X97704362Y-87416682D01*
X97704355Y-87416685D01*
X97630144Y-87459530D01*
X97630136Y-87459536D01*
X97569536Y-87520136D01*
X97569530Y-87520144D01*
X97526685Y-87594355D01*
X97526682Y-87594362D01*
X97504500Y-87677147D01*
X94175500Y-87677147D01*
X94175500Y-87657147D01*
X94153318Y-87574362D01*
X94153314Y-87574355D01*
X94110469Y-87500144D01*
X94110463Y-87500136D01*
X94049863Y-87439536D01*
X94049855Y-87439530D01*
X93975644Y-87396685D01*
X93975640Y-87396683D01*
X93975638Y-87396682D01*
X93892853Y-87374500D01*
X93807147Y-87374500D01*
X93724362Y-87396682D01*
X93724355Y-87396685D01*
X93650144Y-87439530D01*
X93650136Y-87439536D01*
X93589536Y-87500136D01*
X93589530Y-87500144D01*
X93546685Y-87574355D01*
X93546682Y-87574362D01*
X93524500Y-87657147D01*
X67750500Y-87657147D01*
X67750500Y-86680759D01*
X92500888Y-86680759D01*
X92500888Y-86766465D01*
X92519425Y-86835644D01*
X92523070Y-86849249D01*
X92523073Y-86849256D01*
X92565918Y-86923467D01*
X92565922Y-86923472D01*
X92565923Y-86923474D01*
X92626526Y-86984077D01*
X92626528Y-86984078D01*
X92626532Y-86984081D01*
X92677166Y-87013314D01*
X92700750Y-87026930D01*
X92783535Y-87049112D01*
X92783537Y-87049112D01*
X92869239Y-87049112D01*
X92869241Y-87049112D01*
X92952026Y-87026930D01*
X93026250Y-86984077D01*
X93086853Y-86923474D01*
X93129706Y-86849250D01*
X93151888Y-86766465D01*
X93151888Y-86680759D01*
X93145561Y-86657147D01*
X93524500Y-86657147D01*
X93524500Y-86742853D01*
X93530827Y-86766464D01*
X93546682Y-86825637D01*
X93546685Y-86825644D01*
X93589530Y-86899855D01*
X93589534Y-86899860D01*
X93589535Y-86899862D01*
X93650138Y-86960465D01*
X93650140Y-86960466D01*
X93650144Y-86960469D01*
X93691035Y-86984077D01*
X93724362Y-87003318D01*
X93807147Y-87025500D01*
X93807149Y-87025500D01*
X93892851Y-87025500D01*
X93892853Y-87025500D01*
X93975638Y-87003318D01*
X94049862Y-86960465D01*
X94110465Y-86899862D01*
X94153318Y-86825638D01*
X94175500Y-86742853D01*
X94175500Y-86667147D01*
X101524500Y-86667147D01*
X101524500Y-86752853D01*
X101544003Y-86825637D01*
X101546682Y-86835637D01*
X101546685Y-86835644D01*
X101589530Y-86909855D01*
X101589534Y-86909860D01*
X101589535Y-86909862D01*
X101650138Y-86970465D01*
X101650140Y-86970466D01*
X101650144Y-86970469D01*
X101707041Y-87003318D01*
X101724362Y-87013318D01*
X101807147Y-87035500D01*
X101807149Y-87035500D01*
X101892851Y-87035500D01*
X101892853Y-87035500D01*
X101975638Y-87013318D01*
X102049862Y-86970465D01*
X102110465Y-86909862D01*
X102153318Y-86835638D01*
X102175500Y-86752853D01*
X102175500Y-86667147D01*
X102153318Y-86584362D01*
X102147545Y-86574362D01*
X102110469Y-86510144D01*
X102110463Y-86510136D01*
X102049863Y-86449536D01*
X102049855Y-86449530D01*
X101975644Y-86406685D01*
X101975640Y-86406683D01*
X101975638Y-86406682D01*
X101892853Y-86384500D01*
X101807147Y-86384500D01*
X101724362Y-86406682D01*
X101724355Y-86406685D01*
X101650144Y-86449530D01*
X101650136Y-86449536D01*
X101589536Y-86510136D01*
X101589530Y-86510144D01*
X101546685Y-86584355D01*
X101546682Y-86584362D01*
X101524500Y-86667147D01*
X94175500Y-86667147D01*
X94175500Y-86657147D01*
X94153318Y-86574362D01*
X94124101Y-86523756D01*
X94110469Y-86500144D01*
X94110463Y-86500136D01*
X94049863Y-86439536D01*
X94049855Y-86439530D01*
X93975644Y-86396685D01*
X93975640Y-86396683D01*
X93975638Y-86396682D01*
X93892853Y-86374500D01*
X93807147Y-86374500D01*
X93724362Y-86396682D01*
X93724355Y-86396685D01*
X93650144Y-86439530D01*
X93650136Y-86439536D01*
X93589536Y-86500136D01*
X93589530Y-86500144D01*
X93546685Y-86574355D01*
X93546682Y-86574362D01*
X93524500Y-86657147D01*
X93145561Y-86657147D01*
X93129706Y-86597974D01*
X93116070Y-86574355D01*
X93086857Y-86523756D01*
X93086851Y-86523748D01*
X93026251Y-86463148D01*
X93026243Y-86463142D01*
X92952032Y-86420297D01*
X92952028Y-86420295D01*
X92952026Y-86420294D01*
X92869241Y-86398112D01*
X92783535Y-86398112D01*
X92700750Y-86420294D01*
X92700743Y-86420297D01*
X92626532Y-86463142D01*
X92626524Y-86463148D01*
X92565924Y-86523748D01*
X92565918Y-86523756D01*
X92523073Y-86597967D01*
X92523070Y-86597974D01*
X92500888Y-86680759D01*
X67750500Y-86680759D01*
X67750500Y-85853856D01*
X82199500Y-85853856D01*
X82199500Y-85946144D01*
X82221518Y-86028318D01*
X82223387Y-86035290D01*
X82223388Y-86035293D01*
X82269526Y-86115205D01*
X82269529Y-86115209D01*
X82269531Y-86115212D01*
X82334788Y-86180469D01*
X82334791Y-86180470D01*
X82334794Y-86180473D01*
X82414706Y-86226611D01*
X82414707Y-86226611D01*
X82414712Y-86226614D01*
X82503856Y-86250500D01*
X82503858Y-86250500D01*
X82596142Y-86250500D01*
X82596144Y-86250500D01*
X82685288Y-86226614D01*
X82765212Y-86180469D01*
X82830469Y-86115212D01*
X82876614Y-86035288D01*
X82900500Y-85946144D01*
X82900500Y-85853856D01*
X82876614Y-85764712D01*
X82869766Y-85752852D01*
X82845615Y-85711021D01*
X82845614Y-85711019D01*
X82830471Y-85684791D01*
X82830466Y-85684785D01*
X82802828Y-85657147D01*
X93524500Y-85657147D01*
X93524500Y-85742853D01*
X93531199Y-85767852D01*
X93546682Y-85825637D01*
X93546685Y-85825644D01*
X93589530Y-85899855D01*
X93589534Y-85899860D01*
X93589535Y-85899862D01*
X93650138Y-85960465D01*
X93650140Y-85960466D01*
X93650144Y-85960469D01*
X93693446Y-85985469D01*
X93724362Y-86003318D01*
X93807147Y-86025500D01*
X93807149Y-86025500D01*
X93892851Y-86025500D01*
X93892853Y-86025500D01*
X93975638Y-86003318D01*
X94049862Y-85960465D01*
X94110465Y-85899862D01*
X94153318Y-85825638D01*
X94175500Y-85742853D01*
X94175500Y-85667147D01*
X98534500Y-85667147D01*
X98534500Y-85752853D01*
X98554003Y-85825637D01*
X98556682Y-85835637D01*
X98556685Y-85835644D01*
X98599530Y-85909855D01*
X98599534Y-85909860D01*
X98599535Y-85909862D01*
X98660138Y-85970465D01*
X98660140Y-85970466D01*
X98660144Y-85970469D01*
X98717041Y-86003318D01*
X98734362Y-86013318D01*
X98817147Y-86035500D01*
X98817149Y-86035500D01*
X98902851Y-86035500D01*
X98902853Y-86035500D01*
X98985638Y-86013318D01*
X99059862Y-85970465D01*
X99120465Y-85909862D01*
X99163318Y-85835638D01*
X99185500Y-85752853D01*
X99185500Y-85682147D01*
X101524500Y-85682147D01*
X101524500Y-85767853D01*
X101542665Y-85835644D01*
X101546682Y-85850637D01*
X101546685Y-85850644D01*
X101589530Y-85924855D01*
X101589534Y-85924860D01*
X101589535Y-85924862D01*
X101650138Y-85985465D01*
X101650140Y-85985466D01*
X101650144Y-85985469D01*
X101681060Y-86003318D01*
X101724362Y-86028318D01*
X101807147Y-86050500D01*
X101807149Y-86050500D01*
X101892851Y-86050500D01*
X101892853Y-86050500D01*
X101975638Y-86028318D01*
X102049862Y-85985465D01*
X102110465Y-85924862D01*
X102153318Y-85850638D01*
X102175500Y-85767853D01*
X102175500Y-85682147D01*
X102153318Y-85599362D01*
X102144654Y-85584355D01*
X102110469Y-85525144D01*
X102110463Y-85525136D01*
X102049863Y-85464536D01*
X102049855Y-85464530D01*
X101975644Y-85421685D01*
X101975640Y-85421683D01*
X101975638Y-85421682D01*
X101892853Y-85399500D01*
X101807147Y-85399500D01*
X101724362Y-85421682D01*
X101724355Y-85421685D01*
X101650144Y-85464530D01*
X101650136Y-85464536D01*
X101589536Y-85525136D01*
X101589530Y-85525144D01*
X101546685Y-85599355D01*
X101546682Y-85599362D01*
X101524500Y-85682147D01*
X99185500Y-85682147D01*
X99185500Y-85667147D01*
X99163318Y-85584362D01*
X99157545Y-85574362D01*
X99120469Y-85510144D01*
X99120463Y-85510136D01*
X99059863Y-85449536D01*
X99059855Y-85449530D01*
X98985644Y-85406685D01*
X98985640Y-85406683D01*
X98985638Y-85406682D01*
X98902853Y-85384500D01*
X98817147Y-85384500D01*
X98734362Y-85406682D01*
X98734355Y-85406685D01*
X98660144Y-85449530D01*
X98660136Y-85449536D01*
X98599536Y-85510136D01*
X98599530Y-85510144D01*
X98556685Y-85584355D01*
X98556682Y-85584362D01*
X98534500Y-85667147D01*
X94175500Y-85667147D01*
X94175500Y-85657147D01*
X94153318Y-85574362D01*
X94138964Y-85549500D01*
X94110469Y-85500144D01*
X94110463Y-85500136D01*
X94049863Y-85439536D01*
X94049855Y-85439530D01*
X93975644Y-85396685D01*
X93975640Y-85396683D01*
X93975638Y-85396682D01*
X93892853Y-85374500D01*
X93807147Y-85374500D01*
X93724362Y-85396682D01*
X93724355Y-85396685D01*
X93650144Y-85439530D01*
X93650136Y-85439536D01*
X93589536Y-85500136D01*
X93589530Y-85500144D01*
X93546685Y-85574355D01*
X93546682Y-85574362D01*
X93524500Y-85657147D01*
X82802828Y-85657147D01*
X82765214Y-85619533D01*
X82765212Y-85619531D01*
X82765209Y-85619529D01*
X82765205Y-85619526D01*
X82685293Y-85573388D01*
X82685290Y-85573387D01*
X82685289Y-85573386D01*
X82685288Y-85573386D01*
X82596144Y-85549500D01*
X82503856Y-85549500D01*
X82414712Y-85573386D01*
X82414711Y-85573386D01*
X82414709Y-85573387D01*
X82414706Y-85573388D01*
X82334794Y-85619526D01*
X82334785Y-85619533D01*
X82269533Y-85684785D01*
X82269526Y-85684794D01*
X82223388Y-85764706D01*
X82223387Y-85764709D01*
X82223387Y-85764710D01*
X82223386Y-85764712D01*
X82199500Y-85853856D01*
X67750500Y-85853856D01*
X67750500Y-84667147D01*
X93534500Y-84667147D01*
X93534500Y-84752853D01*
X93554003Y-84825637D01*
X93556682Y-84835637D01*
X93556685Y-84835644D01*
X93599530Y-84909855D01*
X93599534Y-84909860D01*
X93599535Y-84909862D01*
X93660138Y-84970465D01*
X93660140Y-84970466D01*
X93660144Y-84970469D01*
X93717041Y-85003318D01*
X93734362Y-85013318D01*
X93817147Y-85035500D01*
X93817149Y-85035500D01*
X93902851Y-85035500D01*
X93902853Y-85035500D01*
X93985638Y-85013318D01*
X94059862Y-84970465D01*
X94120465Y-84909862D01*
X94163318Y-84835638D01*
X94185500Y-84752853D01*
X94185500Y-84667147D01*
X94182821Y-84657147D01*
X95534500Y-84657147D01*
X95534500Y-84742853D01*
X95537180Y-84752853D01*
X95556682Y-84825637D01*
X95556685Y-84825644D01*
X95599530Y-84899855D01*
X95599534Y-84899860D01*
X95599535Y-84899862D01*
X95660138Y-84960465D01*
X95660140Y-84960466D01*
X95660144Y-84960469D01*
X95734355Y-85003314D01*
X95734362Y-85003318D01*
X95817147Y-85025500D01*
X95817149Y-85025500D01*
X95902851Y-85025500D01*
X95902853Y-85025500D01*
X95985638Y-85003318D01*
X96059862Y-84960465D01*
X96120465Y-84899862D01*
X96163318Y-84825638D01*
X96185500Y-84742853D01*
X96185500Y-84667147D01*
X97534500Y-84667147D01*
X97534500Y-84752853D01*
X97554003Y-84825637D01*
X97556682Y-84835637D01*
X97556685Y-84835644D01*
X97599530Y-84909855D01*
X97599534Y-84909860D01*
X97599535Y-84909862D01*
X97660138Y-84970465D01*
X97660140Y-84970466D01*
X97660144Y-84970469D01*
X97717041Y-85003318D01*
X97734362Y-85013318D01*
X97817147Y-85035500D01*
X97817149Y-85035500D01*
X97902851Y-85035500D01*
X97902853Y-85035500D01*
X97985638Y-85013318D01*
X98059862Y-84970465D01*
X98120465Y-84909862D01*
X98163318Y-84835638D01*
X98185500Y-84752853D01*
X98185500Y-84667147D01*
X98182821Y-84657147D01*
X101544500Y-84657147D01*
X101544500Y-84742853D01*
X101547180Y-84752853D01*
X101566682Y-84825637D01*
X101566685Y-84825644D01*
X101609530Y-84899855D01*
X101609534Y-84899860D01*
X101609535Y-84899862D01*
X101670138Y-84960465D01*
X101670140Y-84960466D01*
X101670144Y-84960469D01*
X101744355Y-85003314D01*
X101744362Y-85003318D01*
X101827147Y-85025500D01*
X101827149Y-85025500D01*
X101912851Y-85025500D01*
X101912853Y-85025500D01*
X101995638Y-85003318D01*
X102069862Y-84960465D01*
X102130465Y-84899862D01*
X102173318Y-84825638D01*
X102195500Y-84742853D01*
X102195500Y-84657147D01*
X102173318Y-84574362D01*
X102136242Y-84510144D01*
X102130469Y-84500144D01*
X102130463Y-84500136D01*
X102069863Y-84439536D01*
X102069855Y-84439530D01*
X101995644Y-84396685D01*
X101995640Y-84396683D01*
X101995638Y-84396682D01*
X101912853Y-84374500D01*
X101827147Y-84374500D01*
X101744362Y-84396682D01*
X101744355Y-84396685D01*
X101670144Y-84439530D01*
X101670136Y-84439536D01*
X101609536Y-84500136D01*
X101609530Y-84500144D01*
X101566685Y-84574355D01*
X101566682Y-84574362D01*
X101544500Y-84657147D01*
X98182821Y-84657147D01*
X98163318Y-84584362D01*
X98157545Y-84574362D01*
X98120469Y-84510144D01*
X98120463Y-84510136D01*
X98059863Y-84449536D01*
X98059855Y-84449530D01*
X97985644Y-84406685D01*
X97985640Y-84406683D01*
X97985638Y-84406682D01*
X97902853Y-84384500D01*
X97817147Y-84384500D01*
X97734362Y-84406682D01*
X97734355Y-84406685D01*
X97660144Y-84449530D01*
X97660136Y-84449536D01*
X97599536Y-84510136D01*
X97599530Y-84510144D01*
X97556685Y-84584355D01*
X97556682Y-84584362D01*
X97534500Y-84667147D01*
X96185500Y-84667147D01*
X96185500Y-84657147D01*
X96163318Y-84574362D01*
X96126242Y-84510144D01*
X96120469Y-84500144D01*
X96120463Y-84500136D01*
X96059863Y-84439536D01*
X96059855Y-84439530D01*
X95985644Y-84396685D01*
X95985640Y-84396683D01*
X95985638Y-84396682D01*
X95902853Y-84374500D01*
X95817147Y-84374500D01*
X95734362Y-84396682D01*
X95734355Y-84396685D01*
X95660144Y-84439530D01*
X95660136Y-84439536D01*
X95599536Y-84500136D01*
X95599530Y-84500144D01*
X95556685Y-84574355D01*
X95556682Y-84574362D01*
X95534500Y-84657147D01*
X94182821Y-84657147D01*
X94163318Y-84584362D01*
X94157545Y-84574362D01*
X94120469Y-84510144D01*
X94120463Y-84510136D01*
X94059863Y-84449536D01*
X94059855Y-84449530D01*
X93985644Y-84406685D01*
X93985640Y-84406683D01*
X93985638Y-84406682D01*
X93902853Y-84384500D01*
X93817147Y-84384500D01*
X93734362Y-84406682D01*
X93734355Y-84406685D01*
X93660144Y-84449530D01*
X93660136Y-84449536D01*
X93599536Y-84510136D01*
X93599530Y-84510144D01*
X93556685Y-84584355D01*
X93556682Y-84584362D01*
X93534500Y-84667147D01*
X67750500Y-84667147D01*
X67750500Y-84053856D01*
X86849500Y-84053856D01*
X86849500Y-84146143D01*
X86873387Y-84235290D01*
X86873388Y-84235293D01*
X86919526Y-84315205D01*
X86919529Y-84315209D01*
X86919531Y-84315212D01*
X86984788Y-84380469D01*
X86984791Y-84380470D01*
X86984794Y-84380473D01*
X87064706Y-84426611D01*
X87064707Y-84426611D01*
X87064712Y-84426614D01*
X87153856Y-84450500D01*
X87153858Y-84450500D01*
X87246142Y-84450500D01*
X87246144Y-84450500D01*
X87335288Y-84426614D01*
X87415212Y-84380469D01*
X87480469Y-84315212D01*
X87526614Y-84235288D01*
X87550500Y-84146144D01*
X87550500Y-84053856D01*
X87526614Y-83964712D01*
X87526611Y-83964706D01*
X87480473Y-83884794D01*
X87480470Y-83884791D01*
X87480469Y-83884788D01*
X87415212Y-83819531D01*
X87415209Y-83819529D01*
X87415205Y-83819526D01*
X87335293Y-83773388D01*
X87335290Y-83773387D01*
X87335289Y-83773386D01*
X87335288Y-83773386D01*
X87246144Y-83749500D01*
X87153856Y-83749500D01*
X87064712Y-83773386D01*
X87064711Y-83773386D01*
X87064709Y-83773387D01*
X87064706Y-83773388D01*
X86984794Y-83819526D01*
X86984785Y-83819533D01*
X86919533Y-83884785D01*
X86919526Y-83884794D01*
X86873388Y-83964706D01*
X86873387Y-83964709D01*
X86849500Y-84053856D01*
X67750500Y-84053856D01*
X67750500Y-82953856D01*
X93649500Y-82953856D01*
X93649500Y-83046144D01*
X93659856Y-83084794D01*
X93673387Y-83135290D01*
X93673388Y-83135293D01*
X93719526Y-83215205D01*
X93719529Y-83215209D01*
X93719531Y-83215212D01*
X93784788Y-83280469D01*
X93784791Y-83280470D01*
X93784794Y-83280473D01*
X93864706Y-83326611D01*
X93864707Y-83326611D01*
X93864712Y-83326614D01*
X93953856Y-83350500D01*
X93953858Y-83350500D01*
X94046142Y-83350500D01*
X94046144Y-83350500D01*
X94135288Y-83326614D01*
X94215212Y-83280469D01*
X94241825Y-83253856D01*
X98649500Y-83253856D01*
X98649500Y-83346143D01*
X98673387Y-83435290D01*
X98673388Y-83435293D01*
X98719526Y-83515205D01*
X98719529Y-83515209D01*
X98719531Y-83515212D01*
X98784788Y-83580469D01*
X98784791Y-83580470D01*
X98784794Y-83580473D01*
X98864706Y-83626611D01*
X98864707Y-83626611D01*
X98864712Y-83626614D01*
X98953856Y-83650500D01*
X98953858Y-83650500D01*
X99046142Y-83650500D01*
X99046144Y-83650500D01*
X99135288Y-83626614D01*
X99215212Y-83580469D01*
X99280469Y-83515212D01*
X99326614Y-83435288D01*
X99350500Y-83346144D01*
X99350500Y-83253856D01*
X99326614Y-83164712D01*
X99309626Y-83135288D01*
X99280473Y-83084794D01*
X99280470Y-83084791D01*
X99280469Y-83084788D01*
X99215212Y-83019531D01*
X99215209Y-83019529D01*
X99215205Y-83019526D01*
X99135293Y-82973388D01*
X99135290Y-82973387D01*
X99135289Y-82973386D01*
X99135288Y-82973386D01*
X99046144Y-82949500D01*
X98953856Y-82949500D01*
X98864712Y-82973386D01*
X98864711Y-82973386D01*
X98864709Y-82973387D01*
X98864706Y-82973388D01*
X98784794Y-83019526D01*
X98784785Y-83019533D01*
X98719533Y-83084785D01*
X98719526Y-83084794D01*
X98673388Y-83164706D01*
X98673387Y-83164709D01*
X98673386Y-83164711D01*
X98673386Y-83164712D01*
X98659855Y-83215211D01*
X98649500Y-83253856D01*
X94241825Y-83253856D01*
X94280469Y-83215212D01*
X94326614Y-83135288D01*
X94350500Y-83046144D01*
X94350500Y-82953856D01*
X94326614Y-82864712D01*
X94326611Y-82864706D01*
X94280473Y-82784794D01*
X94280470Y-82784791D01*
X94280469Y-82784788D01*
X94215212Y-82719531D01*
X94215209Y-82719529D01*
X94215205Y-82719526D01*
X94135293Y-82673388D01*
X94135290Y-82673387D01*
X94135289Y-82673386D01*
X94135288Y-82673386D01*
X94046144Y-82649500D01*
X93953856Y-82649500D01*
X93864712Y-82673386D01*
X93864711Y-82673386D01*
X93864709Y-82673387D01*
X93864706Y-82673388D01*
X93784794Y-82719526D01*
X93784785Y-82719533D01*
X93719533Y-82784785D01*
X93719526Y-82784794D01*
X93673388Y-82864706D01*
X93673387Y-82864709D01*
X93673386Y-82864711D01*
X93673386Y-82864712D01*
X93649500Y-82953856D01*
X67750500Y-82953856D01*
X67750500Y-80297648D01*
X68599500Y-80297648D01*
X68599500Y-80502351D01*
X68631522Y-80704534D01*
X68694781Y-80899223D01*
X68787715Y-81081613D01*
X68908028Y-81247213D01*
X69052786Y-81391971D01*
X69206786Y-81503856D01*
X69218390Y-81512287D01*
X69334607Y-81571503D01*
X69400776Y-81605218D01*
X69400778Y-81605218D01*
X69400781Y-81605220D01*
X69505137Y-81639127D01*
X69595465Y-81668477D01*
X69696557Y-81684488D01*
X69797648Y-81700500D01*
X69797649Y-81700500D01*
X70002351Y-81700500D01*
X70002352Y-81700500D01*
X70204534Y-81668477D01*
X70399219Y-81605220D01*
X70581610Y-81512287D01*
X70593214Y-81503856D01*
X75699500Y-81503856D01*
X75699500Y-81596144D01*
X75701931Y-81605218D01*
X75723387Y-81685290D01*
X75723388Y-81685293D01*
X75769526Y-81765205D01*
X75769529Y-81765209D01*
X75769531Y-81765212D01*
X75834788Y-81830469D01*
X75834791Y-81830470D01*
X75834794Y-81830473D01*
X75914706Y-81876611D01*
X75914707Y-81876611D01*
X75914712Y-81876614D01*
X76003856Y-81900500D01*
X76003858Y-81900500D01*
X76096142Y-81900500D01*
X76096144Y-81900500D01*
X76185288Y-81876614D01*
X76265212Y-81830469D01*
X76330469Y-81765212D01*
X76376614Y-81685288D01*
X76400500Y-81596144D01*
X76400500Y-81503856D01*
X76376614Y-81414712D01*
X76365470Y-81395410D01*
X76330473Y-81334794D01*
X76330470Y-81334791D01*
X76330469Y-81334788D01*
X76265212Y-81269531D01*
X76265209Y-81269529D01*
X76265205Y-81269526D01*
X76185293Y-81223388D01*
X76185290Y-81223387D01*
X76185289Y-81223386D01*
X76185288Y-81223386D01*
X76096144Y-81199500D01*
X76003856Y-81199500D01*
X75914712Y-81223386D01*
X75914711Y-81223386D01*
X75914709Y-81223387D01*
X75914706Y-81223388D01*
X75834794Y-81269526D01*
X75834785Y-81269533D01*
X75769533Y-81334785D01*
X75769526Y-81334794D01*
X75723388Y-81414706D01*
X75723387Y-81414709D01*
X75723386Y-81414711D01*
X75723386Y-81414712D01*
X75699500Y-81503856D01*
X70593214Y-81503856D01*
X70747219Y-81391966D01*
X70891966Y-81247219D01*
X70891968Y-81247215D01*
X70891971Y-81247213D01*
X70944732Y-81174590D01*
X71012287Y-81081610D01*
X71105220Y-80899219D01*
X71168477Y-80704534D01*
X71200500Y-80502352D01*
X71200500Y-80297648D01*
X71168477Y-80095466D01*
X71105220Y-79900781D01*
X71105218Y-79900778D01*
X71105218Y-79900776D01*
X71071503Y-79834607D01*
X71012287Y-79718390D01*
X71004556Y-79707749D01*
X70891971Y-79552786D01*
X70747213Y-79408028D01*
X70581613Y-79287715D01*
X70581612Y-79287714D01*
X70581610Y-79287713D01*
X70524653Y-79258691D01*
X70399223Y-79194781D01*
X70204534Y-79131522D01*
X70029995Y-79103878D01*
X70002352Y-79099500D01*
X69797648Y-79099500D01*
X69773329Y-79103351D01*
X69595465Y-79131522D01*
X69400776Y-79194781D01*
X69218386Y-79287715D01*
X69052786Y-79408028D01*
X68908028Y-79552786D01*
X68787715Y-79718386D01*
X68694781Y-79900776D01*
X68631522Y-80095465D01*
X68599500Y-80297648D01*
X67750500Y-80297648D01*
X67750500Y-78503856D01*
X81299500Y-78503856D01*
X81299500Y-78596144D01*
X81317584Y-78663635D01*
X81323387Y-78685290D01*
X81323388Y-78685293D01*
X81369526Y-78765205D01*
X81369529Y-78765209D01*
X81369531Y-78765212D01*
X81434788Y-78830469D01*
X81434791Y-78830470D01*
X81434794Y-78830473D01*
X81514706Y-78876611D01*
X81514707Y-78876611D01*
X81514712Y-78876614D01*
X81603856Y-78900500D01*
X81603858Y-78900500D01*
X81696142Y-78900500D01*
X81696144Y-78900500D01*
X81785288Y-78876614D01*
X81865212Y-78830469D01*
X81930469Y-78765212D01*
X81965894Y-78703856D01*
X93999500Y-78703856D01*
X93999500Y-78796144D01*
X94021061Y-78876612D01*
X94023387Y-78885290D01*
X94023388Y-78885293D01*
X94069526Y-78965205D01*
X94069529Y-78965209D01*
X94069531Y-78965212D01*
X94134788Y-79030469D01*
X94134791Y-79030470D01*
X94134794Y-79030473D01*
X94214706Y-79076611D01*
X94214707Y-79076611D01*
X94214712Y-79076614D01*
X94303856Y-79100500D01*
X94303858Y-79100500D01*
X94396142Y-79100500D01*
X94396144Y-79100500D01*
X94485288Y-79076614D01*
X94565212Y-79030469D01*
X94630469Y-78965212D01*
X94676614Y-78885288D01*
X94700500Y-78796144D01*
X94700500Y-78703856D01*
X94676614Y-78614712D01*
X94665892Y-78596141D01*
X94630473Y-78534794D01*
X94630470Y-78534791D01*
X94630469Y-78534788D01*
X94565212Y-78469531D01*
X94565209Y-78469529D01*
X94565205Y-78469526D01*
X94485293Y-78423388D01*
X94485290Y-78423387D01*
X94485289Y-78423386D01*
X94485288Y-78423386D01*
X94396144Y-78399500D01*
X94303856Y-78399500D01*
X94214712Y-78423386D01*
X94214711Y-78423386D01*
X94214709Y-78423387D01*
X94214706Y-78423388D01*
X94134794Y-78469526D01*
X94134785Y-78469533D01*
X94069533Y-78534785D01*
X94069526Y-78534794D01*
X94023388Y-78614706D01*
X94023387Y-78614709D01*
X94023386Y-78614711D01*
X94023386Y-78614712D01*
X93999500Y-78703856D01*
X81965894Y-78703856D01*
X81976614Y-78685288D01*
X82000500Y-78596144D01*
X82000500Y-78503856D01*
X81976614Y-78414712D01*
X81976611Y-78414706D01*
X81930473Y-78334794D01*
X81930470Y-78334791D01*
X81930469Y-78334788D01*
X81865212Y-78269531D01*
X81865209Y-78269529D01*
X81865205Y-78269526D01*
X81785293Y-78223388D01*
X81785290Y-78223387D01*
X81785289Y-78223386D01*
X81785288Y-78223386D01*
X81696144Y-78199500D01*
X81603856Y-78199500D01*
X81514712Y-78223386D01*
X81514711Y-78223386D01*
X81514709Y-78223387D01*
X81514706Y-78223388D01*
X81434794Y-78269526D01*
X81434785Y-78269533D01*
X81369533Y-78334785D01*
X81369526Y-78334794D01*
X81323388Y-78414706D01*
X81323387Y-78414709D01*
X81323386Y-78414711D01*
X81323386Y-78414712D01*
X81299500Y-78503856D01*
X67750500Y-78503856D01*
X67750500Y-75453856D01*
X91149500Y-75453856D01*
X91149500Y-75546144D01*
X91168007Y-75615214D01*
X91173387Y-75635290D01*
X91173388Y-75635293D01*
X91219526Y-75715205D01*
X91219529Y-75715209D01*
X91219531Y-75715212D01*
X91284788Y-75780469D01*
X91284791Y-75780470D01*
X91284794Y-75780473D01*
X91364706Y-75826611D01*
X91364707Y-75826611D01*
X91364712Y-75826614D01*
X91453856Y-75850500D01*
X91453858Y-75850500D01*
X91546142Y-75850500D01*
X91546144Y-75850500D01*
X91635288Y-75826614D01*
X91715212Y-75780469D01*
X91780469Y-75715212D01*
X91826614Y-75635288D01*
X91850500Y-75546144D01*
X91850500Y-75453856D01*
X91826614Y-75364712D01*
X91826611Y-75364706D01*
X91820347Y-75353856D01*
X98299500Y-75353856D01*
X98299500Y-75446144D01*
X98301566Y-75453856D01*
X98323387Y-75535290D01*
X98323388Y-75535293D01*
X98369526Y-75615205D01*
X98369529Y-75615209D01*
X98369531Y-75615212D01*
X98434788Y-75680469D01*
X98434791Y-75680470D01*
X98434794Y-75680473D01*
X98514706Y-75726611D01*
X98514707Y-75726611D01*
X98514712Y-75726614D01*
X98603856Y-75750500D01*
X98603858Y-75750500D01*
X98696142Y-75750500D01*
X98696144Y-75750500D01*
X98785288Y-75726614D01*
X98865212Y-75680469D01*
X98930469Y-75615212D01*
X98976614Y-75535288D01*
X99000500Y-75446144D01*
X99000500Y-75353856D01*
X98976614Y-75264712D01*
X98976611Y-75264706D01*
X98930473Y-75184794D01*
X98930470Y-75184791D01*
X98930469Y-75184788D01*
X98865212Y-75119531D01*
X98865209Y-75119529D01*
X98865205Y-75119526D01*
X98785293Y-75073388D01*
X98785290Y-75073387D01*
X98785289Y-75073386D01*
X98785288Y-75073386D01*
X98696144Y-75049500D01*
X98603856Y-75049500D01*
X98514712Y-75073386D01*
X98514711Y-75073386D01*
X98514709Y-75073387D01*
X98514706Y-75073388D01*
X98434794Y-75119526D01*
X98434785Y-75119533D01*
X98369533Y-75184785D01*
X98369526Y-75184794D01*
X98323388Y-75264706D01*
X98323387Y-75264709D01*
X98323386Y-75264711D01*
X98323386Y-75264712D01*
X98299500Y-75353856D01*
X91820347Y-75353856D01*
X91780473Y-75284794D01*
X91780470Y-75284791D01*
X91780469Y-75284788D01*
X91715212Y-75219531D01*
X91715209Y-75219529D01*
X91715205Y-75219526D01*
X91635293Y-75173388D01*
X91635290Y-75173387D01*
X91635289Y-75173386D01*
X91635288Y-75173386D01*
X91546144Y-75149500D01*
X91453856Y-75149500D01*
X91364712Y-75173386D01*
X91364711Y-75173386D01*
X91364709Y-75173387D01*
X91364706Y-75173388D01*
X91284794Y-75219526D01*
X91284785Y-75219533D01*
X91219533Y-75284785D01*
X91219526Y-75284794D01*
X91173388Y-75364706D01*
X91173387Y-75364709D01*
X91173386Y-75364711D01*
X91173386Y-75364712D01*
X91149500Y-75453856D01*
X67750500Y-75453856D01*
X67750500Y-74705258D01*
X85883117Y-74705258D01*
X85883117Y-74797545D01*
X85907004Y-74886692D01*
X85907005Y-74886695D01*
X85953143Y-74966607D01*
X85953146Y-74966611D01*
X85953148Y-74966614D01*
X86018405Y-75031871D01*
X86018408Y-75031872D01*
X86018411Y-75031875D01*
X86098323Y-75078013D01*
X86098324Y-75078013D01*
X86098329Y-75078016D01*
X86187473Y-75101902D01*
X86187475Y-75101902D01*
X86279759Y-75101902D01*
X86279761Y-75101902D01*
X86368905Y-75078016D01*
X86448829Y-75031871D01*
X86514086Y-74966614D01*
X86560231Y-74886690D01*
X86584117Y-74797546D01*
X86584117Y-74705258D01*
X86560231Y-74616114D01*
X86525235Y-74555500D01*
X86514090Y-74536196D01*
X86514087Y-74536193D01*
X86514086Y-74536190D01*
X86448829Y-74470933D01*
X86448826Y-74470931D01*
X86448822Y-74470928D01*
X86368910Y-74424790D01*
X86368907Y-74424789D01*
X86368906Y-74424788D01*
X86368905Y-74424788D01*
X86279761Y-74400902D01*
X86187473Y-74400902D01*
X86098329Y-74424788D01*
X86098328Y-74424788D01*
X86098326Y-74424789D01*
X86098323Y-74424790D01*
X86018411Y-74470928D01*
X86018402Y-74470935D01*
X85953150Y-74536187D01*
X85953143Y-74536196D01*
X85907005Y-74616108D01*
X85907004Y-74616111D01*
X85883117Y-74705258D01*
X67750500Y-74705258D01*
X67750500Y-73907147D01*
X82674500Y-73907147D01*
X82674500Y-73992853D01*
X82684491Y-74030138D01*
X82696682Y-74075637D01*
X82696685Y-74075644D01*
X82739530Y-74149855D01*
X82739534Y-74149860D01*
X82739535Y-74149862D01*
X82800138Y-74210465D01*
X82800140Y-74210466D01*
X82800144Y-74210469D01*
X82874355Y-74253314D01*
X82874362Y-74253318D01*
X82957147Y-74275500D01*
X82957149Y-74275500D01*
X83042851Y-74275500D01*
X83042853Y-74275500D01*
X83125638Y-74253318D01*
X83199862Y-74210465D01*
X83223180Y-74187147D01*
X95464500Y-74187147D01*
X95464500Y-74272853D01*
X95465210Y-74275500D01*
X95486682Y-74355637D01*
X95486685Y-74355644D01*
X95529530Y-74429855D01*
X95529534Y-74429860D01*
X95529535Y-74429862D01*
X95590138Y-74490465D01*
X95590140Y-74490466D01*
X95590144Y-74490469D01*
X95664355Y-74533314D01*
X95664362Y-74533318D01*
X95747147Y-74555500D01*
X95747149Y-74555500D01*
X95832851Y-74555500D01*
X95832853Y-74555500D01*
X95915638Y-74533318D01*
X95989862Y-74490465D01*
X96050465Y-74429862D01*
X96093318Y-74355638D01*
X96115500Y-74272853D01*
X96115500Y-74187147D01*
X96093318Y-74104362D01*
X96076738Y-74075644D01*
X96050469Y-74030144D01*
X96050463Y-74030136D01*
X95989863Y-73969536D01*
X95989855Y-73969530D01*
X95915644Y-73926685D01*
X95915640Y-73926683D01*
X95915638Y-73926682D01*
X95832853Y-73904500D01*
X95747147Y-73904500D01*
X95664362Y-73926682D01*
X95664355Y-73926685D01*
X95590144Y-73969530D01*
X95590136Y-73969536D01*
X95529536Y-74030136D01*
X95529530Y-74030144D01*
X95486685Y-74104355D01*
X95486682Y-74104362D01*
X95464500Y-74187147D01*
X83223180Y-74187147D01*
X83260465Y-74149862D01*
X83303318Y-74075638D01*
X83325500Y-73992853D01*
X83325500Y-73907147D01*
X83303318Y-73824362D01*
X83303314Y-73824355D01*
X83260469Y-73750144D01*
X83260463Y-73750136D01*
X83199863Y-73689536D01*
X83199855Y-73689530D01*
X83125644Y-73646685D01*
X83125640Y-73646683D01*
X83125638Y-73646682D01*
X83042853Y-73624500D01*
X82957147Y-73624500D01*
X82874362Y-73646682D01*
X82874355Y-73646685D01*
X82800144Y-73689530D01*
X82800136Y-73689536D01*
X82739536Y-73750136D01*
X82739530Y-73750144D01*
X82696685Y-73824355D01*
X82696682Y-73824362D01*
X82674500Y-73907147D01*
X67750500Y-73907147D01*
X67750500Y-71957147D01*
X83174500Y-71957147D01*
X83174500Y-72042852D01*
X83196682Y-72125637D01*
X83196685Y-72125644D01*
X83239530Y-72199855D01*
X83239534Y-72199860D01*
X83239535Y-72199862D01*
X83300138Y-72260465D01*
X83300140Y-72260466D01*
X83300144Y-72260469D01*
X83374355Y-72303314D01*
X83374362Y-72303318D01*
X83457147Y-72325500D01*
X83457149Y-72325500D01*
X83542851Y-72325500D01*
X83542853Y-72325500D01*
X83625638Y-72303318D01*
X83699862Y-72260465D01*
X83760465Y-72199862D01*
X83803318Y-72125638D01*
X83825500Y-72042853D01*
X83825500Y-71957147D01*
X95474500Y-71957147D01*
X95474500Y-72042852D01*
X95496682Y-72125637D01*
X95496685Y-72125644D01*
X95539530Y-72199855D01*
X95539534Y-72199860D01*
X95539535Y-72199862D01*
X95600138Y-72260465D01*
X95600140Y-72260466D01*
X95600144Y-72260469D01*
X95674355Y-72303314D01*
X95674362Y-72303318D01*
X95757147Y-72325500D01*
X95757149Y-72325500D01*
X95842851Y-72325500D01*
X95842853Y-72325500D01*
X95925638Y-72303318D01*
X95999862Y-72260465D01*
X96060465Y-72199862D01*
X96103318Y-72125638D01*
X96125500Y-72042853D01*
X96125500Y-71957147D01*
X96103318Y-71874362D01*
X96081911Y-71837284D01*
X96060469Y-71800144D01*
X96060463Y-71800136D01*
X95999863Y-71739536D01*
X95999855Y-71739530D01*
X95925644Y-71696685D01*
X95925640Y-71696683D01*
X95925638Y-71696682D01*
X95842853Y-71674500D01*
X95757147Y-71674500D01*
X95674362Y-71696682D01*
X95674355Y-71696685D01*
X95600144Y-71739530D01*
X95600136Y-71739536D01*
X95539536Y-71800136D01*
X95539530Y-71800144D01*
X95496685Y-71874355D01*
X95496682Y-71874362D01*
X95474500Y-71957147D01*
X83825500Y-71957147D01*
X83803318Y-71874362D01*
X83781911Y-71837284D01*
X83760469Y-71800144D01*
X83760463Y-71800136D01*
X83699863Y-71739536D01*
X83699855Y-71739530D01*
X83625644Y-71696685D01*
X83625640Y-71696683D01*
X83625638Y-71696682D01*
X83542853Y-71674500D01*
X83457147Y-71674500D01*
X83374362Y-71696682D01*
X83374355Y-71696685D01*
X83300144Y-71739530D01*
X83300136Y-71739536D01*
X83239536Y-71800136D01*
X83239530Y-71800144D01*
X83196685Y-71874355D01*
X83196682Y-71874362D01*
X83174500Y-71957147D01*
X67750500Y-71957147D01*
X67750500Y-70807147D01*
X90124500Y-70807147D01*
X90124500Y-70892852D01*
X90146682Y-70975637D01*
X90146685Y-70975644D01*
X90189530Y-71049855D01*
X90189534Y-71049860D01*
X90189535Y-71049862D01*
X90250138Y-71110465D01*
X90250140Y-71110466D01*
X90250144Y-71110469D01*
X90324355Y-71153314D01*
X90324362Y-71153318D01*
X90407147Y-71175500D01*
X90407149Y-71175500D01*
X90492851Y-71175500D01*
X90492853Y-71175500D01*
X90575638Y-71153318D01*
X90649862Y-71110465D01*
X90710465Y-71049862D01*
X90753318Y-70975638D01*
X90759154Y-70953856D01*
X98399500Y-70953856D01*
X98399500Y-71046144D01*
X98416734Y-71110463D01*
X98423387Y-71135290D01*
X98423388Y-71135293D01*
X98469526Y-71215205D01*
X98469529Y-71215209D01*
X98469531Y-71215212D01*
X98534788Y-71280469D01*
X98534791Y-71280470D01*
X98534794Y-71280473D01*
X98614706Y-71326611D01*
X98614707Y-71326611D01*
X98614712Y-71326614D01*
X98703856Y-71350500D01*
X98703858Y-71350500D01*
X98796142Y-71350500D01*
X98796144Y-71350500D01*
X98885288Y-71326614D01*
X98965212Y-71280469D01*
X99030469Y-71215212D01*
X99076614Y-71135288D01*
X99100500Y-71046144D01*
X99100500Y-70953856D01*
X99076614Y-70864712D01*
X99055044Y-70827352D01*
X99030473Y-70784794D01*
X99030470Y-70784791D01*
X99030469Y-70784788D01*
X98965212Y-70719531D01*
X98965207Y-70719528D01*
X98885293Y-70673388D01*
X98885290Y-70673387D01*
X98885289Y-70673386D01*
X98885288Y-70673386D01*
X98796144Y-70649500D01*
X98703856Y-70649500D01*
X98614712Y-70673386D01*
X98614711Y-70673386D01*
X98614709Y-70673387D01*
X98614706Y-70673388D01*
X98534794Y-70719526D01*
X98534785Y-70719533D01*
X98469533Y-70784785D01*
X98469526Y-70784794D01*
X98423388Y-70864706D01*
X98423387Y-70864709D01*
X98423386Y-70864711D01*
X98423386Y-70864712D01*
X98399500Y-70953856D01*
X90759154Y-70953856D01*
X90775500Y-70892853D01*
X90775500Y-70807147D01*
X90753318Y-70724362D01*
X90750526Y-70719526D01*
X90710469Y-70650144D01*
X90710463Y-70650136D01*
X90682975Y-70622648D01*
X103974500Y-70622648D01*
X103974500Y-70827351D01*
X104006522Y-71029534D01*
X104069781Y-71224223D01*
X104162715Y-71406613D01*
X104283028Y-71572213D01*
X104427786Y-71716971D01*
X104582749Y-71829556D01*
X104593390Y-71837287D01*
X104666154Y-71874362D01*
X104775776Y-71930218D01*
X104775778Y-71930218D01*
X104775781Y-71930220D01*
X104858654Y-71957147D01*
X104970465Y-71993477D01*
X105071557Y-72009488D01*
X105172648Y-72025500D01*
X105172649Y-72025500D01*
X105377351Y-72025500D01*
X105377352Y-72025500D01*
X105579534Y-71993477D01*
X105774219Y-71930220D01*
X105956610Y-71837287D01*
X106091154Y-71739536D01*
X106122213Y-71716971D01*
X106122215Y-71716968D01*
X106122219Y-71716966D01*
X106266966Y-71572219D01*
X106266968Y-71572215D01*
X106266971Y-71572213D01*
X106319732Y-71499590D01*
X106387287Y-71406610D01*
X106480220Y-71224219D01*
X106543477Y-71029534D01*
X106575500Y-70827352D01*
X106575500Y-70622648D01*
X106543477Y-70420465D01*
X106480218Y-70225776D01*
X106446503Y-70159607D01*
X106387287Y-70043390D01*
X106379556Y-70032749D01*
X106266971Y-69877786D01*
X106122213Y-69733028D01*
X105956613Y-69612715D01*
X105956612Y-69612714D01*
X105956610Y-69612713D01*
X105899653Y-69583691D01*
X105774223Y-69519781D01*
X105579534Y-69456522D01*
X105404995Y-69428878D01*
X105377352Y-69424500D01*
X105172648Y-69424500D01*
X105148329Y-69428351D01*
X104970465Y-69456522D01*
X104775776Y-69519781D01*
X104593386Y-69612715D01*
X104427786Y-69733028D01*
X104283028Y-69877786D01*
X104162715Y-70043386D01*
X104069781Y-70225776D01*
X104006522Y-70420465D01*
X103974500Y-70622648D01*
X90682975Y-70622648D01*
X90649863Y-70589536D01*
X90649855Y-70589530D01*
X90575644Y-70546685D01*
X90575640Y-70546683D01*
X90575638Y-70546682D01*
X90492853Y-70524500D01*
X90407147Y-70524500D01*
X90324362Y-70546682D01*
X90324355Y-70546685D01*
X90250144Y-70589530D01*
X90250136Y-70589536D01*
X90189536Y-70650136D01*
X90189530Y-70650144D01*
X90146685Y-70724355D01*
X90146682Y-70724362D01*
X90124500Y-70807147D01*
X67750500Y-70807147D01*
X67750500Y-69506092D01*
X67751097Y-69493938D01*
X67754721Y-69457147D01*
X82674500Y-69457147D01*
X82674500Y-69542853D01*
X82693220Y-69612715D01*
X82696682Y-69625637D01*
X82696685Y-69625644D01*
X82739530Y-69699855D01*
X82739534Y-69699860D01*
X82739535Y-69699862D01*
X82800138Y-69760465D01*
X82800140Y-69760466D01*
X82800144Y-69760469D01*
X82874355Y-69803314D01*
X82874362Y-69803318D01*
X82957147Y-69825500D01*
X82957149Y-69825500D01*
X83042851Y-69825500D01*
X83042853Y-69825500D01*
X83125638Y-69803318D01*
X83199862Y-69760465D01*
X83260465Y-69699862D01*
X83303318Y-69625638D01*
X83325500Y-69542853D01*
X83325500Y-69457147D01*
X94280440Y-69457147D01*
X94280440Y-69542853D01*
X94299160Y-69612715D01*
X94302622Y-69625637D01*
X94302625Y-69625644D01*
X94345470Y-69699855D01*
X94345474Y-69699860D01*
X94345475Y-69699862D01*
X94406078Y-69760465D01*
X94406080Y-69760466D01*
X94406084Y-69760469D01*
X94480295Y-69803314D01*
X94480302Y-69803318D01*
X94563087Y-69825500D01*
X94563089Y-69825500D01*
X94648791Y-69825500D01*
X94648793Y-69825500D01*
X94731578Y-69803318D01*
X94805802Y-69760465D01*
X94866405Y-69699862D01*
X94909258Y-69625638D01*
X94931440Y-69542853D01*
X94931440Y-69457147D01*
X94909258Y-69374362D01*
X94897375Y-69353780D01*
X94866409Y-69300144D01*
X94866403Y-69300136D01*
X94805803Y-69239536D01*
X94805795Y-69239530D01*
X94731584Y-69196685D01*
X94731580Y-69196683D01*
X94731578Y-69196682D01*
X94648793Y-69174500D01*
X94563087Y-69174500D01*
X94480302Y-69196682D01*
X94480295Y-69196685D01*
X94406084Y-69239530D01*
X94406076Y-69239536D01*
X94345476Y-69300136D01*
X94345470Y-69300144D01*
X94302625Y-69374355D01*
X94302622Y-69374362D01*
X94280440Y-69457147D01*
X83325500Y-69457147D01*
X83303318Y-69374362D01*
X83291435Y-69353780D01*
X83260469Y-69300144D01*
X83260463Y-69300136D01*
X83199863Y-69239536D01*
X83199855Y-69239530D01*
X83125644Y-69196685D01*
X83125640Y-69196683D01*
X83125638Y-69196682D01*
X83042853Y-69174500D01*
X82957147Y-69174500D01*
X82874362Y-69196682D01*
X82874355Y-69196685D01*
X82800144Y-69239530D01*
X82800136Y-69239536D01*
X82739536Y-69300136D01*
X82739530Y-69300144D01*
X82696685Y-69374355D01*
X82696682Y-69374362D01*
X82674500Y-69457147D01*
X67754721Y-69457147D01*
X67756718Y-69436866D01*
X67756718Y-69436865D01*
X67760418Y-69399294D01*
X67763704Y-69365930D01*
X67768442Y-69342104D01*
X67804010Y-69224855D01*
X67813306Y-69202413D01*
X67871061Y-69094363D01*
X67884556Y-69074165D01*
X67962279Y-68979458D01*
X67979458Y-68962279D01*
X68074165Y-68884556D01*
X68094363Y-68871061D01*
X68202413Y-68813306D01*
X68224855Y-68804010D01*
X68342104Y-68768442D01*
X68365928Y-68763704D01*
X68484614Y-68752015D01*
X68493939Y-68751097D01*
X68506092Y-68750500D01*
X68544170Y-68750500D01*
X74950172Y-68750500D01*
X75115814Y-68750500D01*
X75140354Y-68755408D01*
X75165163Y-68750500D01*
X75190449Y-68750500D01*
X75213567Y-68740924D01*
X75238114Y-68736068D01*
X75259152Y-68722042D01*
X75282518Y-68712364D01*
X75291530Y-68703350D01*
X75310424Y-68687860D01*
X75755412Y-68391203D01*
X75755412Y-68391202D01*
X75881495Y-68307147D01*
X87631040Y-68307147D01*
X87631040Y-68392852D01*
X87653222Y-68475637D01*
X87653225Y-68475644D01*
X87696070Y-68549855D01*
X87696074Y-68549860D01*
X87696075Y-68549862D01*
X87756678Y-68610465D01*
X87756680Y-68610466D01*
X87756684Y-68610469D01*
X87830895Y-68653314D01*
X87830902Y-68653318D01*
X87913687Y-68675500D01*
X87913689Y-68675500D01*
X87999391Y-68675500D01*
X87999393Y-68675500D01*
X88082178Y-68653318D01*
X88156402Y-68610465D01*
X88217005Y-68549862D01*
X88259858Y-68475638D01*
X88282040Y-68392853D01*
X88282040Y-68307147D01*
X88259858Y-68224362D01*
X88259854Y-68224355D01*
X88217009Y-68150144D01*
X88217003Y-68150136D01*
X88156403Y-68089536D01*
X88156395Y-68089530D01*
X88082184Y-68046685D01*
X88082180Y-68046683D01*
X88082178Y-68046682D01*
X87999393Y-68024500D01*
X87913687Y-68024500D01*
X87830902Y-68046682D01*
X87830895Y-68046685D01*
X87756684Y-68089530D01*
X87756676Y-68089536D01*
X87696076Y-68150136D01*
X87696070Y-68150144D01*
X87653225Y-68224355D01*
X87653222Y-68224362D01*
X87631040Y-68307147D01*
X75881495Y-68307147D01*
X77911431Y-66953856D01*
X79049500Y-66953856D01*
X79049500Y-67046143D01*
X79073387Y-67135290D01*
X79073388Y-67135293D01*
X79119526Y-67215205D01*
X79119529Y-67215209D01*
X79119531Y-67215212D01*
X79184788Y-67280469D01*
X79184791Y-67280470D01*
X79184794Y-67280473D01*
X79264706Y-67326611D01*
X79264707Y-67326611D01*
X79264712Y-67326614D01*
X79353856Y-67350500D01*
X79353858Y-67350500D01*
X79446142Y-67350500D01*
X79446144Y-67350500D01*
X79535288Y-67326614D01*
X79615212Y-67280469D01*
X79680469Y-67215212D01*
X79726614Y-67135288D01*
X79750500Y-67046144D01*
X79750500Y-66953856D01*
X79726614Y-66864712D01*
X79726611Y-66864706D01*
X79680473Y-66784794D01*
X79680470Y-66784791D01*
X79680469Y-66784788D01*
X79615212Y-66719531D01*
X79615209Y-66719529D01*
X79615205Y-66719526D01*
X79535293Y-66673388D01*
X79535290Y-66673387D01*
X79535289Y-66673386D01*
X79535288Y-66673386D01*
X79446144Y-66649500D01*
X79353856Y-66649500D01*
X79264712Y-66673386D01*
X79264711Y-66673386D01*
X79264709Y-66673387D01*
X79264706Y-66673388D01*
X79184794Y-66719526D01*
X79184785Y-66719533D01*
X79119533Y-66784785D01*
X79119526Y-66784794D01*
X79073388Y-66864706D01*
X79073387Y-66864709D01*
X79049500Y-66953856D01*
X77911431Y-66953856D01*
X81318533Y-64682455D01*
X81341897Y-64672778D01*
X81359592Y-64655082D01*
X81380412Y-64641203D01*
X81387722Y-64630286D01*
X81403066Y-64611608D01*
X81412364Y-64602311D01*
X81417242Y-64590532D01*
X81428770Y-64568991D01*
X81435864Y-64558401D01*
X81440823Y-64533603D01*
X81450500Y-64510242D01*
X81450500Y-64485221D01*
X81455408Y-64460681D01*
X81452857Y-64447784D01*
X81450500Y-64423721D01*
X81450500Y-56728856D01*
X83124500Y-56728856D01*
X83124500Y-56821143D01*
X83148387Y-56910290D01*
X83148388Y-56910293D01*
X83194526Y-56990205D01*
X83194529Y-56990209D01*
X83194531Y-56990212D01*
X83259788Y-57055469D01*
X83259791Y-57055470D01*
X83259794Y-57055473D01*
X83339706Y-57101611D01*
X83339707Y-57101611D01*
X83339712Y-57101614D01*
X83428856Y-57125500D01*
X83428858Y-57125500D01*
X83521142Y-57125500D01*
X83521144Y-57125500D01*
X83610288Y-57101614D01*
X83690212Y-57055469D01*
X83755469Y-56990212D01*
X83801614Y-56910288D01*
X83825500Y-56821144D01*
X83825500Y-56728856D01*
X83801614Y-56639712D01*
X83801611Y-56639706D01*
X83755473Y-56559794D01*
X83755470Y-56559791D01*
X83755469Y-56559788D01*
X83690212Y-56494531D01*
X83690209Y-56494529D01*
X83690205Y-56494526D01*
X83610293Y-56448388D01*
X83610290Y-56448387D01*
X83610289Y-56448386D01*
X83610288Y-56448386D01*
X83521144Y-56424500D01*
X83428856Y-56424500D01*
X83339712Y-56448386D01*
X83339711Y-56448386D01*
X83339709Y-56448387D01*
X83339706Y-56448388D01*
X83259794Y-56494526D01*
X83259785Y-56494533D01*
X83194533Y-56559785D01*
X83194526Y-56559794D01*
X83148388Y-56639706D01*
X83148387Y-56639709D01*
X83124500Y-56728856D01*
X81450500Y-56728856D01*
X81450500Y-56054124D01*
X81458262Y-56027689D01*
X81462695Y-56000500D01*
X81469019Y-55991054D01*
X81470185Y-55987085D01*
X81482331Y-55971173D01*
X81520416Y-55928856D01*
X90749500Y-55928856D01*
X90749500Y-56021143D01*
X90773387Y-56110290D01*
X90773388Y-56110293D01*
X90819526Y-56190205D01*
X90819529Y-56190209D01*
X90819531Y-56190212D01*
X90884788Y-56255469D01*
X90884791Y-56255470D01*
X90884794Y-56255473D01*
X90964706Y-56301611D01*
X90964707Y-56301611D01*
X90964712Y-56301614D01*
X91053856Y-56325500D01*
X91053858Y-56325500D01*
X91146142Y-56325500D01*
X91146144Y-56325500D01*
X91235288Y-56301614D01*
X91315212Y-56255469D01*
X91380469Y-56190212D01*
X91426614Y-56110288D01*
X91450500Y-56021144D01*
X91450500Y-55928856D01*
X91426614Y-55839712D01*
X91415600Y-55820635D01*
X91380473Y-55759794D01*
X91380470Y-55759791D01*
X91380469Y-55759788D01*
X91315212Y-55694531D01*
X91315209Y-55694529D01*
X91315205Y-55694526D01*
X91235293Y-55648388D01*
X91235290Y-55648387D01*
X91235289Y-55648386D01*
X91235288Y-55648386D01*
X91146144Y-55624500D01*
X91053856Y-55624500D01*
X90964712Y-55648386D01*
X90964711Y-55648386D01*
X90964709Y-55648387D01*
X90964706Y-55648388D01*
X90884794Y-55694526D01*
X90884785Y-55694533D01*
X90819533Y-55759785D01*
X90819526Y-55759794D01*
X90773388Y-55839706D01*
X90773387Y-55839709D01*
X90749500Y-55928856D01*
X81520416Y-55928856D01*
X81569947Y-55873821D01*
X82217914Y-55153856D01*
X84149500Y-55153856D01*
X84149500Y-55246143D01*
X84173387Y-55335290D01*
X84173388Y-55335293D01*
X84219526Y-55415205D01*
X84219529Y-55415209D01*
X84219531Y-55415212D01*
X84284788Y-55480469D01*
X84284791Y-55480470D01*
X84284794Y-55480473D01*
X84364706Y-55526611D01*
X84364707Y-55526611D01*
X84364712Y-55526614D01*
X84453856Y-55550500D01*
X84453858Y-55550500D01*
X84546142Y-55550500D01*
X84546144Y-55550500D01*
X84635288Y-55526614D01*
X84715212Y-55480469D01*
X84780469Y-55415212D01*
X84826614Y-55335288D01*
X84850500Y-55246144D01*
X84850500Y-55153856D01*
X84826614Y-55064712D01*
X84826611Y-55064706D01*
X84780473Y-54984794D01*
X84780470Y-54984791D01*
X84780469Y-54984788D01*
X84715212Y-54919531D01*
X84715209Y-54919529D01*
X84715205Y-54919526D01*
X84635293Y-54873388D01*
X84635290Y-54873387D01*
X84635289Y-54873386D01*
X84635288Y-54873386D01*
X84546144Y-54849500D01*
X84453856Y-54849500D01*
X84364712Y-54873386D01*
X84364711Y-54873386D01*
X84364709Y-54873387D01*
X84364706Y-54873388D01*
X84284794Y-54919526D01*
X84284785Y-54919533D01*
X84219533Y-54984785D01*
X84219526Y-54984794D01*
X84173388Y-55064706D01*
X84173387Y-55064709D01*
X84149500Y-55153856D01*
X82217914Y-55153856D01*
X82279622Y-55085291D01*
X82284093Y-55080581D01*
X82306629Y-55058046D01*
X82306629Y-55058045D01*
X82312364Y-55052311D01*
X82312365Y-55052307D01*
X82316087Y-55046738D01*
X82319527Y-55040954D01*
X82319526Y-55040954D01*
X82319528Y-55040953D01*
X82332871Y-55003246D01*
X82335187Y-54997210D01*
X82350500Y-54960242D01*
X82350500Y-54960241D01*
X82351815Y-54953629D01*
X82352773Y-54947011D01*
X82350671Y-54907070D01*
X82350500Y-54900552D01*
X82350500Y-53660587D01*
X82350499Y-53660584D01*
X82312364Y-53568517D01*
X82241897Y-53498050D01*
X82149829Y-53459914D01*
X82149828Y-53459914D01*
X81574500Y-53459914D01*
X81507461Y-53440229D01*
X81461706Y-53387425D01*
X81450500Y-53335914D01*
X81450500Y-52951717D01*
X89747361Y-52951717D01*
X89747361Y-53044004D01*
X89771248Y-53133151D01*
X89771249Y-53133154D01*
X89817387Y-53213066D01*
X89817390Y-53213070D01*
X89817392Y-53213073D01*
X89882649Y-53278330D01*
X89882652Y-53278331D01*
X89882655Y-53278334D01*
X89962567Y-53324472D01*
X89962568Y-53324472D01*
X89962573Y-53324475D01*
X90051717Y-53348361D01*
X90051719Y-53348361D01*
X90144003Y-53348361D01*
X90144005Y-53348361D01*
X90233149Y-53324475D01*
X90313073Y-53278330D01*
X90378330Y-53213073D01*
X90424475Y-53133149D01*
X90448361Y-53044005D01*
X90448361Y-52951717D01*
X90424475Y-52862573D01*
X90424472Y-52862567D01*
X90378334Y-52782655D01*
X90378331Y-52782652D01*
X90378330Y-52782649D01*
X90313073Y-52717392D01*
X90313070Y-52717390D01*
X90313066Y-52717387D01*
X90233154Y-52671249D01*
X90233151Y-52671248D01*
X90233150Y-52671247D01*
X90233149Y-52671247D01*
X90144005Y-52647361D01*
X90051717Y-52647361D01*
X89962573Y-52671247D01*
X89962572Y-52671247D01*
X89962570Y-52671248D01*
X89962567Y-52671249D01*
X89882655Y-52717387D01*
X89882646Y-52717394D01*
X89817394Y-52782646D01*
X89817387Y-52782655D01*
X89771249Y-52862567D01*
X89771248Y-52862570D01*
X89747361Y-52951717D01*
X81450500Y-52951717D01*
X81450500Y-52065536D01*
X81470185Y-51998497D01*
X81486814Y-51977859D01*
X82210818Y-51253856D01*
X85308607Y-51253856D01*
X85308607Y-51346143D01*
X85332494Y-51435290D01*
X85332495Y-51435293D01*
X85378633Y-51515205D01*
X85378636Y-51515209D01*
X85378638Y-51515212D01*
X85443895Y-51580469D01*
X85443898Y-51580470D01*
X85443901Y-51580473D01*
X85523813Y-51626611D01*
X85523814Y-51626611D01*
X85523819Y-51626614D01*
X85612963Y-51650500D01*
X85612965Y-51650500D01*
X85705249Y-51650500D01*
X85705251Y-51650500D01*
X85794395Y-51626614D01*
X85874319Y-51580469D01*
X85939576Y-51515212D01*
X85985721Y-51435288D01*
X86009607Y-51346144D01*
X86009607Y-51253856D01*
X85985721Y-51164712D01*
X85985718Y-51164706D01*
X85939580Y-51084794D01*
X85939577Y-51084791D01*
X85939576Y-51084788D01*
X85874319Y-51019531D01*
X85874316Y-51019529D01*
X85874312Y-51019526D01*
X85794400Y-50973388D01*
X85794397Y-50973387D01*
X85794396Y-50973386D01*
X85794395Y-50973386D01*
X85705251Y-50949500D01*
X85612963Y-50949500D01*
X85523819Y-50973386D01*
X85523818Y-50973386D01*
X85523816Y-50973387D01*
X85523813Y-50973388D01*
X85443901Y-51019526D01*
X85443892Y-51019533D01*
X85378640Y-51084785D01*
X85378633Y-51084794D01*
X85332495Y-51164706D01*
X85332494Y-51164709D01*
X85308607Y-51253856D01*
X82210818Y-51253856D01*
X82576990Y-50887684D01*
X82612252Y-50852479D01*
X82612254Y-50852473D01*
X82612360Y-50852314D01*
X82612364Y-50852311D01*
X82631222Y-50806783D01*
X82650461Y-50760440D01*
X82650461Y-50760433D01*
X82650500Y-50760241D01*
X82650500Y-50711073D01*
X82654008Y-46269438D01*
X82654008Y-46269417D01*
X82654018Y-46258236D01*
X82654050Y-46258153D01*
X82654052Y-46223625D01*
X82654063Y-46223586D01*
X82655577Y-46204361D01*
X82663197Y-46156265D01*
X82675180Y-46119388D01*
X82692800Y-46084810D01*
X82715592Y-46053440D01*
X82743033Y-46025997D01*
X82744935Y-46024615D01*
X82745566Y-46023536D01*
X82774406Y-46003202D01*
X82808978Y-45985585D01*
X82845866Y-45973597D01*
X82893856Y-45965992D01*
X82913249Y-45964465D01*
X82947746Y-45964462D01*
X82947746Y-45964461D01*
X82958454Y-45964461D01*
X82958980Y-45964413D01*
X86599747Y-45960914D01*
X91543308Y-45964428D01*
G37*
%TD.AperFunction*%
%TD*%
M02*
